solid bhs_submission_model08
  facet normal -0.978887929 -0.00503410662 0.204335704
    outer loop
      vertex -1.19148259 0.244175903 0.108258752
      vertex -1.22039919 -0.0555230288 -0.0376522619
      vertex -1.18343478 -0.307958947 0.133209841
    endloop
  endfacet
  facet normal -0.978887929 -0.00503410662 0.204335704
    outer loop
      vertex -1.19148259 0.244175903 0.108258752
      vertex -1.18343478 -0.307958947 0.133209841
      vertex -1.17457845 -0.301067007 0.175806619
    endloop
  endfacet
  facet normal -0.978887929 -0.00503410662 0.204335704
    outer loop
      vertex -1.19148259 0.244175903 0.108258752
      vertex -1.17457845 -0.301067007 0.175806619
      vertex -1.13164373 0.0390143107 0.389867539
    endloop
  endfacet
  facet normal -0.978887929 -0.00503410662 0.204335704
    outer loop
      vertex -1.19148259 0.244175903 0.108258752
      vertex -1.13164373 0.0390143107 0.389867539
      vertex -1.16247686 0.26250206 0.247664688
    endloop
  endfacet
  facet normal -0.961390733 0.189780072 -0.199277151
    outer loop
      vertex -1.0714887 0.554162612 -0.175425126
      vertex -1.06736261 0.357364606 -0.382750066
      vertex -1.1820836 -0.0524222674 -0.219548637
    endloop
  endfacet
  facet normal -0.961390733 0.189780072 -0.199277151
    outer loop
      vertex -1.0714887 0.554162612 -0.175425126
      vertex -1.1820836 -0.0524222674 -0.219548637
      vertex -1.22039919 -0.0555230288 -0.0376522619
    endloop
  endfacet
  facet normal -0.961390733 0.189780072 -0.199277151
    outer loop
      vertex -1.0714887 0.554162612 -0.175425126
      vertex -1.22039919 -0.0555230288 -0.0376522619
      vertex -1.19148259 0.244175903 0.108258752
    endloop
  endfacet
  facet normal -0.939896843 -0.274807333 -0.202669322
    outer loop
      vertex -1.1820836 -0.0524222674 -0.219548637
      vertex -1.02097415 -0.434670927 -0.448401869
      vertex -0.981592361 -0.658637633 -0.327353082
    endloop
  endfacet
  facet normal -0.939896843 -0.274807333 -0.202669322
    outer loop
      vertex -1.1820836 -0.0524222674 -0.219548637
      vertex -0.981592361 -0.658637633 -0.327353082
      vertex -1.01698634 -0.680748531 -0.133229342
    endloop
  endfacet
  facet normal -0.939896843 -0.274807333 -0.202669322
    outer loop
      vertex -1.1820836 -0.0524222674 -0.219548637
      vertex -1.01698634 -0.680748531 -0.133229342
      vertex -1.18343478 -0.307958947 0.133209841
    endloop
  endfacet
  facet normal -0.939896843 -0.274807333 -0.202669322
    outer loop
      vertex -1.1820836 -0.0524222674 -0.219548637
      vertex -1.18343478 -0.307958947 0.133209841
      vertex -1.22039919 -0.0555230288 -0.0376522619
    endloop
  endfacet
  facet normal -0.882020076 0.454672373 0.123748208
    outer loop
      vertex -0.910948849 0.817536151 0.00114871242
      vertex -0.979474506 0.730325266 -0.166842612
      vertex -1.0714887 0.554162612 -0.175425126
    endloop
  endfacet
  facet normal -0.882020076 0.454672373 0.123748208
    outer loop
      vertex -0.910948849 0.817536151 0.00114871242
      vertex -1.0714887 0.554162612 -0.175425126
      vertex -1.19148259 0.244175903 0.108258752
    endloop
  endfacet
  facet normal -0.882020076 0.454672373 0.123748208
    outer loop
      vertex -0.910948849 0.817536151 0.00114871242
      vertex -1.19148259 0.244175903 0.108258752
      vertex -1.16247686 0.26250206 0.247664688
    endloop
  endfacet
  facet normal -0.882020076 0.454672373 0.123748208
    outer loop
      vertex -0.910948849 0.817536151 0.00114871242
      vertex -1.16247686 0.26250206 0.247664688
      vertex -0.992212708 0.563758083 0.354362079
    endloop
  endfacet
  facet normal -0.817858428 -0.000204369005 -0.575419456
    outer loop
      vertex -0.888939701 0.432611733 -0.636373843
      vertex -0.865514436 0.413215348 -0.669661884
      vertex -0.915460613 -0.328910112 -0.598408524
    endloop
  endfacet
  facet normal -0.817858428 -0.000204369005 -0.575419456
    outer loop
      vertex -0.888939701 0.432611733 -0.636373843
      vertex -0.915460613 -0.328910112 -0.598408524
      vertex -1.02097415 -0.434670927 -0.448401869
    endloop
  endfacet
  facet normal -0.817858428 -0.000204369005 -0.575419456
    outer loop
      vertex -0.888939701 0.432611733 -0.636373843
      vertex -1.02097415 -0.434670927 -0.448401869
      vertex -1.1820836 -0.0524222674 -0.219548637
    endloop
  endfacet
  facet normal -0.817858428 -0.000204369005 -0.575419456
    outer loop
      vertex -0.888939701 0.432611733 -0.636373843
      vertex -1.1820836 -0.0524222674 -0.219548637
      vertex -1.06736261 0.357364606 -0.382750066
    endloop
  endfacet
  facet normal -0.802403778 -0.539941322 0.254188012
    outer loop
      vertex -1.17457845 -0.301067007 0.175806619
      vertex -1.18343478 -0.307958947 0.133209841
      vertex -1.01698634 -0.680748531 -0.133229342
    endloop
  endfacet
  facet normal -0.802403778 -0.539941322 0.254188012
    outer loop
      vertex -1.17457845 -0.301067007 0.175806619
      vertex -1.01698634 -0.680748531 -0.133229342
      vertex -0.736736689 -0.973076494 0.130486604
    endloop
  endfacet
  facet normal -0.802403778 -0.539941322 0.254188012
    outer loop
      vertex -1.17457845 -0.301067007 0.175806619
      vertex -0.736736689 -0.973076494 0.130486604
      vertex -0.695498031 -0.948590771 0.312678157
    endloop
  endfacet
  facet normal -0.802403778 -0.539941322 0.254188012
    outer loop
      vertex -1.17457845 -0.301067007 0.175806619
      vertex -0.695498031 -0.948590771 0.312678157
      vertex -0.703842235 -0.915936599 0.355701097
    endloop
  endfacet
  facet normal -0.802403778 -0.539941322 0.254188012
    outer loop
      vertex -1.17457845 -0.301067007 0.175806619
      vertex -0.703842235 -0.915936599 0.355701097
      vertex -0.896706207 -0.590102774 0.439010955
    endloop
  endfacet
  facet normal -0.792203697 0.434656998 -0.428353355
    outer loop
      vertex -0.829603951 0.812434546 -0.360698067
      vertex -0.888939701 0.432611733 -0.636373843
      vertex -1.06736261 0.357364606 -0.382750066
    endloop
  endfacet
  facet normal -0.792203697 0.434656998 -0.428353355
    outer loop
      vertex -0.829603951 0.812434546 -0.360698067
      vertex -1.06736261 0.357364606 -0.382750066
      vertex -1.0714887 0.554162612 -0.175425126
    endloop
  endfacet
  facet normal -0.792203697 0.434656998 -0.428353355
    outer loop
      vertex -0.829603951 0.812434546 -0.360698067
      vertex -1.0714887 0.554162612 -0.175425126
      vertex -0.979474506 0.730325266 -0.166842612
    endloop
  endfacet
  facet normal -0.790558915 -0.251614267 0.55830714
    outer loop
      vertex -1.13164373 0.0390143107 0.389867539
      vertex -1.17457845 -0.301067007 0.175806619
      vertex -0.896706207 -0.590102774 0.439010955
    endloop
  endfacet
  facet normal -0.790558915 -0.251614267 0.55830714
    outer loop
      vertex -1.13164373 0.0390143107 0.389867539
      vertex -0.896706207 -0.590102774 0.439010955
      vertex -0.820062213 -0.320986708 0.668821796
    endloop
  endfacet
  facet normal -0.790558915 -0.251614267 0.55830714
    outer loop
      vertex -1.13164373 0.0390143107 0.389867539
      vertex -0.820062213 -0.320986708 0.668821796
      vertex -1.03466287 0.0382134628 0.526830818
    endloop
  endfacet
  facet normal -0.789973496 0.247851895 0.560813082
    outer loop
      vertex -0.992212708 0.563758083 0.354362079
      vertex -1.16247686 0.26250206 0.247664688
      vertex -1.13164373 0.0390143107 0.389867539
    endloop
  endfacet
  facet normal -0.789973496 0.247851895 0.560813082
    outer loop
      vertex -0.992212708 0.563758083 0.354362079
      vertex -1.13164373 0.0390143107 0.389867539
      vertex -1.03466287 0.0382134628 0.526830818
    endloop
  endfacet
  facet normal -0.789973496 0.247851895 0.560813082
    outer loop
      vertex -0.992212708 0.563758083 0.354362079
      vertex -1.03466287 0.0382134628 0.526830818
      vertex -0.861460991 0.321417779 0.645644325
    endloop
  endfacet
  facet normal -0.789973496 0.247851895 0.560813082
    outer loop
      vertex -0.992212708 0.563758083 0.354362079
      vertex -0.861460991 0.321417779 0.645644325
      vertex -0.925069003 0.583532657 0.440202768
    endloop
  endfacet
  facet normal -0.642043974 0.68495246 0.344412054
    outer loop
      vertex -0.504138301 1.06936791 0.258681742
      vertex -0.621842902 1.05948374 0.0589171121
      vertex -0.910948849 0.817536151 0.00114871242
    endloop
  endfacet
  facet normal -0.642043974 0.68495246 0.344412054
    outer loop
      vertex -0.504138301 1.06936791 0.258681742
      vertex -0.910948849 0.817536151 0.00114871242
      vertex -0.992212708 0.563758083 0.354362079
    endloop
  endfacet
  facet normal -0.642043974 0.68495246 0.344412054
    outer loop
      vertex -0.504138301 1.06936791 0.258681742
      vertex -0.992212708 0.563758083 0.354362079
      vertex -0.925069003 0.583532657 0.440202768
    endloop
  endfacet
  facet normal -0.642043974 0.68495246 0.344412054
    outer loop
      vertex -0.504138301 1.06936791 0.258681742
      vertex -0.925069003 0.583532657 0.440202768
      vertex -0.570392595 0.90550827 0.461049491
    endloop
  endfacet
  facet normal -0.616824783 0.772760597 -0.149560177
    outer loop
      vertex -0.670229326 0.937577479 -0.371400725
      vertex -0.829603951 0.812434546 -0.360698067
      vertex -0.979474506 0.730325266 -0.166842612
    endloop
  endfacet
  facet normal -0.616824783 0.772760597 -0.149560177
    outer loop
      vertex -0.670229326 0.937577479 -0.371400725
      vertex -0.979474506 0.730325266 -0.166842612
      vertex -0.910948849 0.817536151 0.00114871242
    endloop
  endfacet
  facet normal -0.616824783 0.772760597 -0.149560177
    outer loop
      vertex -0.670229326 0.937577479 -0.371400725
      vertex -0.910948849 0.817536151 0.00114871242
      vertex -0.621842902 1.05948374 0.0589171121
    endloop
  endfacet
  facet normal -0.616824783 0.772760597 -0.149560177
    outer loop
      vertex -0.670229326 0.937577479 -0.371400725
      vertex -0.621842902 1.05948374 0.0589171121
      vertex -0.535985491 1.09599667 -0.106522848
    endloop
  endfacet
  facet normal -0.611699284 -0.765718145 -0.198745336
    outer loop
      vertex -0.981592361 -0.658637633 -0.327353082
      vertex -0.650503889 -0.901141548 -0.412069197
      vertex -0.555237478 -1.00582178 -0.301972755
    endloop
  endfacet
  facet normal -0.611699284 -0.765718145 -0.198745336
    outer loop
      vertex -0.981592361 -0.658637633 -0.327353082
      vertex -0.555237478 -1.00582178 -0.301972755
      vertex -0.569641573 -1.06136595 -0.0436413688
    endloop
  endfacet
  facet normal -0.611699284 -0.765718145 -0.198745336
    outer loop
      vertex -0.981592361 -0.658637633 -0.327353082
      vertex -0.569641573 -1.06136595 -0.0436413688
      vertex -0.736736689 -0.973076494 0.130486604
    endloop
  endfacet
  facet normal -0.611699284 -0.765718145 -0.198745336
    outer loop
      vertex -0.981592361 -0.658637633 -0.327353082
      vertex -0.736736689 -0.973076494 0.130486604
      vertex -1.01698634 -0.680748531 -0.133229342
    endloop
  endfacet
  facet normal -0.558869684 -0.0060973996 0.829233078
    outer loop
      vertex -0.861460991 0.321417779 0.645644325
      vertex -1.03466287 0.0382134628 0.526830818
      vertex -0.820062213 -0.320986708 0.668821796
    endloop
  endfacet
  facet normal -0.558869684 -0.0060973996 0.829233078
    outer loop
      vertex -0.861460991 0.321417779 0.645644325
      vertex -0.820062213 -0.320986708 0.668821796
      vertex -0.641552036 -0.323296485 0.789113479
    endloop
  endfacet
  facet normal -0.558869684 -0.0060973996 0.829233078
    outer loop
      vertex -0.861460991 0.321417779 0.645644325
      vertex -0.641552036 -0.323296485 0.789113479
      vertex -0.530002733 0.0141623969 0.86677457
    endloop
  endfacet
  facet normal -0.558869684 -0.0060973996 0.829233078
    outer loop
      vertex -0.861460991 0.321417779 0.645644325
      vertex -0.530002733 0.0141623969 0.86677457
      vertex -0.650168729 0.30726781 0.787942752
    endloop
  endfacet
  facet normal -0.532100194 -0.0453641204 -0.845465245
    outer loop
      vertex -0.407452384 -0.0291477667 -0.934211485
      vertex -0.545307564 -0.399982134 -0.827553827
      vertex -0.915460613 -0.328910112 -0.598408524
    endloop
  endfacet
  facet normal -0.532100194 -0.0453641204 -0.845465245
    outer loop
      vertex -0.407452384 -0.0291477667 -0.934211485
      vertex -0.915460613 -0.328910112 -0.598408524
      vertex -0.865514436 0.413215348 -0.669661884
    endloop
  endfacet
  facet normal -0.532100194 -0.0453641204 -0.845465245
    outer loop
      vertex -0.407452384 -0.0291477667 -0.934211485
      vertex -0.865514436 0.413215348 -0.669661884
      vertex -0.760456979 0.424601945 -0.736391577
    endloop
  endfacet
  facet normal -0.527497241 -0.473858777 -0.705127308
    outer loop
      vertex -0.915460613 -0.328910112 -0.598408524
      vertex -0.545307564 -0.399982134 -0.827553827
      vertex -0.341872357 -0.659073924 -0.805626711
    endloop
  endfacet
  facet normal -0.527497241 -0.473858777 -0.705127308
    outer loop
      vertex -0.915460613 -0.328910112 -0.598408524
      vertex -0.341872357 -0.659073924 -0.805626711
      vertex -0.34266983 -0.772663541 -0.728695777
    endloop
  endfacet
  facet normal -0.527497241 -0.473858777 -0.705127308
    outer loop
      vertex -0.915460613 -0.328910112 -0.598408524
      vertex -0.34266983 -0.772663541 -0.728695777
      vertex -0.650503889 -0.901141548 -0.412069197
    endloop
  endfacet
  facet normal -0.527497241 -0.473858777 -0.705127308
    outer loop
      vertex -0.915460613 -0.328910112 -0.598408524
      vertex -0.650503889 -0.901141548 -0.412069197
      vertex -0.981592361 -0.658637633 -0.327353082
    endloop
  endfacet
  facet normal -0.527497241 -0.473858777 -0.705127308
    outer loop
      vertex -0.915460613 -0.328910112 -0.598408524
      vertex -0.981592361 -0.658637633 -0.327353082
      vertex -1.02097415 -0.434670927 -0.448401869
    endloop
  endfacet
  facet normal -0.494967906 -0.478431028 0.725334766
    outer loop
      vertex -0.896706207 -0.590102774 0.439010955
      vertex -0.703842235 -0.915936599 0.355701097
      vertex -0.348426861 -0.813791242 0.665611393
    endloop
  endfacet
  facet normal -0.494967906 -0.478431028 0.725334766
    outer loop
      vertex -0.896706207 -0.590102774 0.439010955
      vertex -0.348426861 -0.813791242 0.665611393
      vertex -0.43540782 -0.495404531 0.81626362
    endloop
  endfacet
  facet normal -0.494967906 -0.478431028 0.725334766
    outer loop
      vertex -0.896706207 -0.590102774 0.439010955
      vertex -0.43540782 -0.495404531 0.81626362
      vertex -0.641552036 -0.323296485 0.789113479
    endloop
  endfacet
  facet normal -0.494967906 -0.478431028 0.725334766
    outer loop
      vertex -0.896706207 -0.590102774 0.439010955
      vertex -0.641552036 -0.323296485 0.789113479
      vertex -0.820062213 -0.320986708 0.668821796
    endloop
  endfacet
  facet normal -0.486081854 0.561794695 -0.669411049
    outer loop
      vertex -0.38970994 0.754029916 -0.729135231
      vertex -0.760456979 0.424601945 -0.736391577
      vertex -0.865514436 0.413215348 -0.669661884
    endloop
  endfacet
  facet normal -0.486081854 0.561794695 -0.669411049
    outer loop
      vertex -0.38970994 0.754029916 -0.729135231
      vertex -0.865514436 0.413215348 -0.669661884
      vertex -0.888939701 0.432611733 -0.636373843
    endloop
  endfacet
  facet normal -0.486081854 0.561794695 -0.669411049
    outer loop
      vertex -0.38970994 0.754029916 -0.729135231
      vertex -0.888939701 0.432611733 -0.636373843
      vertex -0.829603951 0.812434546 -0.360698067
    endloop
  endfacet
  facet normal -0.486081854 0.561794695 -0.669411049
    outer loop
      vertex -0.38970994 0.754029916 -0.729135231
      vertex -0.829603951 0.812434546 -0.360698067
      vertex -0.670229326 0.937577479 -0.371400725
    endloop
  endfacet
  facet normal -0.486081854 0.561794695 -0.669411049
    outer loop
      vertex -0.38970994 0.754029916 -0.729135231
      vertex -0.670229326 0.937577479 -0.371400725
      vertex -0.409375809 0.910788254 -0.583297743
    endloop
  endfacet
  facet normal -0.471004389 0.470529826 0.746161208
    outer loop
      vertex -0.570392595 0.90550827 0.461049491
      vertex -0.925069003 0.583532657 0.440202768
      vertex -0.861460991 0.321417779 0.645644325
    endloop
  endfacet
  facet normal -0.471004389 0.470529826 0.746161208
    outer loop
      vertex -0.570392595 0.90550827 0.461049491
      vertex -0.861460991 0.321417779 0.645644325
      vertex -0.650168729 0.30726781 0.787942752
    endloop
  endfacet
  facet normal -0.471004389 0.470529826 0.746161208
    outer loop
      vertex -0.570392595 0.90550827 0.461049491
      vertex -0.650168729 0.30726781 0.787942752
      vertex -0.373307964 0.553224632 0.807606887
    endloop
  endfacet
  facet normal -0.471004389 0.470529826 0.746161208
    outer loop
      vertex -0.570392595 0.90550827 0.461049491
      vertex -0.373307964 0.553224632 0.807606887
      vertex -0.357747594 0.845631237 0.633037336
    endloop
  endfacet
  facet normal -0.29416171 -0.93618918 0.192402461
    outer loop
      vertex -0.736736689 -0.973076494 0.130486604
      vertex -0.569641573 -1.06136595 -0.0436413688
      vertex -0.0213718157 -1.21577148 0.0432971732
    endloop
  endfacet
  facet normal -0.29416171 -0.93618918 0.192402461
    outer loop
      vertex -0.736736689 -0.973076494 0.130486604
      vertex -0.0213718157 -1.21577148 0.0432971732
      vertex -0.0995381536 -1.13434092 0.320013268
    endloop
  endfacet
  facet normal -0.29416171 -0.93618918 0.192402461
    outer loop
      vertex -0.736736689 -0.973076494 0.130486604
      vertex -0.0995381536 -1.13434092 0.320013268
      vertex -0.695498031 -0.948590771 0.312678157
    endloop
  endfacet
  facet normal -0.25412552 -0.793498612 0.552973935
    outer loop
      vertex -0.703842235 -0.915936599 0.355701097
      vertex -0.695498031 -0.948590771 0.312678157
      vertex -0.0995381536 -1.13434092 0.320013268
    endloop
  endfacet
  facet normal -0.25412552 -0.793498612 0.552973935
    outer loop
      vertex -0.703842235 -0.915936599 0.355701097
      vertex -0.0995381536 -1.13434092 0.320013268
      vertex -0.040097819 -1.08646648 0.416027945
    endloop
  endfacet
  facet normal -0.25412552 -0.793498612 0.552973935
    outer loop
      vertex -0.703842235 -0.915936599 0.355701097
      vertex -0.040097819 -1.08646648 0.416027945
      vertex -0.133932094 -0.910885685 0.624857734
    endloop
  endfacet
  facet normal -0.25412552 -0.793498612 0.552973935
    outer loop
      vertex -0.703842235 -0.915936599 0.355701097
      vertex -0.133932094 -0.910885685 0.624857734
      vertex -0.348426861 -0.813791242 0.665611393
    endloop
  endfacet
  facet normal -0.243565147 -0.140343129 0.959676938
    outer loop
      vertex -0.641552036 -0.323296485 0.789113479
      vertex -0.43540782 -0.495404531 0.81626362
      vertex 0.0314909261 -0.17965687 0.980937033
    endloop
  endfacet
  facet normal -0.243565147 -0.140343129 0.959676938
    outer loop
      vertex -0.641552036 -0.323296485 0.789113479
      vertex 0.0314909261 -0.17965687 0.980937033
      vertex 0.0312498098 -0.0488844027 1
    endloop
  endfacet
  facet normal -0.243565147 -0.140343129 0.959676938
    outer loop
      vertex -0.641552036 -0.323296485 0.789113479
      vertex 0.0312498098 -0.0488844027 1
      vertex 0.0205375846 -0.0312982962 0.999853039
    endloop
  endfacet
  facet normal -0.243565147 -0.140343129 0.959676938
    outer loop
      vertex -0.641552036 -0.323296485 0.789113479
      vertex 0.0205375846 -0.0312982962 0.999853039
      vertex -0.530002733 0.0141623969 0.86677457
    endloop
  endfacet
  facet normal -0.239351415 0.881904775 -0.406146363
    outer loop
      vertex 0.0438112081 1.12117001 -0.393549104
      vertex -0.409375809 0.910788254 -0.583297743
      vertex -0.670229326 0.937577479 -0.371400725
    endloop
  endfacet
  facet normal -0.239351415 0.881904775 -0.406146363
    outer loop
      vertex 0.0438112081 1.12117001 -0.393549104
      vertex -0.670229326 0.937577479 -0.371400725
      vertex -0.535985491 1.09599667 -0.106522848
    endloop
  endfacet
  facet normal -0.239351415 0.881904775 -0.406146363
    outer loop
      vertex 0.0438112081 1.12117001 -0.393549104
      vertex -0.535985491 1.09599667 -0.106522848
      vertex -0.0468354191 1.21754615 -0.130858141
    endloop
  endfacet
  facet normal -0.236735815 -0.798133106 -0.554021389
    outer loop
      vertex -0.34266983 -0.772663541 -0.728695777
      vertex 0.0723264052 -0.997830246 -0.581646347
      vertex 0.0769903885 -1.14502447 -0.37158866
    endloop
  endfacet
  facet normal -0.236735815 -0.798133106 -0.554021389
    outer loop
      vertex -0.34266983 -0.772663541 -0.728695777
      vertex 0.0769903885 -1.14502447 -0.37158866
      vertex -0.555237478 -1.00582178 -0.301972755
    endloop
  endfacet
  facet normal -0.236735815 -0.798133106 -0.554021389
    outer loop
      vertex -0.34266983 -0.772663541 -0.728695777
      vertex -0.555237478 -1.00582178 -0.301972755
      vertex -0.650503889 -0.901141548 -0.412069197
    endloop
  endfacet
  facet normal -0.235882424 0.967500687 0.0911147784
    outer loop
      vertex 0.0234082066 1.22711926 -0.0506598996
      vertex -0.0468354191 1.21754615 -0.130858141
      vertex -0.535985491 1.09599667 -0.106522848
    endloop
  endfacet
  facet normal -0.235882424 0.967500687 0.0911147784
    outer loop
      vertex 0.0234082066 1.22711926 -0.0506598996
      vertex -0.535985491 1.09599667 -0.106522848
      vertex -0.621842902 1.05948374 0.0589171121
    endloop
  endfacet
  facet normal -0.235882424 0.967500687 0.0911147784
    outer loop
      vertex 0.0234082066 1.22711926 -0.0506598996
      vertex -0.621842902 1.05948374 0.0589171121
      vertex -0.504138301 1.06936791 0.258681742
    endloop
  endfacet
  facet normal -0.235882424 0.967500687 0.0911147784
    outer loop
      vertex 0.0234082066 1.22711926 -0.0506598996
      vertex -0.504138301 1.06936791 0.258681742
      vertex -0.0737907484 1.17092648 0.294388769
    endloop
  endfacet
  facet normal -0.233664372 0.791658788 0.564515123
    outer loop
      vertex -0.0546764216 1.16125798 0.315859385
      vertex -0.0737907484 1.17092648 0.294388769
      vertex -0.504138301 1.06936791 0.258681742
    endloop
  endfacet
  facet normal -0.233664372 0.791658788 0.564515123
    outer loop
      vertex -0.0546764216 1.16125798 0.315859385
      vertex -0.504138301 1.06936791 0.258681742
      vertex -0.570392595 0.90550827 0.461049491
    endloop
  endfacet
  facet normal -0.233664372 0.791658788 0.564515123
    outer loop
      vertex -0.0546764216 1.16125798 0.315859385
      vertex -0.570392595 0.90550827 0.461049491
      vertex -0.357747594 0.845631237 0.633037336
    endloop
  endfacet
  facet normal -0.233664372 0.791658788 0.564515123
    outer loop
      vertex -0.0546764216 1.16125798 0.315859385
      vertex -0.357747594 0.845631237 0.633037336
      vertex -0.0503652174 1.0060283 0.535333252
    endloop
  endfacet
  facet normal -0.232623243 -0.948090272 -0.21682081
    outer loop
      vertex -0.555237478 -1.00582178 -0.301972755
      vertex 0.0769903885 -1.14502447 -0.37158866
      vertex 0.0871967939 -1.150171 -0.360034732
    endloop
  endfacet
  facet normal -0.232623243 -0.948090272 -0.21682081
    outer loop
      vertex -0.555237478 -1.00582178 -0.301972755
      vertex 0.0871967939 -1.150171 -0.360034732
      vertex 0.0834672842 -1.2222152 -0.0410064613
    endloop
  endfacet
  facet normal -0.232623243 -0.948090272 -0.21682081
    outer loop
      vertex -0.555237478 -1.00582178 -0.301972755
      vertex 0.0834672842 -1.2222152 -0.0410064613
      vertex -0.0213718157 -1.21577148 0.0432971732
    endloop
  endfacet
  facet normal -0.232623243 -0.948090272 -0.21682081
    outer loop
      vertex -0.555237478 -1.00582178 -0.301972755
      vertex -0.0213718157 -1.21577148 0.0432971732
      vertex -0.569641573 -1.06136595 -0.0436413688
    endloop
  endfacet
  facet normal -0.218373783 0.168970449 0.961125319
    outer loop
      vertex -0.530002733 0.0141623969 0.86677457
      vertex 0.0205375846 -0.0312982962 0.999853039
      vertex 0.0232999381 0.332975327 0.93643961
    endloop
  endfacet
  facet normal -0.218373783 0.168970449 0.961125319
    outer loop
      vertex -0.530002733 0.0141623969 0.86677457
      vertex 0.0232999381 0.332975327 0.93643961
      vertex -0.373307964 0.553224632 0.807606887
    endloop
  endfacet
  facet normal -0.218373783 0.168970449 0.961125319
    outer loop
      vertex -0.530002733 0.0141623969 0.86677457
      vertex -0.373307964 0.553224632 0.807606887
      vertex -0.650168729 0.30726781 0.787942752
    endloop
  endfacet
  facet normal -0.205634601 0.252254609 -0.945559106
    outer loop
      vertex -0.0778027336 -0.000828800217 -0.998346857
      vertex -0.407452384 -0.0291477667 -0.934211485
      vertex -0.760456979 0.424601945 -0.736391577
    endloop
  endfacet
  facet normal -0.205634601 0.252254609 -0.945559106
    outer loop
      vertex -0.0778027336 -0.000828800217 -0.998346857
      vertex -0.760456979 0.424601945 -0.736391577
      vertex -0.38970994 0.754029916 -0.729135231
    endloop
  endfacet
  facet normal -0.205634601 0.252254609 -0.945559106
    outer loop
      vertex -0.0778027336 -0.000828800217 -0.998346857
      vertex -0.38970994 0.754029916 -0.729135231
      vertex -0.0739082713 0.656229299 -0.823904988
    endloop
  endfacet
  facet normal -0.16880917 -0.213973382 -0.962142846
    outer loop
      vertex 0.0123225171 -0.532617712 -0.895893563
      vertex -0.341872357 -0.659073924 -0.805626711
      vertex -0.545307564 -0.399982134 -0.827553827
    endloop
  endfacet
  facet normal -0.16880917 -0.213973382 -0.962142846
    outer loop
      vertex 0.0123225171 -0.532617712 -0.895893563
      vertex -0.545307564 -0.399982134 -0.827553827
      vertex -0.407452384 -0.0291477667 -0.934211485
    endloop
  endfacet
  facet normal -0.16880917 -0.213973382 -0.962142846
    outer loop
      vertex 0.0123225171 -0.532617712 -0.895893563
      vertex -0.407452384 -0.0291477667 -0.934211485
      vertex -0.0778027336 -0.000828800217 -0.998346857
    endloop
  endfacet
  facet normal -0.16880917 -0.213973382 -0.962142846
    outer loop
      vertex 0.0123225171 -0.532617712 -0.895893563
      vertex -0.0778027336 -0.000828800217 -0.998346857
      vertex 0.0205910243 -0.0710207483 -1
    endloop
  endfacet
  facet normal -0.0248718481 -0.433120853 0.900992629
    outer loop
      vertex -0.348426861 -0.813791242 0.665611393
      vertex -0.133932094 -0.910885685 0.624857734
      vertex 0.34413898 -0.621457113 0.777187571
    endloop
  endfacet
  facet normal -0.0248718481 -0.433120853 0.900992629
    outer loop
      vertex -0.348426861 -0.813791242 0.665611393
      vertex 0.34413898 -0.621457113 0.777187571
      vertex 0.371998348 -0.508453866 0.832279006
    endloop
  endfacet
  facet normal -0.0248718481 -0.433120853 0.900992629
    outer loop
      vertex -0.348426861 -0.813791242 0.665611393
      vertex 0.371998348 -0.508453866 0.832279006
      vertex 0.0314909261 -0.17965687 0.980937033
    endloop
  endfacet
  facet normal -0.0248718481 -0.433120853 0.900992629
    outer loop
      vertex -0.348426861 -0.813791242 0.665611393
      vertex 0.0314909261 -0.17965687 0.980937033
      vertex -0.43540782 -0.495404531 0.81626362
    endloop
  endfacet
  facet normal -0.0108309053 -0.560678823 -0.827962529
    outer loop
      vertex -0.341872357 -0.659073924 -0.805626711
      vertex 0.0123225171 -0.532617712 -0.895893563
      vertex 0.347926909 -0.718246853 -0.774579584
    endloop
  endfacet
  facet normal -0.0108309053 -0.560678823 -0.827962529
    outer loop
      vertex -0.341872357 -0.659073924 -0.805626711
      vertex 0.347926909 -0.718246853 -0.774579584
      vertex 0.346312423 -0.837070403 -0.694093653
    endloop
  endfacet
  facet normal -0.0108309053 -0.560678823 -0.827962529
    outer loop
      vertex -0.341872357 -0.659073924 -0.805626711
      vertex 0.346312423 -0.837070403 -0.694093653
      vertex 0.0723264052 -0.997830246 -0.581646347
    endloop
  endfacet
  facet normal -0.0108309053 -0.560678823 -0.827962529
    outer loop
      vertex -0.341872357 -0.659073924 -0.805626711
      vertex 0.0723264052 -0.997830246 -0.581646347
      vertex -0.34266983 -0.772663541 -0.728695777
    endloop
  endfacet
  facet normal -0.00913073311 0.680500783 -0.732690463
    outer loop
      vertex 0.383063318 0.783028667 -0.711832308
      vertex -0.0739082713 0.656229299 -0.823904988
      vertex -0.38970994 0.754029916 -0.729135231
    endloop
  endfacet
  facet normal -0.00913073311 0.680500783 -0.732690463
    outer loop
      vertex 0.383063318 0.783028667 -0.711832308
      vertex -0.38970994 0.754029916 -0.729135231
      vertex -0.409375809 0.910788254 -0.583297743
    endloop
  endfacet
  facet normal -0.00913073311 0.680500783 -0.732690463
    outer loop
      vertex 0.383063318 0.783028667 -0.711832308
      vertex -0.409375809 0.910788254 -0.583297743
      vertex 0.0438112081 1.12117001 -0.393549104
    endloop
  endfacet
  facet normal -0.00913073311 0.680500783 -0.732690463
    outer loop
      vertex 0.383063318 0.783028667 -0.711832308
      vertex 0.0438112081 1.12117001 -0.393549104
      vertex 0.298217648 1.04865761 -0.464066821
    endloop
  endfacet
  facet normal 0.00559042186 0.512379197 0.858741117
    outer loop
      vertex 0.368658327 0.794625028 0.658741946
      vertex -0.0503652174 1.0060283 0.535333252
      vertex -0.357747594 0.845631237 0.633037336
    endloop
  endfacet
  facet normal 0.00559042186 0.512379197 0.858741117
    outer loop
      vertex 0.368658327 0.794625028 0.658741946
      vertex -0.357747594 0.845631237 0.633037336
      vertex -0.373307964 0.553224632 0.807606887
    endloop
  endfacet
  facet normal 0.00559042186 0.512379197 0.858741117
    outer loop
      vertex 0.368658327 0.794625028 0.658741946
      vertex -0.373307964 0.553224632 0.807606887
      vertex 0.0232999381 0.332975327 0.93643961
    endloop
  endfacet
  facet normal 0.00559042186 0.512379197 0.858741117
    outer loop
      vertex 0.368658327 0.794625028 0.658741946
      vertex 0.0232999381 0.332975327 0.93643961
      vertex 0.381080183 0.553913859 0.802284568
    endloop
  endfacet
  facet normal 0.16390655 0.252222128 -0.953686868
    outer loop
      vertex 0.485143752 -0.0122307555 -0.904610858
      vertex 0.0205910243 -0.0710207483 -1
      vertex -0.0778027336 -0.000828800217 -0.998346857
    endloop
  endfacet
  facet normal 0.16390655 0.252222128 -0.953686868
    outer loop
      vertex 0.485143752 -0.0122307555 -0.904610858
      vertex -0.0778027336 -0.000828800217 -0.998346857
      vertex -0.0739082713 0.656229299 -0.823904988
    endloop
  endfacet
  facet normal 0.16390655 0.252222128 -0.953686868
    outer loop
      vertex 0.485143752 -0.0122307555 -0.904610858
      vertex -0.0739082713 0.656229299 -0.823904988
      vertex 0.383063318 0.783028667 -0.711832308
    endloop
  endfacet
  facet normal 0.16390655 0.252222128 -0.953686868
    outer loop
      vertex 0.485143752 -0.0122307555 -0.904610858
      vertex 0.383063318 0.783028667 -0.711832308
      vertex 0.41325542 0.761280344 -0.712395097
    endloop
  endfacet
  facet normal 0.19076708 0.94102824 -0.279416844
    outer loop
      vertex 0.298217648 1.04865761 -0.464066821
      vertex 0.0438112081 1.12117001 -0.393549104
      vertex -0.0468354191 1.21754615 -0.130858141
    endloop
  endfacet
  facet normal 0.19076708 0.94102824 -0.279416844
    outer loop
      vertex 0.298217648 1.04865761 -0.464066821
      vertex -0.0468354191 1.21754615 -0.130858141
      vertex 0.0234082066 1.22711926 -0.0506598996
    endloop
  endfacet
  facet normal 0.19076708 0.94102824 -0.279416844
    outer loop
      vertex 0.298217648 1.04865761 -0.464066821
      vertex 0.0234082066 1.22711926 -0.0506598996
      vertex 0.494692429 1.12031859 -0.0885850902
    endloop
  endfacet
  facet normal 0.19076708 0.94102824 -0.279416844
    outer loop
      vertex 0.298217648 1.04865761 -0.464066821
      vertex 0.494692429 1.12031859 -0.0885850902
      vertex 0.590130161 1.07101378 -0.189476792
    endloop
  endfacet
  facet normal 0.20697298 -0.70104138 0.682424479
    outer loop
      vertex -0.040097819 -1.08646648 0.416027945
      vertex 0.607715063 -0.965514731 0.343803711
      vertex 0.683655023 -0.891813233 0.396483943
    endloop
  endfacet
  facet normal 0.20697298 -0.70104138 0.682424479
    outer loop
      vertex -0.040097819 -1.08646648 0.416027945
      vertex 0.683655023 -0.891813233 0.396483943
      vertex 0.34413898 -0.621457113 0.777187571
    endloop
  endfacet
  facet normal 0.20697298 -0.70104138 0.682424479
    outer loop
      vertex -0.040097819 -1.08646648 0.416027945
      vertex 0.34413898 -0.621457113 0.777187571
      vertex -0.133932094 -0.910885685 0.624857734
    endloop
  endfacet
  facet normal 0.208674351 -0.920671791 0.329876445
    outer loop
      vertex -0.0213718157 -1.21577148 0.0432971732
      vertex 0.0834672842 -1.2222152 -0.0410064613
      vertex 0.526559084 -1.12264666 -0.0434072227
    endloop
  endfacet
  facet normal 0.208674351 -0.920671791 0.329876445
    outer loop
      vertex -0.0213718157 -1.21577148 0.0432971732
      vertex 0.526559084 -1.12264666 -0.0434072227
      vertex 0.573193191 -1.09837779 -0.00517373262
    endloop
  endfacet
  facet normal 0.208674351 -0.920671791 0.329876445
    outer loop
      vertex -0.0213718157 -1.21577148 0.0432971732
      vertex 0.573193191 -1.09837779 -0.00517373262
      vertex 0.607715063 -0.965514731 0.343803711
    endloop
  endfacet
  facet normal 0.208674351 -0.920671791 0.329876445
    outer loop
      vertex -0.0213718157 -1.21577148 0.0432971732
      vertex 0.607715063 -0.965514731 0.343803711
      vertex -0.040097819 -1.08646648 0.416027945
    endloop
  endfacet
  facet normal 0.208674351 -0.920671791 0.329876445
    outer loop
      vertex -0.0213718157 -1.21577148 0.0432971732
      vertex -0.040097819 -1.08646648 0.416027945
      vertex -0.0995381536 -1.13434092 0.320013268
    endloop
  endfacet
  facet normal 0.213124012 -0.953559219 -0.212844946
    outer loop
      vertex 0.0871967939 -1.150171 -0.360034732
      vertex 0.480581387 -1.07547996 -0.300755122
      vertex 0.526559084 -1.12264666 -0.0434072227
    endloop
  endfacet
  facet normal 0.213124012 -0.953559219 -0.212844946
    outer loop
      vertex 0.0871967939 -1.150171 -0.360034732
      vertex 0.526559084 -1.12264666 -0.0434072227
      vertex 0.0834672842 -1.2222152 -0.0410064613
    endloop
  endfacet
  facet normal 0.222719252 -0.218277902 -0.950132039
    outer loop
      vertex 0.696149965 -0.373769486 -0.772091318
      vertex 0.347926909 -0.718246853 -0.774579584
      vertex 0.0123225171 -0.532617712 -0.895893563
    endloop
  endfacet
  facet normal 0.222719252 -0.218277902 -0.950132039
    outer loop
      vertex 0.696149965 -0.373769486 -0.772091318
      vertex 0.0123225171 -0.532617712 -0.895893563
      vertex 0.0205910243 -0.0710207483 -1
    endloop
  endfacet
  facet normal 0.222719252 -0.218277902 -0.950132039
    outer loop
      vertex 0.696149965 -0.373769486 -0.772091318
      vertex 0.0205910243 -0.0710207483 -1
      vertex 0.485143752 -0.0122307555 -0.904610858
    endloop
  endfacet
  facet normal 0.222719252 -0.218277902 -0.950132039
    outer loop
      vertex 0.696149965 -0.373769486 -0.772091318
      vertex 0.485143752 -0.0122307555 -0.904610858
      vertex 0.6717777 -0.126881026 -0.834523133
    endloop
  endfacet
  facet normal 0.232396547 0.94746782 0.219764816
    outer loop
      vertex 0.494692429 1.12031859 -0.0885850902
      vertex 0.0234082066 1.22711926 -0.0506598996
      vertex -0.0737907484 1.17092648 0.294388769
    endloop
  endfacet
  facet normal 0.232396547 0.94746782 0.219764816
    outer loop
      vertex 0.494692429 1.12031859 -0.0885850902
      vertex -0.0737907484 1.17092648 0.294388769
      vertex -0.0546764216 1.16125798 0.315859385
    endloop
  endfacet
  facet normal 0.232396547 0.94746782 0.219764816
    outer loop
      vertex 0.494692429 1.12031859 -0.0885850902
      vertex -0.0546764216 1.16125798 0.315859385
      vertex 0.519712814 1.03531221 0.251442744
    endloop
  endfacet
  facet normal 0.235237963 -0.793506132 -0.561258514
    outer loop
      vertex 0.0723264052 -0.997830246 -0.581646347
      vertex 0.346312423 -0.837070403 -0.694093653
      vertex 0.601283589 -0.930808231 -0.454702293
    endloop
  endfacet
  facet normal 0.235237963 -0.793506132 -0.561258514
    outer loop
      vertex 0.0723264052 -0.997830246 -0.581646347
      vertex 0.601283589 -0.930808231 -0.454702293
      vertex 0.480581387 -1.07547996 -0.300755122
    endloop
  endfacet
  facet normal 0.235237963 -0.793506132 -0.561258514
    outer loop
      vertex 0.0723264052 -0.997830246 -0.581646347
      vertex 0.480581387 -1.07547996 -0.300755122
      vertex 0.0871967939 -1.150171 -0.360034732
    endloop
  endfacet
  facet normal 0.235237963 -0.793506132 -0.561258514
    outer loop
      vertex 0.0723264052 -0.997830246 -0.581646347
      vertex 0.0871967939 -1.150171 -0.360034732
      vertex 0.0769903885 -1.14502447 -0.37158866
    endloop
  endfacet
  facet normal 0.23696524 0.79536451 0.557891362
    outer loop
      vertex 0.701891079 0.87303174 0.405419337
      vertex 0.519712814 1.03531221 0.251442744
      vertex -0.0546764216 1.16125798 0.315859385
    endloop
  endfacet
  facet normal 0.23696524 0.79536451 0.557891362
    outer loop
      vertex 0.701891079 0.87303174 0.405419337
      vertex -0.0546764216 1.16125798 0.315859385
      vertex -0.0503652174 1.0060283 0.535333252
    endloop
  endfacet
  facet normal 0.23696524 0.79536451 0.557891362
    outer loop
      vertex 0.701891079 0.87303174 0.405419337
      vertex -0.0503652174 1.0060283 0.535333252
      vertex 0.368658327 0.794625028 0.658741946
    endloop
  endfacet
  facet normal 0.256006883 0.163902701 0.952678529
    outer loop
      vertex 0.0205375846 -0.0312982962 0.999853039
      vertex 0.0312498098 -0.0488844027 1
      vertex 0.69131894 0.00858541676 0.812736728
    endloop
  endfacet
  facet normal 0.256006883 0.163902701 0.952678529
    outer loop
      vertex 0.0205375846 -0.0312982962 0.999853039
      vertex 0.69131894 0.00858541676 0.812736728
      vertex 0.746563324 0.278349971 0.751479882
    endloop
  endfacet
  facet normal 0.256006883 0.163902701 0.952678529
    outer loop
      vertex 0.0205375846 -0.0312982962 0.999853039
      vertex 0.746563324 0.278349971 0.751479882
      vertex 0.381080183 0.553913859 0.802284568
    endloop
  endfacet
  facet normal 0.256006883 0.163902701 0.952678529
    outer loop
      vertex 0.0205375846 -0.0312982962 0.999853039
      vertex 0.381080183 0.553913859 0.802284568
      vertex 0.0232999381 0.332975327 0.93643961
    endloop
  endfacet
  facet normal 0.281417885 -0.137909671 0.949623555
    outer loop
      vertex 0.371998348 -0.508453866 0.832279006
      vertex 0.741533252 -0.271432169 0.75719015
      vertex 0.69131894 0.00858541676 0.812736728
    endloop
  endfacet
  facet normal 0.281417885 -0.137909671 0.949623555
    outer loop
      vertex 0.371998348 -0.508453866 0.832279006
      vertex 0.69131894 0.00858541676 0.812736728
      vertex 0.0312498098 -0.0488844027 1
    endloop
  endfacet
  facet normal 0.281417885 -0.137909671 0.949623555
    outer loop
      vertex 0.371998348 -0.508453866 0.832279006
      vertex 0.0312498098 -0.0488844027 1
      vertex 0.0314909261 -0.17965687 0.980937033
    endloop
  endfacet
  facet normal 0.458882864 -0.478202249 0.748831841
    outer loop
      vertex 0.683655023 -0.891813233 0.396483943
      vertex 0.76939924 -0.830962887 0.382798922
      vertex 0.919320026 -0.409131292 0.560308385
    endloop
  endfacet
  facet normal 0.458882864 -0.478202249 0.748831841
    outer loop
      vertex 0.683655023 -0.891813233 0.396483943
      vertex 0.919320026 -0.409131292 0.560308385
      vertex 0.741533252 -0.271432169 0.75719015
    endloop
  endfacet
  facet normal 0.458882864 -0.478202249 0.748831841
    outer loop
      vertex 0.683655023 -0.891813233 0.396483943
      vertex 0.741533252 -0.271432169 0.75719015
      vertex 0.371998348 -0.508453866 0.832279006
    endloop
  endfacet
  facet normal 0.458882864 -0.478202249 0.748831841
    outer loop
      vertex 0.683655023 -0.891813233 0.396483943
      vertex 0.371998348 -0.508453866 0.832279006
      vertex 0.34413898 -0.621457113 0.777187571
    endloop
  endfacet
  facet normal 0.460424529 0.472063779 0.751774595
    outer loop
      vertex 0.925224495 0.419288022 0.553559208
      vertex 0.770663048 0.825633978 0.393062528
      vertex 0.701891079 0.87303174 0.405419337
    endloop
  endfacet
  facet normal 0.460424529 0.472063779 0.751774595
    outer loop
      vertex 0.925224495 0.419288022 0.553559208
      vertex 0.701891079 0.87303174 0.405419337
      vertex 0.368658327 0.794625028 0.658741946
    endloop
  endfacet
  facet normal 0.460424529 0.472063779 0.751774595
    outer loop
      vertex 0.925224495 0.419288022 0.553559208
      vertex 0.368658327 0.794625028 0.658741946
      vertex 0.381080183 0.553913859 0.802284568
    endloop
  endfacet
  facet normal 0.460424529 0.472063779 0.751774595
    outer loop
      vertex 0.925224495 0.419288022 0.553559208
      vertex 0.381080183 0.553913859 0.802284568
      vertex 0.746563324 0.278349971 0.751479882
    endloop
  endfacet
  facet normal 0.472734405 0.253644917 -0.843911393
    outer loop
      vertex 0.6717777 -0.126881026 -0.834523133
      vertex 0.485143752 -0.0122307555 -0.904610858
      vertex 0.41325542 0.761280344 -0.712395097
    endloop
  endfacet
  facet normal 0.472734405 0.253644917 -0.843911393
    outer loop
      vertex 0.6717777 -0.126881026 -0.834523133
      vertex 0.41325542 0.761280344 -0.712395097
      vertex 0.786393879 0.642176724 -0.539171509
    endloop
  endfacet
  facet normal 0.472734405 0.253644917 -0.843911393
    outer loop
      vertex 0.6717777 -0.126881026 -0.834523133
      vertex 0.786393879 0.642176724 -0.539171509
      vertex 0.951194871 0.00608607236 -0.638037411
    endloop
  endfacet
  facet normal 0.476626634 0.67621338 -0.561749514
    outer loop
      vertex 0.786393879 0.642176724 -0.539171509
      vertex 0.41325542 0.761280344 -0.712395097
      vertex 0.383063318 0.783028667 -0.711832308
    endloop
  endfacet
  facet normal 0.476626634 0.67621338 -0.561749514
    outer loop
      vertex 0.786393879 0.642176724 -0.539171509
      vertex 0.383063318 0.783028667 -0.711832308
      vertex 0.298217648 1.04865761 -0.464066821
    endloop
  endfacet
  facet normal 0.476626634 0.67621338 -0.561749514
    outer loop
      vertex 0.786393879 0.642176724 -0.539171509
      vertex 0.298217648 1.04865761 -0.464066821
      vertex 0.590130161 1.07101378 -0.189476792
    endloop
  endfacet
  facet normal 0.476626634 0.67621338 -0.561749514
    outer loop
      vertex 0.786393879 0.642176724 -0.539171509
      vertex 0.590130161 1.07101378 -0.189476792
      vertex 0.691249045 0.998130197 -0.191415198
    endloop
  endfacet
  facet normal 0.476626634 0.67621338 -0.561749514
    outer loop
      vertex 0.786393879 0.642176724 -0.539171509
      vertex 0.691249045 0.998130197 -0.191415198
      vertex 0.867043288 0.694316799 -0.407978743
    endloop
  endfacet
  facet normal 0.492489807 -0.492662539 -0.717452028
    outer loop
      vertex 0.346312423 -0.837070403 -0.694093653
      vertex 0.347926909 -0.718246853 -0.774579584
      vertex 0.696149965 -0.373769486 -0.772091318
    endloop
  endfacet
  facet normal 0.492489807 -0.492662539 -0.717452028
    outer loop
      vertex 0.346312423 -0.837070403 -0.694093653
      vertex 0.696149965 -0.373769486 -0.772091318
      vertex 0.877447255 -0.409266357 -0.623265972
    endloop
  endfacet
  facet normal 0.492489807 -0.492662539 -0.717452028
    outer loop
      vertex 0.346312423 -0.837070403 -0.694093653
      vertex 0.877447255 -0.409266357 -0.623265972
      vertex 0.673304094 -0.878618475 -0.441102182
    endloop
  endfacet
  facet normal 0.492489807 -0.492662539 -0.717452028
    outer loop
      vertex 0.346312423 -0.837070403 -0.694093653
      vertex 0.673304094 -0.878618475 -0.441102182
      vertex 0.601283589 -0.930808231 -0.454702293
    endloop
  endfacet
  facet normal 0.579420967 0.799707014 0.157289651
    outer loop
      vertex 0.691249045 0.998130197 -0.191415198
      vertex 0.590130161 1.07101378 -0.189476792
      vertex 0.494692429 1.12031859 -0.0885850902
    endloop
  endfacet
  facet normal 0.579420967 0.799707014 0.157289651
    outer loop
      vertex 0.691249045 0.998130197 -0.191415198
      vertex 0.494692429 1.12031859 -0.0885850902
      vertex 0.519712814 1.03531221 0.251442744
    endloop
  endfacet
  facet normal 0.579420967 0.799707014 0.157289651
    outer loop
      vertex 0.691249045 0.998130197 -0.191415198
      vertex 0.519712814 1.03531221 0.251442744
      vertex 0.701891079 0.87303174 0.405419337
    endloop
  endfacet
  facet normal 0.579420967 0.799707014 0.157289651
    outer loop
      vertex 0.691249045 0.998130197 -0.191415198
      vertex 0.701891079 0.87303174 0.405419337
      vertex 0.770663048 0.825633978 0.393062528
    endloop
  endfacet
  facet normal 0.579420967 0.799707014 0.157289651
    outer loop
      vertex 0.691249045 0.998130197 -0.191415198
      vertex 0.770663048 0.825633978 0.393062528
      vertex 0.96382724 0.729998044 0.167728854
    endloop
  endfacet
  facet normal 0.587142052 -0.774121747 0.236642625
    outer loop
      vertex 0.573193191 -1.09837779 -0.00517373262
      vertex 0.85190802 -0.883286098 0.00692027701
      vertex 0.922641106 -0.778299298 0.174862104
    endloop
  endfacet
  facet normal 0.587142052 -0.774121747 0.236642625
    outer loop
      vertex 0.573193191 -1.09837779 -0.00517373262
      vertex 0.922641106 -0.778299298 0.174862104
      vertex 0.76939924 -0.830962887 0.382798922
    endloop
  endfacet
  facet normal 0.587142052 -0.774121747 0.236642625
    outer loop
      vertex 0.573193191 -1.09837779 -0.00517373262
      vertex 0.76939924 -0.830962887 0.382798922
      vertex 0.683655023 -0.891813233 0.396483943
    endloop
  endfacet
  facet normal 0.587142052 -0.774121747 0.236642625
    outer loop
      vertex 0.573193191 -1.09837779 -0.00517373262
      vertex 0.683655023 -0.891813233 0.396483943
      vertex 0.607715063 -0.965514731 0.343803711
    endloop
  endfacet
  facet normal 0.598762881 -0.762006585 -0.246635313
    outer loop
      vertex 0.480581387 -1.07547996 -0.300755122
      vertex 0.601283589 -0.930808231 -0.454702293
      vertex 0.673304094 -0.878618475 -0.441102182
    endloop
  endfacet
  facet normal 0.598762881 -0.762006585 -0.246635313
    outer loop
      vertex 0.480581387 -1.07547996 -0.300755122
      vertex 0.673304094 -0.878618475 -0.441102182
      vertex 0.912573051 -0.785536146 -0.147810759
    endloop
  endfacet
  facet normal 0.598762881 -0.762006585 -0.246635313
    outer loop
      vertex 0.480581387 -1.07547996 -0.300755122
      vertex 0.912573051 -0.785536146 -0.147810759
      vertex 0.85190802 -0.883286098 0.00692027701
    endloop
  endfacet
  facet normal 0.598762881 -0.762006585 -0.246635313
    outer loop
      vertex 0.480581387 -1.07547996 -0.300755122
      vertex 0.85190802 -0.883286098 0.00692027701
      vertex 0.573193191 -1.09837779 -0.00517373262
    endloop
  endfacet
  facet normal 0.598762881 -0.762006585 -0.246635313
    outer loop
      vertex 0.480581387 -1.07547996 -0.300755122
      vertex 0.573193191 -1.09837779 -0.00517373262
      vertex 0.526559084 -1.12264666 -0.0434072227
    endloop
  endfacet
  facet normal 0.612462444 -0.13643649 -0.778636525
    outer loop
      vertex 0.696149965 -0.373769486 -0.772091318
      vertex 0.6717777 -0.126881026 -0.834523133
      vertex 0.951194871 0.00608607236 -0.638037411
    endloop
  endfacet
  facet normal 0.612462444 -0.13643649 -0.778636525
    outer loop
      vertex 0.696149965 -0.373769486 -0.772091318
      vertex 0.951194871 0.00608607236 -0.638037411
      vertex 1.07965502 -0.0938416358 -0.519482994
    endloop
  endfacet
  facet normal 0.612462444 -0.13643649 -0.778636525
    outer loop
      vertex 0.696149965 -0.373769486 -0.772091318
      vertex 1.07965502 -0.0938416358 -0.519482994
      vertex 1.04176735 -0.256048581 -0.520862104
    endloop
  endfacet
  facet normal 0.612462444 -0.13643649 -0.778636525
    outer loop
      vertex 0.696149965 -0.373769486 -0.772091318
      vertex 1.04176735 -0.256048581 -0.520862104
      vertex 0.877447255 -0.409266357 -0.623265972
    endloop
  endfacet
  facet normal 0.74290452 -0.497115368 -0.448295868
    outer loop
      vertex 0.673304094 -0.878618475 -0.441102182
      vertex 0.877447255 -0.409266357 -0.623265972
      vertex 1.04176735 -0.256048581 -0.520862104
    endloop
  endfacet
  facet normal 0.74290452 -0.497115368 -0.448295868
    outer loop
      vertex 0.673304094 -0.878618475 -0.441102182
      vertex 1.04176735 -0.256048581 -0.520862104
      vertex 1.07512909 -0.534059122 -0.15728994
    endloop
  endfacet
  facet normal 0.74290452 -0.497115368 -0.448295868
    outer loop
      vertex 0.673304094 -0.878618475 -0.441102182
      vertex 1.07512909 -0.534059122 -0.15728994
      vertex 0.912573051 -0.785536146 -0.147810759
    endloop
  endfacet
  facet normal 0.742240148 0.00016938149 0.670133967
    outer loop
      vertex 1.08305869 -0.313199889 0.378927255
      vertex 1.16584706 0.010243039 0.287149125
      vertex 1.0863762 0.330287406 0.375090131
    endloop
  endfacet
  facet normal 0.742240148 0.00016938149 0.670133967
    outer loop
      vertex 1.08305869 -0.313199889 0.378927255
      vertex 1.0863762 0.330287406 0.375090131
      vertex 0.925224495 0.419288022 0.553559208
    endloop
  endfacet
  facet normal 0.742240148 0.00016938149 0.670133967
    outer loop
      vertex 1.08305869 -0.313199889 0.378927255
      vertex 0.925224495 0.419288022 0.553559208
      vertex 0.746563324 0.278349971 0.751479882
    endloop
  endfacet
  facet normal 0.742240148 0.00016938149 0.670133967
    outer loop
      vertex 1.08305869 -0.313199889 0.378927255
      vertex 0.746563324 0.278349971 0.751479882
      vertex 0.69131894 0.00858541676 0.812736728
    endloop
  endfacet
  facet normal 0.742240148 0.00016938149 0.670133967
    outer loop
      vertex 1.08305869 -0.313199889 0.378927255
      vertex 0.69131894 0.00858541676 0.812736728
      vertex 0.741533252 -0.271432169 0.75719015
    endloop
  endfacet
  facet normal 0.742240148 0.00016938149 0.670133967
    outer loop
      vertex 1.08305869 -0.313199889 0.378927255
      vertex 0.741533252 -0.271432169 0.75719015
      vertex 0.919320026 -0.409131292 0.560308385
    endloop
  endfacet
  facet normal 0.759356888 0.467564267 0.452504998
    outer loop
      vertex 1.09045502 0.549209102 0.142038019
      vertex 0.96382724 0.729998044 0.167728854
      vertex 0.770663048 0.825633978 0.393062528
    endloop
  endfacet
  facet normal 0.759356888 0.467564267 0.452504998
    outer loop
      vertex 1.09045502 0.549209102 0.142038019
      vertex 0.770663048 0.825633978 0.393062528
      vertex 0.925224495 0.419288022 0.553559208
    endloop
  endfacet
  facet normal 0.759356888 0.467564267 0.452504998
    outer loop
      vertex 1.09045502 0.549209102 0.142038019
      vertex 0.925224495 0.419288022 0.553559208
      vertex 1.0863762 0.330287406 0.375090131
    endloop
  endfacet
  facet normal 0.760718344 0.287536295 -0.581919651
    outer loop
      vertex 1.07965502 -0.0938416358 -0.519482994
      vertex 0.951194871 0.00608607236 -0.638037411
      vertex 0.786393879 0.642176724 -0.539171509
    endloop
  endfacet
  facet normal 0.760718344 0.287536295 -0.581919651
    outer loop
      vertex 1.07965502 -0.0938416358 -0.519482994
      vertex 0.786393879 0.642176724 -0.539171509
      vertex 0.867043288 0.694316799 -0.407978743
    endloop
  endfacet
  facet normal 0.760718344 0.287536295 -0.581919651
    outer loop
      vertex 1.07965502 -0.0938416358 -0.519482994
      vertex 0.867043288 0.694316799 -0.407978743
      vertex 1.05199055 0.481054917 -0.271581484
    endloop
  endfacet
  facet normal 0.760718344 0.287536295 -0.581919651
    outer loop
      vertex 1.07965502 -0.0938416358 -0.519482994
      vertex 1.05199055 0.481054917 -0.271581484
      vertex 1.14104774 0.0155861156 -0.385156857
    endloop
  endfacet
  facet normal 0.766172364 -0.460795649 0.447936691
    outer loop
      vertex 0.922641106 -0.778299298 0.174862104
      vertex 1.08494791 -0.52696025 0.155799037
      vertex 1.08305869 -0.313199889 0.378927255
    endloop
  endfacet
  facet normal 0.766172364 -0.460795649 0.447936691
    outer loop
      vertex 0.922641106 -0.778299298 0.174862104
      vertex 1.08305869 -0.313199889 0.378927255
      vertex 0.919320026 -0.409131292 0.560308385
    endloop
  endfacet
  facet normal 0.766172364 -0.460795649 0.447936691
    outer loop
      vertex 0.922641106 -0.778299298 0.174862104
      vertex 0.919320026 -0.409131292 0.560308385
      vertex 0.76939924 -0.830962887 0.382798922
    endloop
  endfacet
  facet normal 0.795676522 0.5814352 -0.169799826
    outer loop
      vertex 1.05199055 0.481054917 -0.271581484
      vertex 0.867043288 0.694316799 -0.407978743
      vertex 0.691249045 0.998130197 -0.191415198
    endloop
  endfacet
  facet normal 0.795676522 0.5814352 -0.169799826
    outer loop
      vertex 1.05199055 0.481054917 -0.271581484
      vertex 0.691249045 0.998130197 -0.191415198
      vertex 0.96382724 0.729998044 0.167728854
    endloop
  endfacet
  facet normal 0.795676522 0.5814352 -0.169799826
    outer loop
      vertex 1.05199055 0.481054917 -0.271581484
      vertex 0.96382724 0.729998044 0.167728854
      vertex 1.09045502 0.549209102 0.142038019
    endloop
  endfacet
  facet normal 0.795676522 0.5814352 -0.169799826
    outer loop
      vertex 1.05199055 0.481054917 -0.271581484
      vertex 1.09045502 0.549209102 0.142038019
      vertex 1.12353965 0.476170389 0.0469695095
    endloop
  endfacet
  facet normal 0.839497143 -0.543183414 -0.0140116151
    outer loop
      vertex 0.912573051 -0.785536146 -0.147810759
      vertex 1.07512909 -0.534059122 -0.15728994
      vertex 1.13454878 -0.445974778 -0.011931428
    endloop
  endfacet
  facet normal 0.839497143 -0.543183414 -0.0140116151
    outer loop
      vertex 0.912573051 -0.785536146 -0.147810759
      vertex 1.13454878 -0.445974778 -0.011931428
      vertex 1.08494791 -0.52696025 0.155799037
    endloop
  endfacet
  facet normal 0.839497143 -0.543183414 -0.0140116151
    outer loop
      vertex 0.912573051 -0.785536146 -0.147810759
      vertex 1.08494791 -0.52696025 0.155799037
      vertex 0.922641106 -0.778299298 0.174862104
    endloop
  endfacet
  facet normal 0.839497143 -0.543183414 -0.0140116151
    outer loop
      vertex 0.912573051 -0.785536146 -0.147810759
      vertex 0.922641106 -0.778299298 0.174862104
      vertex 0.85190802 -0.883286098 0.00692027701
    endloop
  endfacet
  facet normal 0.942535211 -0.218001071 -0.253185525
    outer loop
      vertex 1.04176735 -0.256048581 -0.520862104
      vertex 1.07965502 -0.0938416358 -0.519482994
      vertex 1.14104774 0.0155861156 -0.385156857
    endloop
  endfacet
  facet normal 0.942535211 -0.218001071 -0.253185525
    outer loop
      vertex 1.04176735 -0.256048581 -0.520862104
      vertex 1.14104774 0.0155861156 -0.385156857
      vertex 1.22549963 -0.0189121448 -0.0410631723
    endloop
  endfacet
  facet normal 0.942535211 -0.218001071 -0.253185525
    outer loop
      vertex 1.04176735 -0.256048581 -0.520862104
      vertex 1.22549963 -0.0189121448 -0.0410631723
      vertex 1.13454878 -0.445974778 -0.011931428
    endloop
  endfacet
  facet normal 0.942535211 -0.218001071 -0.253185525
    outer loop
      vertex 1.04176735 -0.256048581 -0.520862104
      vertex 1.13454878 -0.445974778 -0.011931428
      vertex 1.07512909 -0.534059122 -0.15728994
    endloop
  endfacet
  facet normal 0.949626778 0.232863019 -0.209723145
    outer loop
      vertex 1.14104774 0.0155861156 -0.385156857
      vertex 1.05199055 0.481054917 -0.271581484
      vertex 1.12353965 0.476170389 0.0469695095
    endloop
  endfacet
  facet normal 0.949626778 0.232863019 -0.209723145
    outer loop
      vertex 1.14104774 0.0155861156 -0.385156857
      vertex 1.12353965 0.476170389 0.0469695095
      vertex 1.2251623 0.0101316296 -0.0103422811
    endloop
  endfacet
  facet normal 0.949626778 0.232863019 -0.209723145
    outer loop
      vertex 1.14104774 0.0155861156 -0.385156857
      vertex 1.2251623 0.0101316296 -0.0103422811
      vertex 1.22549963 -0.0189121448 -0.0410631723
    endloop
  endfacet
  facet normal 0.962460156 -0.191878403 0.191971684
    outer loop
      vertex 1.13454878 -0.445974778 -0.011931428
      vertex 1.22549963 -0.0189121448 -0.0410631723
      vertex 1.2251623 0.0101316296 -0.0103422811
    endloop
  endfacet
  facet normal 0.962460156 -0.191878403 0.191971684
    outer loop
      vertex 1.13454878 -0.445974778 -0.011931428
      vertex 1.2251623 0.0101316296 -0.0103422811
      vertex 1.16584706 0.010243039 0.287149125
    endloop
  endfacet
  facet normal 0.962460156 -0.191878403 0.191971684
    outer loop
      vertex 1.13454878 -0.445974778 -0.011931428
      vertex 1.16584706 0.010243039 0.287149125
      vertex 1.08305869 -0.313199889 0.378927255
    endloop
  endfacet
  facet normal 0.962460156 -0.191878403 0.191971684
    outer loop
      vertex 1.13454878 -0.445974778 -0.011931428
      vertex 1.08305869 -0.313199889 0.378927255
      vertex 1.08494791 -0.52696025 0.155799037
    endloop
  endfacet
  facet normal 0.963506852 0.186482413 0.192038685
    outer loop
      vertex 1.2251623 0.0101316296 -0.0103422811
      vertex 1.12353965 0.476170389 0.0469695095
      vertex 1.09045502 0.549209102 0.142038019
    endloop
  endfacet
  facet normal 0.963506852 0.186482413 0.192038685
    outer loop
      vertex 1.2251623 0.0101316296 -0.0103422811
      vertex 1.09045502 0.549209102 0.142038019
      vertex 1.0863762 0.330287406 0.375090131
    endloop
  endfacet
  facet normal 0.963506852 0.186482413 0.192038685
    outer loop
      vertex 1.2251623 0.0101316296 -0.0103422811
      vertex 1.0863762 0.330287406 0.375090131
      vertex 1.16584706 0.010243039 0.287149125
    endloop
  endfacet
endsolid bhs_submission_model08
