solid bhs_submission_model10
  facet normal -0.874209294 -0.115091796 -0.471711764
    outer loop
      vertex -3.6546164 1.49875915 -0.373014428
      vertex -3.60325294 1.53103235 -0.476079042
      vertex -3.5974115 1.53255034 -0.487275182
    endloop
  endfacet
  facet normal -0.874209294 -0.115091796 -0.471711764
    outer loop
      vertex -3.6546164 1.49875915 -0.373014428
      vertex -3.5974115 1.53255034 -0.487275182
      vertex -3.40352789 0.535937513 -0.60343276
    endloop
  endfacet
  facet normal -0.874209294 -0.115091796 -0.471711764
    outer loop
      vertex -3.6546164 1.49875915 -0.373014428
      vertex -3.40352789 0.535937513 -0.60343276
      vertex -3.56940547 -0.115047366 -0.137184606
    endloop
  endfacet
  facet normal -0.874209294 -0.115091796 -0.471711764
    outer loop
      vertex -3.6546164 1.49875915 -0.373014428
      vertex -3.56940547 -0.115047366 -0.137184606
      vertex -3.57477613 -0.115427909 -0.127138469
    endloop
  endfacet
  facet normal -0.874209294 -0.115091796 -0.471711764
    outer loop
      vertex -3.6546164 1.49875915 -0.373014428
      vertex -3.57477613 -0.115427909 -0.127138469
      vertex -3.63715084 0.294497082 -0.111557884
    endloop
  endfacet
  facet normal -0.874209294 -0.115091796 -0.471711764
    outer loop
      vertex -3.6546164 1.49875915 -0.373014428
      vertex -3.63715084 0.294497082 -0.111557884
      vertex -3.65202868 1.15664499 -0.294338574
    endloop
  endfacet
  facet normal -0.874590565 -0.362252895 -0.322279668
    outer loop
      vertex -3.43405091 -0.520201426 -0.0781870853
      vertex -2.51437391 -2.7407649 -0.0779862428
      vertex -2.61431536 -2.70342207 0.151256568
    endloop
  endfacet
  facet normal -0.874590565 -0.362252895 -0.322279668
    outer loop
      vertex -3.43405091 -0.520201426 -0.0781870853
      vertex -2.61431536 -2.70342207 0.151256568
      vertex -2.67412787 -2.59204695 0.18838427
    endloop
  endfacet
  facet normal -0.874590565 -0.362252895 -0.322279668
    outer loop
      vertex -3.43405091 -0.520201426 -0.0781870853
      vertex -2.67412787 -2.59204695 0.18838427
      vertex -2.76749086 -2.34855224 0.168053224
    endloop
  endfacet
  facet normal -0.858152142 -0.135917947 -0.495076977
    outer loop
      vertex -3.40352789 0.535937513 -0.60343276
      vertex -3.36126594 0.350153298 -0.625683385
      vertex -3.30593924 -0.161248145 -0.581185447
    endloop
  endfacet
  facet normal -0.858152142 -0.135917947 -0.495076977
    outer loop
      vertex -3.40352789 0.535937513 -0.60343276
      vertex -3.30593924 -0.161248145 -0.581185447
      vertex -3.56940547 -0.115047366 -0.137184606
    endloop
  endfacet
  facet normal -0.823556722 -0.341128366 -0.453195061
    outer loop
      vertex -3.30593924 -0.161248145 -0.581185447
      vertex -2.39020325 -2.56489271 -0.436014363
      vertex -2.32861712 -2.79542009 -0.374407881
    endloop
  endfacet
  facet normal -0.823556722 -0.341128366 -0.453195061
    outer loop
      vertex -3.30593924 -0.161248145 -0.581185447
      vertex -2.32861712 -2.79542009 -0.374407881
      vertex -2.51437391 -2.7407649 -0.0779862428
    endloop
  endfacet
  facet normal -0.823556722 -0.341128366 -0.453195061
    outer loop
      vertex -3.30593924 -0.161248145 -0.581185447
      vertex -2.51437391 -2.7407649 -0.0779862428
      vertex -3.43405091 -0.520201426 -0.0781870853
    endloop
  endfacet
  facet normal -0.823556722 -0.341128366 -0.453195061
    outer loop
      vertex -3.30593924 -0.161248145 -0.581185447
      vertex -3.43405091 -0.520201426 -0.0781870853
      vertex -3.57477613 -0.115427909 -0.127138469
    endloop
  endfacet
  facet normal -0.823556722 -0.341128366 -0.453195061
    outer loop
      vertex -3.30593924 -0.161248145 -0.581185447
      vertex -3.57477613 -0.115427909 -0.127138469
      vertex -3.56940547 -0.115047366 -0.137184606
    endloop
  endfacet
  facet normal -0.764394819 0.121068246 0.633279591
    outer loop
      vertex -3.65202868 1.15664499 -0.294338574
      vertex -3.63715084 0.294497082 -0.111557884
      vertex -3.44217752 0.51220614 0.0821621454
    endloop
  endfacet
  facet normal -0.736073401 0.146414103 0.66087734
    outer loop
      vertex -3.6546164 1.49875915 -0.373014428
      vertex -3.65202868 1.15664499 -0.294338574
      vertex -3.44217752 0.51220614 0.0821621454
    endloop
  endfacet
  facet normal -0.736073401 0.146414103 0.66087734
    outer loop
      vertex -3.6546164 1.49875915 -0.373014428
      vertex -3.44217752 0.51220614 0.0821621454
      vertex -3.17140619 0.724707701 0.336663757
    endloop
  endfacet
  facet normal -0.736073401 0.146414103 0.66087734
    outer loop
      vertex -3.6546164 1.49875915 -0.373014428
      vertex -3.17140619 0.724707701 0.336663757
      vertex -2.9234437 1.97282123 0.336326586
    endloop
  endfacet
  facet normal -0.736073401 0.146414103 0.66087734
    outer loop
      vertex -3.6546164 1.49875915 -0.373014428
      vertex -2.9234437 1.97282123 0.336326586
      vertex -2.94945799 2.29868593 0.235158625
    endloop
  endfacet
  facet normal -0.736073401 0.146414103 0.66087734
    outer loop
      vertex -3.6546164 1.49875915 -0.373014428
      vertex -2.94945799 2.29868593 0.235158625
      vertex -3.02050238 2.2340923 0.170341041
    endloop
  endfacet
  facet normal -0.701325112 0.700879329 -0.130043275
    outer loop
      vertex -2.73688215 2.41090748 -0.406266137
      vertex -3.14705481 1.98625625 -0.482893608
      vertex -3.60325294 1.53103235 -0.476079042
    endloop
  endfacet
  facet normal -0.701325112 0.700879329 -0.130043275
    outer loop
      vertex -2.73688215 2.41090748 -0.406266137
      vertex -3.60325294 1.53103235 -0.476079042
      vertex -3.6546164 1.49875915 -0.373014428
    endloop
  endfacet
  facet normal -0.701325112 0.700879329 -0.130043275
    outer loop
      vertex -2.73688215 2.41090748 -0.406266137
      vertex -3.6546164 1.49875915 -0.373014428
      vertex -3.02050238 2.2340923 0.170341041
    endloop
  endfacet
  facet normal -0.683232257 0.680739884 -0.264172092
    outer loop
      vertex -3.1680892 1.96350637 -0.487115779
      vertex -3.5974115 1.53255034 -0.487275182
      vertex -3.60325294 1.53103235 -0.476079042
    endloop
  endfacet
  facet normal -0.683232257 0.680739884 -0.264172092
    outer loop
      vertex -3.1680892 1.96350637 -0.487115779
      vertex -3.60325294 1.53103235 -0.476079042
      vertex -3.14705481 1.98625625 -0.482893608
    endloop
  endfacet
  facet normal -0.632616451 0.770845359 -0.0747921021
    outer loop
      vertex -2.63311003 2.49733928 -0.39319524
      vertex -2.73688215 2.41090748 -0.406266137
      vertex -3.02050238 2.2340923 0.170341041
    endloop
  endfacet
  facet normal -0.632616451 0.770845359 -0.0747921021
    outer loop
      vertex -2.63311003 2.49733928 -0.39319524
      vertex -3.02050238 2.2340923 0.170341041
      vertex -2.94945799 2.29868593 0.235158625
    endloop
  endfacet
  facet normal -0.632616451 0.770845359 -0.0747921021
    outer loop
      vertex -2.63311003 2.49733928 -0.39319524
      vertex -2.94945799 2.29868593 0.235158625
      vertex -2.64172252 2.54769384 0.198631682
    endloop
  endfacet
  facet normal -0.632616451 0.770845359 -0.0747921021
    outer loop
      vertex -2.63311003 2.49733928 -0.39319524
      vertex -2.64172252 2.54769384 0.198631682
      vertex -2.57649136 2.57996715 -0.0204899644
    endloop
  endfacet
  facet normal -0.625917586 -0.124502583 0.769887188
    outer loop
      vertex -3.44217752 0.51220614 0.0821621454
      vertex -3.63715084 0.294497082 -0.111557884
      vertex -3.57477613 -0.115427909 -0.127138469
    endloop
  endfacet
  facet normal -0.625917586 -0.124502583 0.769887188
    outer loop
      vertex -3.44217752 0.51220614 0.0821621454
      vertex -3.57477613 -0.115427909 -0.127138469
      vertex -3.43405091 -0.520201426 -0.0781870853
    endloop
  endfacet
  facet normal -0.625917586 -0.124502583 0.769887188
    outer loop
      vertex -3.44217752 0.51220614 0.0821621454
      vertex -3.43405091 -0.520201426 -0.0781870853
      vertex -2.76749086 -2.34855224 0.168053224
    endloop
  endfacet
  facet normal -0.625917586 -0.124502583 0.769887188
    outer loop
      vertex -3.44217752 0.51220614 0.0821621454
      vertex -2.76749086 -2.34855224 0.168053224
      vertex -2.44483777 -1.44537045 0.576428259
    endloop
  endfacet
  facet normal -0.625917586 -0.124502583 0.769887188
    outer loop
      vertex -3.44217752 0.51220614 0.0821621454
      vertex -2.44483777 -1.44537045 0.576428259
      vertex -2.44344402 -1.43845555 0.578679617
    endloop
  endfacet
  facet normal -0.625917586 -0.124502583 0.769887188
    outer loop
      vertex -3.44217752 0.51220614 0.0821621454
      vertex -2.44344402 -1.43845555 0.578679617
      vertex -2.44223122 -0.746674064 0.691537319
    endloop
  endfacet
  facet normal -0.625917586 -0.124502583 0.769887188
    outer loop
      vertex -3.44217752 0.51220614 0.0821621454
      vertex -2.44223122 -0.746674064 0.691537319
      vertex -2.47662761 -0.363070054 0.725607739
    endloop
  endfacet
  facet normal -0.625917586 -0.124502583 0.769887188
    outer loop
      vertex -3.44217752 0.51220614 0.0821621454
      vertex -2.47662761 -0.363070054 0.725607739
      vertex -2.8707914 0.724549175 0.581037668
    endloop
  endfacet
  facet normal -0.625917586 -0.124502583 0.769887188
    outer loop
      vertex -3.44217752 0.51220614 0.0821621454
      vertex -2.8707914 0.724549175 0.581037668
      vertex -3.17140619 0.724707701 0.336663757
    endloop
  endfacet
  facet normal -0.625835342 0.124542592 0.769947574
    outer loop
      vertex -2.9234437 1.97282123 0.336326586
      vertex -3.17140619 0.724707701 0.336663757
      vertex -2.8707914 0.724549175 0.581037668
    endloop
  endfacet
  facet normal -0.625835342 0.124542592 0.769947574
    outer loop
      vertex -2.9234437 1.97282123 0.336326586
      vertex -2.8707914 0.724549175 0.581037668
      vertex -2.84239784 1.04093763 0.552939464
    endloop
  endfacet
  facet normal -0.625835342 0.124542592 0.769947574
    outer loop
      vertex -2.9234437 1.97282123 0.336326586
      vertex -2.84239784 1.04093763 0.552939464
      vertex -2.84331495 1.57534683 0.46575085
    endloop
  endfacet
  facet normal -0.57891382 -0.155133628 0.800495063
    outer loop
      vertex -2.76749086 -2.34855224 0.168053224
      vertex -2.67412787 -2.59204695 0.18838427
      vertex -2.63156683 -2.49320239 0.238319985
    endloop
  endfacet
  facet normal -0.57891382 -0.155133628 0.800495063
    outer loop
      vertex -2.76749086 -2.34855224 0.168053224
      vertex -2.63156683 -2.49320239 0.238319985
      vertex -2.44483777 -1.44537045 0.576428259
    endloop
  endfacet
  facet normal -0.50890891 0.853514691 -0.111912441
    outer loop
      vertex -2.50291016 2.57594498 -0.385767579
      vertex -2.63311003 2.49733928 -0.39319524
      vertex -2.57649136 2.57996715 -0.0204899644
    endloop
  endfacet
  facet normal -0.50890891 0.853514691 -0.111912441
    outer loop
      vertex -2.50291016 2.57594498 -0.385767579
      vertex -2.57649136 2.57996715 -0.0204899644
      vertex -2.54138562 2.59180844 -0.0898201898
    endloop
  endfacet
  facet normal -0.293663737 0.951738439 -0.089193914
    outer loop
      vertex -2.34526117 2.62410631 -0.390911462
      vertex -2.50291016 2.57594498 -0.385767579
      vertex -2.54138562 2.59180844 -0.0898201898
    endloop
  endfacet
  facet normal -0.293663737 0.951738439 -0.089193914
    outer loop
      vertex -2.34526117 2.62410631 -0.390911462
      vertex -2.54138562 2.59180844 -0.0898201898
      vertex -2.34005403 2.63611513 -0.279916206
    endloop
  endfacet
  facet normal -0.161087318 -0.388894718 0.907089728
    outer loop
      vertex -2.61431536 -2.70342207 0.151256568
      vertex -1.97374389 -2.76569204 0.238316839
      vertex -2.63156683 -2.49320239 0.238319985
    endloop
  endfacet
  facet normal -0.161087318 -0.388894718 0.907089728
    outer loop
      vertex -2.61431536 -2.70342207 0.151256568
      vertex -2.63156683 -2.49320239 0.238319985
      vertex -2.67412787 -2.59204695 0.18838427
    endloop
  endfacet
  facet normal -0.158768219 -0.158698658 0.974478008
    outer loop
      vertex -2.44344402 -1.43845555 0.578679617
      vertex -1.90225572 -1.28723992 0.69147972
      vertex -2.44223122 -0.746674064 0.691537319
    endloop
  endfacet
  facet normal -0.158716838 0.158714215 0.974483845
    outer loop
      vertex -2.84239784 1.04093763 0.552939464
      vertex -2.42475799 1.45859469 0.552937785
      vertex -2.84331495 1.57534683 0.46575085
    endloop
  endfacet
  facet normal -0.124410344 -0.464306156 0.8768933
    outer loop
      vertex -1.92825966 -2.77033139 0.242584094
      vertex -0.791526376 -2.88709589 0.342033939
      vertex -0.333852951 -2.92785433 0.385385751
    endloop
  endfacet
  facet normal -0.124410344 -0.464306156 0.8768933
    outer loop
      vertex -1.92825966 -2.77033139 0.242584094
      vertex -0.333852951 -2.92785433 0.385385751
      vertex -0.367262949 -2.88899536 0.401221095
    endloop
  endfacet
  facet normal -0.118378412 0.285932055 -0.950909781
    outer loop
      vertex -0.95281813 2.25708656 -0.674616514
      vertex -3.1680892 1.96350637 -0.487115779
      vertex -3.14705481 1.98625625 -0.482893608
    endloop
  endfacet
  facet normal -0.118378412 0.285932055 -0.950909781
    outer loop
      vertex -0.95281813 2.25708656 -0.674616514
      vertex -3.14705481 1.98625625 -0.482893608
      vertex -2.73688215 2.41090748 -0.406266137
    endloop
  endfacet
  facet normal -0.118378412 0.285932055 -0.950909781
    outer loop
      vertex -0.95281813 2.25708656 -0.674616514
      vertex -2.73688215 2.41090748 -0.406266137
      vertex -2.63311003 2.49733928 -0.39319524
    endloop
  endfacet
  facet normal -0.118378412 0.285932055 -0.950909781
    outer loop
      vertex -0.95281813 2.25708656 -0.674616514
      vertex -2.63311003 2.49733928 -0.39319524
      vertex -2.50291016 2.57594498 -0.385767579
    endloop
  endfacet
  facet normal -0.118378412 0.285932055 -0.950909781
    outer loop
      vertex -0.95281813 2.25708656 -0.674616514
      vertex -2.50291016 2.57594498 -0.385767579
      vertex -2.34526117 2.62410631 -0.390911462
    endloop
  endfacet
  facet normal -0.118378412 0.285932055 -0.950909781
    outer loop
      vertex -0.95281813 2.25708656 -0.674616514
      vertex -2.34526117 2.62410631 -0.390911462
      vertex -1.01625799 2.74692931 -0.519426552
    endloop
  endfacet
  facet normal -0.118378412 0.285932055 -0.950909781
    outer loop
      vertex -0.95281813 2.25708656 -0.674616514
      vertex -1.01625799 2.74692931 -0.519426552
      vertex -0.952484413 2.67268261 -0.549691173
    endloop
  endfacet
  facet normal -0.118370986 0.285783848 0.950955258
    outer loop
      vertex -2.9234437 1.97282123 0.336326586
      vertex -2.84331495 1.57534683 0.46575085
      vertex -2.42475799 1.45859469 0.552937785
    endloop
  endfacet
  facet normal -0.118370986 0.285783848 0.950955258
    outer loop
      vertex -2.9234437 1.97282123 0.336326586
      vertex -2.42475799 1.45859469 0.552937785
      vertex -0.471306038 1.71760996 0.718255397
    endloop
  endfacet
  facet normal -0.118370986 0.285783848 0.950955258
    outer loop
      vertex -2.9234437 1.97282123 0.336326586
      vertex -0.471306038 1.71760996 0.718255397
      vertex -0.471185687 2.72713801 0.414884064
    endloop
  endfacet
  facet normal -0.118370986 0.285783848 0.950955258
    outer loop
      vertex -2.9234437 1.97282123 0.336326586
      vertex -0.471185687 2.72713801 0.414884064
      vertex -0.493503614 2.75310029 0.404303759
    endloop
  endfacet
  facet normal -0.118370986 0.285783848 0.950955258
    outer loop
      vertex -2.9234437 1.97282123 0.336326586
      vertex -0.493503614 2.75310029 0.404303759
      vertex -1.52984799 2.66110653 0.302950121
    endloop
  endfacet
  facet normal -0.118370986 0.285783848 0.950955258
    outer loop
      vertex -2.9234437 1.97282123 0.336326586
      vertex -1.52984799 2.66110653 0.302950121
      vertex -2.64172252 2.54769384 0.198631682
    endloop
  endfacet
  facet normal -0.118370986 0.285783848 0.950955258
    outer loop
      vertex -2.9234437 1.97282123 0.336326586
      vertex -2.64172252 2.54769384 0.198631682
      vertex -2.94945799 2.29868593 0.235158625
    endloop
  endfacet
  facet normal -0.11836497 -0.285758526 -0.950963616
    outer loop
      vertex -1.11363165 -2.9374044 -0.482969859
      vertex -1.58160818 -2.88703452 -0.439857375
      vertex -2.32861712 -2.79542009 -0.374407881
    endloop
  endfacet
  facet normal -0.11836497 -0.285758526 -0.950963616
    outer loop
      vertex -1.11363165 -2.9374044 -0.482969859
      vertex -2.32861712 -2.79542009 -0.374407881
      vertex -2.39020325 -2.56489271 -0.436014363
    endloop
  endfacet
  facet normal -0.11836497 -0.285758526 -0.950963616
    outer loop
      vertex -1.11363165 -2.9374044 -0.482969859
      vertex -2.39020325 -2.56489271 -0.436014363
      vertex -1.11363199 -2.73412329 -0.544054501
    endloop
  endfacet
  facet normal -0.11836491 -0.285758171 0.95096373
    outer loop
      vertex -2.63156683 -2.49320239 0.238319985
      vertex -1.97374389 -2.76569204 0.238316839
      vertex -1.92825966 -2.77033139 0.242584094
    endloop
  endfacet
  facet normal -0.11836491 -0.285758171 0.95096373
    outer loop
      vertex -2.63156683 -2.49320239 0.238319985
      vertex -1.92825966 -2.77033139 0.242584094
      vertex -0.367262949 -2.88899536 0.401221095
    endloop
  endfacet
  facet normal -0.11836491 -0.285758171 0.95096373
    outer loop
      vertex -2.63156683 -2.49320239 0.238319985
      vertex -0.367262949 -2.88899536 0.401221095
      vertex -0.367262949 -1.49074322 0.82138641
    endloop
  endfacet
  facet normal -0.11836491 -0.285758171 0.95096373
    outer loop
      vertex -2.63156683 -2.49320239 0.238319985
      vertex -0.367262949 -1.49074322 0.82138641
      vertex -1.90225572 -1.28723992 0.69147972
    endloop
  endfacet
  facet normal -0.11836491 -0.285758171 0.95096373
    outer loop
      vertex -2.63156683 -2.49320239 0.238319985
      vertex -1.90225572 -1.28723992 0.69147972
      vertex -2.44344402 -1.43845555 0.578679617
    endloop
  endfacet
  facet normal -0.11836491 -0.285758171 0.95096373
    outer loop
      vertex -2.63156683 -2.49320239 0.238319985
      vertex -2.44344402 -1.43845555 0.578679617
      vertex -2.44483777 -1.44537045 0.576428259
    endloop
  endfacet
  facet normal -0.111256069 0.987424924 0.112312543
    outer loop
      vertex -2.1071411 2.66110653 -0.268912638
      vertex -2.34005403 2.63611513 -0.279916206
      vertex -2.54138562 2.59180844 -0.0898201898
    endloop
  endfacet
  facet normal -0.111256069 0.987424924 0.112312543
    outer loop
      vertex -2.1071411 2.66110653 -0.268912638
      vertex -2.54138562 2.59180844 -0.0898201898
      vertex -2.57649136 2.57996715 -0.0204899644
    endloop
  endfacet
  facet normal -0.111256069 0.987424924 0.112312543
    outer loop
      vertex -2.1071411 2.66110653 -0.268912638
      vertex -2.57649136 2.57996715 -0.0204899644
      vertex -2.64172252 2.54769384 0.198631682
    endloop
  endfacet
  facet normal -0.111256069 0.987424924 0.112312543
    outer loop
      vertex -2.1071411 2.66110653 -0.268912638
      vertex -2.64172252 2.54769384 0.198631682
      vertex -1.52984799 2.66110653 0.302950121
    endloop
  endfacet
  facet normal -0.111255954 -0.987421371 0.112343882
    outer loop
      vertex -2.51437391 -2.7407649 -0.0779862428
      vertex -2.32861712 -2.79542009 -0.374407881
      vertex -1.58160818 -2.88703452 -0.439857375
    endloop
  endfacet
  facet normal -0.111255954 -0.987421371 0.112343882
    outer loop
      vertex -2.51437391 -2.7407649 -0.0779862428
      vertex -1.58160818 -2.88703452 -0.439857375
      vertex -0.791526376 -2.88709589 0.342033939
    endloop
  endfacet
  facet normal -0.111255954 -0.987421371 0.112343882
    outer loop
      vertex -2.51437391 -2.7407649 -0.0779862428
      vertex -0.791526376 -2.88709589 0.342033939
      vertex -1.92825966 -2.77033139 0.242584094
    endloop
  endfacet
  facet normal -0.111255954 -0.987421371 0.112343882
    outer loop
      vertex -2.51437391 -2.7407649 -0.0779862428
      vertex -1.92825966 -2.77033139 0.242584094
      vertex -1.97374389 -2.76569204 0.238316839
    endloop
  endfacet
  facet normal -0.111255954 -0.987421371 0.112343882
    outer loop
      vertex -2.51437391 -2.7407649 -0.0779862428
      vertex -1.97374389 -2.76569204 0.238316839
      vertex -2.61431536 -2.70342207 0.151256568
    endloop
  endfacet
  facet normal -0.101347455 0.989576369 -0.102309837
    outer loop
      vertex -1.01625799 2.74692931 -0.519426552
      vertex -2.34526117 2.62410631 -0.390911462
      vertex -2.34005403 2.63611513 -0.279916206
    endloop
  endfacet
  facet normal -0.101347455 0.989576369 -0.102309837
    outer loop
      vertex -1.01625799 2.74692931 -0.519426552
      vertex -2.34005403 2.63611513 -0.279916206
      vertex -2.1071411 2.66110653 -0.268912638
    endloop
  endfacet
  facet normal -0.101347455 0.989576369 -0.102309837
    outer loop
      vertex -1.01625799 2.74692931 -0.519426552
      vertex -2.1071411 2.66110653 -0.268912638
      vertex -0.00477095617 2.87221579 -0.309584513
    endloop
  endfacet
  facet normal -0.0966548861 0.0966548861 -0.990613782
    outer loop
      vertex 0.47514806 0.694597189 -0.966397374
      vertex 0.475165538 0.350222098 -1
      vertex -3.36126594 0.350153298 -0.625683385
    endloop
  endfacet
  facet normal -0.0966548861 0.0966548861 -0.990613782
    outer loop
      vertex 0.47514806 0.694597189 -0.966397374
      vertex -3.36126594 0.350153298 -0.625683385
      vertex -3.40352789 0.535937513 -0.60343276
    endloop
  endfacet
  facet normal -0.0966548861 0.0966548861 -0.990613782
    outer loop
      vertex 0.47514806 0.694597189 -0.966397374
      vertex -3.40352789 0.535937513 -0.60343276
      vertex -3.5974115 1.53255034 -0.487275182
    endloop
  endfacet
  facet normal -0.0966548861 0.0966548861 -0.990613782
    outer loop
      vertex 0.47514806 0.694597189 -0.966397374
      vertex -3.5974115 1.53255034 -0.487275182
      vertex -3.1680892 1.96350637 -0.487115779
    endloop
  endfacet
  facet normal -0.0966548861 0.0966548861 -0.990613782
    outer loop
      vertex 0.47514806 0.694597189 -0.966397374
      vertex -3.1680892 1.96350637 -0.487115779
      vertex -0.95281813 2.25708656 -0.674616514
    endloop
  endfacet
  facet normal -0.0966514842 -0.0966514842 -0.990614446
    outer loop
      vertex -1.11363199 -2.73412329 -0.544054501
      vertex -2.39020325 -2.56489271 -0.436014363
      vertex -3.30593924 -0.161248145 -0.581185447
    endloop
  endfacet
  facet normal -0.0966514842 -0.0966514842 -0.990614446
    outer loop
      vertex -1.11363199 -2.73412329 -0.544054501
      vertex -3.30593924 -0.161248145 -0.581185447
      vertex -3.36126594 0.350153298 -0.625683385
    endloop
  endfacet
  facet normal -0.0966514842 -0.0966514842 -0.990614446
    outer loop
      vertex -1.11363199 -2.73412329 -0.544054501
      vertex -3.36126594 0.350153298 -0.625683385
      vertex 0.475165538 0.350222098 -1
    endloop
  endfacet
  facet normal -0.0966514842 -0.0966514842 -0.990614446
    outer loop
      vertex -1.11363199 -2.73412329 -0.544054501
      vertex 0.475165538 0.350222098 -1
      vertex 0.707737869 0.117649768 -1
    endloop
  endfacet
  facet normal -0.0966514842 -0.0966514842 -0.990614446
    outer loop
      vertex -1.11363199 -2.73412329 -0.544054501
      vertex 0.707737869 0.117649768 -1
      vertex 0.7077097 -0.741265812 -0.916195258
    endloop
  endfacet
  facet normal -0.0975408077 0.99034844 0.0984670425
    outer loop
      vertex 0.192470972 2.88593498 -0.252180968
      vertex 0.166367762 2.88593512 -0.278040026
      vertex -0.00477095617 2.87221579 -0.309584513
    endloop
  endfacet
  facet normal -0.0975408077 0.99034844 0.0984670425
    outer loop
      vertex 0.192470972 2.88593498 -0.252180968
      vertex -0.00477095617 2.87221579 -0.309584513
      vertex -2.1071411 2.66110653 -0.268912638
    endloop
  endfacet
  facet normal -0.0975408077 0.99034844 0.0984670425
    outer loop
      vertex 0.192470972 2.88593498 -0.252180968
      vertex -2.1071411 2.66110653 -0.268912638
      vertex -1.52984799 2.66110653 0.302950121
    endloop
  endfacet
  facet normal -0.0975408077 0.99034844 0.0984670425
    outer loop
      vertex 0.192470972 2.88593498 -0.252180968
      vertex -1.52984799 2.66110653 0.302950121
      vertex -0.493503614 2.75310029 0.404303759
    endloop
  endfacet
  facet normal -0.0975408077 0.99034844 0.0984670425
    outer loop
      vertex 0.192470972 2.88593498 -0.252180968
      vertex -0.493503614 2.75310029 0.404303759
      vertex 0.181815288 2.83336512 0.265993604
    endloop
  endfacet
  facet normal -0.0966492803 -0.0966492803 0.990614876
    outer loop
      vertex -1.90225572 -1.28723992 0.69147972
      vertex -0.367262949 -1.49074322 0.82138641
      vertex 0.335778804 -0.72151246 0.965028588
    endloop
  endfacet
  facet normal -0.0966492803 -0.0966492803 0.990614876
    outer loop
      vertex -1.90225572 -1.28723992 0.69147972
      vertex 0.335778804 -0.72151246 0.965028588
      vertex 0.335778804 -0.363070054 1
    endloop
  endfacet
  facet normal -0.0966492803 -0.0966492803 0.990614876
    outer loop
      vertex -1.90225572 -1.28723992 0.69147972
      vertex 0.335778804 -0.363070054 1
      vertex -2.47662761 -0.363070054 0.725607739
    endloop
  endfacet
  facet normal -0.0966492803 -0.0966492803 0.990614876
    outer loop
      vertex -1.90225572 -1.28723992 0.69147972
      vertex -2.47662761 -0.363070054 0.725607739
      vertex -2.44223122 -0.746674064 0.691537319
    endloop
  endfacet
  facet normal -0.0966492803 0.0966492803 0.990614876
    outer loop
      vertex -2.47662761 -0.363070054 0.725607739
      vertex 0.335778804 -0.363070054 1
      vertex 0.553488056 -0.145360803 1
    endloop
  endfacet
  facet normal -0.0966492803 0.0966492803 0.990614876
    outer loop
      vertex -2.47662761 -0.363070054 0.725607739
      vertex 0.553488056 -0.145360803 1
      vertex 0.552923124 0.596953075 0.927521074
    endloop
  endfacet
  facet normal -0.0966492803 0.0966492803 0.990614876
    outer loop
      vertex -2.47662761 -0.363070054 0.725607739
      vertex 0.552923124 0.596953075 0.927521074
      vertex -0.471306038 1.71760996 0.718255397
    endloop
  endfacet
  facet normal -0.0966492803 0.0966492803 0.990614876
    outer loop
      vertex -2.47662761 -0.363070054 0.725607739
      vertex -0.471306038 1.71760996 0.718255397
      vertex -2.42475799 1.45859469 0.552937785
    endloop
  endfacet
  facet normal -0.0966492803 0.0966492803 0.990614876
    outer loop
      vertex -2.47662761 -0.363070054 0.725607739
      vertex -2.42475799 1.45859469 0.552937785
      vertex -2.84239784 1.04093763 0.552939464
    endloop
  endfacet
  facet normal -0.0966492803 0.0966492803 0.990614876
    outer loop
      vertex -2.47662761 -0.363070054 0.725607739
      vertex -2.84239784 1.04093763 0.552939464
      vertex -2.8707914 0.724549175 0.581037668
    endloop
  endfacet
  facet normal -0.0975233809 -0.990350138 0.0984672275
    outer loop
      vertex -1.58160818 -2.88703452 -0.439857375
      vertex -1.11363165 -2.9374044 -0.482969859
      vertex 1.04141043 -3.11756684 -0.160597679
    endloop
  endfacet
  facet normal -0.0975233809 -0.990350138 0.0984672275
    outer loop
      vertex -1.58160818 -2.88703452 -0.439857375
      vertex 1.04141043 -3.11756684 -0.160597679
      vertex 1.81168769 -3.17930312 -0.0186265448
    endloop
  endfacet
  facet normal -0.0975233809 -0.990350138 0.0984672275
    outer loop
      vertex -1.58160818 -2.88703452 -0.439857375
      vertex 1.81168769 -3.17930312 -0.0186265448
      vertex 0.43554591 -3.01576812 0.263202426
    endloop
  endfacet
  facet normal -0.0975233809 -0.990350138 0.0984672275
    outer loop
      vertex -1.58160818 -2.88703452 -0.439857375
      vertex 0.43554591 -3.01576812 0.263202426
      vertex -0.333852951 -2.92785433 0.385385751
    endloop
  endfacet
  facet normal -0.0975233809 -0.990350138 0.0984672275
    outer loop
      vertex -1.58160818 -2.88703452 -0.439857375
      vertex -0.333852951 -2.92785433 0.385385751
      vertex -0.791526376 -2.88709589 0.342033939
    endloop
  endfacet
  facet normal 0.0966492803 -0.0966492803 0.990614876
    outer loop
      vertex 0.335778804 -0.363070054 1
      vertex 0.335778804 -0.72151246 0.965028588
      vertex 2.844856 -0.388868877 0.752684975
    endloop
  endfacet
  facet normal 0.0966492803 -0.0966492803 0.990614876
    outer loop
      vertex 0.335778804 -0.363070054 1
      vertex 2.844856 -0.388868877 0.752684975
      vertex 3.04288105 -0.190843821 0.752684975
    endloop
  endfacet
  facet normal 0.0966492803 -0.0966492803 0.990614876
    outer loop
      vertex 0.335778804 -0.363070054 1
      vertex 3.04288105 -0.190843821 0.752684975
      vertex 3.0475964 -0.147258922 0.756477281
    endloop
  endfacet
  facet normal 0.0966492803 -0.0966492803 0.990614876
    outer loop
      vertex 0.335778804 -0.363070054 1
      vertex 3.0475964 -0.147258922 0.756477281
      vertex 0.553488056 -0.145360803 1
    endloop
  endfacet
  facet normal 0.0966577056 -0.0966577056 -0.990613232
    outer loop
      vertex 3.39427303 -0.38519135 -0.688801055
      vertex 0.7077097 -0.741265812 -0.916195258
      vertex 0.707737869 0.117649768 -1
    endloop
  endfacet
  facet normal 0.0966577056 -0.0966577056 -0.990613232
    outer loop
      vertex 3.39427303 -0.38519135 -0.688801055
      vertex 0.707737869 0.117649768 -1
      vertex 3.59139958 0.117546273 -0.718620629
    endloop
  endfacet
  facet normal 0.0966645142 0.0966645142 -0.990611904
    outer loop
      vertex 3.66359112 0.272099552 -0.696494731
      vertex 3.59139958 0.117546273 -0.718620629
      vertex 0.707737869 0.117649768 -1
    endloop
  endfacet
  facet normal 0.0966645142 0.0966645142 -0.990611904
    outer loop
      vertex 3.66359112 0.272099552 -0.696494731
      vertex 0.707737869 0.117649768 -1
      vertex 0.475165538 0.350222098 -1
    endloop
  endfacet
  facet normal 0.0966645142 0.0966645142 -0.990611904
    outer loop
      vertex 3.66359112 0.272099552 -0.696494731
      vertex 0.475165538 0.350222098 -1
      vertex 0.47514806 0.694597189 -0.966397374
    endloop
  endfacet
  facet normal 0.0967937439 0.0967937439 0.990586666
    outer loop
      vertex 0.553488056 -0.145360803 1
      vertex 3.0475964 -0.147258922 0.756477281
      vertex 3.10728522 0.115010514 0.725017595
    endloop
  endfacet
  facet normal 0.0967937439 0.0967937439 0.990586666
    outer loop
      vertex 0.553488056 -0.145360803 1
      vertex 3.10728522 0.115010514 0.725017595
      vertex 3.13478602 0.256301207 0.708524379
    endloop
  endfacet
  facet normal 0.0967937439 0.0967937439 0.990586666
    outer loop
      vertex 0.553488056 -0.145360803 1
      vertex 3.13478602 0.256301207 0.708524379
      vertex 0.552923124 0.596953075 0.927521074
    endloop
  endfacet
  facet normal 0.0996653921 0.989922334 -0.100601109
    outer loop
      vertex 0.166367762 2.88593512 -0.278040026
      vertex 0.192470972 2.88593498 -0.252180968
      vertex 0.420012854 2.86281091 -0.254298038
    endloop
  endfacet
  facet normal 0.101516173 0.989541615 0.102478574
    outer loop
      vertex 2.63772324 2.61623447 -0.0702188013
      vertex 0.420012854 2.86281091 -0.254298038
      vertex 0.192470972 2.88593498 -0.252180968
    endloop
  endfacet
  facet normal 0.101516173 0.989541615 0.102478574
    outer loop
      vertex 2.63772324 2.61623447 -0.0702188013
      vertex 0.192470972 2.88593498 -0.252180968
      vertex 0.181815288 2.83336512 0.265993604
    endloop
  endfacet
  facet normal 0.101516173 0.989541615 0.102478574
    outer loop
      vertex 2.63772324 2.61623447 -0.0702188013
      vertex 0.181815288 2.83336512 0.265993604
      vertex 2.63628853 2.60510987 0.0386225172
    endloop
  endfacet
  facet normal 0.11836491 -0.285758171 0.95096373
    outer loop
      vertex -0.367262949 -2.88899536 0.401221095
      vertex -0.333852951 -2.92785433 0.385385751
      vertex 0.43554591 -3.01576812 0.263202426
    endloop
  endfacet
  facet normal 0.11836491 -0.285758171 0.95096373
    outer loop
      vertex -0.367262949 -2.88899536 0.401221095
      vertex 0.43554591 -3.01576812 0.263202426
      vertex 1.28050379 -2.95153982 0.177332061
    endloop
  endfacet
  facet normal 0.11836491 -0.285758171 0.95096373
    outer loop
      vertex -0.367262949 -2.88899536 0.401221095
      vertex 1.28050379 -2.95153982 0.177332061
      vertex 2.37275316 -2.49911532 0.177332061
    endloop
  endfacet
  facet normal 0.11836491 -0.285758171 0.95096373
    outer loop
      vertex -0.367262949 -2.88899536 0.401221095
      vertex 2.37275316 -2.49911532 0.177332061
      vertex 2.62705869 -2.1350226 0.255086464
    endloop
  endfacet
  facet normal 0.11836491 -0.285758171 0.95096373
    outer loop
      vertex -0.367262949 -2.88899536 0.401221095
      vertex 2.62705869 -2.1350226 0.255086464
      vertex 2.66772848 -2.06867665 0.269960871
    endloop
  endfacet
  facet normal 0.11836491 -0.285758171 0.95096373
    outer loop
      vertex -0.367262949 -2.88899536 0.401221095
      vertex 2.66772848 -2.06867665 0.269960871
      vertex 2.88220129 -1.39437865 0.445887778
    endloop
  endfacet
  facet normal 0.11836491 -0.285758171 0.95096373
    outer loop
      vertex -0.367262949 -2.88899536 0.401221095
      vertex 2.88220129 -1.39437865 0.445887778
      vertex 3.03160908 -0.835125411 0.595343052
    endloop
  endfacet
  facet normal 0.11836491 -0.285758171 0.95096373
    outer loop
      vertex -0.367262949 -2.88899536 0.401221095
      vertex 3.03160908 -0.835125411 0.595343052
      vertex 3.02522213 -0.439198276 0.715111452
    endloop
  endfacet
  facet normal 0.11836491 -0.285758171 0.95096373
    outer loop
      vertex -0.367262949 -2.88899536 0.401221095
      vertex 3.02522213 -0.439198276 0.715111452
      vertex 2.844856 -0.388868877 0.752684975
    endloop
  endfacet
  facet normal 0.11836491 -0.285758171 0.95096373
    outer loop
      vertex -0.367262949 -2.88899536 0.401221095
      vertex 2.844856 -0.388868877 0.752684975
      vertex 0.335778804 -0.72151246 0.965028588
    endloop
  endfacet
  facet normal 0.11836491 -0.285758171 0.95096373
    outer loop
      vertex -0.367262949 -2.88899536 0.401221095
      vertex 0.335778804 -0.72151246 0.965028588
      vertex -0.367262949 -1.49074322 0.82138641
    endloop
  endfacet
  facet normal 0.11836491 0.285758171 0.95096373
    outer loop
      vertex 0.552923124 0.596953075 0.927521074
      vertex 3.13478602 0.256301207 0.708524379
      vertex 3.48046426 1.35387717 0.335684212
    endloop
  endfacet
  facet normal 0.11836491 0.285758171 0.95096373
    outer loop
      vertex 0.552923124 0.596953075 0.927521074
      vertex 3.48046426 1.35387717 0.335684212
      vertex 3.03469069 2.10468734 0.165555548
    endloop
  endfacet
  facet normal 0.11836491 0.285758171 0.95096373
    outer loop
      vertex 0.552923124 0.596953075 0.927521074
      vertex 3.03469069 2.10468734 0.165555548
      vertex 2.84228871 2.34480992 0.117348296
    endloop
  endfacet
  facet normal 0.11836491 0.285758171 0.95096373
    outer loop
      vertex 0.552923124 0.596953075 0.927521074
      vertex 2.84228871 2.34480992 0.117348296
      vertex 2.45655601 2.50458564 0.117348296
    endloop
  endfacet
  facet normal 0.11836491 0.285758171 0.95096373
    outer loop
      vertex 0.552923124 0.596953075 0.927521074
      vertex 2.45655601 2.50458564 0.117348296
      vertex -0.471185687 2.72713801 0.414884064
    endloop
  endfacet
  facet normal 0.11836491 0.285758171 0.95096373
    outer loop
      vertex 0.552923124 0.596953075 0.927521074
      vertex -0.471185687 2.72713801 0.414884064
      vertex -0.471306038 1.71760996 0.718255397
    endloop
  endfacet
  facet normal 0.11836491 -0.285758171 -0.95096373
    outer loop
      vertex 1.99478731 -2.96204311 -0.0886662354
      vertex 1.74920939 -3.06376482 -0.0886662354
      vertex 1.04141043 -3.11756684 -0.160597679
    endloop
  endfacet
  facet normal 0.11836491 -0.285758171 -0.95096373
    outer loop
      vertex 1.99478731 -2.96204311 -0.0886662354
      vertex 1.04141043 -3.11756684 -0.160597679
      vertex -1.11363165 -2.9374044 -0.482969859
    endloop
  endfacet
  facet normal 0.11836491 -0.285758171 -0.95096373
    outer loop
      vertex 1.99478731 -2.96204311 -0.0886662354
      vertex -1.11363165 -2.9374044 -0.482969859
      vertex -1.11363199 -2.73412329 -0.544054501
    endloop
  endfacet
  facet normal 0.11836491 -0.285758171 -0.95096373
    outer loop
      vertex 1.99478731 -2.96204311 -0.0886662354
      vertex -1.11363199 -2.73412329 -0.544054501
      vertex 0.7077097 -0.741265812 -0.916195258
    endloop
  endfacet
  facet normal 0.11836491 -0.285758171 -0.95096373
    outer loop
      vertex 1.99478731 -2.96204311 -0.0886662354
      vertex 0.7077097 -0.741265812 -0.916195258
      vertex 3.39427303 -0.38519135 -0.688801055
    endloop
  endfacet
  facet normal 0.11836491 -0.285758171 -0.95096373
    outer loop
      vertex 1.99478731 -2.96204311 -0.0886662354
      vertex 3.39427303 -0.38519135 -0.688801055
      vertex 3.36008264 -0.492907441 -0.660688719
    endloop
  endfacet
  facet normal 0.11836491 0.285758171 -0.95096373
    outer loop
      vertex 3.57065918 1.38295038 -0.374258657
      vertex 3.7611859 1.03974558 -0.453674826
      vertex 3.74214105 0.414720357 -0.643861162
    endloop
  endfacet
  facet normal 0.11836491 0.285758171 -0.95096373
    outer loop
      vertex 3.57065918 1.38295038 -0.374258657
      vertex 3.74214105 0.414720357 -0.643861162
      vertex 3.66359112 0.272099552 -0.696494731
    endloop
  endfacet
  facet normal 0.11836491 0.285758171 -0.95096373
    outer loop
      vertex 3.57065918 1.38295038 -0.374258657
      vertex 3.66359112 0.272099552 -0.696494731
      vertex 0.47514806 0.694597189 -0.966397374
    endloop
  endfacet
  facet normal 0.11836491 0.285758171 -0.95096373
    outer loop
      vertex 3.57065918 1.38295038 -0.374258657
      vertex 0.47514806 0.694597189 -0.966397374
      vertex -0.95281813 2.25708656 -0.674616514
    endloop
  endfacet
  facet normal 0.11836491 0.285758171 -0.95096373
    outer loop
      vertex 3.57065918 1.38295038 -0.374258657
      vertex -0.95281813 2.25708656 -0.674616514
      vertex -0.952484413 2.67268261 -0.549691173
    endloop
  endfacet
  facet normal 0.11836491 0.285758171 -0.95096373
    outer loop
      vertex 3.57065918 1.38295038 -0.374258657
      vertex -0.952484413 2.67268261 -0.549691173
      vertex 2.26417259 2.42817045 -0.222793353
    endloop
  endfacet
  facet normal 0.11836491 0.285758171 -0.95096373
    outer loop
      vertex 3.57065918 1.38295038 -0.374258657
      vertex 2.26417259 2.42817045 -0.222793353
      vertex 3.04533178 2.10460372 -0.222793353
    endloop
  endfacet
  facet normal 0.11836491 0.285758171 -0.95096373
    outer loop
      vertex 3.57065918 1.38295038 -0.374258657
      vertex 3.04533178 2.10460372 -0.222793353
      vertex 3.32406397 1.75563768 -0.292961948
    endloop
  endfacet
  facet normal 0.124409267 -0.464301707 -0.876895809
    outer loop
      vertex 1.04141043 -3.11756684 -0.160597679
      vertex 1.74920939 -3.06376482 -0.0886662354
      vertex 1.91208969 -3.12149388 -0.0349910763
    endloop
  endfacet
  facet normal 0.124409267 -0.464301707 -0.876895809
    outer loop
      vertex 1.04141043 -3.11756684 -0.160597679
      vertex 1.91208969 -3.12149388 -0.0349910763
      vertex 1.89589983 -3.1553809 -0.0193453991
    endloop
  endfacet
  facet normal 0.124409267 -0.464301707 -0.876895809
    outer loop
      vertex 1.04141043 -3.11756684 -0.160597679
      vertex 1.89589983 -3.1553809 -0.0193453991
      vertex 1.87515406 -3.16229736 -0.0186265446
    endloop
  endfacet
  facet normal 0.124409267 -0.464301707 -0.876895809
    outer loop
      vertex 1.04141043 -3.11756684 -0.160597679
      vertex 1.87515406 -3.16229736 -0.0186265446
      vertex 1.81168769 -3.17930312 -0.0186265448
    endloop
  endfacet
  facet normal 0.12440937 -0.464302106 0.876895583
    outer loop
      vertex 1.81168769 -3.17930312 -0.0186265448
      vertex 1.87515406 -3.16229736 -0.0186265446
      vertex 1.28050379 -2.95153982 0.177332061
    endloop
  endfacet
  facet normal 0.12440937 -0.464302106 0.876895583
    outer loop
      vertex 1.81168769 -3.17930312 -0.0186265448
      vertex 1.28050379 -2.95153982 0.177332061
      vertex 0.43554591 -3.01576812 0.263202426
    endloop
  endfacet
  facet normal 0.124409534 0.464302719 -0.876895235
    outer loop
      vertex -0.952484413 2.67268261 -0.549691173
      vertex -1.01625799 2.74692931 -0.519426552
      vertex -0.00477095617 2.87221579 -0.309584513
    endloop
  endfacet
  facet normal 0.124409534 0.464302719 -0.876895235
    outer loop
      vertex -0.952484413 2.67268261 -0.549691173
      vertex -0.00477095617 2.87221579 -0.309584513
      vertex 0.166367762 2.88593512 -0.278040026
    endloop
  endfacet
  facet normal 0.124409534 0.464302719 -0.876895235
    outer loop
      vertex -0.952484413 2.67268261 -0.549691173
      vertex 0.166367762 2.88593512 -0.278040026
      vertex 0.420012854 2.86281091 -0.254298038
    endloop
  endfacet
  facet normal 0.124409534 0.464302719 -0.876895235
    outer loop
      vertex -0.952484413 2.67268261 -0.549691173
      vertex 0.420012854 2.86281091 -0.254298038
      vertex 2.63772324 2.61623447 -0.0702188013
    endloop
  endfacet
  facet normal 0.124409534 0.464302719 -0.876895235
    outer loop
      vertex -0.952484413 2.67268261 -0.549691173
      vertex 2.63772324 2.61623447 -0.0702188013
      vertex 2.67442641 2.5735714 -0.0876009865
    endloop
  endfacet
  facet normal 0.124409534 0.464302719 -0.876895235
    outer loop
      vertex -0.952484413 2.67268261 -0.549691173
      vertex 2.67442641 2.5735714 -0.0876009865
      vertex 2.26417259 2.42817045 -0.222793353
    endloop
  endfacet
  facet normal 0.124409683 0.464303544 0.876894777
    outer loop
      vertex 2.45655601 2.50458564 0.117348296
      vertex 2.6587937 2.57626077 0.0507047855
      vertex 2.63628853 2.60510987 0.0386225172
    endloop
  endfacet
  facet normal 0.124409683 0.464303544 0.876894777
    outer loop
      vertex 2.45655601 2.50458564 0.117348296
      vertex 2.63628853 2.60510987 0.0386225172
      vertex 0.181815288 2.83336512 0.265993604
    endloop
  endfacet
  facet normal 0.124409683 0.464303544 0.876894777
    outer loop
      vertex 2.45655601 2.50458564 0.117348296
      vertex 0.181815288 2.83336512 0.265993604
      vertex -0.493503614 2.75310029 0.404303759
    endloop
  endfacet
  facet normal 0.124409683 0.464303544 0.876894777
    outer loop
      vertex 2.45655601 2.50458564 0.117348296
      vertex -0.493503614 2.75310029 0.404303759
      vertex -0.471185687 2.72713801 0.414884064
    endloop
  endfacet
  facet normal 0.158714822 -0.158714821 0.974484074
    outer loop
      vertex 2.844856 -0.388868877 0.752684975
      vertex 3.02522213 -0.439198276 0.715111452
      vertex 3.04288105 -0.190843821 0.752684975
    endloop
  endfacet
  facet normal 0.161085535 -0.388894883 -0.907089974
    outer loop
      vertex 1.91208969 -3.12149388 -0.0349910763
      vertex 1.74920939 -3.06376482 -0.0886662354
      vertex 1.99478731 -2.96204311 -0.0886662354
    endloop
  endfacet
  facet normal 0.161085535 0.388894883 0.907089974
    outer loop
      vertex 2.84228871 2.34480992 0.117348296
      vertex 2.6587937 2.57626077 0.0507047855
      vertex 2.45655601 2.50458564 0.117348296
    endloop
  endfacet
  facet normal 0.161085535 0.388894883 -0.907089974
    outer loop
      vertex 3.04533178 2.10460372 -0.222793353
      vertex 2.26417259 2.42817045 -0.222793353
      vertex 2.67442641 2.5735714 -0.0876009865
    endloop
  endfacet
  facet normal 0.161085535 0.388894883 -0.907089974
    outer loop
      vertex 3.04533178 2.10460372 -0.222793353
      vertex 2.67442641 2.5735714 -0.0876009865
      vertex 2.67973112 2.56731405 -0.089341653
    endloop
  endfacet
  facet normal 0.161085535 -0.388894883 0.907089973
    outer loop
      vertex 1.28050379 -2.95153982 0.177332061
      vertex 1.87515406 -3.16229736 -0.0186265446
      vertex 1.89589983 -3.1553809 -0.0193453991
    endloop
  endfacet
  facet normal 0.161085535 -0.388894883 0.907089973
    outer loop
      vertex 1.28050379 -2.95153982 0.177332061
      vertex 1.89589983 -3.1553809 -0.0193453991
      vertex 2.37275316 -2.49911532 0.177332061
    endloop
  endfacet
  facet normal 0.770815279 0.632649408 0.0748233355
    outer loop
      vertex 3.11799343 2.03262851 -0.0833380963
      vertex 2.67973112 2.56731405 -0.089341653
      vertex 2.67442641 2.5735714 -0.0876009865
    endloop
  endfacet
  facet normal 0.770815279 0.632649408 0.0748233355
    outer loop
      vertex 3.11799343 2.03262851 -0.0833380963
      vertex 2.67442641 2.5735714 -0.0876009865
      vertex 2.63772324 2.61623447 -0.0702188013
    endloop
  endfacet
  facet normal 0.770815279 0.632649408 0.0748233355
    outer loop
      vertex 3.11799343 2.03262851 -0.0833380963
      vertex 2.63772324 2.61623447 -0.0702188013
      vertex 2.63628853 2.60510987 0.0386225172
    endloop
  endfacet
  facet normal 0.770815279 0.632649408 0.0748233355
    outer loop
      vertex 3.11799343 2.03262851 -0.0833380963
      vertex 2.63628853 2.60510987 0.0386225172
      vertex 2.6587937 2.57626077 0.0507047855
    endloop
  endfacet
  facet normal 0.770815279 0.632649408 0.0748233355
    outer loop
      vertex 3.11799343 2.03262851 -0.0833380963
      vertex 2.6587937 2.57626077 0.0507047855
      vertex 2.84228871 2.34480992 0.117348296
    endloop
  endfacet
  facet normal 0.770815279 0.632649408 0.0748233355
    outer loop
      vertex 3.11799343 2.03262851 -0.0833380963
      vertex 2.84228871 2.34480992 0.117348296
      vertex 3.03469069 2.10468734 0.165555548
    endloop
  endfacet
  facet normal 0.771573907 0.631577164 -0.0760525592
    outer loop
      vertex 3.32406397 1.75563768 -0.292961948
      vertex 3.04533178 2.10460372 -0.222793353
      vertex 2.67973112 2.56731405 -0.089341653
    endloop
  endfacet
  facet normal 0.771573907 0.631577164 -0.0760525592
    outer loop
      vertex 3.32406397 1.75563768 -0.292961948
      vertex 2.67973112 2.56731405 -0.089341653
      vertex 3.11799343 2.03262851 -0.0833380963
    endloop
  endfacet
  facet normal 0.815940542 -0.512952551 -0.266684668
    outer loop
      vertex 1.99478731 -2.96204311 -0.0886662354
      vertex 3.36008264 -0.492907441 -0.660688719
      vertex 3.49135529 -0.434297953 -0.371782779
    endloop
  endfacet
  facet normal 0.815940542 -0.512952551 -0.266684668
    outer loop
      vertex 1.99478731 -2.96204311 -0.0886662354
      vertex 3.49135529 -0.434297953 -0.371782779
      vertex 3.02267336 -1.40218362 0.0559239814
    endloop
  endfacet
  facet normal 0.815940542 -0.512952551 -0.266684668
    outer loop
      vertex 1.99478731 -2.96204311 -0.0886662354
      vertex 3.02267336 -1.40218362 0.0559239814
      vertex 2.78406673 -1.85420676 0.195330564
    endloop
  endfacet
  facet normal 0.815940542 -0.512952551 -0.266684668
    outer loop
      vertex 1.99478731 -2.96204311 -0.0886662354
      vertex 2.78406673 -1.85420676 0.195330564
      vertex 2.62705869 -2.1350226 0.255086464
    endloop
  endfacet
  facet normal 0.815940542 -0.512952551 -0.266684668
    outer loop
      vertex 1.99478731 -2.96204311 -0.0886662354
      vertex 2.62705869 -2.1350226 0.255086464
      vertex 2.37275316 -2.49911532 0.177332061
    endloop
  endfacet
  facet normal 0.815940542 -0.512952551 -0.266684668
    outer loop
      vertex 1.99478731 -2.96204311 -0.0886662354
      vertex 2.37275316 -2.49911532 0.177332061
      vertex 1.89589983 -3.1553809 -0.0193453991
    endloop
  endfacet
  facet normal 0.815940542 -0.512952551 -0.266684668
    outer loop
      vertex 1.99478731 -2.96204311 -0.0886662354
      vertex 1.89589983 -3.1553809 -0.0193453991
      vertex 1.91208969 -3.12149388 -0.0349910763
    endloop
  endfacet
  facet normal 0.823554741 -0.341130268 0.453197229
    outer loop
      vertex 2.88220129 -1.39437865 0.445887778
      vertex 3.04113329 -1.01067665 0.445894758
      vertex 3.09147252 -0.824629557 0.494459013
    endloop
  endfacet
  facet normal 0.823554741 -0.341130268 0.453197229
    outer loop
      vertex 2.88220129 -1.39437865 0.445887778
      vertex 3.09147252 -0.824629557 0.494459013
      vertex 3.03160908 -0.835125411 0.595343052
    endloop
  endfacet
  facet normal 0.839727364 0.527635674 0.128290883
    outer loop
      vertex 3.64196658 1.1858124 -0.0302104655
      vertex 3.6535843 1.176847 -0.0693811752
      vertex 3.57065918 1.38295038 -0.374258657
    endloop
  endfacet
  facet normal 0.839727364 0.527635674 0.128290883
    outer loop
      vertex 3.64196658 1.1858124 -0.0302104655
      vertex 3.57065918 1.38295038 -0.374258657
      vertex 3.32406397 1.75563768 -0.292961948
    endloop
  endfacet
  facet normal 0.839727364 0.527635674 0.128290883
    outer loop
      vertex 3.64196658 1.1858124 -0.0302104655
      vertex 3.32406397 1.75563768 -0.292961948
      vertex 3.11799343 2.03262851 -0.0833380963
    endloop
  endfacet
  facet normal 0.839727364 0.527635674 0.128290883
    outer loop
      vertex 3.64196658 1.1858124 -0.0302104655
      vertex 3.11799343 2.03262851 -0.0833380963
      vertex 3.03469069 2.10468734 0.165555548
    endloop
  endfacet
  facet normal 0.839727364 0.527635674 0.128290883
    outer loop
      vertex 3.64196658 1.1858124 -0.0302104655
      vertex 3.03469069 2.10468734 0.165555548
      vertex 3.48046426 1.35387717 0.335684212
    endloop
  endfacet
  facet normal 0.839727364 0.527635674 0.128290883
    outer loop
      vertex 3.64196658 1.1858124 -0.0302104655
      vertex 3.48046426 1.35387717 0.335684212
      vertex 3.5447052 1.28469031 0.199747665
    endloop
  endfacet
  facet normal 0.858174524 -0.502334147 -0.105815362
    outer loop
      vertex 2.78406673 -1.85420676 0.195330564
      vertex 2.66772848 -2.06867665 0.269960871
      vertex 2.62705869 -2.1350226 0.255086464
    endloop
  endfacet
  facet normal 0.858152142 -0.135917947 0.495076977
    outer loop
      vertex 3.03160908 -0.835125411 0.595343052
      vertex 3.09147252 -0.824629557 0.494459013
      vertex 3.2672068 -0.512601289 0.275510225
    endloop
  endfacet
  facet normal 0.858152142 -0.135917947 0.495076977
    outer loop
      vertex 3.03160908 -0.835125411 0.595343052
      vertex 3.2672068 -0.512601289 0.275510225
      vertex 3.10728522 0.115010514 0.725017595
    endloop
  endfacet
  facet normal 0.858152142 -0.135917947 0.495076977
    outer loop
      vertex 3.03160908 -0.835125411 0.595343052
      vertex 3.10728522 0.115010514 0.725017595
      vertex 3.0475964 -0.147258922 0.756477281
    endloop
  endfacet
  facet normal 0.858152142 -0.135917947 0.495076977
    outer loop
      vertex 3.03160908 -0.835125411 0.595343052
      vertex 3.0475964 -0.147258922 0.756477281
      vertex 3.04288105 -0.190843821 0.752684975
    endloop
  endfacet
  facet normal 0.858152142 -0.135917947 0.495076977
    outer loop
      vertex 3.03160908 -0.835125411 0.595343052
      vertex 3.04288105 -0.190843821 0.752684975
      vertex 3.02522213 -0.439198276 0.715111452
    endloop
  endfacet
  facet normal 0.874159057 -0.361967308 -0.323767836
    outer loop
      vertex 3.36008264 -0.492907441 -0.660688719
      vertex 3.39427303 -0.38519135 -0.688801055
      vertex 3.59139958 0.117546273 -0.718620629
    endloop
  endfacet
  facet normal 0.874159057 -0.361967308 -0.323767836
    outer loop
      vertex 3.36008264 -0.492907441 -0.660688719
      vertex 3.59139958 0.117546273 -0.718620629
      vertex 3.66359112 0.272099552 -0.696494731
    endloop
  endfacet
  facet normal 0.874159057 -0.361967308 -0.323767836
    outer loop
      vertex 3.36008264 -0.492907441 -0.660688719
      vertex 3.66359112 0.272099552 -0.696494731
      vertex 3.74214105 0.414720357 -0.643861162
    endloop
  endfacet
  facet normal 0.874159057 -0.361967308 -0.323767836
    outer loop
      vertex 3.36008264 -0.492907441 -0.660688719
      vertex 3.74214105 0.414720357 -0.643861162
      vertex 3.58143432 -0.196518958 -0.394406457
    endloop
  endfacet
  facet normal 0.874159057 -0.361967308 -0.323767836
    outer loop
      vertex 3.36008264 -0.492907441 -0.660688719
      vertex 3.58143432 -0.196518958 -0.394406457
      vertex 3.49135529 -0.434297953 -0.371782779
    endloop
  endfacet
  facet normal 0.874581943 -0.362263703 0.322290916
    outer loop
      vertex 2.66772848 -2.06867665 0.269960871
      vertex 2.78406673 -1.85420676 0.195330564
      vertex 3.02267336 -1.40218362 0.0559239814
    endloop
  endfacet
  facet normal 0.874581943 -0.362263703 0.322290916
    outer loop
      vertex 2.66772848 -2.06867665 0.269960871
      vertex 3.02267336 -1.40218362 0.0559239814
      vertex 3.04113329 -1.01067665 0.445894758
    endloop
  endfacet
  facet normal 0.874581943 -0.362263703 0.322290916
    outer loop
      vertex 2.66772848 -2.06867665 0.269960871
      vertex 3.04113329 -1.01067665 0.445894758
      vertex 2.88220129 -1.39437865 0.445887778
    endloop
  endfacet
  facet normal 0.874209283 -0.115091835 0.471711776
    outer loop
      vertex 3.2672068 -0.512601289 0.275510225
      vertex 3.44013837 -0.238744674 0.021838952
      vertex 3.62108146 1.18763143 0.0345206647
    endloop
  endfacet
  facet normal 0.874209283 -0.115091835 0.471711776
    outer loop
      vertex 3.2672068 -0.512601289 0.275510225
      vertex 3.62108146 1.18763143 0.0345206647
      vertex 3.5447052 1.28469031 0.199747665
    endloop
  endfacet
  facet normal 0.874209283 -0.115091835 0.471711776
    outer loop
      vertex 3.2672068 -0.512601289 0.275510225
      vertex 3.5447052 1.28469031 0.199747665
      vertex 3.48046426 1.35387717 0.335684212
    endloop
  endfacet
  facet normal 0.874209283 -0.115091835 0.471711776
    outer loop
      vertex 3.2672068 -0.512601289 0.275510225
      vertex 3.48046426 1.35387717 0.335684212
      vertex 3.13478602 0.256301207 0.708524379
    endloop
  endfacet
  facet normal 0.874209283 -0.115091835 0.471711776
    outer loop
      vertex 3.2672068 -0.512601289 0.275510225
      vertex 3.13478602 0.256301207 0.708524379
      vertex 3.10728522 0.115010514 0.725017595
    endloop
  endfacet
  facet normal 0.879211956 0.469914161 0.0785303592
    outer loop
      vertex 3.7611859 1.03974558 -0.453674826
      vertex 3.57065918 1.38295038 -0.374258657
      vertex 3.6535843 1.176847 -0.0693811752
    endloop
  endfacet
  facet normal 0.907281873 -0.317471461 0.275774319
    outer loop
      vertex 3.02267336 -1.40218362 0.0559239814
      vertex 3.49135529 -0.434297953 -0.371782779
      vertex 3.58143432 -0.196518958 -0.394406457
    endloop
  endfacet
  facet normal 0.907281873 -0.317471461 0.275774319
    outer loop
      vertex 3.02267336 -1.40218362 0.0559239814
      vertex 3.58143432 -0.196518958 -0.394406457
      vertex 3.44013837 -0.238744674 0.021838952
    endloop
  endfacet
  facet normal 0.907281873 -0.317471461 0.275774319
    outer loop
      vertex 3.02267336 -1.40218362 0.0559239814
      vertex 3.44013837 -0.238744674 0.021838952
      vertex 3.2672068 -0.512601289 0.275510225
    endloop
  endfacet
  facet normal 0.907281873 -0.317471461 0.275774319
    outer loop
      vertex 3.02267336 -1.40218362 0.0559239814
      vertex 3.2672068 -0.512601289 0.275510225
      vertex 3.09147252 -0.824629557 0.494459013
    endloop
  endfacet
  facet normal 0.907281873 -0.317471461 0.275774319
    outer loop
      vertex 3.02267336 -1.40218362 0.0559239814
      vertex 3.09147252 -0.824629557 0.494459013
      vertex 3.04113329 -1.01067665 0.445894758
    endloop
  endfacet
  facet normal 0.927708757 0.231553675 0.292812836
    outer loop
      vertex 3.62108146 1.18763143 0.0345206647
      vertex 3.64196658 1.1858124 -0.0302104655
      vertex 3.5447052 1.28469031 0.199747665
    endloop
  endfacet
  facet normal 0.943521308 -0.122427654 0.307862
    outer loop
      vertex 3.58143432 -0.196518958 -0.394406457
      vertex 3.74214105 0.414720357 -0.643861162
      vertex 3.7611859 1.03974558 -0.453674826
    endloop
  endfacet
  facet normal 0.943521308 -0.122427654 0.307862
    outer loop
      vertex 3.58143432 -0.196518958 -0.394406457
      vertex 3.7611859 1.03974558 -0.453674826
      vertex 3.6535843 1.176847 -0.0693811752
    endloop
  endfacet
  facet normal 0.943521308 -0.122427654 0.307862
    outer loop
      vertex 3.58143432 -0.196518958 -0.394406457
      vertex 3.6535843 1.176847 -0.0693811752
      vertex 3.64196658 1.1858124 -0.0302104655
    endloop
  endfacet
  facet normal 0.943521308 -0.122427654 0.307862
    outer loop
      vertex 3.58143432 -0.196518958 -0.394406457
      vertex 3.64196658 1.1858124 -0.0302104655
      vertex 3.62108146 1.18763143 0.0345206647
    endloop
  endfacet
  facet normal 0.943521308 -0.122427654 0.307862
    outer loop
      vertex 3.58143432 -0.196518958 -0.394406457
      vertex 3.62108146 1.18763143 0.0345206647
      vertex 3.44013837 -0.238744674 0.021838952
    endloop
  endfacet
endsolid bhs_submission_model10
