solid bhs_submission_model06
  facet normal -0.993083282 -0.10480009 -0.0529389817
    outer loop
      vertex -0.369423946 0.215452802 -0.63868717
      vertex -0.363117062 0.187536442 -0.70173379
      vertex -0.300278428 -0.45908297 -0.600451612
    endloop
  endfacet
  facet normal -0.993083282 -0.10480009 -0.0529389817
    outer loop
      vertex -0.369423946 0.215452802 -0.63868717
      vertex -0.300278428 -0.45908297 -0.600451612
      vertex -0.304630708 -0.564538662 -0.310042881
    endloop
  endfacet
  facet normal -0.993083282 -0.10480009 -0.0529389817
    outer loop
      vertex -0.369423946 0.215452802 -0.63868717
      vertex -0.304630708 -0.564538662 -0.310042881
      vertex -0.315497003 -0.530517648 -0.173551192
    endloop
  endfacet
  facet normal -0.993083282 -0.10480009 -0.0529389817
    outer loop
      vertex -0.369423946 0.215452802 -0.63868717
      vertex -0.315497003 -0.530517648 -0.173551192
      vertex -0.394298147 0.215476802 -0.17211911
    endloop
  endfacet
  facet normal -0.99305668 -0.105000728 0.0530403325
    outer loop
      vertex -0.394298147 0.215476802 -0.17211911
      vertex -0.315497003 -0.530517648 -0.173551192
      vertex -0.292549806 -0.597782172 0.122922132
    endloop
  endfacet
  facet normal -0.99305668 -0.105000728 0.0530403325
    outer loop
      vertex -0.394298147 0.215476802 -0.17211911
      vertex -0.292549806 -0.597782172 0.122922132
      vertex -0.293238406 -0.53073157 0.242765705
    endloop
  endfacet
  facet normal -0.99305668 -0.105000728 0.0530403325
    outer loop
      vertex -0.394298147 0.215476802 -0.17211911
      vertex -0.293238406 -0.53073157 0.242765705
      vertex -0.377535715 0.335121791 0.378572304
    endloop
  endfacet
  facet normal -0.99305668 -0.105000728 0.0530403325
    outer loop
      vertex -0.394298147 0.215476802 -0.17211911
      vertex -0.377535715 0.335121791 0.378572304
      vertex -0.393793286 0.35278786 0.109159606
    endloop
  endfacet
  facet normal -0.99229537 0.112029591 -0.0529081289
    outer loop
      vertex -0.314738061 0.768686953 -0.492886409
      vertex -0.369423946 0.215452802 -0.63868717
      vertex -0.394298147 0.215476802 -0.17211911
    endloop
  endfacet
  facet normal -0.99229537 0.112029591 -0.0529081289
    outer loop
      vertex -0.314738061 0.768686953 -0.492886409
      vertex -0.394298147 0.215476802 -0.17211911
      vertex -0.393793286 0.35278786 0.109159606
    endloop
  endfacet
  facet normal -0.99229537 0.112029591 -0.0529081289
    outer loop
      vertex -0.314738061 0.768686953 -0.492886409
      vertex -0.393793286 0.35278786 0.109159606
      vertex -0.359069982 0.666193049 0.121537314
    endloop
  endfacet
  facet normal -0.99197776 0.107262909 0.066893887
    outer loop
      vertex -0.359069982 0.666193049 0.121537314
      vertex -0.393793286 0.35278786 0.109159606
      vertex -0.377535715 0.335121791 0.378572304
    endloop
  endfacet
  facet normal -0.99197776 0.107262909 0.066893887
    outer loop
      vertex -0.359069982 0.666193049 0.121537314
      vertex -0.377535715 0.335121791 0.378572304
      vertex -0.339657059 0.471353579 0.721834853
    endloop
  endfacet
  facet normal -0.99197776 0.107262909 0.066893887
    outer loop
      vertex -0.359069982 0.666193049 0.121537314
      vertex -0.339657059 0.471353579 0.721834853
      vertex -0.334258608 0.500541193 0.755087452
    endloop
  endfacet
  facet normal -0.99197776 0.107262909 0.066893887
    outer loop
      vertex -0.359069982 0.666193049 0.121537314
      vertex -0.334258608 0.500541193 0.755087452
      vertex -0.328188406 0.564904431 0.74189816
    endloop
  endfacet
  facet normal -0.99197776 0.107262909 0.066893887
    outer loop
      vertex -0.359069982 0.666193049 0.121537314
      vertex -0.328188406 0.564904431 0.74189816
      vertex -0.330459279 0.580983811 0.682440156
    endloop
  endfacet
  facet normal -0.949692719 -0.313173627 0.00245321025
    outer loop
      vertex -0.315497003 -0.530517648 -0.173551192
      vertex -0.304630708 -0.564538662 -0.310042881
      vertex -0.259243033 -0.701653815 -0.24339749
    endloop
  endfacet
  facet normal -0.949692719 -0.313173627 0.00245321025
    outer loop
      vertex -0.315497003 -0.530517648 -0.173551192
      vertex -0.259243033 -0.701653815 -0.24339749
      vertex -0.23177768 -0.78370561 -0.0855688217
    endloop
  endfacet
  facet normal -0.949692719 -0.313173627 0.00245321025
    outer loop
      vertex -0.315497003 -0.530517648 -0.173551192
      vertex -0.23177768 -0.78370561 -0.0855688217
      vertex -0.228998988 -0.791775058 -0.0400100064
    endloop
  endfacet
  facet normal -0.949692719 -0.313173627 0.00245321025
    outer loop
      vertex -0.315497003 -0.530517648 -0.173551192
      vertex -0.228998988 -0.791775058 -0.0400100064
      vertex -0.231205376 -0.784923474 -0.0194880516
    endloop
  endfacet
  facet normal -0.949692719 -0.313173627 0.00245321025
    outer loop
      vertex -0.315497003 -0.530517648 -0.173551192
      vertex -0.231205376 -0.784923474 -0.0194880516
      vertex -0.248480304 -0.731816643 0.0725487755
    endloop
  endfacet
  facet normal -0.949692719 -0.313173627 0.00245321025
    outer loop
      vertex -0.315497003 -0.530517648 -0.173551192
      vertex -0.248480304 -0.731816643 0.0725487755
      vertex -0.292549806 -0.597782172 0.122922132
    endloop
  endfacet
  facet normal -0.98048938 -0.119891252 0.15577761
    outer loop
      vertex -0.377535715 0.335121791 0.378572304
      vertex -0.293238406 -0.53073157 0.242765705
      vertex -0.245254536 -0.446670538 0.609479878
    endloop
  endfacet
  facet normal -0.98048938 -0.119891252 0.15577761
    outer loop
      vertex -0.377535715 0.335121791 0.378572304
      vertex -0.245254536 -0.446670538 0.609479878
      vertex -0.24696721 -0.400780218 0.634018637
    endloop
  endfacet
  facet normal -0.98048938 -0.119891252 0.15577761
    outer loop
      vertex -0.377535715 0.335121791 0.378572304
      vertex -0.24696721 -0.400780218 0.634018637
      vertex -0.339657059 0.471353579 0.721834853
    endloop
  endfacet
  facet normal -0.977484734 0.138561253 -0.159136341
    outer loop
      vertex -0.300316697 0.531680944 -0.787831692
      vertex -0.336636766 0.192883116 -0.859731912
      vertex -0.363117062 0.187536442 -0.70173379
    endloop
  endfacet
  facet normal -0.977484734 0.138561253 -0.159136341
    outer loop
      vertex -0.300316697 0.531680944 -0.787831692
      vertex -0.363117062 0.187536442 -0.70173379
      vertex -0.369423946 0.215452802 -0.63868717
    endloop
  endfacet
  facet normal -0.977484734 0.138561253 -0.159136341
    outer loop
      vertex -0.300316697 0.531680944 -0.787831692
      vertex -0.369423946 0.215452802 -0.63868717
      vertex -0.314738061 0.768686953 -0.492886409
    endloop
  endfacet
  facet normal -0.977484734 0.138561253 -0.159136341
    outer loop
      vertex -0.300316697 0.531680944 -0.787831692
      vertex -0.314738061 0.768686953 -0.492886409
      vertex -0.295426111 0.787223975 -0.59536849
    endloop
  endfacet
  facet normal -0.977484734 0.138561253 -0.159136341
    outer loop
      vertex -0.300316697 0.531680944 -0.787831692
      vertex -0.295426111 0.787223975 -0.59536849
      vertex -0.29393713 0.780868017 -0.61004864
    endloop
  endfacet
  facet normal -0.978272807 -0.12139343 -0.168065315
    outer loop
      vertex -0.336636766 0.192883116 -0.859731912
      vertex -0.291229276 -0.0705916352 -0.933731771
      vertex -0.269023831 -0.331252298 -0.874710021
    endloop
  endfacet
  facet normal -0.978272807 -0.12139343 -0.168065315
    outer loop
      vertex -0.336636766 0.192883116 -0.859731912
      vertex -0.269023831 -0.331252298 -0.874710021
      vertex -0.295157213 -0.459861673 -0.629698666
    endloop
  endfacet
  facet normal -0.978272807 -0.12139343 -0.168065315
    outer loop
      vertex -0.336636766 0.192883116 -0.859731912
      vertex -0.295157213 -0.459861673 -0.629698666
      vertex -0.300278428 -0.45908297 -0.600451612
    endloop
  endfacet
  facet normal -0.978272807 -0.12139343 -0.168065315
    outer loop
      vertex -0.336636766 0.192883116 -0.859731912
      vertex -0.300278428 -0.45908297 -0.600451612
      vertex -0.363117062 0.187536442 -0.70173379
    endloop
  endfacet
  facet normal -0.91450488 -0.375688921 -0.150128808
    outer loop
      vertex -0.300278428 -0.45908297 -0.600451612
      vertex -0.295157213 -0.459861673 -0.629698666
      vertex -0.248022708 -0.594463917 -0.579982452
    endloop
  endfacet
  facet normal -0.91450488 -0.375688921 -0.150128808
    outer loop
      vertex -0.300278428 -0.45908297 -0.600451612
      vertex -0.248022708 -0.594463917 -0.579982452
      vertex -0.259243033 -0.701653815 -0.24339749
    endloop
  endfacet
  facet normal -0.91450488 -0.375688921 -0.150128808
    outer loop
      vertex -0.300278428 -0.45908297 -0.600451612
      vertex -0.259243033 -0.701653815 -0.24339749
      vertex -0.304630708 -0.564538662 -0.310042881
    endloop
  endfacet
  facet normal -0.95488361 -0.128446179 0.267766447
    outer loop
      vertex -0.334258608 0.500541193 0.755087452
      vertex -0.339657059 0.471353579 0.721834853
      vertex -0.24696721 -0.400780218 0.634018637
    endloop
  endfacet
  facet normal -0.95488361 -0.128446179 0.267766447
    outer loop
      vertex -0.334258608 0.500541193 0.755087452
      vertex -0.24696721 -0.400780218 0.634018637
      vertex -0.217337718 -0.0528670849 0.906572682
    endloop
  endfacet
  facet normal -0.95488361 -0.128446179 0.267766447
    outer loop
      vertex -0.334258608 0.500541193 0.755087452
      vertex -0.217337718 -0.0528670849 0.906572682
      vertex -0.223191716 0.0644085854 0.941953236
    endloop
  endfacet
  facet normal -0.95488361 -0.128446179 0.267766447
    outer loop
      vertex -0.334258608 0.500541193 0.755087452
      vertex -0.223191716 0.0644085854 0.941953236
      vertex -0.243171792 0.155754304 0.914520232
    endloop
  endfacet
  facet normal -0.904621687 -0.374151015 0.204133834
    outer loop
      vertex -0.293238406 -0.53073157 0.242765705
      vertex -0.292549806 -0.597782172 0.122922132
      vertex -0.248480304 -0.731816643 0.0725487755
    endloop
  endfacet
  facet normal -0.904621687 -0.374151015 0.204133834
    outer loop
      vertex -0.293238406 -0.53073157 0.242765705
      vertex -0.248480304 -0.731816643 0.0725487755
      vertex -0.195568538 -0.577073057 0.590652996
    endloop
  endfacet
  facet normal -0.904621687 -0.374151015 0.204133834
    outer loop
      vertex -0.293238406 -0.53073157 0.242765705
      vertex -0.195568538 -0.577073057 0.590652996
      vertex -0.193614556 -0.548114597 0.652389216
    endloop
  endfacet
  facet normal -0.904621687 -0.374151015 0.204133834
    outer loop
      vertex -0.293238406 -0.53073157 0.242765705
      vertex -0.193614556 -0.548114597 0.652389216
      vertex -0.245254536 -0.446670538 0.609479878
    endloop
  endfacet
  facet normal -0.856426257 -0.413883744 -0.308600573
    outer loop
      vertex -0.269023831 -0.331252298 -0.874710021
      vertex -0.154852016 -0.594058041 -0.839093482
      vertex -0.248022708 -0.594463917 -0.579982452
    endloop
  endfacet
  facet normal -0.856426257 -0.413883744 -0.308600573
    outer loop
      vertex -0.269023831 -0.331252298 -0.874710021
      vertex -0.248022708 -0.594463917 -0.579982452
      vertex -0.295157213 -0.459861673 -0.629698666
    endloop
  endfacet
  facet normal -0.86612204 -0.260446675 0.426614745
    outer loop
      vertex -0.24696721 -0.400780218 0.634018637
      vertex -0.245254536 -0.446670538 0.609479878
      vertex -0.193614556 -0.548114597 0.652389216
    endloop
  endfacet
  facet normal -0.86612204 -0.260446675 0.426614745
    outer loop
      vertex -0.24696721 -0.400780218 0.634018637
      vertex -0.193614556 -0.548114597 0.652389216
      vertex -0.121033633 -0.504375866 0.82644683
    endloop
  endfacet
  facet normal -0.86612204 -0.260446675 0.426614745
    outer loop
      vertex -0.24696721 -0.400780218 0.634018637
      vertex -0.121033633 -0.504375866 0.82644683
      vertex -0.217337718 -0.0528670849 0.906572682
    endloop
  endfacet
  facet normal -0.675689313 -0.695616403 -0.244052808
    outer loop
      vertex -0.248022708 -0.594463917 -0.579982452
      vertex -0.154852016 -0.594058041 -0.839093482
      vertex -0.0961317046 -0.650671617 -0.84030369
    endloop
  endfacet
  facet normal -0.675689313 -0.695616403 -0.244052808
    outer loop
      vertex -0.248022708 -0.594463917 -0.579982452
      vertex -0.0961317046 -0.650671617 -0.84030369
      vertex -0.126470652 -0.786315192 -0.369685878
    endloop
  endfacet
  facet normal -0.675689313 -0.695616403 -0.244052808
    outer loop
      vertex -0.248022708 -0.594463917 -0.579982452
      vertex -0.126470652 -0.786315192 -0.369685878
      vertex -0.23177768 -0.78370561 -0.0855688217
    endloop
  endfacet
  facet normal -0.675689313 -0.695616403 -0.244052808
    outer loop
      vertex -0.248022708 -0.594463917 -0.579982452
      vertex -0.23177768 -0.78370561 -0.0855688217
      vertex -0.259243033 -0.701653815 -0.24339749
    endloop
  endfacet
  facet normal -0.665952316 -0.693411708 0.275114006
    outer loop
      vertex -0.248480304 -0.731816643 0.0725487755
      vertex -0.231205376 -0.784923474 -0.0194880516
      vertex -0.144483822 -0.714945937 0.366808761
    endloop
  endfacet
  facet normal -0.665952316 -0.693411708 0.275114006
    outer loop
      vertex -0.248480304 -0.731816643 0.0725487755
      vertex -0.144483822 -0.714945937 0.366808761
      vertex -0.195568538 -0.577073057 0.590652996
    endloop
  endfacet
  facet normal -0.392543435 -0.909451377 -0.137141695
    outer loop
      vertex -0.126470652 -0.786315192 -0.369685878
      vertex -0.0371593023 -0.822611096 -0.384628269
      vertex 0.0488226207 -0.914419427 -0.0219116354
    endloop
  endfacet
  facet normal -0.392543435 -0.909451377 -0.137141695
    outer loop
      vertex -0.126470652 -0.786315192 -0.369685878
      vertex 0.0488226207 -0.914419427 -0.0219116354
      vertex -0.228998988 -0.791775058 -0.0400100064
    endloop
  endfacet
  facet normal -0.392543435 -0.909451377 -0.137141695
    outer loop
      vertex -0.126470652 -0.786315192 -0.369685878
      vertex -0.228998988 -0.791775058 -0.0400100064
      vertex -0.23177768 -0.78370561 -0.0855688217
    endloop
  endfacet
  facet normal -0.452991146 -0.801533788 0.390310913
    outer loop
      vertex -0.195568538 -0.577073057 0.590652996
      vertex -0.144483822 -0.714945937 0.366808761
      vertex -0.109029213 -0.726017935 0.385219836
    endloop
  endfacet
  facet normal -0.452991146 -0.801533788 0.390310913
    outer loop
      vertex -0.195568538 -0.577073057 0.590652996
      vertex -0.109029213 -0.726017935 0.385219836
      vertex -0.0111102371 -0.551527792 0.857192738
    endloop
  endfacet
  facet normal -0.452991146 -0.801533788 0.390310913
    outer loop
      vertex -0.195568538 -0.577073057 0.590652996
      vertex -0.0111102371 -0.551527792 0.857192738
      vertex -0.0876051656 -0.512182046 0.849212996
    endloop
  endfacet
  facet normal -0.452991146 -0.801533788 0.390310913
    outer loop
      vertex -0.195568538 -0.577073057 0.590652996
      vertex -0.0876051656 -0.512182046 0.849212996
      vertex -0.121033633 -0.504375866 0.82644683
    endloop
  endfacet
  facet normal -0.452991146 -0.801533788 0.390310913
    outer loop
      vertex -0.195568538 -0.577073057 0.590652996
      vertex -0.121033633 -0.504375866 0.82644683
      vertex -0.193614556 -0.548114597 0.652389216
    endloop
  endfacet
  facet normal -0.404600709 -0.879609252 0.2501716
    outer loop
      vertex -0.231205376 -0.784923474 -0.0194880516
      vertex -0.228998988 -0.791775058 -0.0400100064
      vertex 0.0488226207 -0.914419427 -0.0219116354
    endloop
  endfacet
  facet normal -0.404600709 -0.879609252 0.2501716
    outer loop
      vertex -0.231205376 -0.784923474 -0.0194880516
      vertex 0.0488226207 -0.914419427 -0.0219116354
      vertex 0.0602803192 -0.917527184 -0.0143081306
    endloop
  endfacet
  facet normal -0.404600709 -0.879609252 0.2501716
    outer loop
      vertex -0.231205376 -0.784923474 -0.0194880516
      vertex 0.0602803192 -0.917527184 -0.0143081306
      vertex -0.109029213 -0.726017935 0.385219836
    endloop
  endfacet
  facet normal -0.404600709 -0.879609252 0.2501716
    outer loop
      vertex -0.231205376 -0.784923474 -0.0194880516
      vertex -0.109029213 -0.726017935 0.385219836
      vertex -0.144483822 -0.714945937 0.366808761
    endloop
  endfacet
  facet normal -0.401190709 -0.872958067 -0.277471132
    outer loop
      vertex -0.0961317046 -0.650671617 -0.84030369
      vertex -0.0613390697 -0.664907837 -0.845820872
      vertex 0.0113406579 -0.764158736 -0.638651784
    endloop
  endfacet
  facet normal -0.401190709 -0.872958067 -0.277471132
    outer loop
      vertex -0.0961317046 -0.650671617 -0.84030369
      vertex 0.0113406579 -0.764158736 -0.638651784
      vertex 0.0137585679 -0.787852643 -0.567603874
    endloop
  endfacet
  facet normal -0.401190709 -0.872958067 -0.277471132
    outer loop
      vertex -0.0961317046 -0.650671617 -0.84030369
      vertex 0.0137585679 -0.787852643 -0.567603874
      vertex -0.0371593023 -0.822611096 -0.384628269
    endloop
  endfacet
  facet normal -0.401190709 -0.872958067 -0.277471132
    outer loop
      vertex -0.0961317046 -0.650671617 -0.84030369
      vertex -0.0371593023 -0.822611096 -0.384628269
      vertex -0.126470652 -0.786315192 -0.369685878
    endloop
  endfacet
  facet normal -0.584283909 -0.260992878 0.768436745
    outer loop
      vertex -0.121033633 -0.504375866 0.82644683
      vertex -0.0876051656 -0.512182046 0.849212996
      vertex -0.149139494 -0.000962749676 0.976056328
    endloop
  endfacet
  facet normal -0.584283909 -0.260992878 0.768436745
    outer loop
      vertex -0.121033633 -0.504375866 0.82644683
      vertex -0.149139494 -0.000962749676 0.976056328
      vertex -0.223191716 0.0644085854 0.941953236
    endloop
  endfacet
  facet normal -0.584283909 -0.260992878 0.768436745
    outer loop
      vertex -0.121033633 -0.504375866 0.82644683
      vertex -0.223191716 0.0644085854 0.941953236
      vertex -0.217337718 -0.0528670849 0.906572682
    endloop
  endfacet
  facet normal -0.569570686 0.216217172 0.792993927
    outer loop
      vertex -0.243171792 0.155754304 0.914520232
      vertex -0.221781789 0.55810908 0.820177903
      vertex -0.328188406 0.564904431 0.74189816
    endloop
  endfacet
  facet normal -0.569570686 0.216217172 0.792993927
    outer loop
      vertex -0.243171792 0.155754304 0.914520232
      vertex -0.328188406 0.564904431 0.74189816
      vertex -0.334258608 0.500541193 0.755087452
    endloop
  endfacet
  facet normal -0.158894414 -0.914859918 0.371192531
    outer loop
      vertex -0.109029213 -0.726017935 0.385219836
      vertex 0.0602803192 -0.917527184 -0.0143081306
      vertex 0.0825291319 -0.920658439 -0.0125016493
    endloop
  endfacet
  facet normal -0.158894414 -0.914859918 0.371192531
    outer loop
      vertex -0.109029213 -0.726017935 0.385219836
      vertex 0.0825291319 -0.920658439 -0.0125016493
      vertex 0.0405187219 -0.55864447 0.861753146
    endloop
  endfacet
  facet normal -0.158894414 -0.914859918 0.371192531
    outer loop
      vertex -0.109029213 -0.726017935 0.385219836
      vertex 0.0405187219 -0.55864447 0.861753146
      vertex 0.0276156554 -0.554729925 0.865877784
    endloop
  endfacet
  facet normal -0.158894414 -0.914859918 0.371192531
    outer loop
      vertex -0.109029213 -0.726017935 0.385219836
      vertex 0.0276156554 -0.554729925 0.865877784
      vertex -0.0111102371 -0.551527792 0.857192738
    endloop
  endfacet
  facet normal -0.244913804 -0.233914283 -0.940904531
    outer loop
      vertex -0.0566993373 -0.659433335 -0.848389569
      vertex -0.0613390697 -0.664907837 -0.845820872
      vertex -0.0961317046 -0.650671617 -0.84030369
    endloop
  endfacet
  facet normal -0.244913804 -0.233914283 -0.940904531
    outer loop
      vertex -0.0566993373 -0.659433335 -0.848389569
      vertex -0.0961317046 -0.650671617 -0.84030369
      vertex -0.154852016 -0.594058041 -0.839093482
    endloop
  endfacet
  facet normal -0.244913804 -0.233914283 -0.940904531
    outer loop
      vertex -0.0566993373 -0.659433335 -0.848389569
      vertex -0.154852016 -0.594058041 -0.839093482
      vertex -0.269023831 -0.331252298 -0.874710021
    endloop
  endfacet
  facet normal -0.244913804 -0.233914283 -0.940904531
    outer loop
      vertex -0.0566993373 -0.659433335 -0.848389569
      vertex -0.269023831 -0.331252298 -0.874710021
      vertex -0.291229276 -0.0705916352 -0.933731771
    endloop
  endfacet
  facet normal -0.244913804 -0.233914283 -0.940904531
    outer loop
      vertex -0.0566993373 -0.659433335 -0.848389569
      vertex -0.291229276 -0.0705916352 -0.933731771
      vertex -0.0290576769 -0.0785320099 -1
    endloop
  endfacet
  facet normal -0.216116953 0.570723827 -0.792191754
    outer loop
      vertex -0.0810449049 0.643648185 -0.766985703
      vertex -0.0697945511 0.54472465 -0.841323021
      vertex -0.300316697 0.531680944 -0.787831692
    endloop
  endfacet
  facet normal -0.216116953 0.570723827 -0.792191754
    outer loop
      vertex -0.0810449049 0.643648185 -0.766985703
      vertex -0.300316697 0.531680944 -0.787831692
      vertex -0.29393713 0.780868017 -0.61004864
    endloop
  endfacet
  facet normal -0.216116953 0.570723827 -0.792191754
    outer loop
      vertex -0.0810449049 0.643648185 -0.766985703
      vertex -0.29393713 0.780868017 -0.61004864
      vertex -0.235306015 0.756544282 -0.643567436
    endloop
  endfacet
  facet normal -0.231735833 -0.26044701 0.937265095
    outer loop
      vertex -0.0876051656 -0.512182046 0.849212996
      vertex -0.0111102371 -0.551527792 0.857192738
      vertex 0.0276156554 -0.554729925 0.865877784
    endloop
  endfacet
  facet normal -0.231735833 -0.26044701 0.937265095
    outer loop
      vertex -0.0876051656 -0.512182046 0.849212996
      vertex 0.0276156554 -0.554729925 0.865877784
      vertex 0.0110722415 -0.0600595715 0.999246362
    endloop
  endfacet
  facet normal -0.231735833 -0.26044701 0.937265095
    outer loop
      vertex -0.0876051656 -0.512182046 0.849212996
      vertex 0.0110722415 -0.0600595715 0.999246362
      vertex -0.0512355142 -0.00190840293 1
    endloop
  endfacet
  facet normal -0.231735833 -0.26044701 0.937265095
    outer loop
      vertex -0.0876051656 -0.512182046 0.849212996
      vertex -0.0512355142 -0.00190840293 1
      vertex -0.149139494 -0.000962749676 0.976056328
    endloop
  endfacet
  facet normal -0.232306396 0.225686117 -0.94609699
    outer loop
      vertex 0.00475144782 -0.0435964128 -0.999967864
      vertex -0.0290576769 -0.0785320099 -1
      vertex -0.291229276 -0.0705916352 -0.933731771
    endloop
  endfacet
  facet normal -0.232306396 0.225686117 -0.94609699
    outer loop
      vertex 0.00475144782 -0.0435964128 -0.999967864
      vertex -0.291229276 -0.0705916352 -0.933731771
      vertex -0.336636766 0.192883116 -0.859731912
    endloop
  endfacet
  facet normal -0.232306396 0.225686117 -0.94609699
    outer loop
      vertex 0.00475144782 -0.0435964128 -0.999967864
      vertex -0.336636766 0.192883116 -0.859731912
      vertex -0.300316697 0.531680944 -0.787831692
    endloop
  endfacet
  facet normal -0.232306396 0.225686117 -0.94609699
    outer loop
      vertex 0.00475144782 -0.0435964128 -0.999967864
      vertex -0.300316697 0.531680944 -0.787831692
      vertex -0.0697945511 0.54472465 -0.841323021
    endloop
  endfacet
  facet normal -0.232306396 0.225686117 -0.94609699
    outer loop
      vertex 0.00475144782 -0.0435964128 -0.999967864
      vertex -0.0697945511 0.54472465 -0.841323021
      vertex 0.00803989415 0.46945999 -0.878388595
    endloop
  endfacet
  facet normal -0.132803826 0.955483544 0.263466015
    outer loop
      vertex -0.0173222812 0.611281355 0.730404544
      vertex -0.330459279 0.580983811 0.682440156
      vertex -0.328188406 0.564904431 0.74189816
    endloop
  endfacet
  facet normal -0.132803826 0.955483544 0.263466015
    outer loop
      vertex -0.0173222812 0.611281355 0.730404544
      vertex -0.328188406 0.564904431 0.74189816
      vertex -0.221781789 0.55810908 0.820177903
    endloop
  endfacet
  facet normal -0.132803826 0.955483544 0.263466015
    outer loop
      vertex -0.0173222812 0.611281355 0.730404544
      vertex -0.221781789 0.55810908 0.820177903
      vertex -0.0523585077 0.571239359 0.857959985
    endloop
  endfacet
  facet normal -0.132803826 0.955483544 0.263466015
    outer loop
      vertex -0.0173222812 0.611281355 0.730404544
      vertex -0.0523585077 0.571239359 0.857959985
      vertex 0.0280707388 0.589045069 0.833927467
    endloop
  endfacet
  facet normal -0.228849955 0.233741443 0.944982876
    outer loop
      vertex -0.243171792 0.155754304 0.914520232
      vertex -0.223191716 0.0644085854 0.941953236
      vertex -0.149139494 -0.000962749676 0.976056328
    endloop
  endfacet
  facet normal -0.228849955 0.233741443 0.944982876
    outer loop
      vertex -0.243171792 0.155754304 0.914520232
      vertex -0.149139494 -0.000962749676 0.976056328
      vertex -0.0512355142 -0.00190840293 1
    endloop
  endfacet
  facet normal -0.228849955 0.233741443 0.944982876
    outer loop
      vertex -0.243171792 0.155754304 0.914520232
      vertex -0.0512355142 -0.00190840293 1
      vertex -0.0523585077 0.571239359 0.857959985
    endloop
  endfacet
  facet normal -0.228849955 0.233741443 0.944982876
    outer loop
      vertex -0.243171792 0.155754304 0.914520232
      vertex -0.0523585077 0.571239359 0.857959985
      vertex -0.221781789 0.55810908 0.820177903
    endloop
  endfacet
  facet normal -0.118641662 0.980757785 0.155042974
    outer loop
      vertex -0.00301828794 0.759054331 -0.193419623
      vertex -0.226064164 0.789900662 -0.559223448
      vertex -0.295426111 0.787223975 -0.59536849
    endloop
  endfacet
  facet normal -0.118641662 0.980757785 0.155042974
    outer loop
      vertex -0.00301828794 0.759054331 -0.193419623
      vertex -0.295426111 0.787223975 -0.59536849
      vertex -0.314738061 0.768686953 -0.492886409
    endloop
  endfacet
  facet normal -0.118641662 0.980757785 0.155042974
    outer loop
      vertex -0.00301828794 0.759054331 -0.193419623
      vertex -0.314738061 0.768686953 -0.492886409
      vertex -0.359069982 0.666193049 0.121537314
    endloop
  endfacet
  facet normal -0.118641662 0.980757785 0.155042974
    outer loop
      vertex -0.00301828794 0.759054331 -0.193419623
      vertex -0.359069982 0.666193049 0.121537314
      vertex -0.330459279 0.580983811 0.682440156
    endloop
  endfacet
  facet normal -0.118641662 0.980757785 0.155042974
    outer loop
      vertex -0.00301828794 0.759054331 -0.193419623
      vertex -0.330459279 0.580983811 0.682440156
      vertex -0.0173222812 0.611281355 0.730404544
    endloop
  endfacet
  facet normal -0.11873444 -0.968902224 -0.217095864
    outer loop
      vertex -0.0371593023 -0.822611096 -0.384628269
      vertex 0.0137585679 -0.787852643 -0.567603874
      vertex 0.136379665 -0.913486056 -0.0739641301
    endloop
  endfacet
  facet normal -0.11873444 -0.968902224 -0.217095864
    outer loop
      vertex -0.0371593023 -0.822611096 -0.384628269
      vertex 0.136379665 -0.913486056 -0.0739641301
      vertex 0.124034022 -0.916646367 -0.0531075159
    endloop
  endfacet
  facet normal -0.11873444 -0.968902224 -0.217095864
    outer loop
      vertex -0.0371593023 -0.822611096 -0.384628269
      vertex 0.124034022 -0.916646367 -0.0531075159
      vertex 0.0863892159 -0.920731583 -0.0142863684
    endloop
  endfacet
  facet normal -0.11873444 -0.968902224 -0.217095864
    outer loop
      vertex -0.0371593023 -0.822611096 -0.384628269
      vertex 0.0863892159 -0.920731583 -0.0142863684
      vertex 0.0825291319 -0.920658439 -0.0125016493
    endloop
  endfacet
  facet normal -0.11873444 -0.968902224 -0.217095864
    outer loop
      vertex -0.0371593023 -0.822611096 -0.384628269
      vertex 0.0825291319 -0.920658439 -0.0125016493
      vertex 0.0602803192 -0.917527184 -0.0143081306
    endloop
  endfacet
  facet normal -0.11873444 -0.968902224 -0.217095864
    outer loop
      vertex -0.0371593023 -0.822611096 -0.384628269
      vertex 0.0602803192 -0.917527184 -0.0143081306
      vertex 0.0488226207 -0.914419427 -0.0219116354
    endloop
  endfacet
  facet normal 0.053905097 0.997231383 0.0512231387
    outer loop
      vertex 0.305303296 0.753944036 -0.418395267
      vertex -0.226064164 0.789900662 -0.559223448
      vertex -0.00301828794 0.759054331 -0.193419623
    endloop
  endfacet
  facet normal 0.053905097 0.997231383 0.0512231387
    outer loop
      vertex 0.305303296 0.753944036 -0.418395267
      vertex -0.00301828794 0.759054331 -0.193419623
      vertex 0.307508764 0.751906171 -0.381042295
    endloop
  endfacet
  facet normal 0.118407022 0.980212996 0.158626165
    outer loop
      vertex 0.321100857 0.6570864 0.194740226
      vertex 0.33040116 0.697222095 -0.0602161422
      vertex 0.307508764 0.751906171 -0.381042295
    endloop
  endfacet
  facet normal 0.118407022 0.980212996 0.158626165
    outer loop
      vertex 0.321100857 0.6570864 0.194740226
      vertex 0.307508764 0.751906171 -0.381042295
      vertex -0.00301828794 0.759054331 -0.193419623
    endloop
  endfacet
  facet normal 0.118407022 0.980212996 0.158626165
    outer loop
      vertex 0.321100857 0.6570864 0.194740226
      vertex -0.00301828794 0.759054331 -0.193419623
      vertex -0.0173222812 0.611281355 0.730404544
    endloop
  endfacet
  facet normal 0.118407022 0.980212996 0.158626165
    outer loop
      vertex 0.321100857 0.6570864 0.194740226
      vertex -0.0173222812 0.611281355 0.730404544
      vertex 0.0280707388 0.589045069 0.833927467
    endloop
  endfacet
  facet normal 0.118407022 0.980212996 0.158626165
    outer loop
      vertex 0.321100857 0.6570864 0.194740226
      vertex 0.0280707388 0.589045069 0.833927467
      vertex 0.0855323156 0.584175584 0.821125531
    endloop
  endfacet
  facet normal 0.118407022 0.980212996 0.158626165
    outer loop
      vertex 0.321100857 0.6570864 0.194740226
      vertex 0.0855323156 0.584175584 0.821125531
      vertex 0.15924497 0.584506417 0.764058137
    endloop
  endfacet
  facet normal 0.118407022 0.980212996 0.158626165
    outer loop
      vertex 0.321100857 0.6570864 0.194740226
      vertex 0.15924497 0.584506417 0.764058137
      vertex 0.244432821 0.602949896 0.586499928
    endloop
  endfacet
  facet normal 0.118407022 0.980212996 0.158626165
    outer loop
      vertex 0.321100857 0.6570864 0.194740226
      vertex 0.244432821 0.602949896 0.586499928
      vertex 0.291444788 0.626576051 0.405412451
    endloop
  endfacet
  facet normal 0.226445814 -0.246486702 0.942319797
    outer loop
      vertex 0.0276156554 -0.554729925 0.865877784
      vertex 0.0405187219 -0.55864447 0.861753146
      vertex 0.107587643 -0.552998359 0.847112909
    endloop
  endfacet
  facet normal 0.226445814 -0.246486702 0.942319797
    outer loop
      vertex 0.0276156554 -0.554729925 0.865877784
      vertex 0.107587643 -0.552998359 0.847112909
      vertex 0.110487661 -0.551581296 0.846786682
    endloop
  endfacet
  facet normal 0.226445814 -0.246486702 0.942319797
    outer loop
      vertex 0.0276156554 -0.554729925 0.865877784
      vertex 0.110487661 -0.551581296 0.846786682
      vertex 0.115894375 -0.541150158 0.848215931
    endloop
  endfacet
  facet normal 0.226445814 -0.246486702 0.942319797
    outer loop
      vertex 0.0276156554 -0.554729925 0.865877784
      vertex 0.115894375 -0.541150158 0.848215931
      vertex 0.140987037 -0.0746927291 0.9641993
    endloop
  endfacet
  facet normal 0.226445814 -0.246486702 0.942319797
    outer loop
      vertex 0.0276156554 -0.554729925 0.865877784
      vertex 0.140987037 -0.0746927291 0.9641993
      vertex 0.12686476 -0.0608604243 0.971211155
    endloop
  endfacet
  facet normal 0.226445814 -0.246486702 0.942319797
    outer loop
      vertex 0.0276156554 -0.554729925 0.865877784
      vertex 0.12686476 -0.0608604243 0.971211155
      vertex 0.0110722415 -0.0600595715 0.999246362
    endloop
  endfacet
  facet normal 0.228134094 0.223119438 -0.947719659
    outer loop
      vertex 0.312158052 0.132855336 -0.88442764
      vertex 0.276476755 -0.0201973691 -0.929049648
      vertex 0.00475144782 -0.0435964128 -0.999967864
    endloop
  endfacet
  facet normal 0.228134094 0.223119438 -0.947719659
    outer loop
      vertex 0.312158052 0.132855336 -0.88442764
      vertex 0.00475144782 -0.0435964128 -0.999967864
      vertex 0.00803989415 0.46945999 -0.878388595
    endloop
  endfacet
  facet normal 0.228134094 0.223119438 -0.947719659
    outer loop
      vertex 0.312158052 0.132855336 -0.88442764
      vertex 0.00803989415 0.46945999 -0.878388595
      vertex 0.284668562 0.448932465 -0.816631577
    endloop
  endfacet
  facet normal 0.230286776 0.234507474 0.944443881
    outer loop
      vertex -0.0512355142 -0.00190840293 1
      vertex 0.0110722415 -0.0600595715 0.999246362
      vertex 0.12686476 -0.0608604243 0.971211155
    endloop
  endfacet
  facet normal 0.230286776 0.234507474 0.944443881
    outer loop
      vertex -0.0512355142 -0.00190840293 1
      vertex 0.12686476 -0.0608604243 0.971211155
      vertex 0.0855323156 0.584175584 0.821125531
    endloop
  endfacet
  facet normal 0.230286776 0.234507474 0.944443881
    outer loop
      vertex -0.0512355142 -0.00190840293 1
      vertex 0.0855323156 0.584175584 0.821125531
      vertex 0.0280707388 0.589045069 0.833927467
    endloop
  endfacet
  facet normal 0.230286776 0.234507474 0.944443881
    outer loop
      vertex -0.0512355142 -0.00190840293 1
      vertex 0.0280707388 0.589045069 0.833927467
      vertex -0.0523585077 0.571239359 0.857959985
    endloop
  endfacet
  facet normal 0.216259729 0.602131383 -0.768550276
    outer loop
      vertex 0.284668562 0.448932465 -0.816631577
      vertex 0.00803989415 0.46945999 -0.878388595
      vertex -0.0697945511 0.54472465 -0.841323021
    endloop
  endfacet
  facet normal 0.216259729 0.602131383 -0.768550276
    outer loop
      vertex 0.284668562 0.448932465 -0.816631577
      vertex -0.0697945511 0.54472465 -0.841323021
      vertex -0.0810449049 0.643648185 -0.766985703
    endloop
  endfacet
  facet normal 0.216259729 0.602131383 -0.768550276
    outer loop
      vertex 0.284668562 0.448932465 -0.816631577
      vertex -0.0810449049 0.643648185 -0.766985703
      vertex 0.285728451 0.619211814 -0.682925618
    endloop
  endfacet
  facet normal 0.177498085 0.826516686 -0.534195281
    outer loop
      vertex 0.285728451 0.619211814 -0.682925618
      vertex -0.0810449049 0.643648185 -0.766985703
      vertex -0.235306015 0.756544282 -0.643567436
    endloop
  endfacet
  facet normal 0.177498085 0.826516686 -0.534195281
    outer loop
      vertex 0.285728451 0.619211814 -0.682925618
      vertex -0.235306015 0.756544282 -0.643567436
      vertex 0.29653923 0.697465699 -0.558257662
    endloop
  endfacet
  facet normal 0.160405561 -0.909210217 0.384196351
    outer loop
      vertex 0.0825291319 -0.920658439 -0.0125016493
      vertex 0.0863892159 -0.920731583 -0.0142863684
      vertex 0.107587643 -0.552998359 0.847112909
    endloop
  endfacet
  facet normal 0.160405561 -0.909210217 0.384196351
    outer loop
      vertex 0.0825291319 -0.920658439 -0.0125016493
      vertex 0.107587643 -0.552998359 0.847112909
      vertex 0.0405187219 -0.55864447 0.861753146
    endloop
  endfacet
  facet normal 0.16191135 0.911453364 -0.378202962
    outer loop
      vertex 0.29653923 0.697465699 -0.558257662
      vertex -0.235306015 0.756544282 -0.643567436
      vertex -0.29393713 0.780868017 -0.61004864
    endloop
  endfacet
  facet normal 0.16191135 0.911453364 -0.378202962
    outer loop
      vertex 0.29653923 0.697465699 -0.558257662
      vertex -0.29393713 0.780868017 -0.61004864
      vertex -0.295426111 0.787223975 -0.59536849
    endloop
  endfacet
  facet normal 0.16191135 0.911453364 -0.378202962
    outer loop
      vertex 0.29653923 0.697465699 -0.558257662
      vertex -0.295426111 0.787223975 -0.59536849
      vertex -0.226064164 0.789900662 -0.559223448
    endloop
  endfacet
  facet normal 0.16191135 0.911453364 -0.378202962
    outer loop
      vertex 0.29653923 0.697465699 -0.558257662
      vertex -0.226064164 0.789900662 -0.559223448
      vertex 0.305303296 0.753944036 -0.418395267
    endloop
  endfacet
  facet normal 0.16191135 0.911453364 -0.378202962
    outer loop
      vertex 0.29653923 0.697465699 -0.558257662
      vertex 0.305303296 0.753944036 -0.418395267
      vertex 0.304654624 0.725263588 -0.487791653
    endloop
  endfacet
  facet normal 0.26468809 -0.255298027 -0.929926412
    outer loop
      vertex 0.256989067 -0.29039255 -0.860418262
      vertex 0.126141297 -0.532185162 -0.831281193
      vertex -0.0566993373 -0.659433335 -0.848389569
    endloop
  endfacet
  facet normal 0.26468809 -0.255298027 -0.929926412
    outer loop
      vertex 0.256989067 -0.29039255 -0.860418262
      vertex -0.0566993373 -0.659433335 -0.848389569
      vertex -0.0290576769 -0.0785320099 -1
    endloop
  endfacet
  facet normal 0.26468809 -0.255298027 -0.929926412
    outer loop
      vertex 0.256989067 -0.29039255 -0.860418262
      vertex -0.0290576769 -0.0785320099 -1
      vertex 0.00475144782 -0.0435964128 -0.999967864
    endloop
  endfacet
  facet normal 0.26468809 -0.255298027 -0.929926412
    outer loop
      vertex 0.256989067 -0.29039255 -0.860418262
      vertex 0.00475144782 -0.0435964128 -0.999967864
      vertex 0.276476755 -0.0201973691 -0.929049648
    endloop
  endfacet
  facet normal 0.328841545 -0.892464501 -0.308820906
    outer loop
      vertex 0.0137585679 -0.787852643 -0.567603874
      vertex 0.0113406579 -0.764158736 -0.638651784
      vertex 0.110710981 -0.76156186 -0.540344092
    endloop
  endfacet
  facet normal 0.328841545 -0.892464501 -0.308820906
    outer loop
      vertex 0.0137585679 -0.787852643 -0.567603874
      vertex 0.110710981 -0.76156186 -0.540344092
      vertex 0.196056307 -0.876111805 -0.118426903
    endloop
  endfacet
  facet normal 0.328841545 -0.892464501 -0.308820906
    outer loop
      vertex 0.0137585679 -0.787852643 -0.567603874
      vertex 0.196056307 -0.876111805 -0.118426903
      vertex 0.136379665 -0.913486056 -0.0739641301
    endloop
  endfacet
  facet normal 0.591619718 -0.224369902 0.774367003
    outer loop
      vertex 0.115894375 -0.541150158 0.848215931
      vertex 0.164910396 -0.473261292 0.830438021
      vertex 0.195105048 -0.0755363922 0.922608459
    endloop
  endfacet
  facet normal 0.591619718 -0.224369902 0.774367003
    outer loop
      vertex 0.115894375 -0.541150158 0.848215931
      vertex 0.195105048 -0.0755363922 0.922608459
      vertex 0.140987037 -0.0746927291 0.9641993
    endloop
  endfacet
  facet normal 0.596846185 0.217917485 0.77219596
    outer loop
      vertex 0.12686476 -0.0608604243 0.971211155
      vertex 0.140987037 -0.0746927291 0.9641993
      vertex 0.195105048 -0.0755363922 0.922608459
    endloop
  endfacet
  facet normal 0.596846185 0.217917485 0.77219596
    outer loop
      vertex 0.12686476 -0.0608604243 0.971211155
      vertex 0.195105048 -0.0755363922 0.922608459
      vertex 0.212022825 -0.0423966997 0.900180176
    endloop
  endfacet
  facet normal 0.596846185 0.217917485 0.77219596
    outer loop
      vertex 0.12686476 -0.0608604243 0.971211155
      vertex 0.212022825 -0.0423966997 0.900180176
      vertex 0.15924497 0.584506417 0.764058137
    endloop
  endfacet
  facet normal 0.596846185 0.217917485 0.77219596
    outer loop
      vertex 0.12686476 -0.0608604243 0.971211155
      vertex 0.15924497 0.584506417 0.764058137
      vertex 0.0855323156 0.584175584 0.821125531
    endloop
  endfacet
  facet normal 0.443284089 -0.828289245 0.342689572
    outer loop
      vertex 0.0863892159 -0.920731583 -0.0142863684
      vertex 0.124034022 -0.916646367 -0.0531075159
      vertex 0.16665203 -0.581101765 0.702783882
    endloop
  endfacet
  facet normal 0.443284089 -0.828289245 0.342689572
    outer loop
      vertex 0.0863892159 -0.920731583 -0.0142863684
      vertex 0.16665203 -0.581101765 0.702783882
      vertex 0.110487661 -0.551581296 0.846786682
    endloop
  endfacet
  facet normal 0.443284089 -0.828289245 0.342689572
    outer loop
      vertex 0.0863892159 -0.920731583 -0.0142863684
      vertex 0.110487661 -0.551581296 0.846786682
      vertex 0.107587643 -0.552998359 0.847112909
    endloop
  endfacet
  facet normal 0.522862887 -0.682658682 -0.510481659
    outer loop
      vertex -0.0613390697 -0.664907837 -0.845820872
      vertex -0.0566993373 -0.659433335 -0.848389569
      vertex 0.126141297 -0.532185162 -0.831281193
    endloop
  endfacet
  facet normal 0.522862887 -0.682658682 -0.510481659
    outer loop
      vertex -0.0613390697 -0.664907837 -0.845820872
      vertex 0.126141297 -0.532185162 -0.831281193
      vertex 0.166834918 -0.682402557 -0.58871735
    endloop
  endfacet
  facet normal 0.522862887 -0.682658682 -0.510481659
    outer loop
      vertex -0.0613390697 -0.664907837 -0.845820872
      vertex 0.166834918 -0.682402557 -0.58871735
      vertex 0.110710981 -0.76156186 -0.540344092
    endloop
  endfacet
  facet normal 0.522862887 -0.682658682 -0.510481659
    outer loop
      vertex -0.0613390697 -0.664907837 -0.845820872
      vertex 0.110710981 -0.76156186 -0.540344092
      vertex 0.0113406579 -0.764158736 -0.638651784
    endloop
  endfacet
  facet normal 0.649873292 -0.707587305 0.277461545
    outer loop
      vertex 0.124034022 -0.916646367 -0.0531075159
      vertex 0.136379665 -0.913486056 -0.0739641301
      vertex 0.196056307 -0.876111805 -0.118426903
    endloop
  endfacet
  facet normal 0.649873292 -0.707587305 0.277461545
    outer loop
      vertex 0.124034022 -0.916646367 -0.0531075159
      vertex 0.196056307 -0.876111805 -0.118426903
      vertex 0.282046356 -0.793891451 -0.110153892
    endloop
  endfacet
  facet normal 0.649873292 -0.707587305 0.277461545
    outer loop
      vertex 0.124034022 -0.916646367 -0.0531075159
      vertex 0.282046356 -0.793891451 -0.110153892
      vertex 0.209022135 -0.569470263 0.633207048
    endloop
  endfacet
  facet normal 0.649873292 -0.707587305 0.277461545
    outer loop
      vertex 0.124034022 -0.916646367 -0.0531075159
      vertex 0.209022135 -0.569470263 0.633207048
      vertex 0.16665203 -0.581101765 0.702783882
    endloop
  endfacet
  facet normal 0.671085917 -0.669895128 -0.317622747
    outer loop
      vertex 0.110710981 -0.76156186 -0.540344092
      vertex 0.166834918 -0.682402557 -0.58871735
      vertex 0.256382659 -0.657800864 -0.451404535
    endloop
  endfacet
  facet normal 0.671085917 -0.669895128 -0.317622747
    outer loop
      vertex 0.110710981 -0.76156186 -0.540344092
      vertex 0.256382659 -0.657800864 -0.451404535
      vertex 0.291013467 -0.781765831 -0.116781854
    endloop
  endfacet
  facet normal 0.671085917 -0.669895128 -0.317622747
    outer loop
      vertex 0.110710981 -0.76156186 -0.540344092
      vertex 0.291013467 -0.781765831 -0.116781854
      vertex 0.282046356 -0.793891451 -0.110153892
    endloop
  endfacet
  facet normal 0.671085917 -0.669895128 -0.317622747
    outer loop
      vertex 0.110710981 -0.76156186 -0.540344092
      vertex 0.282046356 -0.793891451 -0.110153892
      vertex 0.196056307 -0.876111805 -0.118426903
    endloop
  endfacet
  facet normal 0.775365879 -0.47037233 -0.421375872
    outer loop
      vertex 0.126141297 -0.532185162 -0.831281193
      vertex 0.256989067 -0.29039255 -0.860418262
      vertex 0.294697611 -0.384883968 -0.685552849
    endloop
  endfacet
  facet normal 0.775365879 -0.47037233 -0.421375872
    outer loop
      vertex 0.126141297 -0.532185162 -0.831281193
      vertex 0.294697611 -0.384883968 -0.685552849
      vertex 0.303830849 -0.501881891 -0.538144818
    endloop
  endfacet
  facet normal 0.775365879 -0.47037233 -0.421375872
    outer loop
      vertex 0.126141297 -0.532185162 -0.831281193
      vertex 0.303830849 -0.501881891 -0.538144818
      vertex 0.256382659 -0.657800864 -0.451404535
    endloop
  endfacet
  facet normal 0.775365879 -0.47037233 -0.421375872
    outer loop
      vertex 0.126141297 -0.532185162 -0.831281193
      vertex 0.256382659 -0.657800864 -0.451404535
      vertex 0.166834918 -0.682402557 -0.58871735
    endloop
  endfacet
  facet normal 0.788890461 -0.464095183 0.402824405
    outer loop
      vertex 0.16665203 -0.581101765 0.702783882
      vertex 0.209022135 -0.569470263 0.633207048
      vertex 0.246783739 -0.505373515 0.633100854
    endloop
  endfacet
  facet normal 0.788890461 -0.464095183 0.402824405
    outer loop
      vertex 0.16665203 -0.581101765 0.702783882
      vertex 0.246783739 -0.505373515 0.633100854
      vertex 0.239298191 -0.486170917 0.669883904
    endloop
  endfacet
  facet normal 0.788890461 -0.464095183 0.402824405
    outer loop
      vertex 0.16665203 -0.581101765 0.702783882
      vertex 0.239298191 -0.486170917 0.669883904
      vertex 0.164910396 -0.473261292 0.830438021
    endloop
  endfacet
  facet normal 0.788890461 -0.464095183 0.402824405
    outer loop
      vertex 0.16665203 -0.581101765 0.702783882
      vertex 0.164910396 -0.473261292 0.830438021
      vertex 0.115894375 -0.541150158 0.848215931
    endloop
  endfacet
  facet normal 0.788890461 -0.464095183 0.402824405
    outer loop
      vertex 0.16665203 -0.581101765 0.702783882
      vertex 0.115894375 -0.541150158 0.848215931
      vertex 0.110487661 -0.551581296 0.846786682
    endloop
  endfacet
  facet normal 0.881500878 0.169874036 0.440566696
    outer loop
      vertex 0.294687219 -0.00484038917 0.720301446
      vertex 0.244432821 0.602949896 0.586499928
      vertex 0.15924497 0.584506417 0.764058137
    endloop
  endfacet
  facet normal 0.881500878 0.169874036 0.440566696
    outer loop
      vertex 0.294687219 -0.00484038917 0.720301446
      vertex 0.15924497 0.584506417 0.764058137
      vertex 0.212022825 -0.0423966997 0.900180176
    endloop
  endfacet
  facet normal 0.881500878 0.169874036 0.440566696
    outer loop
      vertex 0.294687219 -0.00484038917 0.720301446
      vertex 0.212022825 -0.0423966997 0.900180176
      vertex 0.277618399 -0.0348110261 0.766009425
    endloop
  endfacet
  facet normal 0.889569488 -0.166145063 0.425513742
    outer loop
      vertex 0.239298191 -0.486170917 0.669883904
      vertex 0.277618399 -0.0348110261 0.766009425
      vertex 0.212022825 -0.0423966997 0.900180176
    endloop
  endfacet
  facet normal 0.889569488 -0.166145063 0.425513742
    outer loop
      vertex 0.239298191 -0.486170917 0.669883904
      vertex 0.212022825 -0.0423966997 0.900180176
      vertex 0.195105048 -0.0755363922 0.922608459
    endloop
  endfacet
  facet normal 0.889569488 -0.166145063 0.425513742
    outer loop
      vertex 0.239298191 -0.486170917 0.669883904
      vertex 0.195105048 -0.0755363922 0.922608459
      vertex 0.164910396 -0.473261292 0.830438021
    endloop
  endfacet
  facet normal 0.838386635 -0.493539163 0.23135891
    outer loop
      vertex 0.282046356 -0.793891451 -0.110153892
      vertex 0.291013467 -0.781765831 -0.116781854
      vertex 0.32542756 -0.715815552 -0.10080352
    endloop
  endfacet
  facet normal 0.838386635 -0.493539163 0.23135891
    outer loop
      vertex 0.282046356 -0.793891451 -0.110153892
      vertex 0.32542756 -0.715815552 -0.10080352
      vertex 0.333338511 -0.673889995 -0.0400344345
    endloop
  endfacet
  facet normal 0.838386635 -0.493539163 0.23135891
    outer loop
      vertex 0.282046356 -0.793891451 -0.110153892
      vertex 0.333338511 -0.673889995 -0.0400344345
      vertex 0.333508548 -0.58144671 0.15655114
    endloop
  endfacet
  facet normal 0.838386635 -0.493539163 0.23135891
    outer loop
      vertex 0.282046356 -0.793891451 -0.110153892
      vertex 0.333508548 -0.58144671 0.15655114
      vertex 0.296706269 -0.504221086 0.454652515
    endloop
  endfacet
  facet normal 0.838386635 -0.493539163 0.23135891
    outer loop
      vertex 0.282046356 -0.793891451 -0.110153892
      vertex 0.296706269 -0.504221086 0.454652515
      vertex 0.246783739 -0.505373515 0.633100854
    endloop
  endfacet
  facet normal 0.838386635 -0.493539163 0.23135891
    outer loop
      vertex 0.282046356 -0.793891451 -0.110153892
      vertex 0.246783739 -0.505373515 0.633100854
      vertex 0.209022135 -0.569470263 0.633207048
    endloop
  endfacet
  facet normal 0.883206591 -0.402593556 -0.240550506
    outer loop
      vertex 0.256382659 -0.657800864 -0.451404535
      vertex 0.303830849 -0.501881891 -0.538144818
      vertex 0.32932404 -0.576080299 -0.320362881
    endloop
  endfacet
  facet normal 0.883206591 -0.402593556 -0.240550506
    outer loop
      vertex 0.256382659 -0.657800864 -0.451404535
      vertex 0.32932404 -0.576080299 -0.320362881
      vertex 0.32542756 -0.715815552 -0.10080352
    endloop
  endfacet
  facet normal 0.883206591 -0.402593556 -0.240550506
    outer loop
      vertex 0.256382659 -0.657800864 -0.451404535
      vertex 0.32542756 -0.715815552 -0.10080352
      vertex 0.291013467 -0.781765831 -0.116781854
    endloop
  endfacet
  facet normal 0.949699934 -0.139689602 -0.280279952
    outer loop
      vertex 0.256989067 -0.29039255 -0.860418262
      vertex 0.276476755 -0.0201973691 -0.929049648
      vertex 0.312158052 0.132855336 -0.88442764
    endloop
  endfacet
  facet normal 0.949699934 -0.139689602 -0.280279952
    outer loop
      vertex 0.256989067 -0.29039255 -0.860418262
      vertex 0.312158052 0.132855336 -0.88442764
      vertex 0.337296659 0.0776417261 -0.771729959
    endloop
  endfacet
  facet normal 0.949699934 -0.139689602 -0.280279952
    outer loop
      vertex 0.256989067 -0.29039255 -0.860418262
      vertex 0.337296659 0.0776417261 -0.771729959
      vertex 0.294697611 -0.384883968 -0.685552849
    endloop
  endfacet
  facet normal 0.954086588 -0.137656491 0.266025323
    outer loop
      vertex 0.296706269 -0.504221086 0.454652515
      vertex 0.355935842 -0.0178235512 0.493918086
      vertex 0.349949738 -0.00513939533 0.521950449
    endloop
  endfacet
  facet normal 0.954086588 -0.137656491 0.266025323
    outer loop
      vertex 0.296706269 -0.504221086 0.454652515
      vertex 0.349949738 -0.00513939533 0.521950449
      vertex 0.294687219 -0.00484038917 0.720301446
    endloop
  endfacet
  facet normal 0.954086588 -0.137656491 0.266025323
    outer loop
      vertex 0.296706269 -0.504221086 0.454652515
      vertex 0.294687219 -0.00484038917 0.720301446
      vertex 0.277618399 -0.0348110261 0.766009425
    endloop
  endfacet
  facet normal 0.954086588 -0.137656491 0.266025323
    outer loop
      vertex 0.296706269 -0.504221086 0.454652515
      vertex 0.277618399 -0.0348110261 0.766009425
      vertex 0.239298191 -0.486170917 0.669883904
    endloop
  endfacet
  facet normal 0.954086588 -0.137656491 0.266025323
    outer loop
      vertex 0.296706269 -0.504221086 0.454652515
      vertex 0.239298191 -0.486170917 0.669883904
      vertex 0.246783739 -0.505373515 0.633100854
    endloop
  endfacet
  facet normal 0.954230641 0.137380896 0.26565085
    outer loop
      vertex 0.349949738 -0.00513939533 0.521950449
      vertex 0.291444788 0.626576051 0.405412451
      vertex 0.244432821 0.602949896 0.586499928
    endloop
  endfacet
  facet normal 0.954230641 0.137380896 0.26565085
    outer loop
      vertex 0.349949738 -0.00513939533 0.521950449
      vertex 0.244432821 0.602949896 0.586499928
      vertex 0.294687219 -0.00484038917 0.720301446
    endloop
  endfacet
  facet normal 0.979851854 0.119537957 -0.160003191
    outer loop
      vertex 0.337296659 0.0776417261 -0.771729959
      vertex 0.312158052 0.132855336 -0.88442764
      vertex 0.284668562 0.448932465 -0.816631577
    endloop
  endfacet
  facet normal 0.979851854 0.119537957 -0.160003191
    outer loop
      vertex 0.337296659 0.0776417261 -0.771729959
      vertex 0.284668562 0.448932465 -0.816631577
      vertex 0.285728451 0.619211814 -0.682925618
    endloop
  endfacet
  facet normal 0.979851854 0.119537957 -0.160003191
    outer loop
      vertex 0.337296659 0.0776417261 -0.771729959
      vertex 0.285728451 0.619211814 -0.682925618
      vertex 0.29653923 0.697465699 -0.558257662
    endloop
  endfacet
  facet normal 0.979851854 0.119537957 -0.160003191
    outer loop
      vertex 0.337296659 0.0776417261 -0.771729959
      vertex 0.29653923 0.697465699 -0.558257662
      vertex 0.304654624 0.725263588 -0.487791653
    endloop
  endfacet
  facet normal 0.979851854 0.119537957 -0.160003191
    outer loop
      vertex 0.337296659 0.0776417261 -0.771729959
      vertex 0.304654624 0.725263588 -0.487791653
      vertex 0.368134512 0.0814138925 -0.580062254
    endloop
  endfacet
  facet normal 0.97909101 -0.131738734 0.155002261
    outer loop
      vertex 0.333508548 -0.58144671 0.15655114
      vertex 0.391052931 -0.0342850145 0.258105797
      vertex 0.387286289 -0.0177454042 0.295955518
    endloop
  endfacet
  facet normal 0.97909101 -0.131738734 0.155002261
    outer loop
      vertex 0.333508548 -0.58144671 0.15655114
      vertex 0.387286289 -0.0177454042 0.295955518
      vertex 0.355935842 -0.0178235512 0.493918086
    endloop
  endfacet
  facet normal 0.97909101 -0.131738734 0.155002261
    outer loop
      vertex 0.333508548 -0.58144671 0.15655114
      vertex 0.355935842 -0.0178235512 0.493918086
      vertex 0.296706269 -0.504221086 0.454652515
    endloop
  endfacet
  facet normal 0.980620213 -0.119274931 -0.155426794
    outer loop
      vertex 0.294697611 -0.384883968 -0.685552849
      vertex 0.337296659 0.0776417261 -0.771729959
      vertex 0.368134512 0.0814138925 -0.580062254
    endloop
  endfacet
  facet normal 0.980620213 -0.119274931 -0.155426794
    outer loop
      vertex 0.294697611 -0.384883968 -0.685552849
      vertex 0.368134512 0.0814138925 -0.580062254
      vertex 0.389182494 -0.0136089323 -0.374345362
    endloop
  endfacet
  facet normal 0.980620213 -0.119274931 -0.155426794
    outer loop
      vertex 0.294697611 -0.384883968 -0.685552849
      vertex 0.389182494 -0.0136089323 -0.374345362
      vertex 0.32932404 -0.576080299 -0.320362881
    endloop
  endfacet
  facet normal 0.980620213 -0.119274931 -0.155426794
    outer loop
      vertex 0.294697611 -0.384883968 -0.685552849
      vertex 0.32932404 -0.576080299 -0.320362881
      vertex 0.303830849 -0.501881891 -0.538144818
    endloop
  endfacet
  facet normal 0.980609401 0.119474262 0.15534189
    outer loop
      vertex 0.387286289 -0.0177454042 0.295955518
      vertex 0.321100857 0.6570864 0.194740226
      vertex 0.291444788 0.626576051 0.405412451
    endloop
  endfacet
  facet normal 0.980609401 0.119474262 0.15534189
    outer loop
      vertex 0.387286289 -0.0177454042 0.295955518
      vertex 0.291444788 0.626576051 0.405412451
      vertex 0.349949738 -0.00513939533 0.521950449
    endloop
  endfacet
  facet normal 0.980609401 0.119474262 0.15534189
    outer loop
      vertex 0.387286289 -0.0177454042 0.295955518
      vertex 0.349949738 -0.00513939533 0.521950449
      vertex 0.355935842 -0.0178235512 0.493918086
    endloop
  endfacet
  facet normal 0.992060286 -0.114136261 0.0528138609
    outer loop
      vertex 0.333338511 -0.673889995 -0.0400344345
      vertex 0.40579008 -0.0343647027 -0.0188903372
      vertex 0.391052931 -0.0342850145 0.258105797
    endloop
  endfacet
  facet normal 0.992060286 -0.114136261 0.0528138609
    outer loop
      vertex 0.333338511 -0.673889995 -0.0400344345
      vertex 0.391052931 -0.0342850145 0.258105797
      vertex 0.333508548 -0.58144671 0.15655114
    endloop
  endfacet
  facet normal 0.992449996 -0.11068751 -0.0528325718
    outer loop
      vertex 0.32932404 -0.576080299 -0.320362881
      vertex 0.389182494 -0.0136089323 -0.374345362
      vertex 0.405845672 -0.0135885845 -0.0613732994
    endloop
  endfacet
  facet normal 0.992449996 -0.11068751 -0.0528325718
    outer loop
      vertex 0.32932404 -0.576080299 -0.320362881
      vertex 0.405845672 -0.0135885845 -0.0613732994
      vertex 0.40579008 -0.0343647027 -0.0188903372
    endloop
  endfacet
  facet normal 0.992449996 -0.11068751 -0.0528325718
    outer loop
      vertex 0.32932404 -0.576080299 -0.320362881
      vertex 0.40579008 -0.0343647027 -0.0188903372
      vertex 0.333338511 -0.673889995 -0.0400344345
    endloop
  endfacet
  facet normal 0.992449996 -0.11068751 -0.0528325718
    outer loop
      vertex 0.32932404 -0.576080299 -0.320362881
      vertex 0.333338511 -0.673889995 -0.0400344345
      vertex 0.32542756 -0.715815552 -0.10080352
    endloop
  endfacet
  facet normal 0.993014264 0.10548331 -0.0528766687
    outer loop
      vertex 0.389182494 -0.0136089323 -0.374345362
      vertex 0.368134512 0.0814138925 -0.580062254
      vertex 0.304654624 0.725263588 -0.487791653
    endloop
  endfacet
  facet normal 0.993014264 0.10548331 -0.0528766687
    outer loop
      vertex 0.389182494 -0.0136089323 -0.374345362
      vertex 0.304654624 0.725263588 -0.487791653
      vertex 0.305303296 0.753944036 -0.418395267
    endloop
  endfacet
  facet normal 0.993014264 0.10548331 -0.0528766687
    outer loop
      vertex 0.389182494 -0.0136089323 -0.374345362
      vertex 0.305303296 0.753944036 -0.418395267
      vertex 0.307508764 0.751906171 -0.381042295
    endloop
  endfacet
  facet normal 0.993014264 0.10548331 -0.0528766687
    outer loop
      vertex 0.389182494 -0.0136089323 -0.374345362
      vertex 0.307508764 0.751906171 -0.381042295
      vertex 0.33040116 0.697222095 -0.0602161422
    endloop
  endfacet
  facet normal 0.993014264 0.10548331 -0.0528766687
    outer loop
      vertex 0.389182494 -0.0136089323 -0.374345362
      vertex 0.33040116 0.697222095 -0.0602161422
      vertex 0.405845672 -0.0135885845 -0.0613732994
    endloop
  endfacet
  facet normal 0.993036216 0.1053136 0.0528026509
    outer loop
      vertex 0.40579008 -0.0343647027 -0.0188903372
      vertex 0.405845672 -0.0135885845 -0.0613732994
      vertex 0.33040116 0.697222095 -0.0602161422
    endloop
  endfacet
  facet normal 0.993036216 0.1053136 0.0528026509
    outer loop
      vertex 0.40579008 -0.0343647027 -0.0188903372
      vertex 0.33040116 0.697222095 -0.0602161422
      vertex 0.321100857 0.6570864 0.194740226
    endloop
  endfacet
  facet normal 0.993036216 0.1053136 0.0528026509
    outer loop
      vertex 0.40579008 -0.0343647027 -0.0188903372
      vertex 0.321100857 0.6570864 0.194740226
      vertex 0.387286289 -0.0177454042 0.295955518
    endloop
  endfacet
  facet normal 0.993036216 0.1053136 0.0528026509
    outer loop
      vertex 0.40579008 -0.0343647027 -0.0188903372
      vertex 0.387286289 -0.0177454042 0.295955518
      vertex 0.391052931 -0.0342850145 0.258105797
    endloop
  endfacet
endsolid bhs_submission_model06
