solid bhs_submission_model09
  facet normal -0.994414412 -0.105221879 -0.0082663633
    outer loop
      vertex -0.560333868 0.0142525562 -0.2542021
      vertex -0.534365 -0.225276251 -0.32922245
      vertex -0.530852241 -0.261326362 -0.292916105
    endloop
  endfacet
  facet normal -0.994414412 -0.105221879 -0.0082663633
    outer loop
      vertex -0.560333868 0.0142525562 -0.2542021
      vertex -0.530852241 -0.261326362 -0.292916105
      vertex -0.537893278 -0.238545613 0.264121539
    endloop
  endfacet
  facet normal -0.994414412 -0.105221879 -0.0082663633
    outer loop
      vertex -0.560333868 0.0142525562 -0.2542021
      vertex -0.537893278 -0.238545613 0.264121539
      vertex -0.550844723 -0.126075629 0.39051338
    endloop
  endfacet
  facet normal -0.994414412 -0.105221879 -0.0082663633
    outer loop
      vertex -0.560333868 0.0142525562 -0.2542021
      vertex -0.550844723 -0.126075629 0.39051338
      vertex -0.566126151 0.0217245664 0.347478453
    endloop
  endfacet
  facet normal -0.994396521 0.10515328 -0.0108787491
    outer loop
      vertex -0.537003649 0.244538468 -0.160824623
      vertex -0.548492537 0.122489305 -0.290376262
      vertex -0.560333868 0.0142525562 -0.2542021
    endloop
  endfacet
  facet normal -0.994396521 0.10515328 -0.0108787491
    outer loop
      vertex -0.537003649 0.244538468 -0.160824623
      vertex -0.560333868 0.0142525562 -0.2542021
      vertex -0.566126151 0.0217245664 0.347478453
    endloop
  endfacet
  facet normal -0.994396521 0.10515328 -0.0108787491
    outer loop
      vertex -0.537003649 0.244538468 -0.160824623
      vertex -0.566126151 0.0217245664 0.347478453
      vertex -0.551530805 0.164428267 0.392722718
    endloop
  endfacet
  facet normal -0.994396521 0.10515328 -0.0108787491
    outer loop
      vertex -0.537003649 0.244538468 -0.160824623
      vertex -0.551530805 0.164428267 0.392722718
      vertex -0.541420346 0.25070456 0.30249454
    endloop
  endfacet
  facet normal -0.947790995 -0.00288329999 -0.318879155
    outer loop
      vertex -0.398900856 0.0454010512 -0.734304243
      vertex -0.389105217 0.0259707461 -0.763243719
      vertex -0.388446974 -0.121868509 -0.763863426
    endloop
  endfacet
  facet normal -0.947790995 -0.00288329999 -0.318879155
    outer loop
      vertex -0.398900856 0.0454010512 -0.734304243
      vertex -0.388446974 -0.121868509 -0.763863426
      vertex -0.400301481 -0.164940758 -0.728239319
    endloop
  endfacet
  facet normal -0.947790995 -0.00288329999 -0.318879155
    outer loop
      vertex -0.398900856 0.0454010512 -0.734304243
      vertex -0.400301481 -0.164940758 -0.728239319
      vertex -0.534365 -0.225276251 -0.32922245
    endloop
  endfacet
  facet normal -0.947790995 -0.00288329999 -0.318879155
    outer loop
      vertex -0.398900856 0.0454010512 -0.734304243
      vertex -0.534365 -0.225276251 -0.32922245
      vertex -0.560333868 0.0142525562 -0.2542021
    endloop
  endfacet
  facet normal -0.947790995 -0.00288329999 -0.318879155
    outer loop
      vertex -0.398900856 0.0454010512 -0.734304243
      vertex -0.560333868 0.0142525562 -0.2542021
      vertex -0.548492537 0.122489305 -0.290376262
    endloop
  endfacet
  facet normal -0.947295138 -0.00467337889 0.320328083
    outer loop
      vertex -0.551530805 0.164428267 0.392722718
      vertex -0.566126151 0.0217245664 0.347478453
      vertex -0.550844723 -0.126075629 0.39051338
    endloop
  endfacet
  facet normal -0.947295138 -0.00467337889 0.320328083
    outer loop
      vertex -0.551530805 0.164428267 0.392722718
      vertex -0.550844723 -0.126075629 0.39051338
      vertex -0.445747281 -0.0882338851 0.70186649
    endloop
  endfacet
  facet normal -0.947295138 -0.00467337889 0.320328083
    outer loop
      vertex -0.551530805 0.164428267 0.392722718
      vertex -0.445747281 -0.0882338851 0.70186649
      vertex -0.42928386 -0.0239951655 0.751490395
    endloop
  endfacet
  facet normal -0.947295138 -0.00467337889 0.320328083
    outer loop
      vertex -0.551530805 0.164428267 0.392722718
      vertex -0.42928386 -0.0239951655 0.751490395
      vertex -0.470237713 0.127297313 0.632586243
    endloop
  endfacet
  facet normal -0.934583826 -0.355732475 0.00273484736
    outer loop
      vertex -0.530852241 -0.261326362 -0.292916105
      vertex -0.449854311 -0.473602118 -0.224914217
      vertex -0.444610645 -0.486618769 -0.126115094
    endloop
  endfacet
  facet normal -0.934583826 -0.355732475 0.00273484736
    outer loop
      vertex -0.530852241 -0.261326362 -0.292916105
      vertex -0.444610645 -0.486618769 -0.126115094
      vertex -0.470855343 -0.41531408 0.180126032
    endloop
  endfacet
  facet normal -0.934583826 -0.355732475 0.00273484736
    outer loop
      vertex -0.530852241 -0.261326362 -0.292916105
      vertex -0.470855343 -0.41531408 0.180126032
      vertex -0.537893278 -0.238545613 0.264121539
    endloop
  endfacet
  facet normal -0.924852189 0.380073578 -0.0138745841
    outer loop
      vertex -0.446757848 0.468730103 -0.0350341791
      vertex -0.458549489 0.437857704 -0.0947302144
      vertex -0.537003649 0.244538468 -0.160824623
    endloop
  endfacet
  facet normal -0.924852189 0.380073578 -0.0138745841
    outer loop
      vertex -0.446757848 0.468730103 -0.0350341791
      vertex -0.537003649 0.244538468 -0.160824623
      vertex -0.541420346 0.25070456 0.30249454
    endloop
  endfacet
  facet normal -0.924852189 0.380073578 -0.0138745841
    outer loop
      vertex -0.446757848 0.468730103 -0.0350341791
      vertex -0.541420346 0.25070456 0.30249454
      vertex -0.463009239 0.439139078 0.23764913
    endloop
  endfacet
  facet normal -0.834647396 -0.429095657 -0.345312383
    outer loop
      vertex -0.400301481 -0.164940758 -0.728239319
      vertex -0.380174308 -0.211813591 -0.718642684
      vertex -0.396864815 -0.466157185 -0.362245329
    endloop
  endfacet
  facet normal -0.834647396 -0.429095657 -0.345312383
    outer loop
      vertex -0.400301481 -0.164940758 -0.728239319
      vertex -0.396864815 -0.466157185 -0.362245329
      vertex -0.449854311 -0.473602118 -0.224914217
    endloop
  endfacet
  facet normal -0.834647396 -0.429095657 -0.345312383
    outer loop
      vertex -0.400301481 -0.164940758 -0.728239319
      vertex -0.449854311 -0.473602118 -0.224914217
      vertex -0.530852241 -0.261326362 -0.292916105
    endloop
  endfacet
  facet normal -0.834647396 -0.429095657 -0.345312383
    outer loop
      vertex -0.400301481 -0.164940758 -0.728239319
      vertex -0.530852241 -0.261326362 -0.292916105
      vertex -0.534365 -0.225276251 -0.32922245
    endloop
  endfacet
  facet normal -0.818195796 -0.468590268 0.333134808
    outer loop
      vertex -0.550844723 -0.126075629 0.39051338
      vertex -0.537893278 -0.238545613 0.264121539
      vertex -0.470855343 -0.41531408 0.180126032
    endloop
  endfacet
  facet normal -0.818195796 -0.468590268 0.333134808
    outer loop
      vertex -0.550844723 -0.126075629 0.39051338
      vertex -0.470855343 -0.41531408 0.180126032
      vertex -0.408367504 -0.408891599 0.342633215
    endloop
  endfacet
  facet normal -0.818195796 -0.468590268 0.333134808
    outer loop
      vertex -0.550844723 -0.126075629 0.39051338
      vertex -0.408367504 -0.408891599 0.342633215
      vertex -0.394203762 -0.167447532 0.717037365
    endloop
  endfacet
  facet normal -0.818195796 -0.468590268 0.333134808
    outer loop
      vertex -0.550844723 -0.126075629 0.39051338
      vertex -0.394203762 -0.167447532 0.717037365
      vertex -0.445747281 -0.0882338851 0.70186649
    endloop
  endfacet
  facet normal -0.818009069 0.453112961 -0.354330083
    outer loop
      vertex -0.323530069 0.3581829 -0.508324217
      vertex -0.398900856 0.0454010512 -0.734304243
      vertex -0.548492537 0.122489305 -0.290376262
    endloop
  endfacet
  facet normal -0.818009069 0.453112961 -0.354330083
    outer loop
      vertex -0.323530069 0.3581829 -0.508324217
      vertex -0.548492537 0.122489305 -0.290376262
      vertex -0.537003649 0.244538468 -0.160824623
    endloop
  endfacet
  facet normal -0.818009069 0.453112961 -0.354330083
    outer loop
      vertex -0.323530069 0.3581829 -0.508324217
      vertex -0.537003649 0.244538468 -0.160824623
      vertex -0.458549489 0.437857704 -0.0947302144
    endloop
  endfacet
  facet normal -0.816998978 0.459745712 0.348061131
    outer loop
      vertex -0.412074941 0.449768163 0.343166782
      vertex -0.463009239 0.439139078 0.23764913
      vertex -0.541420346 0.25070456 0.30249454
    endloop
  endfacet
  facet normal -0.816998978 0.459745712 0.348061131
    outer loop
      vertex -0.412074941 0.449768163 0.343166782
      vertex -0.541420346 0.25070456 0.30249454
      vertex -0.551530805 0.164428267 0.392722718
    endloop
  endfacet
  facet normal -0.816998978 0.459745712 0.348061131
    outer loop
      vertex -0.412074941 0.449768163 0.343166782
      vertex -0.551530805 0.164428267 0.392722718
      vertex -0.470237713 0.127297313 0.632586243
    endloop
  endfacet
  facet normal -0.816998978 0.459745712 0.348061131
    outer loop
      vertex -0.412074941 0.449768163 0.343166782
      vertex -0.470237713 0.127297313 0.632586243
      vertex -0.410563726 0.232312945 0.633945487
    endloop
  endfacet
  facet normal -0.726469507 -0.000353973779 -0.68719861
    outer loop
      vertex -0.249872793 0.0219723682 -0.910430708
      vertex -0.210378723 -0.0687902337 -0.952134969
      vertex -0.388446974 -0.121868509 -0.763863426
    endloop
  endfacet
  facet normal -0.726469507 -0.000353973779 -0.68719861
    outer loop
      vertex -0.249872793 0.0219723682 -0.910430708
      vertex -0.388446974 -0.121868509 -0.763863426
      vertex -0.389105217 0.0259707461 -0.763243719
    endloop
  endfacet
  facet normal -0.688993001 -0.324173017 0.64822874
    outer loop
      vertex -0.42928386 -0.0239951655 0.751490395
      vertex -0.445747281 -0.0882338851 0.70186649
      vertex -0.394203762 -0.167447532 0.717037365
    endloop
  endfacet
  facet normal -0.688993001 -0.324173017 0.64822874
    outer loop
      vertex -0.42928386 -0.0239951655 0.751490395
      vertex -0.394203762 -0.167447532 0.717037365
      vertex -0.230950172 -0.165141821 0.891710321
    endloop
  endfacet
  facet normal -0.688993001 -0.324173017 0.64822874
    outer loop
      vertex -0.42928386 -0.0239951655 0.751490395
      vertex -0.230950172 -0.165141821 0.891710321
      vertex -0.268590089 -0.0454930391 0.911538611
    endloop
  endfacet
  facet normal -0.688993001 -0.324173017 0.64822874
    outer loop
      vertex -0.42928386 -0.0239951655 0.751490395
      vertex -0.268590089 -0.0454930391 0.911538611
      vertex -0.273366173 -0.0407727077 0.908822772
    endloop
  endfacet
  facet normal -0.644095522 0.357245441 0.676399774
    outer loop
      vertex -0.410563726 0.232312945 0.633945487
      vertex -0.470237713 0.127297313 0.632586243
      vertex -0.42928386 -0.0239951655 0.751490395
    endloop
  endfacet
  facet normal -0.644095522 0.357245441 0.676399774
    outer loop
      vertex -0.410563726 0.232312945 0.633945487
      vertex -0.42928386 -0.0239951655 0.751490395
      vertex -0.273366173 -0.0407727077 0.908822772
    endloop
  endfacet
  facet normal -0.644095522 0.357245441 0.676399774
    outer loop
      vertex -0.410563726 0.232312945 0.633945487
      vertex -0.273366173 -0.0407727077 0.908822772
      vertex -0.155907784 0.23680467 0.874066951
    endloop
  endfacet
  facet normal -0.606438699 -0.400981338 -0.686619305
    outer loop
      vertex -0.210378723 -0.0687902337 -0.952134969
      vertex -0.135699759 -0.116280557 -0.990359179
      vertex -0.0908154645 -0.23355884 -0.961512292
    endloop
  endfacet
  facet normal -0.606438699 -0.400981338 -0.686619305
    outer loop
      vertex -0.210378723 -0.0687902337 -0.952134969
      vertex -0.0908154645 -0.23355884 -0.961512292
      vertex -0.380174308 -0.211813591 -0.718642684
    endloop
  endfacet
  facet normal -0.606438699 -0.400981338 -0.686619305
    outer loop
      vertex -0.210378723 -0.0687902337 -0.952134969
      vertex -0.380174308 -0.211813591 -0.718642684
      vertex -0.400301481 -0.164940758 -0.728239319
    endloop
  endfacet
  facet normal -0.606438699 -0.400981338 -0.686619305
    outer loop
      vertex -0.210378723 -0.0687902337 -0.952134969
      vertex -0.400301481 -0.164940758 -0.728239319
      vertex -0.388446974 -0.121868509 -0.763863426
    endloop
  endfacet
  facet normal -0.59411971 0.560203697 -0.577229233
    outer loop
      vertex -0.0504975489 0.387940849 -0.760465793
      vertex -0.0245417407 0.276180165 -0.895645373
      vertex -0.249872793 0.0219723682 -0.910430708
    endloop
  endfacet
  facet normal -0.59411971 0.560203697 -0.577229233
    outer loop
      vertex -0.0504975489 0.387940849 -0.760465793
      vertex -0.249872793 0.0219723682 -0.910430708
      vertex -0.389105217 0.0259707461 -0.763243719
    endloop
  endfacet
  facet normal -0.59411971 0.560203697 -0.577229233
    outer loop
      vertex -0.0504975489 0.387940849 -0.760465793
      vertex -0.389105217 0.0259707461 -0.763243719
      vertex -0.398900856 0.0454010512 -0.734304243
    endloop
  endfacet
  facet normal -0.59411971 0.560203697 -0.577229233
    outer loop
      vertex -0.0504975489 0.387940849 -0.760465793
      vertex -0.398900856 0.0454010512 -0.734304243
      vertex -0.323530069 0.3581829 -0.508324217
    endloop
  endfacet
  facet normal -0.59411971 0.560203697 -0.577229233
    outer loop
      vertex -0.0504975489 0.387940849 -0.760465793
      vertex -0.323530069 0.3581829 -0.508324217
      vertex -0.124116312 0.427030198 -0.646756451
    endloop
  endfacet
  facet normal -0.499160869 0.805964147 -0.31821411
    outer loop
      vertex -0.150771561 0.531055208 -0.341472421
      vertex -0.124116312 0.427030198 -0.646756451
      vertex -0.323530069 0.3581829 -0.508324217
    endloop
  endfacet
  facet normal -0.499160869 0.805964147 -0.31821411
    outer loop
      vertex -0.150771561 0.531055208 -0.341472421
      vertex -0.323530069 0.3581829 -0.508324217
      vertex -0.458549489 0.437857704 -0.0947302144
    endloop
  endfacet
  facet normal -0.499160869 0.805964147 -0.31821411
    outer loop
      vertex -0.150771561 0.531055208 -0.341472421
      vertex -0.458549489 0.437857704 -0.0947302144
      vertex -0.446757848 0.468730103 -0.0350341791
    endloop
  endfacet
  facet normal -0.499160869 0.805964147 -0.31821411
    outer loop
      vertex -0.150771561 0.531055208 -0.341472421
      vertex -0.446757848 0.468730103 -0.0350341791
      vertex -0.254964011 0.550707083 -0.128259058
    endloop
  endfacet
  facet normal -0.50478832 -0.716651754 0.481247353
    outer loop
      vertex -0.408367504 -0.408891599 0.342633215
      vertex -0.241411221 -0.457115668 0.445943328
      vertex -0.0532556309 -0.330307618 0.832139646
    endloop
  endfacet
  facet normal -0.50478832 -0.716651754 0.481247353
    outer loop
      vertex -0.408367504 -0.408891599 0.342633215
      vertex -0.0532556309 -0.330307618 0.832139646
      vertex -0.0771558676 -0.258011301 0.914730691
    endloop
  endfacet
  facet normal -0.50478832 -0.716651754 0.481247353
    outer loop
      vertex -0.408367504 -0.408891599 0.342633215
      vertex -0.0771558676 -0.258011301 0.914730691
      vertex -0.230950172 -0.165141821 0.891710321
    endloop
  endfacet
  facet normal -0.50478832 -0.716651754 0.481247353
    outer loop
      vertex -0.408367504 -0.408891599 0.342633215
      vertex -0.230950172 -0.165141821 0.891710321
      vertex -0.394203762 -0.167447532 0.717037365
    endloop
  endfacet
  facet normal -0.502127248 0.691299584 0.519589369
    outer loop
      vertex -0.269851263 0.498427851 0.415870274
      vertex -0.412074941 0.449768163 0.343166782
      vertex -0.410563726 0.232312945 0.633945487
    endloop
  endfacet
  facet normal -0.502127248 0.691299584 0.519589369
    outer loop
      vertex -0.269851263 0.498427851 0.415870274
      vertex -0.410563726 0.232312945 0.633945487
      vertex -0.155907784 0.23680467 0.874066951
    endloop
  endfacet
  facet normal -0.502127248 0.691299584 0.519589369
    outer loop
      vertex -0.269851263 0.498427851 0.415870274
      vertex -0.155907784 0.23680467 0.874066951
      vertex -0.125457335 0.255335789 0.878838882
    endloop
  endfacet
  facet normal -0.502127248 0.691299584 0.519589369
    outer loop
      vertex -0.269851263 0.498427851 0.415870274
      vertex -0.125457335 0.255335789 0.878838882
      vertex -0.0976377421 0.390211275 0.726275346
    endloop
  endfacet
  facet normal -0.490142724 -0.698480617 -0.52142587
    outer loop
      vertex -0.0908154645 -0.23355884 -0.961512292
      vertex -0.0899437168 -0.234347733 -0.96127497
      vertex -0.0544442835 -0.370119658 -0.812770124
    endloop
  endfacet
  facet normal -0.490142724 -0.698480617 -0.52142587
    outer loop
      vertex -0.0908154645 -0.23355884 -0.961512292
      vertex -0.0544442835 -0.370119658 -0.812770124
      vertex -0.235881674 -0.478022014 -0.497676588
    endloop
  endfacet
  facet normal -0.490142724 -0.698480617 -0.52142587
    outer loop
      vertex -0.0908154645 -0.23355884 -0.961512292
      vertex -0.235881674 -0.478022014 -0.497676588
      vertex -0.396864815 -0.466157185 -0.362245329
    endloop
  endfacet
  facet normal -0.490142724 -0.698480617 -0.52142587
    outer loop
      vertex -0.0908154645 -0.23355884 -0.961512292
      vertex -0.396864815 -0.466157185 -0.362245329
      vertex -0.380174308 -0.211813591 -0.718642684
    endloop
  endfacet
  facet normal -0.374042728 -0.909818259 0.179785355
    outer loop
      vertex -0.470855343 -0.41531408 0.180126032
      vertex -0.444610645 -0.486618769 -0.126115094
      vertex -0.347323159 -0.5125285 -0.0548271435
    endloop
  endfacet
  facet normal -0.374042728 -0.909818259 0.179785355
    outer loop
      vertex -0.470855343 -0.41531408 0.180126032
      vertex -0.347323159 -0.5125285 -0.0548271435
      vertex -0.210059321 -0.488648397 0.351596922
    endloop
  endfacet
  facet normal -0.374042728 -0.909818259 0.179785355
    outer loop
      vertex -0.470855343 -0.41531408 0.180126032
      vertex -0.210059321 -0.488648397 0.351596922
      vertex -0.241411221 -0.457115668 0.445943328
    endloop
  endfacet
  facet normal -0.374042728 -0.909818259 0.179785355
    outer loop
      vertex -0.470855343 -0.41531408 0.180126032
      vertex -0.241411221 -0.457115668 0.445943328
      vertex -0.408367504 -0.408891599 0.342633215
    endloop
  endfacet
  facet normal -0.358844253 0.930002635 0.0795355367
    outer loop
      vertex -0.225332429 0.556772086 -0.0654864361
      vertex -0.254964011 0.550707083 -0.128259058
      vertex -0.446757848 0.468730103 -0.0350341791
    endloop
  endfacet
  facet normal -0.358844253 0.930002635 0.0795355367
    outer loop
      vertex -0.225332429 0.556772086 -0.0654864361
      vertex -0.446757848 0.468730103 -0.0350341791
      vertex -0.463009239 0.439139078 0.23764913
    endloop
  endfacet
  facet normal -0.358844253 0.930002635 0.0795355367
    outer loop
      vertex -0.225332429 0.556772086 -0.0654864361
      vertex -0.463009239 0.439139078 0.23764913
      vertex -0.412074941 0.449768163 0.343166782
    endloop
  endfacet
  facet normal -0.358844253 0.930002635 0.0795355367
    outer loop
      vertex -0.225332429 0.556772086 -0.0654864361
      vertex -0.412074941 0.449768163 0.343166782
      vertex -0.269851263 0.498427851 0.415870274
    endloop
  endfacet
  facet normal -0.358844253 0.930002635 0.0795355367
    outer loop
      vertex -0.225332429 0.556772086 -0.0654864361
      vertex -0.269851263 0.498427851 0.415870274
      vertex -0.239328438 0.513999079 0.371508434
    endloop
  endfacet
  facet normal -0.290637459 0.238993744 0.926505185
    outer loop
      vertex -0.273366173 -0.0407727077 0.908822772
      vertex -0.268590089 -0.0454930391 0.911538611
      vertex 0.0150333187 -0.0425694252 0.999754913
    endloop
  endfacet
  facet normal -0.290637459 0.238993744 0.926505185
    outer loop
      vertex -0.273366173 -0.0407727077 0.908822772
      vertex 0.0150333187 -0.0425694252 0.999754913
      vertex 0.026903161 -0.0290847785 1
    endloop
  endfacet
  facet normal -0.290637459 0.238993744 0.926505185
    outer loop
      vertex -0.273366173 -0.0407727077 0.908822772
      vertex 0.026903161 -0.0290847785 1
      vertex -0.00539226225 0.206126488 0.929195991
    endloop
  endfacet
  facet normal -0.290637459 0.238993744 0.926505185
    outer loop
      vertex -0.273366173 -0.0407727077 0.908822772
      vertex -0.00539226225 0.206126488 0.929195991
      vertex -0.125457335 0.255335789 0.878838882
    endloop
  endfacet
  facet normal -0.290637459 0.238993744 0.926505185
    outer loop
      vertex -0.273366173 -0.0407727077 0.908822772
      vertex -0.125457335 0.255335789 0.878838882
      vertex -0.155907784 0.23680467 0.874066951
    endloop
  endfacet
  facet normal -0.285770084 -0.243497213 0.926846571
    outer loop
      vertex -0.230950172 -0.165141821 0.891710321
      vertex -0.0771558676 -0.258011301 0.914730691
      vertex 0.00394144094 -0.229050949 0.947343371
    endloop
  endfacet
  facet normal -0.285770084 -0.243497213 0.926846571
    outer loop
      vertex -0.230950172 -0.165141821 0.891710321
      vertex 0.00394144094 -0.229050949 0.947343371
      vertex 0.0150333187 -0.0425694252 0.999754913
    endloop
  endfacet
  facet normal -0.285770084 -0.243497213 0.926846571
    outer loop
      vertex -0.230950172 -0.165141821 0.891710321
      vertex 0.0150333187 -0.0425694252 0.999754913
      vertex -0.268590089 -0.0454930391 0.911538611
    endloop
  endfacet
  facet normal -0.277292261 0.298901803 -0.913108271
    outer loop
      vertex -0.0077468621 -0.0270297256 -1
      vertex -0.135699759 -0.116280557 -0.990359179
      vertex -0.210378723 -0.0687902337 -0.952134969
    endloop
  endfacet
  facet normal -0.277292261 0.298901803 -0.913108271
    outer loop
      vertex -0.0077468621 -0.0270297256 -1
      vertex -0.210378723 -0.0687902337 -0.952134969
      vertex -0.249872793 0.0219723682 -0.910430708
    endloop
  endfacet
  facet normal -0.277292261 0.298901803 -0.913108271
    outer loop
      vertex -0.0077468621 -0.0270297256 -1
      vertex -0.249872793 0.0219723682 -0.910430708
      vertex -0.0245417407 0.276180165 -0.895645373
    endloop
  endfacet
  facet normal -0.277292261 0.298901803 -0.913108271
    outer loop
      vertex -0.0077468621 -0.0270297256 -1
      vertex -0.0245417407 0.276180165 -0.895645373
      vertex 0.0128728182 0.240597922 -0.918655091
    endloop
  endfacet
  facet normal -0.172708875 -0.977679665 -0.119641617
    outer loop
      vertex -0.396864815 -0.466157185 -0.362245329
      vertex -0.235881674 -0.478022014 -0.497676588
      vertex -0.020567547 -0.53652178 -0.330449068
    endloop
  endfacet
  facet normal -0.172708875 -0.977679665 -0.119641617
    outer loop
      vertex -0.396864815 -0.466157185 -0.362245329
      vertex -0.020567547 -0.53652178 -0.330449068
      vertex -0.112022656 -0.544685463 -0.131717415
    endloop
  endfacet
  facet normal -0.172708875 -0.977679665 -0.119641617
    outer loop
      vertex -0.396864815 -0.466157185 -0.362245329
      vertex -0.112022656 -0.544685463 -0.131717415
      vertex -0.347323159 -0.5125285 -0.0548271435
    endloop
  endfacet
  facet normal -0.172708875 -0.977679665 -0.119641617
    outer loop
      vertex -0.396864815 -0.466157185 -0.362245329
      vertex -0.347323159 -0.5125285 -0.0548271435
      vertex -0.444610645 -0.486618769 -0.126115094
    endloop
  endfacet
  facet normal -0.172708875 -0.977679665 -0.119641617
    outer loop
      vertex -0.396864815 -0.466157185 -0.362245329
      vertex -0.444610645 -0.486618769 -0.126115094
      vertex -0.449854311 -0.473602118 -0.224914217
    endloop
  endfacet
  facet normal -0.104746752 0.990088678 0.0935549502
    outer loop
      vertex 0.0860624733 0.57396021 0.101258753
      vertex -0.225332429 0.556772086 -0.0654864361
      vertex -0.239328438 0.513999079 0.371508434
    endloop
  endfacet
  facet normal -0.104746752 0.990088678 0.0935549502
    outer loop
      vertex 0.0860624733 0.57396021 0.101258753
      vertex -0.239328438 0.513999079 0.371508434
      vertex 0.0727646046 0.559021698 0.244463814
    endloop
  endfacet
  facet normal -0.104739708 -0.990090017 0.0935486594
    outer loop
      vertex -0.347323159 -0.5125285 -0.0548271435
      vertex -0.112022656 -0.544685463 -0.131717415
      vertex 0.043276118 -0.525393981 0.246334527
    endloop
  endfacet
  facet normal -0.104739708 -0.990090017 0.0935486594
    outer loop
      vertex -0.347323159 -0.5125285 -0.0548271435
      vertex 0.043276118 -0.525393981 0.246334527
      vertex -0.210059321 -0.488648397 0.351596922
    endloop
  endfacet
  facet normal -0.0370565851 -0.741927231 -0.669455595
    outer loop
      vertex -0.0899437168 -0.234347733 -0.96127497
      vertex 0.0880743404 -0.260571055 -0.942066743
      vertex 0.108791292 -0.366124788 -0.826233086
    endloop
  endfacet
  facet normal -0.0370565851 -0.741927231 -0.669455595
    outer loop
      vertex -0.0899437168 -0.234347733 -0.96127497
      vertex 0.108791292 -0.366124788 -0.826233086
      vertex -0.0544442835 -0.370119658 -0.812770124
    endloop
  endfacet
  facet normal -0.0068000224 -0.949085135 0.31494629
    outer loop
      vertex -0.241411221 -0.457115668 0.445943328
      vertex -0.210059321 -0.488648397 0.351596922
      vertex 0.043276118 -0.525393981 0.246334527
    endloop
  endfacet
  facet normal -0.0068000224 -0.949085135 0.31494629
    outer loop
      vertex -0.241411221 -0.457115668 0.445943328
      vertex 0.043276118 -0.525393981 0.246334527
      vertex 0.226035332 -0.505584031 0.309977429
    endloop
  endfacet
  facet normal -0.0068000224 -0.949085135 0.31494629
    outer loop
      vertex -0.241411221 -0.457115668 0.445943328
      vertex 0.226035332 -0.505584031 0.309977429
      vertex 0.171498203 -0.372843113 0.708812349
    endloop
  endfacet
  facet normal -0.0068000224 -0.949085135 0.31494629
    outer loop
      vertex -0.241411221 -0.457115668 0.445943328
      vertex 0.171498203 -0.372843113 0.708812349
      vertex 0.0917928549 -0.332382607 0.829018454
    endloop
  endfacet
  facet normal -0.0068000224 -0.949085135 0.31494629
    outer loop
      vertex -0.241411221 -0.457115668 0.445943328
      vertex 0.0917928549 -0.332382607 0.829018454
      vertex -0.0532556309 -0.330307618 0.832139646
    endloop
  endfacet
  facet normal -0.00460992112 0.995560245 -0.0940135471
    outer loop
      vertex 0.152133399 0.533623313 -0.329130208
      vertex -0.150771561 0.531055208 -0.341472421
      vertex -0.254964011 0.550707083 -0.128259058
    endloop
  endfacet
  facet normal -0.00460992112 0.995560245 -0.0940135471
    outer loop
      vertex 0.152133399 0.533623313 -0.329130208
      vertex -0.254964011 0.550707083 -0.128259058
      vertex -0.225332429 0.556772086 -0.0654864361
    endloop
  endfacet
  facet normal -0.00460992112 0.995560245 -0.0940135471
    outer loop
      vertex 0.152133399 0.533623313 -0.329130208
      vertex -0.225332429 0.556772086 -0.0654864361
      vertex 0.0860624733 0.57396021 0.101258753
    endloop
  endfacet
  facet normal -0.00460992112 0.995560245 -0.0940135471
    outer loop
      vertex 0.152133399 0.533623313 -0.329130208
      vertex 0.0860624733 0.57396021 0.101258753
      vertex 0.237576824 0.562254333 -0.0301305526
    endloop
  endfacet
  facet normal -0.00374223237 -0.945396308 -0.325901545
    outer loop
      vertex -0.0544442835 -0.370119658 -0.812770124
      vertex 0.108791292 -0.366124788 -0.826233086
      vertex 0.172192583 -0.396531259 -0.738756046
    endloop
  endfacet
  facet normal -0.00374223237 -0.945396308 -0.325901545
    outer loop
      vertex -0.0544442835 -0.370119658 -0.812770124
      vertex 0.172192583 -0.396531259 -0.738756046
      vertex 0.209046407 -0.512782251 -0.401950821
    endloop
  endfacet
  facet normal -0.00374223237 -0.945396308 -0.325901545
    outer loop
      vertex -0.0544442835 -0.370119658 -0.812770124
      vertex 0.209046407 -0.512782251 -0.401950821
      vertex -0.020567547 -0.53652178 -0.330449068
    endloop
  endfacet
  facet normal -0.00374223237 -0.945396308 -0.325901545
    outer loop
      vertex -0.0544442835 -0.370119658 -0.812770124
      vertex -0.020567547 -0.53652178 -0.330449068
      vertex -0.235881674 -0.478022014 -0.497676588
    endloop
  endfacet
  facet normal -0.00180369844 0.943947939 0.330089436
    outer loop
      vertex 0.280560048 0.493502155 0.432963754
      vertex 0.286736362 0.499057649 0.417110603
      vertex 0.0727646046 0.559021698 0.244463814
    endloop
  endfacet
  facet normal -0.00180369844 0.943947939 0.330089436
    outer loop
      vertex 0.280560048 0.493502155 0.432963754
      vertex 0.0727646046 0.559021698 0.244463814
      vertex -0.239328438 0.513999079 0.371508434
    endloop
  endfacet
  facet normal -0.00180369844 0.943947939 0.330089436
    outer loop
      vertex 0.280560048 0.493502155 0.432963754
      vertex -0.239328438 0.513999079 0.371508434
      vertex -0.269851263 0.498427851 0.415870274
    endloop
  endfacet
  facet normal -0.00180369844 0.943947939 0.330089436
    outer loop
      vertex 0.280560048 0.493502155 0.432963754
      vertex -0.269851263 0.498427851 0.415870274
      vertex -0.0976377421 0.390211275 0.726275346
    endloop
  endfacet
  facet normal -0.00180369844 0.943947939 0.330089436
    outer loop
      vertex 0.280560048 0.493502155 0.432963754
      vertex -0.0976377421 0.390211275 0.726275346
      vertex 0.047919346 0.394083706 0.715996822
    endloop
  endfacet
  facet normal 0.00342812549 -0.751948775 0.659212627
    outer loop
      vertex -0.0532556309 -0.330307618 0.832139646
      vertex 0.0917928549 -0.332382607 0.829018454
      vertex 0.0910216214 -0.261692527 0.909657023
    endloop
  endfacet
  facet normal 0.00342812549 -0.751948775 0.659212627
    outer loop
      vertex -0.0532556309 -0.330307618 0.832139646
      vertex 0.0910216214 -0.261692527 0.909657023
      vertex 0.00394144094 -0.229050949 0.947343371
    endloop
  endfacet
  facet normal 0.00342812549 -0.751948775 0.659212627
    outer loop
      vertex -0.0532556309 -0.330307618 0.832139646
      vertex 0.00394144094 -0.229050949 0.947343371
      vertex -0.0771558676 -0.258011301 0.914730691
    endloop
  endfacet
  facet normal 0.005099544 0.94668021 -0.322134403
    outer loop
      vertex -0.0504975489 0.387940849 -0.760465793
      vertex -0.124116312 0.427030198 -0.646756451
      vertex -0.150771561 0.531055208 -0.341472421
    endloop
  endfacet
  facet normal 0.005099544 0.94668021 -0.322134403
    outer loop
      vertex -0.0504975489 0.387940849 -0.760465793
      vertex -0.150771561 0.531055208 -0.341472421
      vertex 0.152133399 0.533623313 -0.329130208
    endloop
  endfacet
  facet normal 0.005099544 0.94668021 -0.322134403
    outer loop
      vertex -0.0504975489 0.387940849 -0.760465793
      vertex 0.152133399 0.533623313 -0.329130208
      vertex 0.186805772 0.500580014 -0.425688115
    endloop
  endfacet
  facet normal 0.005099544 0.94668021 -0.322134403
    outer loop
      vertex -0.0504975489 0.387940849 -0.760465793
      vertex 0.186805772 0.500580014 -0.425688115
      vertex 0.181912346 0.487327005 -0.464713179
    endloop
  endfacet
  facet normal 0.0270902832 0.746471231 0.664866015
    outer loop
      vertex 0.047919346 0.394083706 0.715996822
      vertex -0.0976377421 0.390211275 0.726275346
      vertex -0.125457335 0.255335789 0.878838882
    endloop
  endfacet
  facet normal 0.0270902832 0.746471231 0.664866015
    outer loop
      vertex 0.047919346 0.394083706 0.715996822
      vertex -0.125457335 0.255335789 0.878838882
      vertex -0.00539226225 0.206126488 0.929195991
    endloop
  endfacet
  facet normal 0.0270902832 0.746471231 0.664866015
    outer loop
      vertex 0.047919346 0.394083706 0.715996822
      vertex -0.00539226225 0.206126488 0.929195991
      vertex 0.0730993024 0.238446925 0.889710389
    endloop
  endfacet
  facet normal 0.0740196327 -0.211392071 -0.974594524
    outer loop
      vertex 0.0880743404 -0.260571055 -0.942066743
      vertex -0.0899437168 -0.234347733 -0.96127497
      vertex -0.0908154645 -0.23355884 -0.961512292
    endloop
  endfacet
  facet normal 0.0740196327 -0.211392071 -0.974594524
    outer loop
      vertex 0.0880743404 -0.260571055 -0.942066743
      vertex -0.0908154645 -0.23355884 -0.961512292
      vertex -0.135699759 -0.116280557 -0.990359179
    endloop
  endfacet
  facet normal 0.0740196327 -0.211392071 -0.974594524
    outer loop
      vertex 0.0880743404 -0.260571055 -0.942066743
      vertex -0.135699759 -0.116280557 -0.990359179
      vertex -0.0077468621 -0.0270297256 -1
    endloop
  endfacet
  facet normal 0.0740196327 -0.211392071 -0.974594524
    outer loop
      vertex 0.0880743404 -0.260571055 -0.942066743
      vertex -0.0077468621 -0.0270297256 -1
      vertex 0.201426371 -0.119418904 -0.964074018
    endloop
  endfacet
  facet normal 0.105162152 -0.994426465 0.00754501427
    outer loop
      vertex -0.112022656 -0.544685463 -0.131717415
      vertex -0.020567547 -0.53652178 -0.330449068
      vertex 0.209046407 -0.512782251 -0.401950821
    endloop
  endfacet
  facet normal 0.105162152 -0.994426465 0.00754501427
    outer loop
      vertex -0.112022656 -0.544685463 -0.131717415
      vertex 0.209046407 -0.512782251 -0.401950821
      vertex 0.288905185 -0.503660123 -0.31273105
    endloop
  endfacet
  facet normal 0.105162152 -0.994426465 0.00754501427
    outer loop
      vertex -0.112022656 -0.544685463 -0.131717415
      vertex 0.288905185 -0.503660123 -0.31273105
      vertex 0.288770252 -0.49947835 0.240303721
    endloop
  endfacet
  facet normal 0.105162152 -0.994426465 0.00754501427
    outer loop
      vertex -0.112022656 -0.544685463 -0.131717415
      vertex 0.288770252 -0.49947835 0.240303721
      vertex 0.226035332 -0.505584031 0.309977429
    endloop
  endfacet
  facet normal 0.105162152 -0.994426465 0.00754501427
    outer loop
      vertex -0.112022656 -0.544685463 -0.131717415
      vertex 0.226035332 -0.505584031 0.309977429
      vertex 0.043276118 -0.525393981 0.246334527
    endloop
  endfacet
  facet normal 0.178183134 0.976842555 0.11844574
    outer loop
      vertex 0.43161806 0.512450827 0.0887028341
      vertex 0.237576824 0.562254333 -0.0301305526
      vertex 0.0860624733 0.57396021 0.101258753
    endloop
  endfacet
  facet normal 0.178183134 0.976842555 0.11844574
    outer loop
      vertex 0.43161806 0.512450827 0.0887028341
      vertex 0.0860624733 0.57396021 0.101258753
      vertex 0.0727646046 0.559021698 0.244463814
    endloop
  endfacet
  facet normal 0.178183134 0.976842555 0.11844574
    outer loop
      vertex 0.43161806 0.512450827 0.0887028341
      vertex 0.0727646046 0.559021698 0.244463814
      vertex 0.286736362 0.499057649 0.417110603
    endloop
  endfacet
  facet normal 0.178183134 0.976842555 0.11844574
    outer loop
      vertex 0.43161806 0.512450827 0.0887028341
      vertex 0.286736362 0.499057649 0.417110603
      vertex 0.430120718 0.495862902 0.227758849
    endloop
  endfacet
  facet normal 0.273985022 0.260297426 -0.925838786
    outer loop
      vertex 0.278912285 0.00754984399 -0.905446513
      vertex 0.227659075 -0.105217415 -0.952318214
      vertex 0.201426371 -0.119418904 -0.964074018
    endloop
  endfacet
  facet normal 0.273985022 0.260297426 -0.925838786
    outer loop
      vertex 0.278912285 0.00754984399 -0.905446513
      vertex 0.201426371 -0.119418904 -0.964074018
      vertex -0.0077468621 -0.0270297256 -1
    endloop
  endfacet
  facet normal 0.273985022 0.260297426 -0.925838786
    outer loop
      vertex 0.278912285 0.00754984399 -0.905446513
      vertex -0.0077468621 -0.0270297256 -1
      vertex 0.0128728182 0.240597922 -0.918655091
    endloop
  endfacet
  facet normal 0.273985022 0.260297426 -0.925838786
    outer loop
      vertex 0.278912285 0.00754984399 -0.905446513
      vertex 0.0128728182 0.240597922 -0.918655091
      vertex 0.109078828 0.206010613 -0.899908827
    endloop
  endfacet
  facet normal 0.293278562 -0.27480083 0.91568127
    outer loop
      vertex 0.00394144094 -0.229050949 0.947343371
      vertex 0.0910216214 -0.261692527 0.909657023
      vertex 0.215720653 -0.169500579 0.897385145
    endloop
  endfacet
  facet normal 0.293278562 -0.27480083 0.91568127
    outer loop
      vertex 0.00394144094 -0.229050949 0.947343371
      vertex 0.215720653 -0.169500579 0.897385145
      vertex 0.251224144 -0.0423744685 0.924165148
    endloop
  endfacet
  facet normal 0.293278562 -0.27480083 0.91568127
    outer loop
      vertex 0.00394144094 -0.229050949 0.947343371
      vertex 0.251224144 -0.0423744685 0.924165148
      vertex 0.026903161 -0.0290847785 1
    endloop
  endfacet
  facet normal 0.293278562 -0.27480083 0.91568127
    outer loop
      vertex 0.00394144094 -0.229050949 0.947343371
      vertex 0.026903161 -0.0290847785 1
      vertex 0.0150333187 -0.0425694252 0.999754913
    endloop
  endfacet
  facet normal 0.320749049 0.313126993 0.893908012
    outer loop
      vertex 0.026903161 -0.0290847785 1
      vertex 0.251224144 -0.0423744685 0.924165148
      vertex 0.267917447 -0.0286939667 0.913383172
    endloop
  endfacet
  facet normal 0.320749049 0.313126993 0.893908012
    outer loop
      vertex 0.026903161 -0.0290847785 1
      vertex 0.267917447 -0.0286939667 0.913383172
      vertex 0.203966519 0.188803288 0.860142724
    endloop
  endfacet
  facet normal 0.320749049 0.313126993 0.893908012
    outer loop
      vertex 0.026903161 -0.0290847785 1
      vertex 0.203966519 0.188803288 0.860142724
      vertex 0.0730993024 0.238446925 0.889710389
    endloop
  endfacet
  facet normal 0.320749049 0.313126993 0.893908012
    outer loop
      vertex 0.026903161 -0.0290847785 1
      vertex 0.0730993024 0.238446925 0.889710389
      vertex -0.00539226225 0.206126488 0.929195991
    endloop
  endfacet
  facet normal 0.35063771 0.917436891 -0.188049853
    outer loop
      vertex 0.186805772 0.500580014 -0.425688115
      vertex 0.152133399 0.533623313 -0.329130208
      vertex 0.237576824 0.562254333 -0.0301305526
    endloop
  endfacet
  facet normal 0.35063771 0.917436891 -0.188049853
    outer loop
      vertex 0.186805772 0.500580014 -0.425688115
      vertex 0.237576824 0.562254333 -0.0301305526
      vertex 0.43161806 0.512450827 0.0887028341
    endloop
  endfacet
  facet normal 0.35063771 0.917436891 -0.188049853
    outer loop
      vertex 0.186805772 0.500580014 -0.425688115
      vertex 0.43161806 0.512450827 0.0887028341
      vertex 0.443655618 0.492431804 0.0134814566
    endloop
  endfacet
  facet normal 0.37558038 0.748413557 -0.546641131
    outer loop
      vertex 0.109078828 0.206010613 -0.899908827
      vertex 0.0128728182 0.240597922 -0.918655091
      vertex -0.0245417407 0.276180165 -0.895645373
    endloop
  endfacet
  facet normal 0.37558038 0.748413557 -0.546641131
    outer loop
      vertex 0.109078828 0.206010613 -0.899908827
      vertex -0.0245417407 0.276180165 -0.895645373
      vertex -0.0504975489 0.387940849 -0.760465793
    endloop
  endfacet
  facet normal 0.37558038 0.748413557 -0.546641131
    outer loop
      vertex 0.109078828 0.206010613 -0.899908827
      vertex -0.0504975489 0.387940849 -0.760465793
      vertex 0.181912346 0.487327005 -0.464713179
    endloop
  endfacet
  facet normal 0.37558038 0.748413557 -0.546641131
    outer loop
      vertex 0.109078828 0.206010613 -0.899908827
      vertex 0.181912346 0.487327005 -0.464713179
      vertex 0.25527494 0.399738387 -0.534226716
    endloop
  endfacet
  facet normal 0.364378226 -0.931223747 0.00713035241
    outer loop
      vertex 0.288905185 -0.503660123 -0.31273105
      vertex 0.454208473 -0.43843541 -0.241783281
      vertex 0.45494092 -0.438138213 -0.24039915
    endloop
  endfacet
  facet normal 0.364378226 -0.931223747 0.00713035241
    outer loop
      vertex 0.288905185 -0.503660123 -0.31273105
      vertex 0.45494092 -0.438138213 -0.24039915
      vertex 0.459804103 -0.433075474 0.172274011
    endloop
  endfacet
  facet normal 0.364378226 -0.931223747 0.00713035241
    outer loop
      vertex 0.288905185 -0.503660123 -0.31273105
      vertex 0.459804103 -0.433075474 0.172274011
      vertex 0.288770252 -0.49947835 0.240303721
    endloop
  endfacet
  facet normal 0.400294816 0.710599036 0.57863034
    outer loop
      vertex 0.319746189 0.285065174 0.661830267
      vertex 0.280560048 0.493502155 0.432963754
      vertex 0.047919346 0.394083706 0.715996822
    endloop
  endfacet
  facet normal 0.400294816 0.710599036 0.57863034
    outer loop
      vertex 0.319746189 0.285065174 0.661830267
      vertex 0.047919346 0.394083706 0.715996822
      vertex 0.0730993024 0.238446925 0.889710389
    endloop
  endfacet
  facet normal 0.400294816 0.710599036 0.57863034
    outer loop
      vertex 0.319746189 0.285065174 0.661830267
      vertex 0.0730993024 0.238446925 0.889710389
      vertex 0.203966519 0.188803288 0.860142724
    endloop
  endfacet
  facet normal 0.454152832 -0.824875812 0.336637936
    outer loop
      vertex 0.226035332 -0.505584031 0.309977429
      vertex 0.288770252 -0.49947835 0.240303721
      vertex 0.459804103 -0.433075474 0.172274011
    endloop
  endfacet
  facet normal 0.454152832 -0.824875812 0.336637936
    outer loop
      vertex 0.226035332 -0.505584031 0.309977429
      vertex 0.459804103 -0.433075474 0.172274011
      vertex 0.475712292 -0.394843488 0.244493714
    endloop
  endfacet
  facet normal 0.454152832 -0.824875812 0.336637936
    outer loop
      vertex 0.226035332 -0.505584031 0.309977429
      vertex 0.475712292 -0.394843488 0.244493714
      vertex 0.378314952 -0.307835307 0.589090114
    endloop
  endfacet
  facet normal 0.454152832 -0.824875812 0.336637936
    outer loop
      vertex 0.226035332 -0.505584031 0.309977429
      vertex 0.378314952 -0.307835307 0.589090114
      vertex 0.171498203 -0.372843113 0.708812349
    endloop
  endfacet
  facet normal 0.466470909 -0.819144805 -0.333776392
    outer loop
      vertex 0.172192583 -0.396531259 -0.738756046
      vertex 0.34598288 -0.345191569 -0.621870974
      vertex 0.454208473 -0.43843541 -0.241783281
    endloop
  endfacet
  facet normal 0.466470909 -0.819144805 -0.333776392
    outer loop
      vertex 0.172192583 -0.396531259 -0.738756046
      vertex 0.454208473 -0.43843541 -0.241783281
      vertex 0.288905185 -0.503660123 -0.31273105
    endloop
  endfacet
  facet normal 0.466470909 -0.819144805 -0.333776392
    outer loop
      vertex 0.172192583 -0.396531259 -0.738756046
      vertex 0.288905185 -0.503660123 -0.31273105
      vertex 0.209046407 -0.512782251 -0.401950821
    endloop
  endfacet
  facet normal 0.526306624 -0.636894258 0.563353391
    outer loop
      vertex 0.171498203 -0.372843113 0.708812349
      vertex 0.378314952 -0.307835307 0.589090114
      vertex 0.389046806 -0.204871638 0.695468678
    endloop
  endfacet
  facet normal 0.526306624 -0.636894258 0.563353391
    outer loop
      vertex 0.171498203 -0.372843113 0.708812349
      vertex 0.389046806 -0.204871638 0.695468678
      vertex 0.215720653 -0.169500579 0.897385145
    endloop
  endfacet
  facet normal 0.526306624 -0.636894258 0.563353391
    outer loop
      vertex 0.171498203 -0.372843113 0.708812349
      vertex 0.215720653 -0.169500579 0.897385145
      vertex 0.0910216214 -0.261692527 0.909657023
    endloop
  endfacet
  facet normal 0.526306624 -0.636894258 0.563353391
    outer loop
      vertex 0.171498203 -0.372843113 0.708812349
      vertex 0.0910216214 -0.261692527 0.909657023
      vertex 0.0917928549 -0.332382607 0.829018454
    endloop
  endfacet
  facet normal 0.571222519 -0.553251062 -0.606315179
    outer loop
      vertex 0.108791292 -0.366124788 -0.826233086
      vertex 0.0880743404 -0.260571055 -0.942066743
      vertex 0.201426371 -0.119418904 -0.964074018
    endloop
  endfacet
  facet normal 0.571222519 -0.553251062 -0.606315179
    outer loop
      vertex 0.108791292 -0.366124788 -0.826233086
      vertex 0.201426371 -0.119418904 -0.964074018
      vertex 0.227659075 -0.105217415 -0.952318214
    endloop
  endfacet
  facet normal 0.571222519 -0.553251062 -0.606315179
    outer loop
      vertex 0.108791292 -0.366124788 -0.826233086
      vertex 0.227659075 -0.105217415 -0.952318214
      vertex 0.401539307 -0.114256125 -0.780254271
    endloop
  endfacet
  facet normal 0.571222519 -0.553251062 -0.606315179
    outer loop
      vertex 0.108791292 -0.366124788 -0.826233086
      vertex 0.401539307 -0.114256125 -0.780254271
      vertex 0.403002817 -0.117624703 -0.775801705
    endloop
  endfacet
  facet normal 0.571222519 -0.553251062 -0.606315179
    outer loop
      vertex 0.108791292 -0.366124788 -0.826233086
      vertex 0.403002817 -0.117624703 -0.775801705
      vertex 0.34598288 -0.345191569 -0.621870974
    endloop
  endfacet
  facet normal 0.571222519 -0.553251062 -0.606315179
    outer loop
      vertex 0.108791292 -0.366124788 -0.826233086
      vertex 0.34598288 -0.345191569 -0.621870974
      vertex 0.172192583 -0.396531259 -0.738756046
    endloop
  endfacet
  facet normal 0.581190082 0.745581238 -0.32607776
    outer loop
      vertex 0.339130023 0.358314611 -0.479482251
      vertex 0.25527494 0.399738387 -0.534226716
      vertex 0.181912346 0.487327005 -0.464713179
    endloop
  endfacet
  facet normal 0.581190082 0.745581238 -0.32607776
    outer loop
      vertex 0.339130023 0.358314611 -0.479482251
      vertex 0.181912346 0.487327005 -0.464713179
      vertex 0.186805772 0.500580014 -0.425688115
    endloop
  endfacet
  facet normal 0.581190082 0.745581238 -0.32607776
    outer loop
      vertex 0.339130023 0.358314611 -0.479482251
      vertex 0.186805772 0.500580014 -0.425688115
      vertex 0.443655618 0.492431804 0.0134814566
    endloop
  endfacet
  facet normal 0.581190082 0.745581238 -0.32607776
    outer loop
      vertex 0.339130023 0.358314611 -0.479482251
      vertex 0.443655618 0.492431804 0.0134814566
      vertex 0.472114852 0.431855998 -0.0743011608
    endloop
  endfacet
  facet normal 0.629427577 0.553843323 -0.545049079
    outer loop
      vertex 0.399901703 -0.011701701 -0.78528901
      vertex 0.278912285 0.00754984399 -0.905446513
      vertex 0.109078828 0.206010613 -0.899908827
    endloop
  endfacet
  facet normal 0.629427577 0.553843323 -0.545049079
    outer loop
      vertex 0.399901703 -0.011701701 -0.78528901
      vertex 0.109078828 0.206010613 -0.899908827
      vertex 0.25527494 0.399738387 -0.534226716
    endloop
  endfacet
  facet normal 0.629427577 0.553843323 -0.545049079
    outer loop
      vertex 0.399901703 -0.011701701 -0.78528901
      vertex 0.25527494 0.399738387 -0.534226716
      vertex 0.339130023 0.358314611 -0.479482251
    endloop
  endfacet
  facet normal 0.629427577 0.553843323 -0.545049079
    outer loop
      vertex 0.399901703 -0.011701701 -0.78528901
      vertex 0.339130023 0.358314611 -0.479482251
      vertex 0.422652149 0.0305102532 -0.716123555
    endloop
  endfacet
  facet normal 0.626230561 0.626803272 0.463630178
    outer loop
      vertex 0.430120718 0.495862902 0.227758849
      vertex 0.286736362 0.499057649 0.417110603
      vertex 0.280560048 0.493502155 0.432963754
    endloop
  endfacet
  facet normal 0.626230561 0.626803272 0.463630178
    outer loop
      vertex 0.430120718 0.495862902 0.227758849
      vertex 0.280560048 0.493502155 0.432963754
      vertex 0.319746189 0.285065174 0.661830267
    endloop
  endfacet
  facet normal 0.626230561 0.626803272 0.463630178
    outer loop
      vertex 0.430120718 0.495862902 0.227758849
      vertex 0.319746189 0.285065174 0.661830267
      vertex 0.509513433 0.250203354 0.452640811
    endloop
  endfacet
  facet normal 0.626230561 0.626803272 0.463630178
    outer loop
      vertex 0.430120718 0.495862902 0.227758849
      vertex 0.509513433 0.250203354 0.452640811
      vertex 0.511775023 0.252924628 0.445907038
    endloop
  endfacet
  facet normal 0.68748868 -0.328438305 0.64767862
    outer loop
      vertex 0.389046806 -0.204871638 0.695468678
      vertex 0.434007961 -0.1277037 0.686875868
      vertex 0.411147349 -0.0482517519 0.751431767
    endloop
  endfacet
  facet normal 0.68748868 -0.328438305 0.64767862
    outer loop
      vertex 0.389046806 -0.204871638 0.695468678
      vertex 0.411147349 -0.0482517519 0.751431767
      vertex 0.267917447 -0.0286939667 0.913383172
    endloop
  endfacet
  facet normal 0.68748868 -0.328438305 0.64767862
    outer loop
      vertex 0.389046806 -0.204871638 0.695468678
      vertex 0.267917447 -0.0286939667 0.913383172
      vertex 0.251224144 -0.0423744685 0.924165148
    endloop
  endfacet
  facet normal 0.68748868 -0.328438305 0.64767862
    outer loop
      vertex 0.389046806 -0.204871638 0.695468678
      vertex 0.251224144 -0.0423744685 0.924165148
      vertex 0.215720653 -0.169500579 0.897385145
    endloop
  endfacet
  facet normal 0.702564404 -0.0236977759 -0.711225473
    outer loop
      vertex 0.227659075 -0.105217415 -0.952318214
      vertex 0.278912285 0.00754984399 -0.905446513
      vertex 0.399901703 -0.011701701 -0.78528901
    endloop
  endfacet
  facet normal 0.702564404 -0.0236977759 -0.711225473
    outer loop
      vertex 0.227659075 -0.105217415 -0.952318214
      vertex 0.399901703 -0.011701701 -0.78528901
      vertex 0.401539307 -0.114256125 -0.780254271
    endloop
  endfacet
  facet normal 0.720617065 0.35732675 0.594162132
    outer loop
      vertex 0.509513433 0.250203354 0.452640811
      vertex 0.319746189 0.285065174 0.661830267
      vertex 0.203966519 0.188803288 0.860142724
    endloop
  endfacet
  facet normal 0.720617065 0.35732675 0.594162132
    outer loop
      vertex 0.509513433 0.250203354 0.452640811
      vertex 0.203966519 0.188803288 0.860142724
      vertex 0.267917447 -0.0286939667 0.913383172
    endloop
  endfacet
  facet normal 0.720617065 0.35732675 0.594162132
    outer loop
      vertex 0.509513433 0.250203354 0.452640811
      vertex 0.267917447 -0.0286939667 0.913383172
      vertex 0.411147349 -0.0482517519 0.751431767
    endloop
  endfacet
  facet normal 0.814895339 0.461125958 -0.351153012
    outer loop
      vertex 0.422652149 0.0305102532 -0.716123555
      vertex 0.339130023 0.358314611 -0.479482251
      vertex 0.472114852 0.431855998 -0.0743011608
    endloop
  endfacet
  facet normal 0.814895339 0.461125958 -0.351153012
    outer loop
      vertex 0.422652149 0.0305102532 -0.716123555
      vertex 0.472114852 0.431855998 -0.0743011608
      vertex 0.525595344 0.300813898 -0.122274294
    endloop
  endfacet
  facet normal 0.814895339 0.461125958 -0.351153012
    outer loop
      vertex 0.422652149 0.0305102532 -0.716123555
      vertex 0.525595344 0.300813898 -0.122274294
      vertex 0.546921534 0.0986691611 -0.338235912
    endloop
  endfacet
  facet normal 0.827004685 -0.443353062 0.345689621
    outer loop
      vertex 0.475712292 -0.394843488 0.244493714
      vertex 0.532708461 -0.254222712 0.288488533
      vertex 0.541472221 -0.172281825 0.37261334
    endloop
  endfacet
  facet normal 0.827004685 -0.443353062 0.345689621
    outer loop
      vertex 0.475712292 -0.394843488 0.244493714
      vertex 0.541472221 -0.172281825 0.37261334
      vertex 0.434007961 -0.1277037 0.686875868
    endloop
  endfacet
  facet normal 0.827004685 -0.443353062 0.345689621
    outer loop
      vertex 0.475712292 -0.394843488 0.244493714
      vertex 0.434007961 -0.1277037 0.686875868
      vertex 0.389046806 -0.204871638 0.695468678
    endloop
  endfacet
  facet normal 0.827004685 -0.443353062 0.345689621
    outer loop
      vertex 0.475712292 -0.394843488 0.244493714
      vertex 0.389046806 -0.204871638 0.695468678
      vertex 0.378314952 -0.307835307 0.589090114
    endloop
  endfacet
  facet normal 0.829136194 -0.440550303 -0.344163627
    outer loop
      vertex 0.34598288 -0.345191569 -0.621870974
      vertex 0.403002817 -0.117624703 -0.775801705
      vertex 0.539278832 -0.184939227 -0.361327891
    endloop
  endfacet
  facet normal 0.829136194 -0.440550303 -0.344163627
    outer loop
      vertex 0.34598288 -0.345191569 -0.621870974
      vertex 0.539278832 -0.184939227 -0.361327891
      vertex 0.533211733 -0.242964791 -0.301668106
    endloop
  endfacet
  facet normal 0.829136194 -0.440550303 -0.344163627
    outer loop
      vertex 0.34598288 -0.345191569 -0.621870974
      vertex 0.533211733 -0.242964791 -0.301668106
      vertex 0.45494092 -0.438138213 -0.24039915
    endloop
  endfacet
  facet normal 0.829136194 -0.440550303 -0.344163627
    outer loop
      vertex 0.34598288 -0.345191569 -0.621870974
      vertex 0.45494092 -0.438138213 -0.24039915
      vertex 0.454208473 -0.43843541 -0.241783281
    endloop
  endfacet
  facet normal 0.927437932 -0.373923333 -0.00634212318
    outer loop
      vertex 0.45494092 -0.438138213 -0.24039915
      vertex 0.533211733 -0.242964791 -0.301668106
      vertex 0.532708461 -0.254222712 0.288488533
    endloop
  endfacet
  facet normal 0.927437932 -0.373923333 -0.00634212318
    outer loop
      vertex 0.45494092 -0.438138213 -0.24039915
      vertex 0.532708461 -0.254222712 0.288488533
      vertex 0.475712292 -0.394843488 0.244493714
    endloop
  endfacet
  facet normal 0.927437932 -0.373923333 -0.00634212318
    outer loop
      vertex 0.45494092 -0.438138213 -0.24039915
      vertex 0.475712292 -0.394843488 0.244493714
      vertex 0.459804103 -0.433075474 0.172274011
    endloop
  endfacet
  facet normal 0.93120307 0.360620346 0.0530453379
    outer loop
      vertex 0.525595344 0.300813898 -0.122274294
      vertex 0.472114852 0.431855998 -0.0743011608
      vertex 0.443655618 0.492431804 0.0134814566
    endloop
  endfacet
  facet normal 0.93120307 0.360620346 0.0530453379
    outer loop
      vertex 0.525595344 0.300813898 -0.122274294
      vertex 0.443655618 0.492431804 0.0134814566
      vertex 0.43161806 0.512450827 0.0887028341
    endloop
  endfacet
  facet normal 0.93120307 0.360620346 0.0530453379
    outer loop
      vertex 0.525595344 0.300813898 -0.122274294
      vertex 0.43161806 0.512450827 0.0887028341
      vertex 0.430120718 0.495862902 0.227758849
    endloop
  endfacet
  facet normal 0.93120307 0.360620346 0.0530453379
    outer loop
      vertex 0.525595344 0.300813898 -0.122274294
      vertex 0.430120718 0.495862902 0.227758849
      vertex 0.511775023 0.252924628 0.445907038
    endloop
  endfacet
  facet normal 0.93120307 0.360620346 0.0530453379
    outer loop
      vertex 0.525595344 0.300813898 -0.122274294
      vertex 0.511775023 0.252924628 0.445907038
      vertex 0.536414861 0.199690317 0.375263375
    endloop
  endfacet
  facet normal 0.946612337 0.010574761 0.322200649
    outer loop
      vertex 0.541472221 -0.172281825 0.37261334
      vertex 0.558574157 -0.00995937405 0.31704106
      vertex 0.536414861 0.199690317 0.375263375
    endloop
  endfacet
  facet normal 0.946612337 0.010574761 0.322200649
    outer loop
      vertex 0.541472221 -0.172281825 0.37261334
      vertex 0.536414861 0.199690317 0.375263375
      vertex 0.511775023 0.252924628 0.445907038
    endloop
  endfacet
  facet normal 0.946612337 0.010574761 0.322200649
    outer loop
      vertex 0.541472221 -0.172281825 0.37261334
      vertex 0.511775023 0.252924628 0.445907038
      vertex 0.509513433 0.250203354 0.452640811
    endloop
  endfacet
  facet normal 0.946612337 0.010574761 0.322200649
    outer loop
      vertex 0.541472221 -0.172281825 0.37261334
      vertex 0.509513433 0.250203354 0.452640811
      vertex 0.411147349 -0.0482517519 0.751431767
    endloop
  endfacet
  facet normal 0.946612337 0.010574761 0.322200649
    outer loop
      vertex 0.541472221 -0.172281825 0.37261334
      vertex 0.411147349 -0.0482517519 0.751431767
      vertex 0.434007961 -0.1277037 0.686875868
    endloop
  endfacet
  facet normal 0.949961344 -0.000166035019 -0.312367438
    outer loop
      vertex 0.403002817 -0.117624703 -0.775801705
      vertex 0.401539307 -0.114256125 -0.780254271
      vertex 0.399901703 -0.011701701 -0.78528901
    endloop
  endfacet
  facet normal 0.949961344 -0.000166035019 -0.312367438
    outer loop
      vertex 0.403002817 -0.117624703 -0.775801705
      vertex 0.399901703 -0.011701701 -0.78528901
      vertex 0.422652149 0.0305102532 -0.716123555
    endloop
  endfacet
  facet normal 0.949961344 -0.000166035019 -0.312367438
    outer loop
      vertex 0.403002817 -0.117624703 -0.775801705
      vertex 0.422652149 0.0305102532 -0.716123555
      vertex 0.546921534 0.0986691611 -0.338235912
    endloop
  endfacet
  facet normal 0.949961344 -0.000166035019 -0.312367438
    outer loop
      vertex 0.403002817 -0.117624703 -0.775801705
      vertex 0.546921534 0.0986691611 -0.338235912
      vertex 0.558135003 -0.00727175832 -0.304077576
    endloop
  endfacet
  facet normal 0.949961344 -0.000166035019 -0.312367438
    outer loop
      vertex 0.403002817 -0.117624703 -0.775801705
      vertex 0.558135003 -0.00727175832 -0.304077576
      vertex 0.539278832 -0.184939227 -0.361327891
    endloop
  endfacet
  facet normal 0.994453236 0.105179371 -0.000247998115
    outer loop
      vertex 0.558135003 -0.00727175832 -0.304077576
      vertex 0.546921534 0.0986691611 -0.338235912
      vertex 0.525595344 0.300813898 -0.122274294
    endloop
  endfacet
  facet normal 0.994453236 0.105179371 -0.000247998115
    outer loop
      vertex 0.558135003 -0.00727175832 -0.304077576
      vertex 0.525595344 0.300813898 -0.122274294
      vertex 0.536414861 0.199690317 0.375263375
    endloop
  endfacet
  facet normal 0.994453236 0.105179371 -0.000247998115
    outer loop
      vertex 0.558135003 -0.00727175832 -0.304077576
      vertex 0.536414861 0.199690317 0.375263375
      vertex 0.558574157 -0.00995937405 0.31704106
    endloop
  endfacet
  facet normal 0.994453588 -0.105169955 -0.00115819188
    outer loop
      vertex 0.533211733 -0.242964791 -0.301668106
      vertex 0.539278832 -0.184939227 -0.361327891
      vertex 0.558135003 -0.00727175832 -0.304077576
    endloop
  endfacet
  facet normal 0.994453588 -0.105169955 -0.00115819188
    outer loop
      vertex 0.533211733 -0.242964791 -0.301668106
      vertex 0.558135003 -0.00727175832 -0.304077576
      vertex 0.558574157 -0.00995937405 0.31704106
    endloop
  endfacet
  facet normal 0.994453588 -0.105169955 -0.00115819188
    outer loop
      vertex 0.533211733 -0.242964791 -0.301668106
      vertex 0.558574157 -0.00995937405 0.31704106
      vertex 0.541472221 -0.172281825 0.37261334
    endloop
  endfacet
  facet normal 0.994453588 -0.105169955 -0.00115819188
    outer loop
      vertex 0.533211733 -0.242964791 -0.301668106
      vertex 0.541472221 -0.172281825 0.37261334
      vertex 0.532708461 -0.254222712 0.288488533
    endloop
  endfacet
endsolid bhs_submission_model09
