solid bhs_submission_model05
  facet normal -0.975449219 -0.0125217191 0.219868207
    outer loop
      vertex -1.10538315 0.289445274 -0.11854106
      vertex -1.15291961 0.103353106 -0.340035547
      vertex -1.15751007 0.0547640473 -0.363168398
    endloop
  endfacet
  facet normal -0.975449219 -0.0125217191 0.219868207
    outer loop
      vertex -1.10538315 0.289445274 -0.11854106
      vertex -1.15751007 0.0547640473 -0.363168398
      vertex -1.11862144 -0.276027758 -0.209477234
    endloop
  endfacet
  facet normal -0.975449219 -0.0125217191 0.219868207
    outer loop
      vertex -1.10538315 0.289445274 -0.11854106
      vertex -1.11862144 -0.276027758 -0.209477234
      vertex -1.04789082 -0.521675246 0.0903305418
    endloop
  endfacet
  facet normal -0.975449219 -0.0125217191 0.219868207
    outer loop
      vertex -1.10538315 0.289445274 -0.11854106
      vertex -1.04789082 -0.521675246 0.0903305418
      vertex -1.00019486 0.100010222 0.337340152
    endloop
  endfacet
  facet normal -0.975449219 -0.0125217191 0.219868207
    outer loop
      vertex -1.10538315 0.289445274 -0.11854106
      vertex -1.00019486 0.100010222 0.337340152
      vertex -1.03079627 0.355843404 0.216146394
    endloop
  endfacet
  facet normal -0.912343668 0.389541974 0.126040002
    outer loop
      vertex -0.903295281 0.687220189 0.114905146
      vertex -1.10538315 0.289445274 -0.11854106
      vertex -1.03079627 0.355843404 0.216146394
    endloop
  endfacet
  facet normal -0.912343668 0.389541974 0.126040002
    outer loop
      vertex -0.903295281 0.687220189 0.114905146
      vertex -1.03079627 0.355843404 0.216146394
      vertex -0.827765307 0.766028423 0.418064286
    endloop
  endfacet
  facet normal -0.833960234 0.151599154 0.530592146
    outer loop
      vertex -0.814883834 0.777905229 0.434917385
      vertex -0.827765307 0.766028423 0.418064286
      vertex -1.03079627 0.355843404 0.216146394
    endloop
  endfacet
  facet normal -0.833960234 0.151599154 0.530592146
    outer loop
      vertex -0.814883834 0.777905229 0.434917385
      vertex -1.03079627 0.355843404 0.216146394
      vertex -1.00019486 0.100010222 0.337340152
    endloop
  endfacet
  facet normal -0.833960234 0.151599154 0.530592146
    outer loop
      vertex -0.814883834 0.777905229 0.434917385
      vertex -1.00019486 0.100010222 0.337340152
      vertex -0.80755113 0.132549779 0.630831563
    endloop
  endfacet
  facet normal -0.833960234 0.151599154 0.530592146
    outer loop
      vertex -0.814883834 0.777905229 0.434917385
      vertex -0.80755113 0.132549779 0.630831563
      vertex -0.774235202 0.187202967 0.667580661
    endloop
  endfacet
  facet normal -0.833960234 0.151599154 0.530592146
    outer loop
      vertex -0.814883834 0.777905229 0.434917385
      vertex -0.774235202 0.187202967 0.667580661
      vertex -0.773240024 0.720243841 0.516846039
    endloop
  endfacet
  facet normal -0.817476982 -0.157412627 0.554033075
    outer loop
      vertex -1.00019486 0.100010222 0.337340152
      vertex -1.04789082 -0.521675246 0.0903305418
      vertex -0.873621977 -0.836386686 0.258048349
    endloop
  endfacet
  facet normal -0.817476982 -0.157412627 0.554033075
    outer loop
      vertex -1.00019486 0.100010222 0.337340152
      vertex -0.873621977 -0.836386686 0.258048349
      vertex -0.729639232 -0.404555096 0.593187772
    endloop
  endfacet
  facet normal -0.817476982 -0.157412627 0.554033075
    outer loop
      vertex -1.00019486 0.100010222 0.337340152
      vertex -0.729639232 -0.404555096 0.593187772
      vertex -0.80755113 0.132549779 0.630831563
    endloop
  endfacet
  facet normal -0.799941962 -0.327626807 -0.502745993
    outer loop
      vertex -0.996318467 -0.0223122009 -0.56941903
      vertex -0.898348896 -0.227050779 -0.591879924
      vertex -0.875809335 -0.429644506 -0.495718452
    endloop
  endfacet
  facet normal -0.799941962 -0.327626807 -0.502745993
    outer loop
      vertex -0.996318467 -0.0223122009 -0.56941903
      vertex -0.875809335 -0.429644506 -0.495718452
      vertex -0.890870618 -0.448631591 -0.45938036
    endloop
  endfacet
  facet normal -0.799941962 -0.327626807 -0.502745993
    outer loop
      vertex -0.996318467 -0.0223122009 -0.56941903
      vertex -0.890870618 -0.448631591 -0.45938036
      vertex -1.11862144 -0.276027758 -0.209477234
    endloop
  endfacet
  facet normal -0.799941962 -0.327626807 -0.502745993
    outer loop
      vertex -0.996318467 -0.0223122009 -0.56941903
      vertex -1.11862144 -0.276027758 -0.209477234
      vertex -1.15751007 0.0547640473 -0.363168398
    endloop
  endfacet
  facet normal -0.761010725 -0.578192416 -0.294204361
    outer loop
      vertex -1.11862144 -0.276027758 -0.209477234
      vertex -0.890870618 -0.448631591 -0.45938036
      vertex -0.717306871 -0.761340922 -0.293773398
    endloop
  endfacet
  facet normal -0.761010725 -0.578192416 -0.294204361
    outer loop
      vertex -1.11862144 -0.276027758 -0.209477234
      vertex -0.717306871 -0.761340922 -0.293773398
      vertex -0.794846942 -0.920371745 0.219336745
    endloop
  endfacet
  facet normal -0.761010725 -0.578192416 -0.294204361
    outer loop
      vertex -1.11862144 -0.276027758 -0.209477234
      vertex -0.794846942 -0.920371745 0.219336745
      vertex -0.819779887 -0.903526943 0.250725477
    endloop
  endfacet
  facet normal -0.761010725 -0.578192416 -0.294204361
    outer loop
      vertex -1.11862144 -0.276027758 -0.209477234
      vertex -0.819779887 -0.903526943 0.250725477
      vertex -0.873621977 -0.836386686 0.258048349
    endloop
  endfacet
  facet normal -0.761010725 -0.578192416 -0.294204361
    outer loop
      vertex -1.11862144 -0.276027758 -0.209477234
      vertex -0.873621977 -0.836386686 0.258048349
      vertex -1.04789082 -0.521675246 0.0903305418
    endloop
  endfacet
  facet normal -0.757357294 0.570855146 -0.317071493
    outer loop
      vertex -0.689986169 0.78471741 -0.219071335
      vertex -0.916155518 0.369578071 -0.426259377
      vertex -1.15291961 0.103353106 -0.340035547
    endloop
  endfacet
  facet normal -0.757357294 0.570855146 -0.317071493
    outer loop
      vertex -0.689986169 0.78471741 -0.219071335
      vertex -1.15291961 0.103353106 -0.340035547
      vertex -1.10538315 0.289445274 -0.11854106
    endloop
  endfacet
  facet normal -0.757357294 0.570855146 -0.317071493
    outer loop
      vertex -0.689986169 0.78471741 -0.219071335
      vertex -1.10538315 0.289445274 -0.11854106
      vertex -0.903295281 0.687220189 0.114905146
    endloop
  endfacet
  facet normal -0.757357294 0.570855146 -0.317071493
    outer loop
      vertex -0.689986169 0.78471741 -0.219071335
      vertex -0.903295281 0.687220189 0.114905146
      vertex -0.705911192 0.849583138 -0.0642486276
    endloop
  endfacet
  facet normal -0.653097707 0.756512441 -0.0339457261
    outer loop
      vertex -0.47995853 1.04913185 0.0356732254
      vertex -0.705911192 0.849583138 -0.0642486276
      vertex -0.903295281 0.687220189 0.114905146
    endloop
  endfacet
  facet normal -0.653097707 0.756512441 -0.0339457261
    outer loop
      vertex -0.47995853 1.04913185 0.0356732254
      vertex -0.903295281 0.687220189 0.114905146
      vertex -0.827765307 0.766028423 0.418064286
    endloop
  endfacet
  facet normal -0.653097707 0.756512441 -0.0339457261
    outer loop
      vertex -0.47995853 1.04913185 0.0356732254
      vertex -0.827765307 0.766028423 0.418064286
      vertex -0.814883834 0.777905229 0.434917385
    endloop
  endfacet
  facet normal -0.653097707 0.756512441 -0.0339457261
    outer loop
      vertex -0.47995853 1.04913185 0.0356732254
      vertex -0.814883834 0.777905229 0.434917385
      vertex -0.683819311 0.886884831 0.342018666
    endloop
  endfacet
  facet normal -0.658041619 0.373457793 -0.653842874
    outer loop
      vertex -0.538605904 0.434261648 -0.769287928
      vertex -0.555452979 0.374546149 -0.786440585
      vertex -0.922278139 0.0182225698 -0.620782428
    endloop
  endfacet
  facet normal -0.658041619 0.373457793 -0.653842874
    outer loop
      vertex -0.538605904 0.434261648 -0.769287928
      vertex -0.922278139 0.0182225698 -0.620782428
      vertex -0.996318467 -0.0223122009 -0.56941903
    endloop
  endfacet
  facet normal -0.658041619 0.373457793 -0.653842874
    outer loop
      vertex -0.538605904 0.434261648 -0.769287928
      vertex -0.996318467 -0.0223122009 -0.56941903
      vertex -1.15751007 0.0547640473 -0.363168398
    endloop
  endfacet
  facet normal -0.658041619 0.373457793 -0.653842874
    outer loop
      vertex -0.538605904 0.434261648 -0.769287928
      vertex -1.15751007 0.0547640473 -0.363168398
      vertex -1.15291961 0.103353106 -0.340035547
    endloop
  endfacet
  facet normal -0.658041619 0.373457793 -0.653842874
    outer loop
      vertex -0.538605904 0.434261648 -0.769287928
      vertex -1.15291961 0.103353106 -0.340035547
      vertex -0.916155518 0.369578071 -0.426259377
    endloop
  endfacet
  facet normal -0.617331697 -0.143758374 0.773456596
    outer loop
      vertex -0.774235202 0.187202967 0.667580661
      vertex -0.80755113 0.132549779 0.630831563
      vertex -0.729639232 -0.404555096 0.593187772
    endloop
  endfacet
  facet normal -0.617331697 -0.143758374 0.773456596
    outer loop
      vertex -0.774235202 0.187202967 0.667580661
      vertex -0.729639232 -0.404555096 0.593187772
      vertex -0.487267816 -0.275084209 0.810699759
    endloop
  endfacet
  facet normal -0.617331697 -0.143758374 0.773456596
    outer loop
      vertex -0.774235202 0.187202967 0.667580661
      vertex -0.487267816 -0.275084209 0.810699759
      vertex -0.513943302 0.0851638565 0.856366256
    endloop
  endfacet
  facet normal -0.59424183 0.59424183 -0.541990124
    outer loop
      vertex -0.478310096 0.499949819 -0.763375704
      vertex -0.538605904 0.434261648 -0.769287928
      vertex -0.916155518 0.369578071 -0.426259377
    endloop
  endfacet
  facet normal -0.59424183 0.59424183 -0.541990124
    outer loop
      vertex -0.478310096 0.499949819 -0.763375704
      vertex -0.916155518 0.369578071 -0.426259377
      vertex -0.689986169 0.78471741 -0.219071335
    endloop
  endfacet
  facet normal -0.59424183 0.59424183 -0.541990124
    outer loop
      vertex -0.478310096 0.499949819 -0.763375704
      vertex -0.689986169 0.78471741 -0.219071335
      vertex -0.377842614 0.873837441 -0.463595914
    endloop
  endfacet
  facet normal -0.568380663 -0.608654238 -0.553609466
    outer loop
      vertex -0.191991722 -0.874563878 -0.708624217
      vertex -0.129080627 -1.00295962 -0.632051894
      vertex -0.717306871 -0.761340922 -0.293773398
    endloop
  endfacet
  facet normal -0.568380663 -0.608654238 -0.553609466
    outer loop
      vertex -0.191991722 -0.874563878 -0.708624217
      vertex -0.717306871 -0.761340922 -0.293773398
      vertex -0.890870618 -0.448631591 -0.45938036
    endloop
  endfacet
  facet normal -0.568380663 -0.608654238 -0.553609466
    outer loop
      vertex -0.191991722 -0.874563878 -0.708624217
      vertex -0.890870618 -0.448631591 -0.45938036
      vertex -0.875809335 -0.429644506 -0.495718452
    endloop
  endfacet
  facet normal -0.514478636 0.770750832 -0.375838912
    outer loop
      vertex -0.0228062072 1.15680786 -0.369297424
      vertex -0.377842614 0.873837441 -0.463595914
      vertex -0.689986169 0.78471741 -0.219071335
    endloop
  endfacet
  facet normal -0.514478636 0.770750832 -0.375838912
    outer loop
      vertex -0.0228062072 1.15680786 -0.369297424
      vertex -0.689986169 0.78471741 -0.219071335
      vertex -0.705911192 0.849583138 -0.0642486276
    endloop
  endfacet
  facet normal -0.514478636 0.770750832 -0.375838912
    outer loop
      vertex -0.0228062072 1.15680786 -0.369297424
      vertex -0.705911192 0.849583138 -0.0642486276
      vertex -0.47995853 1.04913185 0.0356732254
    endloop
  endfacet
  facet normal -0.514478636 0.770750832 -0.375838912
    outer loop
      vertex -0.0228062072 1.15680786 -0.369297424
      vertex -0.47995853 1.04913185 0.0356732254
      vertex -0.261498028 1.13642542 -0.0843560568
    endloop
  endfacet
  facet normal -0.522643432 0.147679449 -0.839663399
    outer loop
      vertex -0.375232133 0.0916182747 -0.948379135
      vertex -0.411358739 0.0547105385 -0.932383655
      vertex -0.922278139 0.0182225698 -0.620782428
    endloop
  endfacet
  facet normal -0.522643432 0.147679449 -0.839663399
    outer loop
      vertex -0.375232133 0.0916182747 -0.948379135
      vertex -0.922278139 0.0182225698 -0.620782428
      vertex -0.555452979 0.374546149 -0.786440585
    endloop
  endfacet
  facet normal -0.512840287 -0.795033584 -0.323908073
    outer loop
      vertex -0.717306871 -0.761340922 -0.293773398
      vertex -0.129080627 -1.00295962 -0.632051894
      vertex -0.0308203885 -1.09143079 -0.570473501
    endloop
  endfacet
  facet normal -0.512840287 -0.795033584 -0.323908073
    outer loop
      vertex -0.717306871 -0.761340922 -0.293773398
      vertex -0.0308203885 -1.09143079 -0.570473501
      vertex -0.628730632 -0.986767015 0.119293956
    endloop
  endfacet
  facet normal -0.512840287 -0.795033584 -0.323908073
    outer loop
      vertex -0.717306871 -0.761340922 -0.293773398
      vertex -0.628730632 -0.986767015 0.119293956
      vertex -0.794846942 -0.920371745 0.219336745
    endloop
  endfacet
  facet normal -0.508553268 0.235175648 0.828291005
    outer loop
      vertex -0.754399756 0.713743649 0.530259159
      vertex -0.773240024 0.720243841 0.516846039
      vertex -0.774235202 0.187202967 0.667580661
    endloop
  endfacet
  facet normal -0.508553268 0.235175648 0.828291005
    outer loop
      vertex -0.754399756 0.713743649 0.530259159
      vertex -0.774235202 0.187202967 0.667580661
      vertex -0.513943302 0.0851638565 0.856366256
    endloop
  endfacet
  facet normal -0.508553268 0.235175648 0.828291005
    outer loop
      vertex -0.754399756 0.713743649 0.530259159
      vertex -0.513943302 0.0851638565 0.856366256
      vertex -0.449199383 0.115686316 0.887451457
    endloop
  endfacet
  facet normal -0.508553268 0.235175648 0.828291005
    outer loop
      vertex -0.754399756 0.713743649 0.530259159
      vertex -0.449199383 0.115686316 0.887451457
      vertex -0.420017465 0.311950308 0.849643547
    endloop
  endfacet
  facet normal -0.505620455 -0.415217172 -0.756268904
    outer loop
      vertex -0.484089734 -0.306216711 -0.825377362
      vertex -0.194778197 -0.800807473 -0.747256014
      vertex -0.191991722 -0.874563878 -0.708624217
    endloop
  endfacet
  facet normal -0.505620455 -0.415217172 -0.756268904
    outer loop
      vertex -0.484089734 -0.306216711 -0.825377362
      vertex -0.191991722 -0.874563878 -0.708624217
      vertex -0.875809335 -0.429644506 -0.495718452
    endloop
  endfacet
  facet normal -0.505620455 -0.415217172 -0.756268904
    outer loop
      vertex -0.484089734 -0.306216711 -0.825377362
      vertex -0.875809335 -0.429644506 -0.495718452
      vertex -0.898348896 -0.227050779 -0.591879924
    endloop
  endfacet
  facet normal -0.507031629 -0.14949516 -0.84886402
    outer loop
      vertex -0.411358739 0.0547105385 -0.932383655
      vertex -0.484089734 -0.306216711 -0.825377362
      vertex -0.898348896 -0.227050779 -0.591879924
    endloop
  endfacet
  facet normal -0.507031629 -0.14949516 -0.84886402
    outer loop
      vertex -0.411358739 0.0547105385 -0.932383655
      vertex -0.898348896 -0.227050779 -0.591879924
      vertex -0.996318467 -0.0223122009 -0.56941903
    endloop
  endfacet
  facet normal -0.507031629 -0.14949516 -0.84886402
    outer loop
      vertex -0.411358739 0.0547105385 -0.932383655
      vertex -0.996318467 -0.0223122009 -0.56941903
      vertex -0.922278139 0.0182225698 -0.620782428
    endloop
  endfacet
  facet normal -0.453023094 -0.447398097 0.77110636
    outer loop
      vertex -0.873621977 -0.836386686 0.258048349
      vertex -0.819779887 -0.903526943 0.250725477
      vertex -0.734187352 -0.892186489 0.307590645
    endloop
  endfacet
  facet normal -0.453023094 -0.447398097 0.77110636
    outer loop
      vertex -0.873621977 -0.836386686 0.258048349
      vertex -0.734187352 -0.892186489 0.307590645
      vertex -0.420577753 -0.723079994 0.589951582
    endloop
  endfacet
  facet normal -0.453023094 -0.447398097 0.77110636
    outer loop
      vertex -0.873621977 -0.836386686 0.258048349
      vertex -0.420577753 -0.723079994 0.589951582
      vertex -0.337717872 -0.339131654 0.861399475
    endloop
  endfacet
  facet normal -0.453023094 -0.447398097 0.77110636
    outer loop
      vertex -0.873621977 -0.836386686 0.258048349
      vertex -0.337717872 -0.339131654 0.861399475
      vertex -0.487267816 -0.275084209 0.810699759
    endloop
  endfacet
  facet normal -0.453023094 -0.447398097 0.77110636
    outer loop
      vertex -0.873621977 -0.836386686 0.258048349
      vertex -0.487267816 -0.275084209 0.810699759
      vertex -0.729639232 -0.404555096 0.593187772
    endloop
  endfacet
  facet normal -0.372414278 -0.143800999 0.916858156
    outer loop
      vertex -0.487267816 -0.275084209 0.810699759
      vertex -0.337717872 -0.339131654 0.861399475
      vertex -0.0470934857 -0.208087008 1
    endloop
  endfacet
  facet normal -0.372414278 -0.143800999 0.916858156
    outer loop
      vertex -0.487267816 -0.275084209 0.810699759
      vertex -0.0470934857 -0.208087008 1
      vertex -0.0909292555 -0.112867193 0.997128932
    endloop
  endfacet
  facet normal -0.372414278 -0.143800999 0.916858156
    outer loop
      vertex -0.487267816 -0.275084209 0.810699759
      vertex -0.0909292555 -0.112867193 0.997128932
      vertex -0.449199383 0.115686316 0.887451457
    endloop
  endfacet
  facet normal -0.372414278 -0.143800999 0.916858156
    outer loop
      vertex -0.487267816 -0.275084209 0.810699759
      vertex -0.449199383 0.115686316 0.887451457
      vertex -0.513943302 0.0851638565 0.856366256
    endloop
  endfacet
  facet normal -0.328730911 0.642973889 -0.69175181
    outer loop
      vertex -0.00123175487 0.940302516 -0.580788702
      vertex -0.16646912 0.592701202 -0.825356099
      vertex -0.478310096 0.499949819 -0.763375704
    endloop
  endfacet
  facet normal -0.328730911 0.642973889 -0.69175181
    outer loop
      vertex -0.00123175487 0.940302516 -0.580788702
      vertex -0.478310096 0.499949819 -0.763375704
      vertex -0.377842614 0.873837441 -0.463595914
    endloop
  endfacet
  facet normal -0.328730911 0.642973889 -0.69175181
    outer loop
      vertex -0.00123175487 0.940302516 -0.580788702
      vertex -0.377842614 0.873837441 -0.463595914
      vertex -0.0228062072 1.15680786 -0.369297424
    endloop
  endfacet
  facet normal -0.328730911 0.642973889 -0.69175181
    outer loop
      vertex -0.00123175487 0.940302516 -0.580788702
      vertex -0.0228062072 1.15680786 -0.369297424
      vertex -0.00672462254 1.15745446 -0.376338637
    endloop
  endfacet
  facet normal -0.278960916 0.336995595 -0.899230102
    outer loop
      vertex -0.117648921 0.167098827 -1
      vertex -0.155392714 0.137985039 -0.999201734
      vertex -0.375232133 0.0916182747 -0.948379135
    endloop
  endfacet
  facet normal -0.278960916 0.336995595 -0.899230102
    outer loop
      vertex -0.117648921 0.167098827 -1
      vertex -0.375232133 0.0916182747 -0.948379135
      vertex -0.555452979 0.374546149 -0.786440585
    endloop
  endfacet
  facet normal -0.278960916 0.336995595 -0.899230102
    outer loop
      vertex -0.117648921 0.167098827 -1
      vertex -0.555452979 0.374546149 -0.786440585
      vertex -0.538605904 0.434261648 -0.769287928
    endloop
  endfacet
  facet normal -0.278960916 0.336995595 -0.899230102
    outer loop
      vertex -0.117648921 0.167098827 -1
      vertex -0.538605904 0.434261648 -0.769287928
      vertex -0.478310096 0.499949819 -0.763375704
    endloop
  endfacet
  facet normal -0.278960916 0.336995595 -0.899230102
    outer loop
      vertex -0.117648921 0.167098827 -1
      vertex -0.478310096 0.499949819 -0.763375704
      vertex -0.16646912 0.592701202 -0.825356099
    endloop
  endfacet
  facet normal -0.278960916 0.336995595 -0.899230102
    outer loop
      vertex -0.117648921 0.167098827 -1
      vertex -0.16646912 0.592701202 -0.825356099
      vertex -0.0516735483 0.363676583 -0.946797502
    endloop
  endfacet
  facet normal -0.185089872 0.756892967 0.626781283
    outer loop
      vertex -0.00242361889 0.953141984 0.463225011
      vertex -0.683819311 0.886884831 0.342018666
      vertex -0.814883834 0.777905229 0.434917385
    endloop
  endfacet
  facet normal -0.185089872 0.756892967 0.626781283
    outer loop
      vertex -0.00242361889 0.953141984 0.463225011
      vertex -0.814883834 0.777905229 0.434917385
      vertex -0.773240024 0.720243841 0.516846039
    endloop
  endfacet
  facet normal -0.185089872 0.756892967 0.626781283
    outer loop
      vertex -0.00242361889 0.953141984 0.463225011
      vertex -0.773240024 0.720243841 0.516846039
      vertex -0.754399756 0.713743649 0.530259159
    endloop
  endfacet
  facet normal -0.185089872 0.756892967 0.626781283
    outer loop
      vertex -0.00242361889 0.953141984 0.463225011
      vertex -0.754399756 0.713743649 0.530259159
      vertex 0.0675871153 0.870899762 0.583213976
    endloop
  endfacet
  facet normal -0.185089872 0.756892967 0.626781283
    outer loop
      vertex -0.00242361889 0.953141984 0.463225011
      vertex 0.0675871153 0.870899762 0.583213976
      vertex 0.0852162032 0.908485091 0.543032327
    endloop
  endfacet
  facet normal -0.170606092 -0.98533797 0.00162671906
    outer loop
      vertex -0.0308203885 -1.09143079 -0.570473501
      vertex 0.0187345528 -1.09999051 -0.558085841
      vertex -0.0466800895 -1.08767579 0.0406803146
    endloop
  endfacet
  facet normal -0.170606092 -0.98533797 0.00162671906
    outer loop
      vertex -0.0308203885 -1.09143079 -0.570473501
      vertex -0.0466800895 -1.08767579 0.0406803146
      vertex -0.0869019174 -1.08063844 0.0849928154
    endloop
  endfacet
  facet normal -0.170606092 -0.98533797 0.00162671906
    outer loop
      vertex -0.0308203885 -1.09143079 -0.570473501
      vertex -0.0869019174 -1.08063844 0.0849928154
      vertex -0.628730632 -0.986767015 0.119293956
    endloop
  endfacet
  facet normal -0.168005279 -0.248934942 -0.953837314
    outer loop
      vertex -0.0432758373 -0.602117098 -0.825795794
      vertex -0.194778197 -0.800807473 -0.747256014
      vertex -0.484089734 -0.306216711 -0.825377362
    endloop
  endfacet
  facet normal -0.168005279 -0.248934942 -0.953837314
    outer loop
      vertex -0.0432758373 -0.602117098 -0.825795794
      vertex -0.484089734 -0.306216711 -0.825377362
      vertex -0.411358739 0.0547105385 -0.932383655
    endloop
  endfacet
  facet normal -0.168005279 -0.248934942 -0.953837314
    outer loop
      vertex -0.0432758373 -0.602117098 -0.825795794
      vertex -0.411358739 0.0547105385 -0.932383655
      vertex -0.375232133 0.0916182747 -0.948379135
    endloop
  endfacet
  facet normal -0.168005279 -0.248934942 -0.953837314
    outer loop
      vertex -0.0432758373 -0.602117098 -0.825795794
      vertex -0.375232133 0.0916182747 -0.948379135
      vertex -0.155392714 0.137985039 -0.999201734
    endloop
  endfacet
  facet normal -0.161396429 0.209765906 0.964338871
    outer loop
      vertex -0.449199383 0.115686316 0.887451457
      vertex -0.0909292555 -0.112867193 0.997128932
      vertex -0.00343981227 0.253350954 0.932110711
    endloop
  endfacet
  facet normal -0.161396429 0.209765906 0.964338871
    outer loop
      vertex -0.449199383 0.115686316 0.887451457
      vertex -0.00343981227 0.253350954 0.932110711
      vertex -0.0504462709 0.3288781 0.907814589
    endloop
  endfacet
  facet normal -0.161396429 0.209765906 0.964338871
    outer loop
      vertex -0.449199383 0.115686316 0.887451457
      vertex -0.0504462709 0.3288781 0.907814589
      vertex -0.420017465 0.311950308 0.849643547
    endloop
  endfacet
  facet normal -0.156130412 0.912067601 0.379151666
    outer loop
      vertex -0.0175089752 1.1334105 0.0233684317
      vertex -0.261498028 1.13642542 -0.0843560568
      vertex -0.47995853 1.04913185 0.0356732254
    endloop
  endfacet
  facet normal -0.156130412 0.912067601 0.379151666
    outer loop
      vertex -0.0175089752 1.1334105 0.0233684317
      vertex -0.47995853 1.04913185 0.0356732254
      vertex -0.683819311 0.886884831 0.342018666
    endloop
  endfacet
  facet normal -0.156130412 0.912067601 0.379151666
    outer loop
      vertex -0.0175089752 1.1334105 0.0233684317
      vertex -0.683819311 0.886884831 0.342018666
      vertex -0.00242361889 0.953141984 0.463225011
    endloop
  endfacet
  facet normal -0.155746562 -0.76157073 0.629089049
    outer loop
      vertex -0.734187352 -0.892186489 0.307590645
      vertex -0.0369257145 -0.95267916 0.406983021
      vertex 0.0610662539 -0.787497949 0.631210557
    endloop
  endfacet
  facet normal -0.155746562 -0.76157073 0.629089049
    outer loop
      vertex -0.734187352 -0.892186489 0.307590645
      vertex 0.0610662539 -0.787497949 0.631210557
      vertex -0.420577753 -0.723079994 0.589951582
    endloop
  endfacet
  facet normal -0.15537106 0.532227449 0.832222192
    outer loop
      vertex 0.184043447 0.730256596 0.694900612
      vertex 0.0675871153 0.870899762 0.583213976
      vertex -0.754399756 0.713743649 0.530259159
    endloop
  endfacet
  facet normal -0.15537106 0.532227449 0.832222192
    outer loop
      vertex 0.184043447 0.730256596 0.694900612
      vertex -0.754399756 0.713743649 0.530259159
      vertex -0.420017465 0.311950308 0.849643547
    endloop
  endfacet
  facet normal -0.15537106 0.532227449 0.832222192
    outer loop
      vertex 0.184043447 0.730256596 0.694900612
      vertex -0.420017465 0.311950308 0.849643547
      vertex -0.0504462709 0.3288781 0.907814589
    endloop
  endfacet
  facet normal -0.144057217 -0.550349327 0.822412996
    outer loop
      vertex -0.420577753 -0.723079994 0.589951582
      vertex 0.0610662539 -0.787497949 0.631210557
      vertex 0.142248915 -0.744034359 0.674516179
    endloop
  endfacet
  facet normal -0.144057217 -0.550349327 0.822412996
    outer loop
      vertex -0.420577753 -0.723079994 0.589951582
      vertex 0.142248915 -0.744034359 0.674516179
      vertex 0.0983834942 -0.343815653 0.934654292
    endloop
  endfacet
  facet normal -0.144057217 -0.550349327 0.822412996
    outer loop
      vertex -0.420577753 -0.723079994 0.589951582
      vertex 0.0983834942 -0.343815653 0.934654292
      vertex 0.00761623321 -0.234600484 0.991840664
    endloop
  endfacet
  facet normal -0.144057217 -0.550349327 0.822412996
    outer loop
      vertex -0.420577753 -0.723079994 0.589951582
      vertex 0.00761623321 -0.234600484 0.991840664
      vertex -0.0470934857 -0.208087008 1
    endloop
  endfacet
  facet normal -0.144057217 -0.550349327 0.822412996
    outer loop
      vertex -0.420577753 -0.723079994 0.589951582
      vertex -0.0470934857 -0.208087008 1
      vertex -0.337717872 -0.339131654 0.861399475
    endloop
  endfacet
  facet normal -0.133982114 -0.913616176 0.383867525
    outer loop
      vertex -0.794846942 -0.920371745 0.219336745
      vertex -0.628730632 -0.986767015 0.119293956
      vertex -0.0869019174 -1.08063844 0.0849928154
    endloop
  endfacet
  facet normal -0.133982114 -0.913616176 0.383867525
    outer loop
      vertex -0.794846942 -0.920371745 0.219336745
      vertex -0.0869019174 -1.08063844 0.0849928154
      vertex 0.00806981331 -0.985976299 0.343439724
    endloop
  endfacet
  facet normal -0.133982114 -0.913616176 0.383867525
    outer loop
      vertex -0.794846942 -0.920371745 0.219336745
      vertex 0.00806981331 -0.985976299 0.343439724
      vertex -0.0369257145 -0.95267916 0.406983021
    endloop
  endfacet
  facet normal -0.133982114 -0.913616176 0.383867525
    outer loop
      vertex -0.794846942 -0.920371745 0.219336745
      vertex -0.0369257145 -0.95267916 0.406983021
      vertex -0.734187352 -0.892186489 0.307590645
    endloop
  endfacet
  facet normal -0.133982114 -0.913616176 0.383867525
    outer loop
      vertex -0.794846942 -0.920371745 0.219336745
      vertex -0.734187352 -0.892186489 0.307590645
      vertex -0.819779887 -0.903526943 0.250725477
    endloop
  endfacet
  facet normal -0.0140084459 0.998120283 0.059662916
    outer loop
      vertex 0.0785054344 1.1558909 -0.330170025
      vertex -0.00672462254 1.15745446 -0.376338637
      vertex -0.0228062072 1.15680786 -0.369297424
    endloop
  endfacet
  facet normal -0.0140084459 0.998120283 0.059662916
    outer loop
      vertex 0.0785054344 1.1558909 -0.330170025
      vertex -0.0228062072 1.15680786 -0.369297424
      vertex -0.261498028 1.13642542 -0.0843560568
    endloop
  endfacet
  facet normal -0.0140084459 0.998120283 0.059662916
    outer loop
      vertex 0.0785054344 1.1558909 -0.330170025
      vertex -0.261498028 1.13642542 -0.0843560568
      vertex -0.0175089752 1.1334105 0.0233684317
    endloop
  endfacet
  facet normal -0.0140084459 0.998120283 0.059662916
    outer loop
      vertex 0.0785054344 1.1558909 -0.330170025
      vertex -0.0175089752 1.1334105 0.0233684317
      vertex 0.177871533 1.14138848 -0.0642237418
    endloop
  endfacet
  facet normal -0.0140084459 0.998120283 0.059662916
    outer loop
      vertex 0.0785054344 1.1558909 -0.330170025
      vertex 0.177871533 1.14138848 -0.0642237418
      vertex 0.19725274 1.14620226 -0.14020449
    endloop
  endfacet
  facet normal 0.129350021 0.919080854 0.372235081
    outer loop
      vertex 0.177871533 1.14138848 -0.0642237418
      vertex -0.0175089752 1.1334105 0.0233684317
      vertex -0.00242361889 0.953141984 0.463225011
    endloop
  endfacet
  facet normal 0.129350021 0.919080854 0.372235081
    outer loop
      vertex 0.177871533 1.14138848 -0.0642237418
      vertex -0.00242361889 0.953141984 0.463225011
      vertex 0.0852162032 0.908485091 0.543032327
    endloop
  endfacet
  facet normal 0.129350021 0.919080854 0.372235081
    outer loop
      vertex 0.177871533 1.14138848 -0.0642237418
      vertex 0.0852162032 0.908485091 0.543032327
      vertex 0.631031315 0.8591591 0.475154192
    endloop
  endfacet
  facet normal 0.138412128 -0.206001699 -0.968713261
    outer loop
      vertex 0.418764455 -0.321766278 -0.819396342
      vertex 0.203897974 -0.58779919 -0.793523768
      vertex -0.0432758373 -0.602117098 -0.825795794
    endloop
  endfacet
  facet normal 0.138412128 -0.206001699 -0.968713261
    outer loop
      vertex 0.418764455 -0.321766278 -0.819396342
      vertex -0.0432758373 -0.602117098 -0.825795794
      vertex -0.155392714 0.137985039 -0.999201734
    endloop
  endfacet
  facet normal 0.138412128 -0.206001699 -0.968713261
    outer loop
      vertex 0.418764455 -0.321766278 -0.819396342
      vertex -0.155392714 0.137985039 -0.999201734
      vertex -0.117648921 0.167098827 -1
    endloop
  endfacet
  facet normal 0.138412128 -0.206001699 -0.968713261
    outer loop
      vertex 0.418764455 -0.321766278 -0.819396342
      vertex -0.117648921 0.167098827 -1
      vertex 0.356363801 -0.00799179137 -0.895038007
    endloop
  endfacet
  facet normal 0.141151427 -0.455148104 -0.879156686
    outer loop
      vertex -0.191991722 -0.874563878 -0.708624217
      vertex -0.194778197 -0.800807473 -0.747256014
      vertex -0.0432758373 -0.602117098 -0.825795794
    endloop
  endfacet
  facet normal 0.141151427 -0.455148104 -0.879156686
    outer loop
      vertex -0.191991722 -0.874563878 -0.708624217
      vertex -0.0432758373 -0.602117098 -0.825795794
      vertex 0.203897974 -0.58779919 -0.793523768
    endloop
  endfacet
  facet normal 0.141151427 -0.455148104 -0.879156686
    outer loop
      vertex -0.191991722 -0.874563878 -0.708624217
      vertex 0.203897974 -0.58779919 -0.793523768
      vertex 0.204131386 -1.00605489 -0.576951183
    endloop
  endfacet
  facet normal 0.141151427 -0.455148104 -0.879156686
    outer loop
      vertex -0.191991722 -0.874563878 -0.708624217
      vertex 0.204131386 -1.00605489 -0.576951183
      vertex 0.102467103 -1.08484967 -0.552480874
    endloop
  endfacet
  facet normal 0.141151427 -0.455148104 -0.879156686
    outer loop
      vertex -0.191991722 -0.874563878 -0.708624217
      vertex 0.102467103 -1.08484967 -0.552480874
      vertex 0.0187345528 -1.09999051 -0.558085841
    endloop
  endfacet
  facet normal 0.141151427 -0.455148104 -0.879156686
    outer loop
      vertex -0.191991722 -0.874563878 -0.708624217
      vertex 0.0187345528 -1.09999051 -0.558085841
      vertex -0.0308203885 -1.09143079 -0.570473501
    endloop
  endfacet
  facet normal 0.141151427 -0.455148104 -0.879156686
    outer loop
      vertex -0.191991722 -0.874563878 -0.708624217
      vertex -0.0308203885 -1.09143079 -0.570473501
      vertex -0.129080627 -1.00295962 -0.632051894
    endloop
  endfacet
  facet normal 0.149207908 0.520565048 -0.840683669
    outer loop
      vertex 0.270407091 0.442264488 -0.840970426
      vertex -0.0516735483 0.363676583 -0.946797502
      vertex -0.16646912 0.592701202 -0.825356099
    endloop
  endfacet
  facet normal 0.149207908 0.520565048 -0.840683669
    outer loop
      vertex 0.270407091 0.442264488 -0.840970426
      vertex -0.16646912 0.592701202 -0.825356099
      vertex -0.00123175487 0.940302516 -0.580788702
    endloop
  endfacet
  facet normal 0.149207908 0.520565048 -0.840683669
    outer loop
      vertex 0.270407091 0.442264488 -0.840970426
      vertex -0.00123175487 0.940302516 -0.580788702
      vertex 0.321157006 0.574500174 -0.750080632
    endloop
  endfacet
  facet normal 0.150458479 0.688202587 0.709746043
    outer loop
      vertex 0.798504859 0.777603036 0.518732145
      vertex 0.798233383 0.778538973 0.517882167
      vertex 0.790203828 0.785977392 0.512371711
    endloop
  endfacet
  facet normal 0.150458479 0.688202587 0.709746043
    outer loop
      vertex 0.798504859 0.777603036 0.518732145
      vertex 0.790203828 0.785977392 0.512371711
      vertex 0.631031315 0.8591591 0.475154192
    endloop
  endfacet
  facet normal 0.150458479 0.688202587 0.709746043
    outer loop
      vertex 0.798504859 0.777603036 0.518732145
      vertex 0.631031315 0.8591591 0.475154192
      vertex 0.0852162032 0.908485091 0.543032327
    endloop
  endfacet
  facet normal 0.150458479 0.688202587 0.709746043
    outer loop
      vertex 0.798504859 0.777603036 0.518732145
      vertex 0.0852162032 0.908485091 0.543032327
      vertex 0.0675871153 0.870899762 0.583213976
    endloop
  endfacet
  facet normal 0.150458479 0.688202587 0.709746043
    outer loop
      vertex 0.798504859 0.777603036 0.518732145
      vertex 0.0675871153 0.870899762 0.583213976
      vertex 0.184043447 0.730256596 0.694900612
    endloop
  endfacet
  facet normal 0.150458479 0.688202587 0.709746043
    outer loop
      vertex 0.798504859 0.777603036 0.518732145
      vertex 0.184043447 0.730256596 0.694900612
      vertex 0.637647469 0.697542524 0.630462546
    endloop
  endfacet
  facet normal 0.15347437 -0.826423654 0.54172831
    outer loop
      vertex -0.0369257145 -0.95267916 0.406983021
      vertex 0.00806981331 -0.985976299 0.343439724
      vertex 0.674052184 -0.891083926 0.299524861
    endloop
  endfacet
  facet normal 0.15347437 -0.826423654 0.54172831
    outer loop
      vertex -0.0369257145 -0.95267916 0.406983021
      vertex 0.674052184 -0.891083926 0.299524861
      vertex 0.81272402 -0.781453352 0.427483334
    endloop
  endfacet
  facet normal 0.15347437 -0.826423654 0.54172831
    outer loop
      vertex -0.0369257145 -0.95267916 0.406983021
      vertex 0.81272402 -0.781453352 0.427483334
      vertex 0.696954954 -0.734317391 0.532188694
    endloop
  endfacet
  facet normal 0.15347437 -0.826423654 0.54172831
    outer loop
      vertex -0.0369257145 -0.95267916 0.406983021
      vertex 0.696954954 -0.734317391 0.532188694
      vertex 0.142248915 -0.744034359 0.674516179
    endloop
  endfacet
  facet normal 0.15347437 -0.826423654 0.54172831
    outer loop
      vertex -0.0369257145 -0.95267916 0.406983021
      vertex 0.142248915 -0.744034359 0.674516179
      vertex 0.0610662539 -0.787497949 0.631210557
    endloop
  endfacet
  facet normal 0.157016339 0.389648351 0.907480045
    outer loop
      vertex -0.0504462709 0.3288781 0.907814589
      vertex -0.00343981227 0.253350954 0.932110711
      vertex 0.415493013 0.305686023 0.837153723
    endloop
  endfacet
  facet normal 0.157016339 0.389648351 0.907480045
    outer loop
      vertex -0.0504462709 0.3288781 0.907814589
      vertex 0.415493013 0.305686023 0.837153723
      vertex 0.637647469 0.697542524 0.630462546
    endloop
  endfacet
  facet normal 0.157016339 0.389648351 0.907480045
    outer loop
      vertex -0.0504462709 0.3288781 0.907814589
      vertex 0.637647469 0.697542524 0.630462546
      vertex 0.184043447 0.730256596 0.694900612
    endloop
  endfacet
  facet normal 0.15370421 -0.944740752 0.289551252
    outer loop
      vertex -0.0869019174 -1.08063844 0.0849928154
      vertex -0.0466800895 -1.08767579 0.0406803146
      vertex 0.554099072 -0.979256007 0.0755145721
    endloop
  endfacet
  facet normal 0.15370421 -0.944740752 0.289551252
    outer loop
      vertex -0.0869019174 -1.08063844 0.0849928154
      vertex 0.554099072 -0.979256007 0.0755145721
      vertex 0.674052184 -0.891083926 0.299524861
    endloop
  endfacet
  facet normal 0.15370421 -0.944740752 0.289551252
    outer loop
      vertex -0.0869019174 -1.08063844 0.0849928154
      vertex 0.674052184 -0.891083926 0.299524861
      vertex 0.00806981331 -0.985976299 0.343439724
    endloop
  endfacet
  facet normal 0.175247119 -0.983736665 0.039377925
    outer loop
      vertex 0.0187345528 -1.09999051 -0.558085841
      vertex 0.102467103 -1.08484967 -0.552480874
      vertex 0.523053298 -0.993172237 -0.133973931
    endloop
  endfacet
  facet normal 0.175247119 -0.983736665 0.039377925
    outer loop
      vertex 0.0187345528 -1.09999051 -0.558085841
      vertex 0.523053298 -0.993172237 -0.133973931
      vertex 0.554099072 -0.979256007 0.0755145721
    endloop
  endfacet
  facet normal 0.175247119 -0.983736665 0.039377925
    outer loop
      vertex 0.0187345528 -1.09999051 -0.558085841
      vertex 0.554099072 -0.979256007 0.0755145721
      vertex -0.0466800895 -1.08767579 0.0406803146
    endloop
  endfacet
  facet normal 0.204665015 0.123498287 0.971009992
    outer loop
      vertex -0.0909292555 -0.112867193 0.997128932
      vertex -0.0470934857 -0.208087008 1
      vertex 0.00761623321 -0.234600484 0.991840664
    endloop
  endfacet
  facet normal 0.204665015 0.123498287 0.971009992
    outer loop
      vertex -0.0909292555 -0.112867193 0.997128932
      vertex 0.00761623321 -0.234600484 0.991840664
      vertex 0.444199771 0.115524664 0.855288792
    endloop
  endfacet
  facet normal 0.204665015 0.123498287 0.971009992
    outer loop
      vertex -0.0909292555 -0.112867193 0.997128932
      vertex 0.444199771 0.115524664 0.855288792
      vertex 0.415493013 0.305686023 0.837153723
    endloop
  endfacet
  facet normal 0.204665015 0.123498287 0.971009992
    outer loop
      vertex -0.0909292555 -0.112867193 0.997128932
      vertex 0.415493013 0.305686023 0.837153723
      vertex -0.00343981227 0.253350954 0.932110711
    endloop
  endfacet
  facet normal 0.221592058 -0.514244119 0.828522749
    outer loop
      vertex 0.142248915 -0.744034359 0.674516179
      vertex 0.696954954 -0.734317391 0.532188694
      vertex 0.532131489 -0.505329207 0.718398907
    endloop
  endfacet
  facet normal 0.221592058 -0.514244119 0.828522749
    outer loop
      vertex 0.142248915 -0.744034359 0.674516179
      vertex 0.532131489 -0.505329207 0.718398907
      vertex 0.0983834942 -0.343815653 0.934654292
    endloop
  endfacet
  facet normal 0.271136443 0.165621368 -0.948184893
    outer loop
      vertex 0.657381326 0.117984003 -0.786956656
      vertex 0.356363801 -0.00799179137 -0.895038007
      vertex -0.117648921 0.167098827 -1
    endloop
  endfacet
  facet normal 0.271136443 0.165621368 -0.948184893
    outer loop
      vertex 0.657381326 0.117984003 -0.786956656
      vertex -0.117648921 0.167098827 -1
      vertex -0.0516735483 0.363676583 -0.946797502
    endloop
  endfacet
  facet normal 0.271136443 0.165621368 -0.948184893
    outer loop
      vertex 0.657381326 0.117984003 -0.786956656
      vertex -0.0516735483 0.363676583 -0.946797502
      vertex 0.270407091 0.442264488 -0.840970426
    endloop
  endfacet
  facet normal 0.374821008 0.640526304 -0.670250152
    outer loop
      vertex 0.623452683 0.563200956 -0.591827294
      vertex 0.321157006 0.574500174 -0.750080632
      vertex -0.00123175487 0.940302516 -0.580788702
    endloop
  endfacet
  facet normal 0.374821008 0.640526304 -0.670250152
    outer loop
      vertex 0.623452683 0.563200956 -0.591827294
      vertex -0.00123175487 0.940302516 -0.580788702
      vertex -0.00672462254 1.15745446 -0.376338637
    endloop
  endfacet
  facet normal 0.374821008 0.640526304 -0.670250152
    outer loop
      vertex 0.623452683 0.563200956 -0.591827294
      vertex -0.00672462254 1.15745446 -0.376338637
      vertex 0.0785054344 1.1558909 -0.330170025
    endloop
  endfacet
  facet normal 0.374821008 0.640526304 -0.670250152
    outer loop
      vertex 0.623452683 0.563200956 -0.591827294
      vertex 0.0785054344 1.1558909 -0.330170025
      vertex 0.60291136 0.805944078 -0.37133643
    endloop
  endfacet
  facet normal 0.386831238 -0.142695778 -0.911043088
    outer loop
      vertex 1.01629749 -0.152396548 -0.592210492
      vertex 0.991908951 -0.169730383 -0.599850947
      vertex 0.418764455 -0.321766278 -0.819396342
    endloop
  endfacet
  facet normal 0.386831238 -0.142695778 -0.911043088
    outer loop
      vertex 1.01629749 -0.152396548 -0.592210492
      vertex 0.418764455 -0.321766278 -0.819396342
      vertex 0.356363801 -0.00799179137 -0.895038007
    endloop
  endfacet
  facet normal 0.386831238 -0.142695778 -0.911043088
    outer loop
      vertex 1.01629749 -0.152396548 -0.592210492
      vertex 0.356363801 -0.00799179137 -0.895038007
      vertex 0.657381326 0.117984003 -0.786956656
    endloop
  endfacet
  facet normal 0.386831238 -0.142695778 -0.911043088
    outer loop
      vertex 1.01629749 -0.152396548 -0.592210492
      vertex 0.657381326 0.117984003 -0.786956656
      vertex 1.07411469 0.0414545965 -0.598023872
    endloop
  endfacet
  facet normal 0.386831238 -0.142695778 -0.911043088
    outer loop
      vertex 1.01629749 -0.152396548 -0.592210492
      vertex 1.07411469 0.0414545965 -0.598023872
      vertex 1.11494625 0.0159517132 -0.576692198
    endloop
  endfacet
  facet normal 0.386831238 -0.142695778 -0.911043088
    outer loop
      vertex 1.01629749 -0.152396548 -0.592210492
      vertex 1.11494625 0.0159517132 -0.576692198
      vertex 1.13147446 -0.00871693251 -0.565810448
    endloop
  endfacet
  facet normal 0.382463342 0.91083181 0.155264952
    outer loop
      vertex 0.537603909 0.978714279 0.0039461015
      vertex 0.19725274 1.14620226 -0.14020449
      vertex 0.177871533 1.14138848 -0.0642237418
    endloop
  endfacet
  facet normal 0.382463342 0.91083181 0.155264952
    outer loop
      vertex 0.537603909 0.978714279 0.0039461015
      vertex 0.177871533 1.14138848 -0.0642237418
      vertex 0.631031315 0.8591591 0.475154192
    endloop
  endfacet
  facet normal 0.382463342 0.91083181 0.155264952
    outer loop
      vertex 0.537603909 0.978714279 0.0039461015
      vertex 0.631031315 0.8591591 0.475154192
      vertex 0.790203828 0.785977392 0.512371711
    endloop
  endfacet
  facet normal 0.398320651 -0.143341358 0.905976774
    outer loop
      vertex 0.00761623321 -0.234600484 0.991840664
      vertex 0.0983834942 -0.343815653 0.934654292
      vertex 0.532131489 -0.505329207 0.718398907
    endloop
  endfacet
  facet normal 0.398320651 -0.143341358 0.905976774
    outer loop
      vertex 0.00761623321 -0.234600484 0.991840664
      vertex 0.532131489 -0.505329207 0.718398907
      vertex 0.634026055 0.0261107318 0.757683151
    endloop
  endfacet
  facet normal 0.398320651 -0.143341358 0.905976774
    outer loop
      vertex 0.00761623321 -0.234600484 0.991840664
      vertex 0.634026055 0.0261107318 0.757683151
      vertex 0.444199771 0.115524664 0.855288792
    endloop
  endfacet
  facet normal 0.419491423 -0.4172157 -0.80619973
    outer loop
      vertex 0.203897974 -0.58779919 -0.793523768
      vertex 0.418764455 -0.321766278 -0.819396342
      vertex 0.991908951 -0.169730383 -0.599850947
    endloop
  endfacet
  facet normal 0.419491423 -0.4172157 -0.80619973
    outer loop
      vertex 0.203897974 -0.58779919 -0.793523768
      vertex 0.991908951 -0.169730383 -0.599850947
      vertex 0.243106891 -0.984095287 -0.568035281
    endloop
  endfacet
  facet normal 0.419491423 -0.4172157 -0.80619973
    outer loop
      vertex 0.203897974 -0.58779919 -0.793523768
      vertex 0.243106891 -0.984095287 -0.568035281
      vertex 0.204131386 -1.00605489 -0.576951183
    endloop
  endfacet
  facet normal 0.438709457 0.388561694 -0.810280089
    outer loop
      vertex 0.657381326 0.117984003 -0.786956656
      vertex 0.270407091 0.442264488 -0.840970426
      vertex 0.321157006 0.574500174 -0.750080632
    endloop
  endfacet
  facet normal 0.438709457 0.388561694 -0.810280089
    outer loop
      vertex 0.657381326 0.117984003 -0.786956656
      vertex 0.321157006 0.574500174 -0.750080632
      vertex 0.623452683 0.563200956 -0.591827294
    endloop
  endfacet
  facet normal 0.438709457 0.388561694 -0.810280089
    outer loop
      vertex 0.657381326 0.117984003 -0.786956656
      vertex 0.623452683 0.563200956 -0.591827294
      vertex 1.07411469 0.0414545965 -0.598023872
    endloop
  endfacet
  facet normal 0.509253135 0.157563814 0.846070262
    outer loop
      vertex 0.763254427 0.0911272325 0.667792034
      vertex 0.908459753 0.509857184 0.502412204
      vertex 0.798504859 0.777603036 0.518732145
    endloop
  endfacet
  facet normal 0.509253135 0.157563814 0.846070262
    outer loop
      vertex 0.763254427 0.0911272325 0.667792034
      vertex 0.798504859 0.777603036 0.518732145
      vertex 0.637647469 0.697542524 0.630462546
    endloop
  endfacet
  facet normal 0.509253135 0.157563814 0.846070262
    outer loop
      vertex 0.763254427 0.0911272325 0.667792034
      vertex 0.637647469 0.697542524 0.630462546
      vertex 0.415493013 0.305686023 0.837153723
    endloop
  endfacet
  facet normal 0.509253135 0.157563814 0.846070262
    outer loop
      vertex 0.763254427 0.0911272325 0.667792034
      vertex 0.415493013 0.305686023 0.837153723
      vertex 0.444199771 0.115524664 0.855288792
    endloop
  endfacet
  facet normal 0.509253135 0.157563814 0.846070262
    outer loop
      vertex 0.763254427 0.0911272325 0.667792034
      vertex 0.444199771 0.115524664 0.855288792
      vertex 0.634026055 0.0261107318 0.757683151
    endloop
  endfacet
  facet normal 0.517125265 0.808105928 -0.282039483
    outer loop
      vertex 0.71348903 0.765332413 -0.284951433
      vertex 0.60291136 0.805944078 -0.37133643
      vertex 0.0785054344 1.1558909 -0.330170025
    endloop
  endfacet
  facet normal 0.517125265 0.808105928 -0.282039483
    outer loop
      vertex 0.71348903 0.765332413 -0.284951433
      vertex 0.0785054344 1.1558909 -0.330170025
      vertex 0.19725274 1.14620226 -0.14020449
    endloop
  endfacet
  facet normal 0.517125265 0.808105928 -0.282039483
    outer loop
      vertex 0.71348903 0.765332413 -0.284951433
      vertex 0.19725274 1.14620226 -0.14020449
      vertex 0.537603909 0.978714279 0.0039461015
    endloop
  endfacet
  facet normal 0.519297218 -0.779089971 -0.35121107
    outer loop
      vertex 0.102467103 -1.08484967 -0.552480874
      vertex 0.204131386 -1.00605489 -0.576951183
      vertex 0.243106891 -0.984095287 -0.568035281
    endloop
  endfacet
  facet normal 0.519297218 -0.779089971 -0.35121107
    outer loop
      vertex 0.102467103 -1.08484967 -0.552480874
      vertex 0.243106891 -0.984095287 -0.568035281
      vertex 0.642697449 -0.829084433 -0.321064525
    endloop
  endfacet
  facet normal 0.519297218 -0.779089971 -0.35121107
    outer loop
      vertex 0.102467103 -1.08484967 -0.552480874
      vertex 0.642697449 -0.829084433 -0.321064525
      vertex 0.666449885 -0.868198238 -0.199178426
    endloop
  endfacet
  facet normal 0.519297218 -0.779089971 -0.35121107
    outer loop
      vertex 0.102467103 -1.08484967 -0.552480874
      vertex 0.666449885 -0.868198238 -0.199178426
      vertex 0.523053298 -0.993172237 -0.133973931
    endloop
  endfacet
  facet normal 0.582009444 -0.55825343 -0.591285138
    outer loop
      vertex 0.243106891 -0.984095287 -0.568035281
      vertex 0.991908951 -0.169730383 -0.599850947
      vertex 1.01629749 -0.152396548 -0.592210492
    endloop
  endfacet
  facet normal 0.582009444 -0.55825343 -0.591285138
    outer loop
      vertex 0.243106891 -0.984095287 -0.568035281
      vertex 1.01629749 -0.152396548 -0.592210492
      vertex 0.642697449 -0.829084433 -0.321064525
    endloop
  endfacet
  facet normal 0.620133867 -0.175421962 0.764631363
    outer loop
      vertex 0.696954954 -0.734317391 0.532188694
      vertex 0.81272402 -0.781453352 0.427483334
      vertex 0.859218787 -0.740510339 0.399168153
    endloop
  endfacet
  facet normal 0.620133867 -0.175421962 0.764631363
    outer loop
      vertex 0.696954954 -0.734317391 0.532188694
      vertex 0.859218787 -0.740510339 0.399168153
      vertex 0.906533681 -0.634592167 0.385094451
    endloop
  endfacet
  facet normal 0.620133867 -0.175421962 0.764631363
    outer loop
      vertex 0.696954954 -0.734317391 0.532188694
      vertex 0.906533681 -0.634592167 0.385094451
      vertex 0.763254427 0.0911272325 0.667792034
    endloop
  endfacet
  facet normal 0.620133867 -0.175421962 0.764631363
    outer loop
      vertex 0.696954954 -0.734317391 0.532188694
      vertex 0.763254427 0.0911272325 0.667792034
      vertex 0.634026055 0.0261107318 0.757683151
    endloop
  endfacet
  facet normal 0.620133867 -0.175421962 0.764631363
    outer loop
      vertex 0.696954954 -0.734317391 0.532188694
      vertex 0.634026055 0.0261107318 0.757683151
      vertex 0.532131489 -0.505329207 0.718398907
    endloop
  endfacet
  facet normal 0.630015451 0.550683408 -0.54756581
    outer loop
      vertex 1.11494625 0.0159517132 -0.576692198
      vertex 1.07411469 0.0414545965 -0.598023872
      vertex 0.623452683 0.563200956 -0.591827294
    endloop
  endfacet
  facet normal 0.630015451 0.550683408 -0.54756581
    outer loop
      vertex 1.11494625 0.0159517132 -0.576692198
      vertex 0.623452683 0.563200956 -0.591827294
      vertex 0.60291136 0.805944078 -0.37133643
    endloop
  endfacet
  facet normal 0.630015451 0.550683408 -0.54756581
    outer loop
      vertex 1.11494625 0.0159517132 -0.576692198
      vertex 0.60291136 0.805944078 -0.37133643
      vertex 0.71348903 0.765332413 -0.284951433
    endloop
  endfacet
  facet normal 0.630015451 0.550683408 -0.54756581
    outer loop
      vertex 1.11494625 0.0159517132 -0.576692198
      vertex 0.71348903 0.765332413 -0.284951433
      vertex 0.818777439 0.660878483 -0.268857883
    endloop
  endfacet
  facet normal 0.644691827 -0.763125883 -0.044847913
    outer loop
      vertex 0.554099072 -0.979256007 0.0755145721
      vertex 0.523053298 -0.993172237 -0.133973931
      vertex 0.666449885 -0.868198238 -0.199178426
    endloop
  endfacet
  facet normal 0.644691827 -0.763125883 -0.044847913
    outer loop
      vertex 0.554099072 -0.979256007 0.0755145721
      vertex 0.666449885 -0.868198238 -0.199178426
      vertex 0.875665544 -0.703894894 0.0125480788
    endloop
  endfacet
  facet normal 0.644691827 -0.763125883 -0.044847913
    outer loop
      vertex 0.554099072 -0.979256007 0.0755145721
      vertex 0.875665544 -0.703894894 0.0125480788
      vertex 0.859218787 -0.740510339 0.399168153
    endloop
  endfacet
  facet normal 0.644691827 -0.763125883 -0.044847913
    outer loop
      vertex 0.554099072 -0.979256007 0.0755145721
      vertex 0.859218787 -0.740510339 0.399168153
      vertex 0.81272402 -0.781453352 0.427483334
    endloop
  endfacet
  facet normal 0.644691827 -0.763125883 -0.044847913
    outer loop
      vertex 0.554099072 -0.979256007 0.0755145721
      vertex 0.81272402 -0.781453352 0.427483334
      vertex 0.674052184 -0.891083926 0.299524861
    endloop
  endfacet
  facet normal 0.708277239 0.700640845 -0.0862888049
    outer loop
      vertex 0.936890177 0.580252716 0.0459785417
      vertex 0.818777439 0.660878483 -0.268857883
      vertex 0.71348903 0.765332413 -0.284951433
    endloop
  endfacet
  facet normal 0.708277239 0.700640845 -0.0862888049
    outer loop
      vertex 0.936890177 0.580252716 0.0459785417
      vertex 0.71348903 0.765332413 -0.284951433
      vertex 0.537603909 0.978714279 0.0039461015
    endloop
  endfacet
  facet normal 0.708277239 0.700640845 -0.0862888049
    outer loop
      vertex 0.936890177 0.580252716 0.0459785417
      vertex 0.537603909 0.978714279 0.0039461015
      vertex 0.790203828 0.785977392 0.512371711
    endloop
  endfacet
  facet normal 0.708277239 0.700640845 -0.0862888049
    outer loop
      vertex 0.936890177 0.580252716 0.0459785417
      vertex 0.790203828 0.785977392 0.512371711
      vertex 0.798233383 0.778538973 0.517882167
    endloop
  endfacet
  facet normal 0.765780114 -0.553793653 -0.326945571
    outer loop
      vertex 1.01629749 -0.152396548 -0.592210492
      vertex 1.13147446 -0.00871693251 -0.565810448
      vertex 1.14125721 -0.0134418144 -0.534893864
    endloop
  endfacet
  facet normal 0.765780114 -0.553793653 -0.326945571
    outer loop
      vertex 1.01629749 -0.152396548 -0.592210492
      vertex 1.14125721 -0.0134418144 -0.534893864
      vertex 1.10966104 -0.180219756 -0.326403971
    endloop
  endfacet
  facet normal 0.765780114 -0.553793653 -0.326945571
    outer loop
      vertex 1.01629749 -0.152396548 -0.592210492
      vertex 1.10966104 -0.180219756 -0.326403971
      vertex 0.875665544 -0.703894894 0.0125480788
    endloop
  endfacet
  facet normal 0.765780114 -0.553793653 -0.326945571
    outer loop
      vertex 1.01629749 -0.152396548 -0.592210492
      vertex 0.875665544 -0.703894894 0.0125480788
      vertex 0.666449885 -0.868198238 -0.199178426
    endloop
  endfacet
  facet normal 0.765780114 -0.553793653 -0.326945571
    outer loop
      vertex 1.01629749 -0.152396548 -0.592210492
      vertex 0.666449885 -0.868198238 -0.199178426
      vertex 0.642697449 -0.829084433 -0.321064525
    endloop
  endfacet
  facet normal 0.820190308 -0.0597052588 0.568966731
    outer loop
      vertex 0.906533681 -0.634592167 0.385094451
      vertex 1.0207808 -0.378895795 0.247234077
      vertex 0.998697494 0.331917391 0.35365823
    endloop
  endfacet
  facet normal 0.820190308 -0.0597052588 0.568966731
    outer loop
      vertex 0.906533681 -0.634592167 0.385094451
      vertex 0.998697494 0.331917391 0.35365823
      vertex 0.908459753 0.509857184 0.502412204
    endloop
  endfacet
  facet normal 0.820190308 -0.0597052588 0.568966731
    outer loop
      vertex 0.906533681 -0.634592167 0.385094451
      vertex 0.908459753 0.509857184 0.502412204
      vertex 0.763254427 0.0911272325 0.667792034
    endloop
  endfacet
  facet normal 0.852439395 0.484844358 -0.195634934
    outer loop
      vertex 1.14125721 -0.0134418144 -0.534893864
      vertex 1.13147446 -0.00871693251 -0.565810448
      vertex 1.11494625 0.0159517132 -0.576692198
    endloop
  endfacet
  facet normal 0.852439395 0.484844358 -0.195634934
    outer loop
      vertex 1.14125721 -0.0134418144 -0.534893864
      vertex 1.11494625 0.0159517132 -0.576692198
      vertex 0.818777439 0.660878483 -0.268857883
    endloop
  endfacet
  facet normal 0.852439395 0.484844358 -0.195634934
    outer loop
      vertex 1.14125721 -0.0134418144 -0.534893864
      vertex 0.818777439 0.660878483 -0.268857883
      vertex 0.936890177 0.580252716 0.0459785417
    endloop
  endfacet
  facet normal 0.852439395 0.484844358 -0.195634934
    outer loop
      vertex 1.14125721 -0.0134418144 -0.534893864
      vertex 0.936890177 0.580252716 0.0459785417
      vertex 1.06847621 0.295028052 -0.0875377546
    endloop
  endfacet
  facet normal 0.913052263 -0.407842517 0.00021575118
    outer loop
      vertex 0.875665544 -0.703894894 0.0125480788
      vertex 1.10966104 -0.180219756 -0.326403971
      vertex 1.0207808 -0.378895795 0.247234077
    endloop
  endfacet
  facet normal 0.913052263 -0.407842517 0.00021575118
    outer loop
      vertex 0.875665544 -0.703894894 0.0125480788
      vertex 1.0207808 -0.378895795 0.247234077
      vertex 0.906533681 -0.634592167 0.385094451
    endloop
  endfacet
  facet normal 0.913052263 -0.407842517 0.00021575118
    outer loop
      vertex 0.875665544 -0.703894894 0.0125480788
      vertex 0.906533681 -0.634592167 0.385094451
      vertex 0.859218787 -0.740510339 0.399168153
    endloop
  endfacet
  facet normal 0.921369436 0.371388311 0.11466946
    outer loop
      vertex 1.06847621 0.295028052 -0.0875377546
      vertex 0.936890177 0.580252716 0.0459785417
      vertex 0.798233383 0.778538973 0.517882167
    endloop
  endfacet
  facet normal 0.921369436 0.371388311 0.11466946
    outer loop
      vertex 1.06847621 0.295028052 -0.0875377546
      vertex 0.798233383 0.778538973 0.517882167
      vertex 0.798504859 0.777603036 0.518732145
    endloop
  endfacet
  facet normal 0.921369436 0.371388311 0.11466946
    outer loop
      vertex 1.06847621 0.295028052 -0.0875377546
      vertex 0.798504859 0.777603036 0.518732145
      vertex 0.908459753 0.509857184 0.502412204
    endloop
  endfacet
  facet normal 0.921369436 0.371388311 0.11466946
    outer loop
      vertex 1.06847621 0.295028052 -0.0875377546
      vertex 0.908459753 0.509857184 0.502412204
      vertex 0.998697494 0.331917391 0.35365823
    endloop
  endfacet
  facet normal 0.987791047 0.00739029079 0.155609227
    outer loop
      vertex 1.10966104 -0.180219756 -0.326403971
      vertex 1.14125721 -0.0134418144 -0.534893864
      vertex 1.06847621 0.295028052 -0.0875377546
    endloop
  endfacet
  facet normal 0.987791047 0.00739029079 0.155609227
    outer loop
      vertex 1.10966104 -0.180219756 -0.326403971
      vertex 1.06847621 0.295028052 -0.0875377546
      vertex 0.998697494 0.331917391 0.35365823
    endloop
  endfacet
  facet normal 0.987791047 0.00739029079 0.155609227
    outer loop
      vertex 1.10966104 -0.180219756 -0.326403971
      vertex 0.998697494 0.331917391 0.35365823
      vertex 1.0207808 -0.378895795 0.247234077
    endloop
  endfacet
endsolid bhs_submission_model05
