solid bhs_submission_model04
  facet normal -0.905841859 0.264609789 -0.330805358
    outer loop
      vertex -1.12230287 0.475484032 -0.330375879
      vertex -1.21727793 0.208026856 -0.284244211
      vertex -1.30477392 0.091333869 -0.137996817
    endloop
  endfacet
  facet normal -0.905841859 0.264609789 -0.330805358
    outer loop
      vertex -1.12230287 0.475484032 -0.330375879
      vertex -1.30477392 0.091333869 -0.137996817
      vertex -1.47344075 0.0575980151 0.296877151
    endloop
  endfacet
  facet normal -0.905841859 0.264609789 -0.330805358
    outer loop
      vertex -1.12230287 0.475484032 -0.330375879
      vertex -1.47344075 0.0575980151 0.296877151
      vertex -1.4733896 0.0689062829 0.305782531
    endloop
  endfacet
  facet normal -0.912510618 -0.179006174 -0.367805876
    outer loop
      vertex -1.30477392 0.091333869 -0.137996817
      vertex -1.24965168 -0.189973519 -0.137844209
      vertex -1.30130744 -0.35309691 0.069701471
    endloop
  endfacet
  facet normal -0.912510618 -0.179006174 -0.367805876
    outer loop
      vertex -1.30477392 0.091333869 -0.137996817
      vertex -1.30130744 -0.35309691 0.069701471
      vertex -1.40564269 -0.144243743 0.226906732
    endloop
  endfacet
  facet normal -0.912510618 -0.179006174 -0.367805876
    outer loop
      vertex -1.30477392 0.091333869 -0.137996817
      vertex -1.40564269 -0.144243743 0.226906732
      vertex -1.47344075 0.0575980151 0.296877151
    endloop
  endfacet
  facet normal -0.727215161 0.685426374 0.0367259369
    outer loop
      vertex -0.734048357 0.882965064 -0.247428541
      vertex -0.735626763 0.885949214 -0.334376793
      vertex -0.801626441 0.819275949 -0.396903498
    endloop
  endfacet
  facet normal -0.727215161 0.685426374 0.0367259369
    outer loop
      vertex -0.734048357 0.882965064 -0.247428541
      vertex -0.801626441 0.819275949 -0.396903498
      vertex -1.04245458 0.564310834 -0.407088567
    endloop
  endfacet
  facet normal -0.727215161 0.685426374 0.0367259369
    outer loop
      vertex -0.734048357 0.882965064 -0.247428541
      vertex -1.04245458 0.564310834 -0.407088567
      vertex -1.12230287 0.475484032 -0.330375879
    endloop
  endfacet
  facet normal -0.727215161 0.685426374 0.0367259369
    outer loop
      vertex -0.734048357 0.882965064 -0.247428541
      vertex -1.12230287 0.475484032 -0.330375879
      vertex -1.4733896 0.0689062829 0.305782531
    endloop
  endfacet
  facet normal -0.727215161 0.685426374 0.0367259369
    outer loop
      vertex -0.734048357 0.882965064 -0.247428541
      vertex -1.4733896 0.0689062829 0.305782531
      vertex -1.4305052 0.109720191 0.393221016
    endloop
  endfacet
  facet normal -0.788475342 -0.15482483 -0.59526121
    outer loop
      vertex -0.98158933 0.18454825 -0.590327618
      vertex -0.820337438 -0.105073651 -0.728590414
      vertex -0.819052638 -0.121842334 -0.725930783
    endloop
  endfacet
  facet normal -0.788475342 -0.15482483 -0.59526121
    outer loop
      vertex -0.98158933 0.18454825 -0.590327618
      vertex -0.819052638 -0.121842334 -0.725930783
      vertex -0.845128176 -0.169701825 -0.678943418
    endloop
  endfacet
  facet normal -0.788475342 -0.15482483 -0.59526121
    outer loop
      vertex -0.98158933 0.18454825 -0.590327618
      vertex -0.845128176 -0.169701825 -0.678943418
      vertex -1.24965168 -0.189973519 -0.137844209
    endloop
  endfacet
  facet normal -0.788475342 -0.15482483 -0.59526121
    outer loop
      vertex -0.98158933 0.18454825 -0.590327618
      vertex -1.24965168 -0.189973519 -0.137844209
      vertex -1.30477392 0.091333869 -0.137996817
    endloop
  endfacet
  facet normal -0.788475342 -0.15482483 -0.59526121
    outer loop
      vertex -0.98158933 0.18454825 -0.590327618
      vertex -1.30477392 0.091333869 -0.137996817
      vertex -1.21727793 0.208026856 -0.284244211
    endloop
  endfacet
  facet normal -0.774460622 0.169906795 -0.609378721
    outer loop
      vertex -0.954609953 0.426528494 -0.557146902
      vertex -0.98158933 0.18454825 -0.590327618
      vertex -1.21727793 0.208026856 -0.284244211
    endloop
  endfacet
  facet normal -0.774460622 0.169906795 -0.609378721
    outer loop
      vertex -0.954609953 0.426528494 -0.557146902
      vertex -1.21727793 0.208026856 -0.284244211
      vertex -1.12230287 0.475484032 -0.330375879
    endloop
  endfacet
  facet normal -0.774460622 0.169906795 -0.609378721
    outer loop
      vertex -0.954609953 0.426528494 -0.557146902
      vertex -1.12230287 0.475484032 -0.330375879
      vertex -1.04245458 0.564310834 -0.407088567
    endloop
  endfacet
  facet normal -0.714178383 -0.43106659 0.551480582
    outer loop
      vertex -1.4305052 0.109720191 0.393221016
      vertex -1.4733896 0.0689062829 0.305782531
      vertex -1.47344075 0.0575980151 0.296877151
    endloop
  endfacet
  facet normal -0.714178383 -0.43106659 0.551480582
    outer loop
      vertex -1.4305052 0.109720191 0.393221016
      vertex -1.47344075 0.0575980151 0.296877151
      vertex -1.40564269 -0.144243743 0.226906732
    endloop
  endfacet
  facet normal -0.714178383 -0.43106659 0.551480582
    outer loop
      vertex -1.4305052 0.109720191 0.393221016
      vertex -1.40564269 -0.144243743 0.226906732
      vertex -0.958414631 -0.305434157 0.680080998
    endloop
  endfacet
  facet normal -0.714178383 -0.43106659 0.551480582
    outer loop
      vertex -1.4305052 0.109720191 0.393221016
      vertex -0.958414631 -0.305434157 0.680080998
      vertex -1.1673683 -0.0183007135 0.633920606
    endloop
  endfacet
  facet normal -0.714178383 -0.43106659 0.551480582
    outer loop
      vertex -1.4305052 0.109720191 0.393221016
      vertex -1.1673683 -0.0183007135 0.633920606
      vertex -1.37769534 0.125758555 0.47414728
    endloop
  endfacet
  facet normal -0.700008349 -0.466398477 -0.540796425
    outer loop
      vertex -0.845128176 -0.169701825 -0.678943418
      vertex -0.755387076 -0.430287719 -0.570367727
      vertex -0.981401248 -0.734813628 -0.0151824227
    endloop
  endfacet
  facet normal -0.700008349 -0.466398477 -0.540796425
    outer loop
      vertex -0.845128176 -0.169701825 -0.678943418
      vertex -0.981401248 -0.734813628 -0.0151824227
      vertex -1.30130744 -0.35309691 0.069701471
    endloop
  endfacet
  facet normal -0.700008349 -0.466398477 -0.540796425
    outer loop
      vertex -0.845128176 -0.169701825 -0.678943418
      vertex -1.30130744 -0.35309691 0.069701471
      vertex -1.24965168 -0.189973519 -0.137844209
    endloop
  endfacet
  facet normal -0.649865053 -0.636876038 0.41480637
    outer loop
      vertex -1.40564269 -0.144243743 0.226906732
      vertex -1.30130744 -0.35309691 0.069701471
      vertex -0.981401248 -0.734813628 -0.0151824227
    endloop
  endfacet
  facet normal -0.649865053 -0.636876038 0.41480637
    outer loop
      vertex -1.40564269 -0.144243743 0.226906732
      vertex -0.981401248 -0.734813628 -0.0151824227
      vertex -0.863306805 -0.833441165 0.01840418
    endloop
  endfacet
  facet normal -0.649865053 -0.636876038 0.41480637
    outer loop
      vertex -1.40564269 -0.144243743 0.226906732
      vertex -0.863306805 -0.833441165 0.01840418
      vertex -0.832976816 -0.401699427 0.72879917
    endloop
  endfacet
  facet normal -0.649865053 -0.636876038 0.41480637
    outer loop
      vertex -1.40564269 -0.144243743 0.226906732
      vertex -0.832976816 -0.401699427 0.72879917
      vertex -0.958414631 -0.305434157 0.680080998
    endloop
  endfacet
  facet normal -0.608735501 0.753656214 0.247877794
    outer loop
      vertex -0.705958323 0.883723697 -0.180751925
      vertex -0.734048357 0.882965064 -0.247428541
      vertex -1.4305052 0.109720191 0.393221016
    endloop
  endfacet
  facet normal -0.608735501 0.753656214 0.247877794
    outer loop
      vertex -0.705958323 0.883723697 -0.180751925
      vertex -1.4305052 0.109720191 0.393221016
      vertex -1.37769534 0.125758555 0.47414728
    endloop
  endfacet
  facet normal -0.608735501 0.753656214 0.247877794
    outer loop
      vertex -0.705958323 0.883723697 -0.180751925
      vertex -1.37769534 0.125758555 0.47414728
      vertex -0.83482963 0.498224745 0.674851708
    endloop
  endfacet
  facet normal -0.608735501 0.753656214 0.247877794
    outer loop
      vertex -0.705958323 0.883723697 -0.180751925
      vertex -0.83482963 0.498224745 0.674851708
      vertex -0.74135191 0.607509194 0.572141026
    endloop
  endfacet
  facet normal -0.483161656 0.485477476 -0.728605815
    outer loop
      vertex -0.622360969 0.68687183 -0.604002339
      vertex -0.669465975 0.519447904 -0.68432178
      vertex -0.954609953 0.426528494 -0.557146902
    endloop
  endfacet
  facet normal -0.483161656 0.485477476 -0.728605815
    outer loop
      vertex -0.622360969 0.68687183 -0.604002339
      vertex -0.954609953 0.426528494 -0.557146902
      vertex -1.04245458 0.564310834 -0.407088567
    endloop
  endfacet
  facet normal -0.483161656 0.485477476 -0.728605815
    outer loop
      vertex -0.622360969 0.68687183 -0.604002339
      vertex -1.04245458 0.564310834 -0.407088567
      vertex -0.801626441 0.819275949 -0.396903498
    endloop
  endfacet
  facet normal -0.500800777 -0.230310336 0.834359473
    outer loop
      vertex -1.1673683 -0.0183007135 0.633920606
      vertex -0.958414631 -0.305434157 0.680080998
      vertex -0.832976816 -0.401699427 0.72879917
    endloop
  endfacet
  facet normal -0.500800777 -0.230310336 0.834359473
    outer loop
      vertex -1.1673683 -0.0183007135 0.633920606
      vertex -0.832976816 -0.401699427 0.72879917
      vertex -0.648395194 -0.437114341 0.829813424
    endloop
  endfacet
  facet normal -0.500800777 -0.230310336 0.834359473
    outer loop
      vertex -1.1673683 -0.0183007135 0.633920606
      vertex -0.648395194 -0.437114341 0.829813424
      vertex -0.679048827 -0.0491247584 0.91851218
    endloop
  endfacet
  facet normal -0.472670364 -0.472670364 -0.743750935
    outer loop
      vertex -0.24502213 -0.5067728 -0.846108091
      vertex -0.281801307 -0.528676041 -0.808814101
      vertex -0.755387076 -0.430287719 -0.570367727
    endloop
  endfacet
  facet normal -0.472670364 -0.472670364 -0.743750935
    outer loop
      vertex -0.24502213 -0.5067728 -0.846108091
      vertex -0.755387076 -0.430287719 -0.570367727
      vertex -0.845128176 -0.169701825 -0.678943418
    endloop
  endfacet
  facet normal -0.472670364 -0.472670364 -0.743750935
    outer loop
      vertex -0.24502213 -0.5067728 -0.846108091
      vertex -0.845128176 -0.169701825 -0.678943418
      vertex -0.819052638 -0.121842334 -0.725930783
    endloop
  endfacet
  facet normal -0.429911156 -0.706294887 -0.562426822
    outer loop
      vertex -0.755387076 -0.430287719 -0.570367727
      vertex -0.281801307 -0.528676041 -0.808814101
      vertex -0.320680172 -0.796944655 -0.44220426
    endloop
  endfacet
  facet normal -0.429911156 -0.706294887 -0.562426822
    outer loop
      vertex -0.755387076 -0.430287719 -0.570367727
      vertex -0.320680172 -0.796944655 -0.44220426
      vertex -0.711546468 -0.885577845 -0.0321261117
    endloop
  endfacet
  facet normal -0.429911156 -0.706294887 -0.562426822
    outer loop
      vertex -0.755387076 -0.430287719 -0.570367727
      vertex -0.711546468 -0.885577845 -0.0321261117
      vertex -0.833883699 -0.850173731 0.0169263066
    endloop
  endfacet
  facet normal -0.429911156 -0.706294887 -0.562426822
    outer loop
      vertex -0.755387076 -0.430287719 -0.570367727
      vertex -0.833883699 -0.850173731 0.0169263066
      vertex -0.863306805 -0.833441165 0.01840418
    endloop
  endfacet
  facet normal -0.429911156 -0.706294887 -0.562426822
    outer loop
      vertex -0.755387076 -0.430287719 -0.570367727
      vertex -0.863306805 -0.833441165 0.01840418
      vertex -0.981401248 -0.734813628 -0.0151824227
    endloop
  endfacet
  facet normal -0.477392527 0.240370713 0.84517353
    outer loop
      vertex -1.37769534 0.125758555 0.47414728
      vertex -1.1673683 -0.0183007135 0.633920606
      vertex -0.679048827 -0.0491247584 0.91851218
    endloop
  endfacet
  facet normal -0.477392527 0.240370713 0.84517353
    outer loop
      vertex -1.37769534 0.125758555 0.47414728
      vertex -0.679048827 -0.0491247584 0.91851218
      vertex -0.667258825 -0.0404674254 0.92270953
    endloop
  endfacet
  facet normal -0.477392527 0.240370713 0.84517353
    outer loop
      vertex -1.37769534 0.125758555 0.47414728
      vertex -0.667258825 -0.0404674254 0.92270953
      vertex -0.669136142 0.475541345 0.774894189
    endloop
  endfacet
  facet normal -0.477392527 0.240370713 0.84517353
    outer loop
      vertex -1.37769534 0.125758555 0.47414728
      vertex -0.669136142 0.475541345 0.774894189
      vertex -0.83482963 0.498224745 0.674851708
    endloop
  endfacet
  facet normal -0.413558214 -0.770112476 0.485691649
    outer loop
      vertex -0.863306805 -0.833441165 0.01840418
      vertex -0.833883699 -0.850173731 0.0169263066
      vertex -0.501247077 -0.734622106 0.483379365
    endloop
  endfacet
  facet normal -0.413558214 -0.770112476 0.485691649
    outer loop
      vertex -0.863306805 -0.833441165 0.01840418
      vertex -0.501247077 -0.734622106 0.483379365
      vertex -0.586926333 -0.467948941 0.833261787
    endloop
  endfacet
  facet normal -0.413558214 -0.770112476 0.485691649
    outer loop
      vertex -0.863306805 -0.833441165 0.01840418
      vertex -0.586926333 -0.467948941 0.833261787
      vertex -0.648395194 -0.437114341 0.829813424
    endloop
  endfacet
  facet normal -0.413558214 -0.770112476 0.485691649
    outer loop
      vertex -0.863306805 -0.833441165 0.01840418
      vertex -0.648395194 -0.437114341 0.829813424
      vertex -0.832976816 -0.401699427 0.72879917
    endloop
  endfacet
  facet normal -0.368706931 0.878141705 0.304831668
    outer loop
      vertex -0.514254815 0.898576185 0.00833545995
      vertex -0.705958323 0.883723697 -0.180751925
      vertex -0.74135191 0.607509194 0.572141026
    endloop
  endfacet
  facet normal -0.368706931 0.878141705 0.304831668
    outer loop
      vertex -0.514254815 0.898576185 0.00833545995
      vertex -0.74135191 0.607509194 0.572141026
      vertex -0.481842225 0.736553281 0.514286226
    endloop
  endfacet
  facet normal -0.447125065 0.170260701 -0.878117572
    outer loop
      vertex -0.517443215 0.0362541139 -0.855417434
      vertex -0.820337438 -0.105073651 -0.728590414
      vertex -0.98158933 0.18454825 -0.590327618
    endloop
  endfacet
  facet normal -0.447125065 0.170260701 -0.878117572
    outer loop
      vertex -0.517443215 0.0362541139 -0.855417434
      vertex -0.98158933 0.18454825 -0.590327618
      vertex -0.954609953 0.426528494 -0.557146902
    endloop
  endfacet
  facet normal -0.447125065 0.170260701 -0.878117572
    outer loop
      vertex -0.517443215 0.0362541139 -0.855417434
      vertex -0.954609953 0.426528494 -0.557146902
      vertex -0.669465975 0.519447904 -0.68432178
    endloop
  endfacet
  facet normal -0.447125065 0.170260701 -0.878117572
    outer loop
      vertex -0.517443215 0.0362541139 -0.855417434
      vertex -0.669465975 0.519447904 -0.68432178
      vertex -0.510081442 0.365647407 -0.795298947
    endloop
  endfacet
  facet normal -0.311074092 -0.172080551 -0.934677053
    outer loop
      vertex 0.038713064 -0.237898441 -0.990040924
      vertex -0.234291216 -0.505712008 -0.849874794
      vertex -0.24502213 -0.5067728 -0.846108091
    endloop
  endfacet
  facet normal -0.311074092 -0.172080551 -0.934677053
    outer loop
      vertex 0.038713064 -0.237898441 -0.990040924
      vertex -0.24502213 -0.5067728 -0.846108091
      vertex -0.819052638 -0.121842334 -0.725930783
    endloop
  endfacet
  facet normal -0.311074092 -0.172080551 -0.934677053
    outer loop
      vertex 0.038713064 -0.237898441 -0.990040924
      vertex -0.819052638 -0.121842334 -0.725930783
      vertex -0.820337438 -0.105073651 -0.728590414
    endloop
  endfacet
  facet normal -0.311074092 -0.172080551 -0.934677053
    outer loop
      vertex 0.038713064 -0.237898441 -0.990040924
      vertex -0.820337438 -0.105073651 -0.728590414
      vertex -0.517443215 0.0362541139 -0.855417434
    endloop
  endfacet
  facet normal -0.311074092 -0.172080551 -0.934677053
    outer loop
      vertex 0.038713064 -0.237898441 -0.990040924
      vertex -0.517443215 0.0362541139 -0.855417434
      vertex 0.0380926738 -0.182682978 -1
    endloop
  endfacet
  facet normal -0.250601209 0.768128886 0.589217318
    outer loop
      vertex -0.287150727 0.734424494 0.599866038
      vertex -0.481842225 0.736553281 0.514286226
      vertex -0.74135191 0.607509194 0.572141026
    endloop
  endfacet
  facet normal -0.250601209 0.768128886 0.589217318
    outer loop
      vertex -0.287150727 0.734424494 0.599866038
      vertex -0.74135191 0.607509194 0.572141026
      vertex -0.83482963 0.498224745 0.674851708
    endloop
  endfacet
  facet normal -0.250601209 0.768128886 0.589217318
    outer loop
      vertex -0.287150727 0.734424494 0.599866038
      vertex -0.83482963 0.498224745 0.674851708
      vertex -0.669136142 0.475541345 0.774894189
    endloop
  endfacet
  facet normal -0.250601209 0.768128886 0.589217318
    outer loop
      vertex -0.287150727 0.734424494 0.599866038
      vertex -0.669136142 0.475541345 0.774894189
      vertex -0.282474322 0.566625116 0.820605412
    endloop
  endfacet
  facet normal -0.168437091 0.757848222 -0.630313429
    outer loop
      vertex -0.140494355 0.747481733 -0.659896918
      vertex -0.140305944 0.747005184 -0.660520237
      vertex -0.622360969 0.68687183 -0.604002339
    endloop
  endfacet
  facet normal -0.168437091 0.757848222 -0.630313429
    outer loop
      vertex -0.140494355 0.747481733 -0.659896918
      vertex -0.622360969 0.68687183 -0.604002339
      vertex -0.801626441 0.819275949 -0.396903498
    endloop
  endfacet
  facet normal -0.168437091 0.757848222 -0.630313429
    outer loop
      vertex -0.140494355 0.747481733 -0.659896918
      vertex -0.801626441 0.819275949 -0.396903498
      vertex -0.735626763 0.885949214 -0.334376793
    endloop
  endfacet
  facet normal -0.168437091 0.757848222 -0.630313429
    outer loop
      vertex -0.140494355 0.747481733 -0.659896918
      vertex -0.735626763 0.885949214 -0.334376793
      vertex -0.515892984 0.911860726 -0.361941374
    endloop
  endfacet
  facet normal -0.151032 -0.926653995 -0.344240771
    outer loop
      vertex -0.320680172 -0.796944655 -0.44220426
      vertex 0.249048859 -0.889172172 -0.443901671
      vertex 0.243184624 -0.901235338 -0.408856236
    endloop
  endfacet
  facet normal -0.151032 -0.926653995 -0.344240771
    outer loop
      vertex -0.320680172 -0.796944655 -0.44220426
      vertex 0.243184624 -0.901235338 -0.408856236
      vertex -0.277436786 -0.952953622 -0.0412198079
    endloop
  endfacet
  facet normal -0.151032 -0.926653995 -0.344240771
    outer loop
      vertex -0.320680172 -0.796944655 -0.44220426
      vertex -0.277436786 -0.952953622 -0.0412198079
      vertex -0.711546468 -0.885577845 -0.0321261117
    endloop
  endfacet
  facet normal -0.18050038 0.18050038 -0.966870842
    outer loop
      vertex 0.209395526 0.027843732 -0.99267749
      vertex 0.0380926738 -0.182682978 -1
      vertex -0.517443215 0.0362541139 -0.855417434
    endloop
  endfacet
  facet normal -0.18050038 0.18050038 -0.966870842
    outer loop
      vertex 0.209395526 0.027843732 -0.99267749
      vertex -0.517443215 0.0362541139 -0.855417434
      vertex -0.510081442 0.365647407 -0.795298947
    endloop
  endfacet
  facet normal -0.18050038 0.18050038 -0.966870842
    outer loop
      vertex 0.209395526 0.027843732 -0.99267749
      vertex -0.510081442 0.365647407 -0.795298947
      vertex 0.168402438 0.35943524 -0.923121497
    endloop
  endfacet
  facet normal -0.175625691 0.270512102 0.946561577
    outer loop
      vertex -0.667258825 -0.0404674254 0.92270953
      vertex -0.241106217 -0.034245309 1
      vertex -0.140687598 0.0447661263 0.996051541
    endloop
  endfacet
  facet normal -0.175625691 0.270512102 0.946561577
    outer loop
      vertex -0.667258825 -0.0404674254 0.92270953
      vertex -0.140687598 0.0447661263 0.996051541
      vertex -0.0584921323 0.32150521 0.932214557
    endloop
  endfacet
  facet normal -0.175625691 0.270512102 0.946561577
    outer loop
      vertex -0.667258825 -0.0404674254 0.92270953
      vertex -0.0584921323 0.32150521 0.932214557
      vertex -0.20248511 0.532241344 0.845272996
    endloop
  endfacet
  facet normal -0.175625691 0.270512102 0.946561577
    outer loop
      vertex -0.667258825 -0.0404674254 0.92270953
      vertex -0.20248511 0.532241344 0.845272996
      vertex -0.282474322 0.566625116 0.820605412
    endloop
  endfacet
  facet normal -0.175625691 0.270512102 0.946561577
    outer loop
      vertex -0.667258825 -0.0404674254 0.92270953
      vertex -0.282474322 0.566625116 0.820605412
      vertex -0.669136142 0.475541345 0.774894189
    endloop
  endfacet
  facet normal -0.150886733 -0.803686949 0.575604449
    outer loop
      vertex -0.501247077 -0.734622106 0.483379365
      vertex -0.108269198 -0.777443136 0.526604266
      vertex -0.0505961051 -0.710170245 0.635652154
    endloop
  endfacet
  facet normal -0.150886733 -0.803686949 0.575604449
    outer loop
      vertex -0.501247077 -0.734622106 0.483379365
      vertex -0.0505961051 -0.710170245 0.635652154
      vertex -0.128009288 -0.60744706 0.75878647
    endloop
  endfacet
  facet normal -0.150886733 -0.803686949 0.575604449
    outer loop
      vertex -0.501247077 -0.734622106 0.483379365
      vertex -0.128009288 -0.60744706 0.75878647
      vertex -0.368801656 -0.483890793 0.868181361
    endloop
  endfacet
  facet normal -0.150886733 -0.803686949 0.575604449
    outer loop
      vertex -0.501247077 -0.734622106 0.483379365
      vertex -0.368801656 -0.483890793 0.868181361
      vertex -0.586926333 -0.467948941 0.833261787
    endloop
  endfacet
  facet normal -0.13803835 -0.933908159 0.329789274
    outer loop
      vertex -0.833883699 -0.850173731 0.0169263066
      vertex -0.711546468 -0.885577845 -0.0321261117
      vertex -0.277436786 -0.952953622 -0.0412198079
    endloop
  endfacet
  facet normal -0.13803835 -0.933908159 0.329789274
    outer loop
      vertex -0.833883699 -0.850173731 0.0169263066
      vertex -0.277436786 -0.952953622 -0.0412198079
      vertex -0.00633477645 -0.927964075 0.143020311
    endloop
  endfacet
  facet normal -0.13803835 -0.933908159 0.329789274
    outer loop
      vertex -0.833883699 -0.850173731 0.0169263066
      vertex -0.00633477645 -0.927964075 0.143020311
      vertex 0.0318565117 -0.901228743 0.234715858
    endloop
  endfacet
  facet normal -0.13803835 -0.933908159 0.329789274
    outer loop
      vertex -0.833883699 -0.850173731 0.0169263066
      vertex 0.0318565117 -0.901228743 0.234715858
      vertex -0.108269198 -0.777443136 0.526604266
    endloop
  endfacet
  facet normal -0.13803835 -0.933908159 0.329789274
    outer loop
      vertex -0.833883699 -0.850173731 0.0169263066
      vertex -0.108269198 -0.777443136 0.526604266
      vertex -0.501247077 -0.734622106 0.483379365
    endloop
  endfacet
  facet normal -0.170285995 -0.232372676 0.957604104
    outer loop
      vertex -0.648395194 -0.437114341 0.829813424
      vertex -0.586926333 -0.467948941 0.833261787
      vertex -0.368801656 -0.483890793 0.868181361
    endloop
  endfacet
  facet normal -0.170285995 -0.232372676 0.957604104
    outer loop
      vertex -0.648395194 -0.437114341 0.829813424
      vertex -0.368801656 -0.483890793 0.868181361
      vertex -0.200898551 -0.284456897 0.946433465
    endloop
  endfacet
  facet normal -0.170285995 -0.232372676 0.957604104
    outer loop
      vertex -0.648395194 -0.437114341 0.829813424
      vertex -0.200898551 -0.284456897 0.946433465
      vertex -0.241106217 -0.034245309 1
    endloop
  endfacet
  facet normal -0.170285995 -0.232372676 0.957604104
    outer loop
      vertex -0.648395194 -0.437114341 0.829813424
      vertex -0.241106217 -0.034245309 1
      vertex -0.667258825 -0.0404674254 0.92270953
    endloop
  endfacet
  facet normal -0.170285995 -0.232372676 0.957604104
    outer loop
      vertex -0.648395194 -0.437114341 0.829813424
      vertex -0.667258825 -0.0404674254 0.92270953
      vertex -0.679048827 -0.0491247584 0.91851218
    endloop
  endfacet
  facet normal -0.159981752 0.46319623 -0.871696674
    outer loop
      vertex 0.30371016 0.521683329 -0.861740126
      vertex 0.168402438 0.35943524 -0.923121497
      vertex -0.510081442 0.365647407 -0.795298947
    endloop
  endfacet
  facet normal -0.159981752 0.46319623 -0.871696674
    outer loop
      vertex 0.30371016 0.521683329 -0.861740126
      vertex -0.510081442 0.365647407 -0.795298947
      vertex -0.669465975 0.519447904 -0.68432178
    endloop
  endfacet
  facet normal -0.159981752 0.46319623 -0.871696674
    outer loop
      vertex 0.30371016 0.521683329 -0.861740126
      vertex -0.669465975 0.519447904 -0.68432178
      vertex -0.622360969 0.68687183 -0.604002339
    endloop
  endfacet
  facet normal -0.159981752 0.46319623 -0.871696674
    outer loop
      vertex 0.30371016 0.521683329 -0.861740126
      vertex -0.622360969 0.68687183 -0.604002339
      vertex -0.140305944 0.747005184 -0.660520237
    endloop
  endfacet
  facet normal -0.125898573 0.942410572 0.30985781
    outer loop
      vertex 0.0160836131 0.957359712 0.0450317566
      vertex -0.514254815 0.898576185 0.00833545995
      vertex -0.481842225 0.736553281 0.514286226
    endloop
  endfacet
  facet normal -0.125898573 0.942410572 0.30985781
    outer loop
      vertex 0.0160836131 0.957359712 0.0450317566
      vertex -0.481842225 0.736553281 0.514286226
      vertex -0.287150727 0.734424494 0.599866038
    endloop
  endfacet
  facet normal -0.125898573 0.942410572 0.30985781
    outer loop
      vertex 0.0160836131 0.957359712 0.0450317566
      vertex -0.287150727 0.734424494 0.599866038
      vertex -0.0361807488 0.831752021 0.405823074
    endloop
  endfacet
  facet normal -0.130223854 -0.793507877 -0.594463621
    outer loop
      vertex -0.281801307 -0.528676041 -0.808814101
      vertex -0.24502213 -0.5067728 -0.846108091
      vertex -0.234291216 -0.505712008 -0.849874794
    endloop
  endfacet
  facet normal -0.130223854 -0.793507877 -0.594463621
    outer loop
      vertex -0.281801307 -0.528676041 -0.808814101
      vertex -0.234291216 -0.505712008 -0.849874794
      vertex 0.579329211 -0.735531597 -0.721337297
    endloop
  endfacet
  facet normal -0.130223854 -0.793507877 -0.594463621
    outer loop
      vertex -0.281801307 -0.528676041 -0.808814101
      vertex 0.579329211 -0.735531597 -0.721337297
      vertex 0.249048859 -0.889172172 -0.443901671
    endloop
  endfacet
  facet normal -0.130223854 -0.793507877 -0.594463621
    outer loop
      vertex -0.281801307 -0.528676041 -0.808814101
      vertex 0.249048859 -0.889172172 -0.443901671
      vertex -0.320680172 -0.796944655 -0.44220426
    endloop
  endfacet
  facet normal -0.112563827 0.992987644 0.0361237387
    outer loop
      vertex -0.366562348 0.926185493 -0.290384246
      vertex -0.515892984 0.911860726 -0.361941374
      vertex -0.735626763 0.885949214 -0.334376793
    endloop
  endfacet
  facet normal -0.112563827 0.992987644 0.0361237387
    outer loop
      vertex -0.366562348 0.926185493 -0.290384246
      vertex -0.735626763 0.885949214 -0.334376793
      vertex -0.734048357 0.882965064 -0.247428541
    endloop
  endfacet
  facet normal -0.112563827 0.992987644 0.0361237387
    outer loop
      vertex -0.366562348 0.926185493 -0.290384246
      vertex -0.734048357 0.882965064 -0.247428541
      vertex -0.705958323 0.883723697 -0.180751925
    endloop
  endfacet
  facet normal -0.112563827 0.992987644 0.0361237387
    outer loop
      vertex -0.366562348 0.926185493 -0.290384246
      vertex -0.705958323 0.883723697 -0.180751925
      vertex -0.514254815 0.898576185 0.00833545995
    endloop
  endfacet
  facet normal -0.112563827 0.992987644 0.0361237387
    outer loop
      vertex -0.366562348 0.926185493 -0.290384246
      vertex -0.514254815 0.898576185 0.00833545995
      vertex 0.0160836131 0.957359712 0.0450317566
    endloop
  endfacet
  facet normal -0.112563827 0.992987644 0.0361237387
    outer loop
      vertex -0.366562348 0.926185493 -0.290384246
      vertex 0.0160836131 0.957359712 0.0450317566
      vertex 0.019830827 0.957891614 0.0420870983
    endloop
  endfacet
  facet normal 0.0069574516 -0.469249737 -0.883038095
    outer loop
      vertex 0.660607992 -0.682283416 -0.748993184
      vertex 0.67140266 -0.713222394 -0.732467045
      vertex 0.579329211 -0.735531597 -0.721337297
    endloop
  endfacet
  facet normal 0.0069574516 -0.469249737 -0.883038095
    outer loop
      vertex 0.660607992 -0.682283416 -0.748993184
      vertex 0.579329211 -0.735531597 -0.721337297
      vertex -0.234291216 -0.505712008 -0.849874794
    endloop
  endfacet
  facet normal 0.0069574516 -0.469249737 -0.883038095
    outer loop
      vertex 0.660607992 -0.682283416 -0.748993184
      vertex -0.234291216 -0.505712008 -0.849874794
      vertex 0.038713064 -0.237898441 -0.990040924
    endloop
  endfacet
  facet normal 0.0919064186 0.975508356 -0.199841581
    outer loop
      vertex 0.504944418 0.85307741 -0.246451851
      vertex -0.366562348 0.926185493 -0.290384246
      vertex 0.019830827 0.957891614 0.0420870983
    endloop
  endfacet
  facet normal 0.0919064186 0.975508356 -0.199841581
    outer loop
      vertex 0.504944418 0.85307741 -0.246451851
      vertex 0.019830827 0.957891614 0.0420870983
      vertex 0.70239821 0.880360966 -0.0224613882
    endloop
  endfacet
  facet normal 0.0964038853 0.917895902 -0.384932987
    outer loop
      vertex 0.406237723 0.754781414 -0.505565006
      vertex -0.140494355 0.747481733 -0.659896918
      vertex -0.515892984 0.911860726 -0.361941374
    endloop
  endfacet
  facet normal 0.0964038853 0.917895902 -0.384932987
    outer loop
      vertex 0.406237723 0.754781414 -0.505565006
      vertex -0.515892984 0.911860726 -0.361941374
      vertex -0.366562348 0.926185493 -0.290384246
    endloop
  endfacet
  facet normal 0.0964038853 0.917895902 -0.384932987
    outer loop
      vertex 0.406237723 0.754781414 -0.505565006
      vertex -0.366562348 0.926185493 -0.290384246
      vertex 0.504944418 0.85307741 -0.246451851
    endloop
  endfacet
  facet normal 0.0952536031 -0.995439744 -0.00514467551
    outer loop
      vertex 0.243184624 -0.901235338 -0.408856236
      vertex 0.661542241 -0.861977011 -0.25903694
      vertex 0.675956957 -0.860941654 -0.192479261
    endloop
  endfacet
  facet normal 0.0952536031 -0.995439744 -0.00514467551
    outer loop
      vertex 0.243184624 -0.901235338 -0.408856236
      vertex 0.675956957 -0.860941654 -0.192479261
      vertex -0.00633477645 -0.927964075 0.143020311
    endloop
  endfacet
  facet normal 0.0952536031 -0.995439744 -0.00514467551
    outer loop
      vertex 0.243184624 -0.901235338 -0.408856236
      vertex -0.00633477645 -0.927964075 0.143020311
      vertex -0.277436786 -0.952953622 -0.0412198079
    endloop
  endfacet
  facet normal 0.15353064 -0.470256266 0.869072717
    outer loop
      vertex -0.368801656 -0.483890793 0.868181361
      vertex -0.128009288 -0.60744706 0.75878647
      vertex 0.625070729 -0.509725404 0.678624438
    endloop
  endfacet
  facet normal 0.15353064 -0.470256266 0.869072717
    outer loop
      vertex -0.368801656 -0.483890793 0.868181361
      vertex 0.625070729 -0.509725404 0.678624438
      vertex 0.660945173 -0.41693684 0.722494848
    endloop
  endfacet
  facet normal 0.15353064 -0.470256266 0.869072717
    outer loop
      vertex -0.368801656 -0.483890793 0.868181361
      vertex 0.660945173 -0.41693684 0.722494848
      vertex 0.536163247 -0.300545824 0.807518175
    endloop
  endfacet
  facet normal 0.15353064 -0.470256266 0.869072717
    outer loop
      vertex -0.368801656 -0.483890793 0.868181361
      vertex 0.536163247 -0.300545824 0.807518175
      vertex -0.200898551 -0.284456897 0.946433465
    endloop
  endfacet
  facet normal 0.169017276 0.22231313 -0.960213535
    outer loop
      vertex 0.591499282 0.107066205 -0.907077435
      vertex 0.209395526 0.027843732 -0.99267749
      vertex 0.168402438 0.35943524 -0.923121497
    endloop
  endfacet
  facet normal 0.169017276 0.22231313 -0.960213535
    outer loop
      vertex 0.591499282 0.107066205 -0.907077435
      vertex 0.168402438 0.35943524 -0.923121497
      vertex 0.30371016 0.521683329 -0.861740126
    endloop
  endfacet
  facet normal 0.169017276 0.22231313 -0.960213535
    outer loop
      vertex 0.591499282 0.107066205 -0.907077435
      vertex 0.30371016 0.521683329 -0.861740126
      vertex 0.53555119 0.504519104 -0.824905292
    endloop
  endfacet
  facet normal 0.169017276 0.22231313 -0.960213535
    outer loop
      vertex 0.591499282 0.107066205 -0.907077435
      vertex 0.53555119 0.504519104 -0.824905292
      vertex 0.606601422 0.470647807 -0.820241035
    endloop
  endfacet
  facet normal 0.137996773 0.928990787 0.343413755
    outer loop
      vertex 0.869956481 0.831485177 0.0424243566
      vertex 0.70239821 0.880360966 -0.0224613882
      vertex 0.019830827 0.957891614 0.0420870983
    endloop
  endfacet
  facet normal 0.137996773 0.928990787 0.343413755
    outer loop
      vertex 0.869956481 0.831485177 0.0424243566
      vertex 0.019830827 0.957891614 0.0420870983
      vertex 0.0160836131 0.957359712 0.0450317566
    endloop
  endfacet
  facet normal 0.137996773 0.928990787 0.343413755
    outer loop
      vertex 0.869956481 0.831485177 0.0424243566
      vertex 0.0160836131 0.957359712 0.0450317566
      vertex -0.0361807488 0.831752021 0.405823074
    endloop
  endfacet
  facet normal 0.137996773 0.928990787 0.343413755
    outer loop
      vertex 0.869956481 0.831485177 0.0424243566
      vertex -0.0361807488 0.831752021 0.405823074
      vertex 0.602462727 0.766320131 0.326195757
    endloop
  endfacet
  facet normal 0.172479272 0.172479272 0.969794721
    outer loop
      vertex -0.140687598 0.0447661263 0.996051541
      vertex 0.489708996 0.0562400641 0.881894019
      vertex 0.477866986 0.292685994 0.841947915
    endloop
  endfacet
  facet normal 0.172479272 0.172479272 0.969794721
    outer loop
      vertex -0.140687598 0.0447661263 0.996051541
      vertex 0.477866986 0.292685994 0.841947915
      vertex -0.0584921323 0.32150521 0.932214557
    endloop
  endfacet
  facet normal 0.150504236 0.806800672 -0.571332785
    outer loop
      vertex 0.53555119 0.504519104 -0.824905292
      vertex 0.30371016 0.521683329 -0.861740126
      vertex -0.140305944 0.747005184 -0.660520237
    endloop
  endfacet
  facet normal 0.150504236 0.806800672 -0.571332785
    outer loop
      vertex 0.53555119 0.504519104 -0.824905292
      vertex -0.140305944 0.747005184 -0.660520237
      vertex -0.140494355 0.747481733 -0.659896918
    endloop
  endfacet
  facet normal 0.150504236 0.806800672 -0.571332785
    outer loop
      vertex 0.53555119 0.504519104 -0.824905292
      vertex -0.140494355 0.747481733 -0.659896918
      vertex 0.406237723 0.754781414 -0.505565006
    endloop
  endfacet
  facet normal 0.170867547 0.473279423 0.864182197
    outer loop
      vertex -0.0584921323 0.32150521 0.932214557
      vertex 0.477866986 0.292685994 0.841947915
      vertex 0.495760064 0.309597342 0.82914837
    endloop
  endfacet
  facet normal 0.170867547 0.473279423 0.864182197
    outer loop
      vertex -0.0584921323 0.32150521 0.932214557
      vertex 0.495760064 0.309597342 0.82914837
      vertex 0.463542093 0.478551149 0.742989045
    endloop
  endfacet
  facet normal 0.170867547 0.473279423 0.864182197
    outer loop
      vertex -0.0584921323 0.32150521 0.932214557
      vertex 0.463542093 0.478551149 0.742989045
      vertex -0.20248511 0.532241344 0.845272996
    endloop
  endfacet
  facet normal 0.178473742 -0.178473742 0.967622988
    outer loop
      vertex -0.200898551 -0.284456897 0.946433465
      vertex 0.536163247 -0.300545824 0.807518175
      vertex 0.543415491 0.00731956144 0.862964927
    endloop
  endfacet
  facet normal 0.178473742 -0.178473742 0.967622988
    outer loop
      vertex -0.200898551 -0.284456897 0.946433465
      vertex 0.543415491 0.00731956144 0.862964927
      vertex 0.489708996 0.0562400641 0.881894019
    endloop
  endfacet
  facet normal 0.178473742 -0.178473742 0.967622988
    outer loop
      vertex -0.200898551 -0.284456897 0.946433465
      vertex 0.489708996 0.0562400641 0.881894019
      vertex -0.140687598 0.0447661263 0.996051541
    endloop
  endfacet
  facet normal 0.178473742 -0.178473742 0.967622988
    outer loop
      vertex -0.200898551 -0.284456897 0.946433465
      vertex -0.140687598 0.0447661263 0.996051541
      vertex -0.241106217 -0.034245309 1
    endloop
  endfacet
  facet normal 0.155021249 0.788052671 0.595769587
    outer loop
      vertex 0.602462727 0.766320131 0.326195757
      vertex -0.0361807488 0.831752021 0.405823074
      vertex -0.287150727 0.734424494 0.599866038
    endloop
  endfacet
  facet normal 0.155021249 0.788052671 0.595769587
    outer loop
      vertex 0.602462727 0.766320131 0.326195757
      vertex -0.287150727 0.734424494 0.599866038
      vertex -0.282474322 0.566625116 0.820605412
    endloop
  endfacet
  facet normal 0.155021249 0.788052671 0.595769587
    outer loop
      vertex 0.602462727 0.766320131 0.326195757
      vertex -0.282474322 0.566625116 0.820605412
      vertex -0.20248511 0.532241344 0.845272996
    endloop
  endfacet
  facet normal 0.155021249 0.788052671 0.595769587
    outer loop
      vertex 0.602462727 0.766320131 0.326195757
      vertex -0.20248511 0.532241344 0.845272996
      vertex 0.463542093 0.478551149 0.742989045
    endloop
  endfacet
  facet normal 0.155021249 0.788052671 0.595769587
    outer loop
      vertex 0.602462727 0.766320131 0.326195757
      vertex 0.463542093 0.478551149 0.742989045
      vertex 0.543223772 0.521106481 0.665965649
    endloop
  endfacet
  facet normal 0.16488303 -0.703909354 0.690887261
    outer loop
      vertex -0.0505961051 -0.710170245 0.635652154
      vertex 0.681192611 -0.605269426 0.567885854
      vertex 0.625070729 -0.509725404 0.678624438
    endloop
  endfacet
  facet normal 0.16488303 -0.703909354 0.690887261
    outer loop
      vertex -0.0505961051 -0.710170245 0.635652154
      vertex 0.625070729 -0.509725404 0.678624438
      vertex -0.128009288 -0.60744706 0.75878647
    endloop
  endfacet
  facet normal 0.167452328 -0.876178829 0.451962806
    outer loop
      vertex 0.0318565117 -0.901228743 0.234715858
      vertex 0.751052526 -0.752429926 0.256716178
      vertex 0.843796517 -0.650782212 0.419409605
    endloop
  endfacet
  facet normal 0.167452328 -0.876178829 0.451962806
    outer loop
      vertex 0.0318565117 -0.901228743 0.234715858
      vertex 0.843796517 -0.650782212 0.419409605
      vertex 0.681192611 -0.605269426 0.567885854
    endloop
  endfacet
  facet normal 0.167452328 -0.876178829 0.451962806
    outer loop
      vertex 0.0318565117 -0.901228743 0.234715858
      vertex 0.681192611 -0.605269426 0.567885854
      vertex -0.0505961051 -0.710170245 0.635652154
    endloop
  endfacet
  facet normal 0.167452328 -0.876178829 0.451962806
    outer loop
      vertex 0.0318565117 -0.901228743 0.234715858
      vertex -0.0505961051 -0.710170245 0.635652154
      vertex -0.108269198 -0.777443136 0.526604266
    endloop
  endfacet
  facet normal 0.192010255 -0.937400568 -0.290537841
    outer loop
      vertex 0.579329211 -0.735531597 -0.721337297
      vertex 0.67140266 -0.713222394 -0.732467045
      vertex 0.769136733 -0.713214472 -0.667902245
    endloop
  endfacet
  facet normal 0.192010255 -0.937400568 -0.290537841
    outer loop
      vertex 0.579329211 -0.735531597 -0.721337297
      vertex 0.769136733 -0.713214472 -0.667902245
      vertex 0.661542241 -0.861977011 -0.25903694
    endloop
  endfacet
  facet normal 0.192010255 -0.937400568 -0.290537841
    outer loop
      vertex 0.579329211 -0.735531597 -0.721337297
      vertex 0.661542241 -0.861977011 -0.25903694
      vertex 0.243184624 -0.901235338 -0.408856236
    endloop
  endfacet
  facet normal 0.192010255 -0.937400568 -0.290537841
    outer loop
      vertex 0.579329211 -0.735531597 -0.721337297
      vertex 0.243184624 -0.901235338 -0.408856236
      vertex 0.249048859 -0.889172172 -0.443901671
    endloop
  endfacet
  facet normal 0.192650426 -0.960696978 0.19986778
    outer loop
      vertex 0.675956957 -0.860941654 -0.192479261
      vertex 0.717914331 -0.838362349 -0.124390428
      vertex 0.751052526 -0.752429926 0.256716178
    endloop
  endfacet
  facet normal 0.192650426 -0.960696978 0.19986778
    outer loop
      vertex 0.675956957 -0.860941654 -0.192479261
      vertex 0.751052526 -0.752429926 0.256716178
      vertex 0.0318565117 -0.901228743 0.234715858
    endloop
  endfacet
  facet normal 0.192650426 -0.960696978 0.19986778
    outer loop
      vertex 0.675956957 -0.860941654 -0.192479261
      vertex 0.0318565117 -0.901228743 0.234715858
      vertex -0.00633477645 -0.927964075 0.143020311
    endloop
  endfacet
  facet normal 0.24872982 -0.169217588 -0.95367651
    outer loop
      vertex 0.660607992 -0.682283416 -0.748993184
      vertex 0.038713064 -0.237898441 -0.990040924
      vertex 0.0380926738 -0.182682978 -1
    endloop
  endfacet
  facet normal 0.24872982 -0.169217588 -0.95367651
    outer loop
      vertex 0.660607992 -0.682283416 -0.748993184
      vertex 0.0380926738 -0.182682978 -1
      vertex 0.209395526 0.027843732 -0.99267749
    endloop
  endfacet
  facet normal 0.24872982 -0.169217588 -0.95367651
    outer loop
      vertex 0.660607992 -0.682283416 -0.748993184
      vertex 0.209395526 0.027843732 -0.99267749
      vertex 0.591499282 0.107066205 -0.907077435
    endloop
  endfacet
  facet normal 0.24872982 -0.169217588 -0.95367651
    outer loop
      vertex 0.660607992 -0.682283416 -0.748993184
      vertex 0.591499282 0.107066205 -0.907077435
      vertex 0.850809959 -0.0797592617 -0.806296455
    endloop
  endfacet
  facet normal 0.442431051 -0.169041605 0.880726803
    outer loop
      vertex 0.536163247 -0.300545824 0.807518175
      vertex 0.660945173 -0.41693684 0.722494848
      vertex 1.00034891 -0.292900867 0.575802922
    endloop
  endfacet
  facet normal 0.442431051 -0.169041605 0.880726803
    outer loop
      vertex 0.536163247 -0.300545824 0.807518175
      vertex 1.00034891 -0.292900867 0.575802922
      vertex 0.90143397 -0.0187375145 0.678113937
    endloop
  endfacet
  facet normal 0.442431051 -0.169041605 0.880726803
    outer loop
      vertex 0.536163247 -0.300545824 0.807518175
      vertex 0.90143397 -0.0187375145 0.678113937
      vertex 0.543415491 0.00731956144 0.862964927
    endloop
  endfacet
  facet normal 0.461833102 0.17019334 0.870485159
    outer loop
      vertex 0.489708996 0.0562400641 0.881894019
      vertex 0.543415491 0.00731956144 0.862964927
      vertex 0.90143397 -0.0187375145 0.678113937
    endloop
  endfacet
  facet normal 0.461833102 0.17019334 0.870485159
    outer loop
      vertex 0.489708996 0.0562400641 0.881894019
      vertex 0.90143397 -0.0187375145 0.678113937
      vertex 0.931158661 0.209845917 0.617651994
    endloop
  endfacet
  facet normal 0.461833102 0.17019334 0.870485159
    outer loop
      vertex 0.489708996 0.0562400641 0.881894019
      vertex 0.931158661 0.209845917 0.617651994
      vertex 0.495760064 0.309597342 0.82914837
    endloop
  endfacet
  facet normal 0.461833102 0.17019334 0.870485159
    outer loop
      vertex 0.489708996 0.0562400641 0.881894019
      vertex 0.495760064 0.309597342 0.82914837
      vertex 0.477866986 0.292685994 0.841947915
    endloop
  endfacet
  facet normal 0.469763635 0.186567685 -0.86285261
    outer loop
      vertex 1.04104378 -0.0372351905 -0.693532642
      vertex 0.850809959 -0.0797592617 -0.806296455
      vertex 0.591499282 0.107066205 -0.907077435
    endloop
  endfacet
  facet normal 0.469763635 0.186567685 -0.86285261
    outer loop
      vertex 1.04104378 -0.0372351905 -0.693532642
      vertex 0.591499282 0.107066205 -0.907077435
      vertex 0.606601422 0.470647807 -0.820241035
    endloop
  endfacet
  facet normal 0.469763635 0.186567685 -0.86285261
    outer loop
      vertex 1.04104378 -0.0372351905 -0.693532642
      vertex 0.606601422 0.470647807 -0.820241035
      vertex 0.731070151 0.442038587 -0.758662353
    endloop
  endfacet
  facet normal 0.407286796 0.791627143 -0.455460133
    outer loop
      vertex 0.740765306 0.445230031 -0.744445649
      vertex 0.731070151 0.442038587 -0.758662353
      vertex 0.606601422 0.470647807 -0.820241035
    endloop
  endfacet
  facet normal 0.407286796 0.791627143 -0.455460133
    outer loop
      vertex 0.740765306 0.445230031 -0.744445649
      vertex 0.606601422 0.470647807 -0.820241035
      vertex 0.53555119 0.504519104 -0.824905292
    endloop
  endfacet
  facet normal 0.407286796 0.791627143 -0.455460133
    outer loop
      vertex 0.740765306 0.445230031 -0.744445649
      vertex 0.53555119 0.504519104 -0.824905292
      vertex 0.406237723 0.754781414 -0.505565006
    endloop
  endfacet
  facet normal 0.407286796 0.791627143 -0.455460133
    outer loop
      vertex 0.740765306 0.445230031 -0.744445649
      vertex 0.406237723 0.754781414 -0.505565006
      vertex 0.504944418 0.85307741 -0.246451851
    endloop
  endfacet
  facet normal 0.407286796 0.791627143 -0.455460133
    outer loop
      vertex 0.740765306 0.445230031 -0.744445649
      vertex 0.504944418 0.85307741 -0.246451851
      vertex 0.70239821 0.880360966 -0.0224613882
    endloop
  endfacet
  facet normal 0.407286796 0.791627143 -0.455460133
    outer loop
      vertex 0.740765306 0.445230031 -0.744445649
      vertex 0.70239821 0.880360966 -0.0224613882
      vertex 0.869956481 0.831485177 0.0424243566
    endloop
  endfacet
  facet normal 0.407286796 0.791627143 -0.455460133
    outer loop
      vertex 0.740765306 0.445230031 -0.744445649
      vertex 0.869956481 0.831485177 0.0424243566
      vertex 0.874997634 0.828632163 0.0419735416
    endloop
  endfacet
  facet normal 0.470433015 0.470433015 0.746582585
    outer loop
      vertex 0.931158661 0.209845917 0.617651994
      vertex 0.971613556 0.260482039 0.560254162
      vertex 0.938721154 0.425038232 0.477290809
    endloop
  endfacet
  facet normal 0.470433015 0.470433015 0.746582585
    outer loop
      vertex 0.931158661 0.209845917 0.617651994
      vertex 0.938721154 0.425038232 0.477290809
      vertex 0.543223772 0.521106481 0.665965649
    endloop
  endfacet
  facet normal 0.470433015 0.470433015 0.746582585
    outer loop
      vertex 0.931158661 0.209845917 0.617651994
      vertex 0.543223772 0.521106481 0.665965649
      vertex 0.463542093 0.478551149 0.742989045
    endloop
  endfacet
  facet normal 0.470433015 0.470433015 0.746582585
    outer loop
      vertex 0.931158661 0.209845917 0.617651994
      vertex 0.463542093 0.478551149 0.742989045
      vertex 0.495760064 0.309597342 0.82914837
    endloop
  endfacet
  facet normal 0.441471863 0.68929297 0.574436938
    outer loop
      vertex 1.12806906 0.613310517 0.105854846
      vertex 0.874997634 0.828632163 0.0419735416
      vertex 0.869956481 0.831485177 0.0424243566
    endloop
  endfacet
  facet normal 0.441471863 0.68929297 0.574436938
    outer loop
      vertex 1.12806906 0.613310517 0.105854846
      vertex 0.869956481 0.831485177 0.0424243566
      vertex 0.602462727 0.766320131 0.326195757
    endloop
  endfacet
  facet normal 0.441471863 0.68929297 0.574436938
    outer loop
      vertex 1.12806906 0.613310517 0.105854846
      vertex 0.602462727 0.766320131 0.326195757
      vertex 0.543223772 0.521106481 0.665965649
    endloop
  endfacet
  facet normal 0.441471863 0.68929297 0.574436938
    outer loop
      vertex 1.12806906 0.613310517 0.105854846
      vertex 0.543223772 0.521106481 0.665965649
      vertex 0.938721154 0.425038232 0.477290809
    endloop
  endfacet
  facet normal 0.491868141 -0.520251032 0.698143678
    outer loop
      vertex 0.843796517 -0.650782212 0.419409605
      vertex 0.948961743 -0.56547613 0.408886202
      vertex 1.04163794 -0.322104529 0.52495093
    endloop
  endfacet
  facet normal 0.491868141 -0.520251032 0.698143678
    outer loop
      vertex 0.843796517 -0.650782212 0.419409605
      vertex 1.04163794 -0.322104529 0.52495093
      vertex 1.00034891 -0.292900867 0.575802922
    endloop
  endfacet
  facet normal 0.491868141 -0.520251032 0.698143678
    outer loop
      vertex 0.843796517 -0.650782212 0.419409605
      vertex 1.00034891 -0.292900867 0.575802922
      vertex 0.660945173 -0.41693684 0.722494848
    endloop
  endfacet
  facet normal 0.491868141 -0.520251032 0.698143678
    outer loop
      vertex 0.843796517 -0.650782212 0.419409605
      vertex 0.660945173 -0.41693684 0.722494848
      vertex 0.625070729 -0.509725404 0.678624438
    endloop
  endfacet
  facet normal 0.491868141 -0.520251032 0.698143678
    outer loop
      vertex 0.843796517 -0.650782212 0.419409605
      vertex 0.625070729 -0.509725404 0.678624438
      vertex 0.681192611 -0.605269426 0.567885854
    endloop
  endfacet
  facet normal 0.534332437 -0.245597516 -0.808808201
    outer loop
      vertex 0.769136733 -0.713214472 -0.667902245
      vertex 0.67140266 -0.713222394 -0.732467045
      vertex 0.660607992 -0.682283416 -0.748993184
    endloop
  endfacet
  facet normal 0.534332437 -0.245597516 -0.808808201
    outer loop
      vertex 0.769136733 -0.713214472 -0.667902245
      vertex 0.660607992 -0.682283416 -0.748993184
      vertex 0.850809959 -0.0797592617 -0.806296455
    endloop
  endfacet
  facet normal 0.534332437 -0.245597516 -0.808808201
    outer loop
      vertex 0.769136733 -0.713214472 -0.667902245
      vertex 0.850809959 -0.0797592617 -0.806296455
      vertex 1.04104378 -0.0372351905 -0.693532642
    endloop
  endfacet
  facet normal 0.534332437 -0.245597516 -0.808808201
    outer loop
      vertex 0.769136733 -0.713214472 -0.667902245
      vertex 1.04104378 -0.0372351905 -0.693532642
      vertex 1.32928542 -0.210506418 -0.45049376
    endloop
  endfacet
  facet normal 0.534332437 -0.245597516 -0.808808201
    outer loop
      vertex 0.769136733 -0.713214472 -0.667902245
      vertex 1.32928542 -0.210506418 -0.45049376
      vertex 1.18106484 -0.415749395 -0.486091695
    endloop
  endfacet
  facet normal 0.647177062 0.635891305 -0.420480794
    outer loop
      vertex 0.740765306 0.445230031 -0.744445649
      vertex 0.874997634 0.828632163 0.0419735416
      vertex 1.12806906 0.613310517 0.105854846
    endloop
  endfacet
  facet normal 0.647177062 0.635891305 -0.420480794
    outer loop
      vertex 0.740765306 0.445230031 -0.744445649
      vertex 1.12806906 0.613310517 0.105854846
      vertex 1.31217143 0.388688537 0.0495185327
    endloop
  endfacet
  facet normal 0.647177062 0.635891305 -0.420480794
    outer loop
      vertex 0.740765306 0.445230031 -0.744445649
      vertex 1.31217143 0.388688537 0.0495185327
      vertex 1.37034042 0.226054159 -0.106902762
    endloop
  endfacet
  facet normal 0.615737827 -0.77856746 -0.121242064
    outer loop
      vertex 0.769136733 -0.713214472 -0.667902245
      vertex 1.18106484 -0.415749395 -0.486091695
      vertex 1.06083981 -0.56099783 -0.163937753
    endloop
  endfacet
  facet normal 0.615737827 -0.77856746 -0.121242064
    outer loop
      vertex 0.769136733 -0.713214472 -0.667902245
      vertex 1.06083981 -0.56099783 -0.163937753
      vertex 0.717914331 -0.838362349 -0.124390428
    endloop
  endfacet
  facet normal 0.615737827 -0.77856746 -0.121242064
    outer loop
      vertex 0.769136733 -0.713214472 -0.667902245
      vertex 0.717914331 -0.838362349 -0.124390428
      vertex 0.675956957 -0.860941654 -0.192479261
    endloop
  endfacet
  facet normal 0.615737827 -0.77856746 -0.121242064
    outer loop
      vertex 0.769136733 -0.713214472 -0.667902245
      vertex 0.675956957 -0.860941654 -0.192479261
      vertex 0.661542241 -0.861977011 -0.25903694
    endloop
  endfacet
  facet normal 0.698348414 0.428600101 0.57324641
    outer loop
      vertex 1.25773382 0.29600661 0.185131941
      vertex 1.31217143 0.388688537 0.0495185327
      vertex 1.12806906 0.613310517 0.105854846
    endloop
  endfacet
  facet normal 0.698348414 0.428600101 0.57324641
    outer loop
      vertex 1.25773382 0.29600661 0.185131941
      vertex 1.12806906 0.613310517 0.105854846
      vertex 0.938721154 0.425038232 0.477290809
    endloop
  endfacet
  facet normal 0.698348414 0.428600101 0.57324641
    outer loop
      vertex 1.25773382 0.29600661 0.185131941
      vertex 0.938721154 0.425038232 0.477290809
      vertex 0.971613556 0.260482039 0.560254162
    endloop
  endfacet
  facet normal 0.632666765 -0.765445816 0.117581743
    outer loop
      vertex 0.717914331 -0.838362349 -0.124390428
      vertex 1.06083981 -0.56099783 -0.163937753
      vertex 1.10174652 -0.490507465 0.0748428373
    endloop
  endfacet
  facet normal 0.632666765 -0.765445816 0.117581743
    outer loop
      vertex 0.717914331 -0.838362349 -0.124390428
      vertex 1.10174652 -0.490507465 0.0748428373
      vertex 0.948961743 -0.56547613 0.408886202
    endloop
  endfacet
  facet normal 0.632666765 -0.765445816 0.117581743
    outer loop
      vertex 0.717914331 -0.838362349 -0.124390428
      vertex 0.948961743 -0.56547613 0.408886202
      vertex 0.843796517 -0.650782212 0.419409605
    endloop
  endfacet
  facet normal 0.632666765 -0.765445816 0.117581743
    outer loop
      vertex 0.717914331 -0.838362349 -0.124390428
      vertex 0.843796517 -0.650782212 0.419409605
      vertex 0.751052526 -0.752429926 0.256716178
    endloop
  endfacet
  facet normal 0.719190003 0.386695421 -0.577262844
    outer loop
      vertex 1.04104378 -0.0372351905 -0.693532642
      vertex 0.731070151 0.442038587 -0.758662353
      vertex 0.740765306 0.445230031 -0.744445649
    endloop
  endfacet
  facet normal 0.719190003 0.386695421 -0.577262844
    outer loop
      vertex 1.04104378 -0.0372351905 -0.693532642
      vertex 0.740765306 0.445230031 -0.744445649
      vertex 1.37034042 0.226054159 -0.106902762
    endloop
  endfacet
  facet normal 0.719190003 0.386695421 -0.577262844
    outer loop
      vertex 1.04104378 -0.0372351905 -0.693532642
      vertex 1.37034042 0.226054159 -0.106902762
      vertex 1.41966314 -0.0743463921 -0.246685022
    endloop
  endfacet
  facet normal 0.719190003 0.386695421 -0.577262844
    outer loop
      vertex 1.04104378 -0.0372351905 -0.693532642
      vertex 1.41966314 -0.0743463921 -0.246685022
      vertex 1.32928542 -0.210506418 -0.45049376
    endloop
  endfacet
  facet normal 0.791099879 0.0581882379 0.608913057
    outer loop
      vertex 1.20762188 -0.158902314 0.293708847
      vertex 1.25773382 0.29600661 0.185131941
      vertex 0.971613556 0.260482039 0.560254162
    endloop
  endfacet
  facet normal 0.791099879 0.0581882379 0.608913057
    outer loop
      vertex 1.20762188 -0.158902314 0.293708847
      vertex 0.971613556 0.260482039 0.560254162
      vertex 0.931158661 0.209845917 0.617651994
    endloop
  endfacet
  facet normal 0.791099879 0.0581882379 0.608913057
    outer loop
      vertex 1.20762188 -0.158902314 0.293708847
      vertex 0.931158661 0.209845917 0.617651994
      vertex 0.90143397 -0.0187375145 0.678113937
    endloop
  endfacet
  facet normal 0.791099879 0.0581882379 0.608913057
    outer loop
      vertex 1.20762188 -0.158902314 0.293708847
      vertex 0.90143397 -0.0187375145 0.678113937
      vertex 1.00034891 -0.292900867 0.575802922
    endloop
  endfacet
  facet normal 0.791099879 0.0581882379 0.608913057
    outer loop
      vertex 1.20762188 -0.158902314 0.293708847
      vertex 1.00034891 -0.292900867 0.575802922
      vertex 1.04163794 -0.322104529 0.52495093
    endloop
  endfacet
  facet normal 0.807240859 -0.589145792 0.0356290808
    outer loop
      vertex 1.18106484 -0.415749395 -0.486091695
      vertex 1.32928542 -0.210506418 -0.45049376
      vertex 1.41966314 -0.0743463921 -0.246685022
    endloop
  endfacet
  facet normal 0.807240859 -0.589145792 0.0356290808
    outer loop
      vertex 1.18106484 -0.415749395 -0.486091695
      vertex 1.41966314 -0.0743463921 -0.246685022
      vertex 1.38934467 -0.111281702 -0.170510521
    endloop
  endfacet
  facet normal 0.807240859 -0.589145792 0.0356290808
    outer loop
      vertex 1.18106484 -0.415749395 -0.486091695
      vertex 1.38934467 -0.111281702 -0.170510521
      vertex 1.10174652 -0.490507465 0.0748428373
    endloop
  endfacet
  facet normal 0.807240859 -0.589145792 0.0356290808
    outer loop
      vertex 1.18106484 -0.415749395 -0.486091695
      vertex 1.10174652 -0.490507465 0.0748428373
      vertex 1.06083981 -0.56099783 -0.163937753
    endloop
  endfacet
  facet normal 0.843477032 -0.456339233 0.283374313
    outer loop
      vertex 1.10174652 -0.490507465 0.0748428373
      vertex 1.38934467 -0.111281702 -0.170510521
      vertex 1.20762188 -0.158902314 0.293708847
    endloop
  endfacet
  facet normal 0.843477032 -0.456339233 0.283374313
    outer loop
      vertex 1.10174652 -0.490507465 0.0748428373
      vertex 1.20762188 -0.158902314 0.293708847
      vertex 1.04163794 -0.322104529 0.52495093
    endloop
  endfacet
  facet normal 0.843477032 -0.456339233 0.283374313
    outer loop
      vertex 1.10174652 -0.490507465 0.0748428373
      vertex 1.04163794 -0.322104529 0.52495093
      vertex 0.948961743 -0.56547613 0.408886202
    endloop
  endfacet
  facet normal 0.931630253 -0.0159729942 0.36305638
    outer loop
      vertex 1.38934467 -0.111281702 -0.170510521
      vertex 1.41966314 -0.0743463921 -0.246685022
      vertex 1.37034042 0.226054159 -0.106902762
    endloop
  endfacet
  facet normal 0.931630253 -0.0159729942 0.36305638
    outer loop
      vertex 1.38934467 -0.111281702 -0.170510521
      vertex 1.37034042 0.226054159 -0.106902762
      vertex 1.31217143 0.388688537 0.0495185327
    endloop
  endfacet
  facet normal 0.931630253 -0.0159729942 0.36305638
    outer loop
      vertex 1.38934467 -0.111281702 -0.170510521
      vertex 1.31217143 0.388688537 0.0495185327
      vertex 1.25773382 0.29600661 0.185131941
    endloop
  endfacet
  facet normal 0.931630253 -0.0159729942 0.36305638
    outer loop
      vertex 1.38934467 -0.111281702 -0.170510521
      vertex 1.25773382 0.29600661 0.185131941
      vertex 1.20762188 -0.158902314 0.293708847
    endloop
  endfacet
endsolid bhs_submission_model04
