solid bhs_submission_model07
  facet normal -0.944328007 -0.122295229 0.30543165
    outer loop
      vertex -1.17294199 -0.173895617 -0.0313947709
      vertex -1.18183464 -0.235142288 -0.083412142
      vertex -1.14744363 -0.324474126 -0.0128512383
    endloop
  endfacet
  facet normal -0.944328007 -0.122295229 0.30543165
    outer loop
      vertex -1.17294199 -0.173895617 -0.0313947709
      vertex -1.14744363 -0.324474126 -0.0128512383
      vertex -0.951883396 -0.141921589 0.664872594
    endloop
  endfacet
  facet normal -0.944328007 -0.122295229 0.30543165
    outer loop
      vertex -1.17294199 -0.173895617 -0.0313947709
      vertex -0.951883396 -0.141921589 0.664872594
      vertex -0.936821517 -0.0143888254 0.76250492
    endloop
  endfacet
  facet normal -0.944328007 -0.122295229 0.30543165
    outer loop
      vertex -1.17294199 -0.173895617 -0.0313947709
      vertex -0.936821517 -0.0143888254 0.76250492
      vertex -1.03611472 0.163066482 0.526565328
    endloop
  endfacet
  facet normal -0.893116412 0.359409541 -0.270495575
    outer loop
      vertex -0.936495757 0.0999606394 -0.448212895
      vertex -0.993392624 -0.0844990001 -0.505444992
      vertex -1.01582029 -0.114508567 -0.471267748
    endloop
  endfacet
  facet normal -0.893116412 0.359409541 -0.270495575
    outer loop
      vertex -0.936495757 0.0999606394 -0.448212895
      vertex -1.01582029 -0.114508567 -0.471267748
      vertex -1.18183464 -0.235142288 -0.083412142
    endloop
  endfacet
  facet normal -0.893116412 0.359409541 -0.270495575
    outer loop
      vertex -0.936495757 0.0999606394 -0.448212895
      vertex -1.18183464 -0.235142288 -0.083412142
      vertex -1.17294199 -0.173895617 -0.0313947709
    endloop
  endfacet
  facet normal -0.893116412 0.359409541 -0.270495575
    outer loop
      vertex -0.936495757 0.0999606394 -0.448212895
      vertex -1.17294199 -0.173895617 -0.0313947709
      vertex -0.996501391 0.0947297397 -0.257037934
    endloop
  endfacet
  facet normal -0.864587505 0.494916527 -0.0868681641
    outer loop
      vertex -0.607866635 0.822554981 0.0215910297
      vertex -0.996501391 0.0947297397 -0.257037934
      vertex -1.17294199 -0.173895617 -0.0313947709
    endloop
  endfacet
  facet normal -0.864587505 0.494916527 -0.0868681641
    outer loop
      vertex -0.607866635 0.822554981 0.0215910297
      vertex -1.17294199 -0.173895617 -0.0313947709
      vertex -1.03611472 0.163066482 0.526565328
    endloop
  endfacet
  facet normal -0.864587505 0.494916527 -0.0868681641
    outer loop
      vertex -0.607866635 0.822554981 0.0215910297
      vertex -1.03611472 0.163066482 0.526565328
      vertex -0.857771634 0.446747994 0.367766769
    endloop
  endfacet
  facet normal -0.867454539 -0.357035833 0.346479491
    outer loop
      vertex -1.14744363 -0.324474126 -0.0128512383
      vertex -1.12040562 -0.369114422 0.00884141169
      vertex -0.836184726 -0.742611435 0.335547292
    endloop
  endfacet
  facet normal -0.867454539 -0.357035833 0.346479491
    outer loop
      vertex -1.14744363 -0.324474126 -0.0128512383
      vertex -0.836184726 -0.742611435 0.335547292
      vertex -0.818544793 -0.757508719 0.364359894
    endloop
  endfacet
  facet normal -0.867454539 -0.357035833 0.346479491
    outer loop
      vertex -1.14744363 -0.324474126 -0.0128512383
      vertex -0.818544793 -0.757508719 0.364359894
      vertex -0.811647781 -0.745624788 0.393873427
    endloop
  endfacet
  facet normal -0.867454539 -0.357035833 0.346479491
    outer loop
      vertex -1.14744363 -0.324474126 -0.0128512383
      vertex -0.811647781 -0.745624788 0.393873427
      vertex -0.800749065 -0.673516741 0.495464712
    endloop
  endfacet
  facet normal -0.867454539 -0.357035833 0.346479491
    outer loop
      vertex -1.14744363 -0.324474126 -0.0128512383
      vertex -0.800749065 -0.673516741 0.495464712
      vertex -0.951883396 -0.141921589 0.664872594
    endloop
  endfacet
  facet normal -0.814659866 0.527367126 -0.241274154
    outer loop
      vertex -0.490392937 0.646442025 -0.759998241
      vertex -0.936495757 0.0999606394 -0.448212895
      vertex -0.996501391 0.0947297397 -0.257037934
    endloop
  endfacet
  facet normal -0.814659866 0.527367126 -0.241274154
    outer loop
      vertex -0.490392937 0.646442025 -0.759998241
      vertex -0.996501391 0.0947297397 -0.257037934
      vertex -0.607866635 0.822554981 0.0215910297
    endloop
  endfacet
  facet normal -0.814659866 0.527367126 -0.241274154
    outer loop
      vertex -0.490392937 0.646442025 -0.759998241
      vertex -0.607866635 0.822554981 0.0215910297
      vertex -0.501447164 0.944059164 -0.0721544456
    endloop
  endfacet
  facet normal -0.814659866 0.527367126 -0.241274154
    outer loop
      vertex -0.490392937 0.646442025 -0.759998241
      vertex -0.501447164 0.944059164 -0.0721544456
      vertex -0.483151525 0.896467974 -0.23795236
    endloop
  endfacet
  facet normal -0.79809328 0.388951967 -0.460177666
    outer loop
      vertex -0.490392937 0.646442025 -0.759998241
      vertex -0.47315287 0.617948182 -0.813981561
      vertex -0.606711528 0.371411612 -0.790726665
    endloop
  endfacet
  facet normal -0.79809328 0.388951967 -0.460177666
    outer loop
      vertex -0.490392937 0.646442025 -0.759998241
      vertex -0.606711528 0.371411612 -0.790726665
      vertex -0.913032529 -0.0352807802 -0.603214465
    endloop
  endfacet
  facet normal -0.79809328 0.388951967 -0.460177666
    outer loop
      vertex -0.490392937 0.646442025 -0.759998241
      vertex -0.913032529 -0.0352807802 -0.603214465
      vertex -0.993392624 -0.0844990001 -0.505444992
    endloop
  endfacet
  facet normal -0.79809328 0.388951967 -0.460177666
    outer loop
      vertex -0.490392937 0.646442025 -0.759998241
      vertex -0.993392624 -0.0844990001 -0.505444992
      vertex -0.936495757 0.0999606394 -0.448212895
    endloop
  endfacet
  facet normal -0.684024809 -0.390765256 0.615964752
    outer loop
      vertex -0.951883396 -0.141921589 0.664872594
      vertex -0.800749065 -0.673516741 0.495464712
      vertex -0.763600757 -0.62996068 0.564349433
    endloop
  endfacet
  facet normal -0.684024809 -0.390765256 0.615964752
    outer loop
      vertex -0.951883396 -0.141921589 0.664872594
      vertex -0.763600757 -0.62996068 0.564349433
      vertex -0.769548388 -0.161267947 0.85508118
    endloop
  endfacet
  facet normal -0.684024809 -0.390765256 0.615964752
    outer loop
      vertex -0.951883396 -0.141921589 0.664872594
      vertex -0.769548388 -0.161267947 0.85508118
      vertex -0.80725637 -0.0915823346 0.857414952
    endloop
  endfacet
  facet normal -0.684024809 -0.390765256 0.615964752
    outer loop
      vertex -0.951883396 -0.141921589 0.664872594
      vertex -0.80725637 -0.0915823346 0.857414952
      vertex -0.85155798 -0.0390199334 0.841563654
    endloop
  endfacet
  facet normal -0.684024809 -0.390765256 0.615964752
    outer loop
      vertex -0.951883396 -0.141921589 0.664872594
      vertex -0.85155798 -0.0390199334 0.841563654
      vertex -0.936821517 -0.0143888254 0.76250492
    endloop
  endfacet
  facet normal -0.639376606 -0.612883422 -0.464296744
    outer loop
      vertex -1.01582029 -0.114508567 -0.471267748
      vertex -0.553656866 -0.330898874 -0.822065924
      vertex -0.471343228 -0.39379885 -0.852389337
    endloop
  endfacet
  facet normal -0.639376606 -0.612883422 -0.464296744
    outer loop
      vertex -1.01582029 -0.114508567 -0.471267748
      vertex -0.471343228 -0.39379885 -0.852389337
      vertex -0.615378434 -0.509540429 -0.501258647
    endloop
  endfacet
  facet normal -0.639376606 -0.612883422 -0.464296744
    outer loop
      vertex -1.01582029 -0.114508567 -0.471267748
      vertex -0.615378434 -0.509540429 -0.501258647
      vertex -1.12040562 -0.369114422 0.00884141169
    endloop
  endfacet
  facet normal -0.639376606 -0.612883422 -0.464296744
    outer loop
      vertex -1.01582029 -0.114508567 -0.471267748
      vertex -1.12040562 -0.369114422 0.00884141169
      vertex -1.14744363 -0.324474126 -0.0128512383
    endloop
  endfacet
  facet normal -0.639376606 -0.612883422 -0.464296744
    outer loop
      vertex -1.01582029 -0.114508567 -0.471267748
      vertex -1.14744363 -0.324474126 -0.0128512383
      vertex -1.18183464 -0.235142288 -0.083412142
    endloop
  endfacet
  facet normal -0.666530667 0.167058339 -0.726517984
    outer loop
      vertex -0.606711528 0.371411612 -0.790726665
      vertex -0.65707454 0.00559025687 -0.828640407
      vertex -0.708744433 -0.0477446691 -0.793500845
    endloop
  endfacet
  facet normal -0.666530667 0.167058339 -0.726517984
    outer loop
      vertex -0.606711528 0.371411612 -0.790726665
      vertex -0.708744433 -0.0477446691 -0.793500845
      vertex -0.913032529 -0.0352807802 -0.603214465
    endloop
  endfacet
  facet normal -0.661271207 -0.292501545 -0.690770032
    outer loop
      vertex -0.708744433 -0.0477446691 -0.793500845
      vertex -0.553656866 -0.330898874 -0.822065924
      vertex -1.01582029 -0.114508567 -0.471267748
    endloop
  endfacet
  facet normal -0.661271207 -0.292501545 -0.690770032
    outer loop
      vertex -0.708744433 -0.0477446691 -0.793500845
      vertex -1.01582029 -0.114508567 -0.471267748
      vertex -0.993392624 -0.0844990001 -0.505444992
    endloop
  endfacet
  facet normal -0.661271207 -0.292501545 -0.690770032
    outer loop
      vertex -0.708744433 -0.0477446691 -0.793500845
      vertex -0.993392624 -0.0844990001 -0.505444992
      vertex -0.913032529 -0.0352807802 -0.603214465
    endloop
  endfacet
  facet normal -0.56658334 -0.742928697 -0.356427089
    outer loop
      vertex -0.615378434 -0.509540429 -0.501258647
      vertex -0.574363428 -0.704516102 -0.160053931
      vertex -0.836184726 -0.742611435 0.335547292
    endloop
  endfacet
  facet normal -0.56658334 -0.742928697 -0.356427089
    outer loop
      vertex -0.615378434 -0.509540429 -0.501258647
      vertex -0.836184726 -0.742611435 0.335547292
      vertex -1.12040562 -0.369114422 0.00884141169
    endloop
  endfacet
  facet normal -0.422172657 0.630183927 0.651642897
    outer loop
      vertex -0.857771634 0.446747994 0.367766769
      vertex -1.03611472 0.163066482 0.526565328
      vertex -0.936821517 -0.0143888254 0.76250492
    endloop
  endfacet
  facet normal -0.422172657 0.630183927 0.651642897
    outer loop
      vertex -0.857771634 0.446747994 0.367766769
      vertex -0.936821517 -0.0143888254 0.76250492
      vertex -0.85155798 -0.0390199334 0.841563654
    endloop
  endfacet
  facet normal -0.422172657 0.630183927 0.651642897
    outer loop
      vertex -0.857771634 0.446747994 0.367766769
      vertex -0.85155798 -0.0390199334 0.841563654
      vertex -0.662653139 0.0727316202 0.855875827
    endloop
  endfacet
  facet normal -0.422172657 0.630183927 0.651642897
    outer loop
      vertex -0.857771634 0.446747994 0.367766769
      vertex -0.662653139 0.0727316202 0.855875827
      vertex -0.166216532 0.546847815 0.718993426
    endloop
  endfacet
  facet normal -0.4307989 -0.4796452 0.764429715
    outer loop
      vertex -0.763600757 -0.62996068 0.564349433
      vertex -0.561945236 -0.543922501 0.731978678
      vertex -0.453522344 -0.407275117 0.878821118
    endloop
  endfacet
  facet normal -0.4307989 -0.4796452 0.764429715
    outer loop
      vertex -0.763600757 -0.62996068 0.564349433
      vertex -0.453522344 -0.407275117 0.878821118
      vertex -0.462805545 -0.377411917 0.892327327
    endloop
  endfacet
  facet normal -0.4307989 -0.4796452 0.764429715
    outer loop
      vertex -0.763600757 -0.62996068 0.564349433
      vertex -0.462805545 -0.377411917 0.892327327
      vertex -0.769548388 -0.161267947 0.85508118
    endloop
  endfacet
  facet normal -0.442617647 -0.153297991 -0.883509674
    outer loop
      vertex -0.332405748 -0.423874931 -0.916775251
      vertex -0.471343228 -0.39379885 -0.852389337
      vertex -0.553656866 -0.330898874 -0.822065924
    endloop
  endfacet
  facet normal -0.442617647 -0.153297991 -0.883509674
    outer loop
      vertex -0.332405748 -0.423874931 -0.916775251
      vertex -0.553656866 -0.330898874 -0.822065924
      vertex -0.708744433 -0.0477446691 -0.793500845
    endloop
  endfacet
  facet normal -0.442617647 -0.153297991 -0.883509674
    outer loop
      vertex -0.332405748 -0.423874931 -0.916775251
      vertex -0.708744433 -0.0477446691 -0.793500845
      vertex -0.65707454 0.00559025687 -0.828640407
    endloop
  endfacet
  facet normal -0.442617647 -0.153297991 -0.883509674
    outer loop
      vertex -0.332405748 -0.423874931 -0.916775251
      vertex -0.65707454 0.00559025687 -0.828640407
      vertex -0.385087282 -0.00312661707 -0.963387184
    endloop
  endfacet
  facet normal -0.442617647 -0.153297991 -0.883509674
    outer loop
      vertex -0.332405748 -0.423874931 -0.916775251
      vertex -0.385087282 -0.00312661707 -0.963387184
      vertex -0.364990037 -0.0254424281 -0.969583411
    endloop
  endfacet
  facet normal -0.434863748 0.151858976 -0.887599218
    outer loop
      vertex -0.385087282 -0.00312661707 -0.963387184
      vertex -0.65707454 0.00559025687 -0.828640407
      vertex -0.606711528 0.371411612 -0.790726665
    endloop
  endfacet
  facet normal -0.434863748 0.151858976 -0.887599218
    outer loop
      vertex -0.385087282 -0.00312661707 -0.963387184
      vertex -0.606711528 0.371411612 -0.790726665
      vertex -0.47315287 0.617948182 -0.813981561
    endloop
  endfacet
  facet normal -0.434863748 0.151858976 -0.887599218
    outer loop
      vertex -0.385087282 -0.00312661707 -0.963387184
      vertex -0.47315287 0.617948182 -0.813981561
      vertex -0.347502107 0.565595816 -0.884498904
    endloop
  endfacet
  facet normal -0.382331778 0.750626625 0.538871118
    outer loop
      vertex -0.501447164 0.944059164 -0.0721544456
      vertex -0.607866635 0.822554981 0.0215910297
      vertex -0.857771634 0.446747994 0.367766769
    endloop
  endfacet
  facet normal -0.382331778 0.750626625 0.538871118
    outer loop
      vertex -0.501447164 0.944059164 -0.0721544456
      vertex -0.857771634 0.446747994 0.367766769
      vertex -0.166216532 0.546847815 0.718993426
    endloop
  endfacet
  facet normal -0.382331778 0.750626625 0.538871118
    outer loop
      vertex -0.501447164 0.944059164 -0.0721544456
      vertex -0.166216532 0.546847815 0.718993426
      vertex -0.0924468506 0.589402796 0.712055945
    endloop
  endfacet
  facet normal -0.382331778 0.750626625 0.538871118
    outer loop
      vertex -0.501447164 0.944059164 -0.0721544456
      vertex -0.0924468506 0.589402796 0.712055945
      vertex 0.306933105 0.983599925 0.446316685
    endloop
  endfacet
  facet normal -0.375404965 -0.823458723 -0.425425485
    outer loop
      vertex -0.471343228 -0.39379885 -0.852389337
      vertex -0.332405748 -0.423874931 -0.916775251
      vertex -0.237262529 -0.463285162 -0.924448836
    endloop
  endfacet
  facet normal -0.375404965 -0.823458723 -0.425425485
    outer loop
      vertex -0.471343228 -0.39379885 -0.852389337
      vertex -0.237262529 -0.463285162 -0.924448836
      vertex -0.320624361 -0.78131933 -0.235297702
    endloop
  endfacet
  facet normal -0.375404965 -0.823458723 -0.425425485
    outer loop
      vertex -0.471343228 -0.39379885 -0.852389337
      vertex -0.320624361 -0.78131933 -0.235297702
      vertex -0.574363428 -0.704516102 -0.160053931
    endloop
  endfacet
  facet normal -0.375404965 -0.823458723 -0.425425485
    outer loop
      vertex -0.471343228 -0.39379885 -0.852389337
      vertex -0.574363428 -0.704516102 -0.160053931
      vertex -0.615378434 -0.509540429 -0.501258647
    endloop
  endfacet
  facet normal -0.348306707 -0.902486472 -0.253378383
    outer loop
      vertex -0.574363428 -0.704516102 -0.160053931
      vertex -0.320624361 -0.78131933 -0.235297702
      vertex -0.320357465 -0.781513745 -0.23497212
    endloop
  endfacet
  facet normal -0.348306707 -0.902486472 -0.253378383
    outer loop
      vertex -0.574363428 -0.704516102 -0.160053931
      vertex -0.320357465 -0.781513745 -0.23497212
      vertex -0.364670883 -0.889237178 0.209634088
    endloop
  endfacet
  facet normal -0.348306707 -0.902486472 -0.253378383
    outer loop
      vertex -0.574363428 -0.704516102 -0.160053931
      vertex -0.364670883 -0.889237178 0.209634088
      vertex -0.818544793 -0.757508719 0.364359894
    endloop
  endfacet
  facet normal -0.348306707 -0.902486472 -0.253378383
    outer loop
      vertex -0.574363428 -0.704516102 -0.160053931
      vertex -0.818544793 -0.757508719 0.364359894
      vertex -0.836184726 -0.742611435 0.335547292
    endloop
  endfacet
  facet normal -0.22548127 -0.154227597 0.961962601
    outer loop
      vertex -0.462805545 -0.377411917 0.892327327
      vertex -0.101960169 -0.293286427 0.990395948
      vertex -0.100783658 -0.235103213 1
    endloop
  endfacet
  facet normal -0.22548127 -0.154227597 0.961962601
    outer loop
      vertex -0.462805545 -0.377411917 0.892327327
      vertex -0.100783658 -0.235103213 1
      vertex -0.80725637 -0.0915823346 0.857414952
    endloop
  endfacet
  facet normal -0.22548127 -0.154227597 0.961962601
    outer loop
      vertex -0.462805545 -0.377411917 0.892327327
      vertex -0.80725637 -0.0915823346 0.857414952
      vertex -0.769548388 -0.161267947 0.85508118
    endloop
  endfacet
  facet normal -0.16411435 0.66030452 0.732846793
    outer loop
      vertex 0.463872609 0.868944362 0.584768013
      vertex 0.43064542 0.973535799 0.483088838
      vertex 0.411791791 0.978122429 0.474734127
    endloop
  endfacet
  facet normal -0.16411435 0.66030452 0.732846793
    outer loop
      vertex 0.463872609 0.868944362 0.584768013
      vertex 0.411791791 0.978122429 0.474734127
      vertex 0.306933105 0.983599925 0.446316685
    endloop
  endfacet
  facet normal -0.16411435 0.66030452 0.732846793
    outer loop
      vertex 0.463872609 0.868944362 0.584768013
      vertex 0.306933105 0.983599925 0.446316685
      vertex -0.0924468506 0.589402796 0.712055945
    endloop
  endfacet
  facet normal -0.16411435 0.66030452 0.732846793
    outer loop
      vertex 0.463872609 0.868944362 0.584768013
      vertex -0.0924468506 0.589402796 0.712055945
      vertex 0.374146475 0.634711337 0.775721675
    endloop
  endfacet
  facet normal -0.16411435 0.66030452 0.732846793
    outer loop
      vertex 0.463872609 0.868944362 0.584768013
      vertex 0.374146475 0.634711337 0.775721675
      vertex 0.46002664 0.731202053 0.70801436
    endloop
  endfacet
  facet normal -0.16283849 0.427266717 0.889340643
    outer loop
      vertex -0.662653139 0.0727316202 0.855875827
      vertex -0.0277654008 0.0993620395 0.959329851
      vertex 0.341676493 0.551401773 0.809800901
    endloop
  endfacet
  facet normal -0.16283849 0.427266717 0.889340643
    outer loop
      vertex -0.662653139 0.0727316202 0.855875827
      vertex 0.341676493 0.551401773 0.809800901
      vertex 0.374146475 0.634711337 0.775721675
    endloop
  endfacet
  facet normal -0.16283849 0.427266717 0.889340643
    outer loop
      vertex -0.662653139 0.0727316202 0.855875827
      vertex 0.374146475 0.634711337 0.775721675
      vertex -0.0924468506 0.589402796 0.712055945
    endloop
  endfacet
  facet normal -0.16283849 0.427266717 0.889340643
    outer loop
      vertex -0.662653139 0.0727316202 0.855875827
      vertex -0.0924468506 0.589402796 0.712055945
      vertex -0.166216532 0.546847815 0.718993426
    endloop
  endfacet
  facet normal -0.165206029 0.154512481 0.974080521
    outer loop
      vertex -0.80725637 -0.0915823346 0.857414952
      vertex -0.100783658 -0.235103213 1
      vertex -0.0279362874 -0.144195331 0.997934896
    endloop
  endfacet
  facet normal -0.165206029 0.154512481 0.974080521
    outer loop
      vertex -0.80725637 -0.0915823346 0.857414952
      vertex -0.0279362874 -0.144195331 0.997934896
      vertex -0.0277654008 0.0993620395 0.959329851
    endloop
  endfacet
  facet normal -0.165206029 0.154512481 0.974080521
    outer loop
      vertex -0.80725637 -0.0915823346 0.857414952
      vertex -0.0277654008 0.0993620395 0.959329851
      vertex -0.662653139 0.0727316202 0.855875827
    endloop
  endfacet
  facet normal -0.165206029 0.154512481 0.974080521
    outer loop
      vertex -0.80725637 -0.0915823346 0.857414952
      vertex -0.662653139 0.0727316202 0.855875827
      vertex -0.85155798 -0.0390199334 0.841563654
    endloop
  endfacet
  facet normal -0.151887237 -0.665140008 0.731108088
    outer loop
      vertex -0.561945236 -0.543922501 0.731978678
      vertex -0.0962701965 -0.582504818 0.793621345
      vertex 0.00669352707 -0.466481193 0.920566775
    endloop
  endfacet
  facet normal -0.151887237 -0.665140008 0.731108088
    outer loop
      vertex -0.561945236 -0.543922501 0.731978678
      vertex 0.00669352707 -0.466481193 0.920566775
      vertex -0.453522344 -0.407275117 0.878821118
    endloop
  endfacet
  facet normal -0.143431863 -0.799706044 0.583007327
    outer loop
      vertex -0.763600757 -0.62996068 0.564349433
      vertex -0.800749065 -0.673516741 0.495464712
      vertex -0.811647781 -0.745624788 0.393873427
    endloop
  endfacet
  facet normal -0.143431863 -0.799706044 0.583007327
    outer loop
      vertex -0.763600757 -0.62996068 0.564349433
      vertex -0.811647781 -0.745624788 0.393873427
      vertex -0.0639173797 -0.80969735 0.489942801
    endloop
  endfacet
  facet normal -0.143431863 -0.799706044 0.583007327
    outer loop
      vertex -0.763600757 -0.62996068 0.564349433
      vertex -0.0639173797 -0.80969735 0.489942801
      vertex -0.0962701965 -0.582504818 0.793621345
    endloop
  endfacet
  facet normal -0.143431863 -0.799706044 0.583007327
    outer loop
      vertex -0.763600757 -0.62996068 0.564349433
      vertex -0.0962701965 -0.582504818 0.793621345
      vertex -0.561945236 -0.543922501 0.731978678
    endloop
  endfacet
  facet normal -0.128799529 -0.909103245 0.396159023
    outer loop
      vertex -0.364670883 -0.889237178 0.209634088
      vertex 0.0209089491 -0.938823265 0.221204262
      vertex 0.00164337728 -0.846760462 0.426205767
    endloop
  endfacet
  facet normal -0.128799529 -0.909103245 0.396159023
    outer loop
      vertex -0.364670883 -0.889237178 0.209634088
      vertex 0.00164337728 -0.846760462 0.426205767
      vertex -0.0639173797 -0.80969735 0.489942801
    endloop
  endfacet
  facet normal -0.128799529 -0.909103245 0.396159023
    outer loop
      vertex -0.364670883 -0.889237178 0.209634088
      vertex -0.0639173797 -0.80969735 0.489942801
      vertex -0.811647781 -0.745624788 0.393873427
    endloop
  endfacet
  facet normal -0.128799529 -0.909103245 0.396159023
    outer loop
      vertex -0.364670883 -0.889237178 0.209634088
      vertex -0.811647781 -0.745624788 0.393873427
      vertex -0.818544793 -0.757508719 0.364359894
    endloop
  endfacet
  facet normal -0.128961833 -0.894368327 -0.428338817
    outer loop
      vertex -0.237262529 -0.463285162 -0.924448836
      vertex -0.175951968 -0.468355569 -0.932320899
      vertex -0.158913586 -0.472351551 -0.929107138
    endloop
  endfacet
  facet normal -0.128961833 -0.894368327 -0.428338817
    outer loop
      vertex -0.237262529 -0.463285162 -0.924448836
      vertex -0.158913586 -0.472351551 -0.929107138
      vertex 0.0291908114 -0.608073802 -0.702353477
    endloop
  endfacet
  facet normal -0.128961833 -0.894368327 -0.428338817
    outer loop
      vertex -0.237262529 -0.463285162 -0.924448836
      vertex 0.0291908114 -0.608073802 -0.702353477
      vertex -0.0136319071 -0.810550581 -0.266690617
    endloop
  endfacet
  facet normal -0.128961833 -0.894368327 -0.428338817
    outer loop
      vertex -0.237262529 -0.463285162 -0.924448836
      vertex -0.0136319071 -0.810550581 -0.266690617
      vertex -0.320357465 -0.781513745 -0.23497212
    endloop
  endfacet
  facet normal -0.128961833 -0.894368327 -0.428338817
    outer loop
      vertex -0.237262529 -0.463285162 -0.924448836
      vertex -0.320357465 -0.781513745 -0.23497212
      vertex -0.320624361 -0.78131933 -0.235297702
    endloop
  endfacet
  facet normal -0.140771207 0.145149353 -0.979344236
    outer loop
      vertex -0.112952028 0.0137681061 -1
      vertex -0.151335263 -0.0229319443 -0.999922126
      vertex -0.364990037 -0.0254424281 -0.969583411
    endloop
  endfacet
  facet normal -0.140771207 0.145149353 -0.979344236
    outer loop
      vertex -0.112952028 0.0137681061 -1
      vertex -0.364990037 -0.0254424281 -0.969583411
      vertex -0.385087282 -0.00312661707 -0.963387184
    endloop
  endfacet
  facet normal -0.140771207 0.145149353 -0.979344236
    outer loop
      vertex -0.112952028 0.0137681061 -1
      vertex -0.385087282 -0.00312661707 -0.963387184
      vertex -0.347502107 0.565595816 -0.884498904
    endloop
  endfacet
  facet normal -0.140771207 0.145149353 -0.979344236
    outer loop
      vertex -0.112952028 0.0137681061 -1
      vertex -0.347502107 0.565595816 -0.884498904
      vertex -0.122923477 0.513398268 -0.924516136
    endloop
  endfacet
  facet normal -0.137379489 -0.443314715 0.885775897
    outer loop
      vertex -0.453522344 -0.407275117 0.878821118
      vertex 0.00669352707 -0.466481193 0.920566775
      vertex 0.0323568032 -0.45399261 0.930797331
    endloop
  endfacet
  facet normal -0.137379489 -0.443314715 0.885775897
    outer loop
      vertex -0.453522344 -0.407275117 0.878821118
      vertex 0.0323568032 -0.45399261 0.930797331
      vertex -0.101960169 -0.293286427 0.990395948
    endloop
  endfacet
  facet normal -0.137379489 -0.443314715 0.885775897
    outer loop
      vertex -0.453522344 -0.407275117 0.878821118
      vertex -0.101960169 -0.293286427 0.990395948
      vertex -0.462805545 -0.377411917 0.892327327
    endloop
  endfacet
  facet normal -0.137553743 -0.141188656 -0.980379891
    outer loop
      vertex -0.175951968 -0.468355569 -0.932320899
      vertex -0.237262529 -0.463285162 -0.924448836
      vertex -0.332405748 -0.423874931 -0.916775251
    endloop
  endfacet
  facet normal -0.137553743 -0.141188656 -0.980379891
    outer loop
      vertex -0.175951968 -0.468355569 -0.932320899
      vertex -0.332405748 -0.423874931 -0.916775251
      vertex -0.364990037 -0.0254424281 -0.969583411
    endloop
  endfacet
  facet normal -0.137553743 -0.141188656 -0.980379891
    outer loop
      vertex -0.175951968 -0.468355569 -0.932320899
      vertex -0.364990037 -0.0254424281 -0.969583411
      vertex -0.151335263 -0.0229319443 -0.999922126
    endloop
  endfacet
  facet normal -0.116438952 -0.962551016 -0.244821387
    outer loop
      vertex -0.320357465 -0.781513745 -0.23497212
      vertex -0.0136319071 -0.810550581 -0.266690617
      vertex 0.274877121 -0.944173132 0.121448813
    endloop
  endfacet
  facet normal -0.116438952 -0.962551016 -0.244821387
    outer loop
      vertex -0.320357465 -0.781513745 -0.23497212
      vertex 0.274877121 -0.944173132 0.121448813
      vertex 0.0209089491 -0.938823265 0.221204262
    endloop
  endfacet
  facet normal -0.116438952 -0.962551016 -0.244821387
    outer loop
      vertex -0.320357465 -0.781513745 -0.23497212
      vertex 0.0209089491 -0.938823265 0.221204262
      vertex -0.364670883 -0.889237178 0.209634088
    endloop
  endfacet
  facet normal 0.120898211 0.957593716 -0.261529918
    outer loop
      vertex 0.367758962 0.811924035 -0.154157698
      vertex -0.483151525 0.896467974 -0.23795236
      vertex -0.501447164 0.944059164 -0.0721544456
    endloop
  endfacet
  facet normal 0.120898211 0.957593716 -0.261529918
    outer loop
      vertex 0.367758962 0.811924035 -0.154157698
      vertex -0.501447164 0.944059164 -0.0721544456
      vertex 0.306933105 0.983599925 0.446316685
    endloop
  endfacet
  facet normal 0.120898211 0.957593716 -0.261529918
    outer loop
      vertex 0.367758962 0.811924035 -0.154157698
      vertex 0.306933105 0.983599925 0.446316685
      vertex 0.411791791 0.978122429 0.474734127
    endloop
  endfacet
  facet normal 0.144489412 0.150635368 -0.97797331
    outer loop
      vertex 0.541774684 0.168407131 -0.879449487
      vertex 0.369595737 0.0188727219 -0.927920345
      vertex -0.112952028 0.0137681061 -1
    endloop
  endfacet
  facet normal 0.144489412 0.150635368 -0.97797331
    outer loop
      vertex 0.541774684 0.168407131 -0.879449487
      vertex -0.112952028 0.0137681061 -1
      vertex -0.122923477 0.513398268 -0.924516136
    endloop
  endfacet
  facet normal 0.144489412 0.150635368 -0.97797331
    outer loop
      vertex 0.541774684 0.168407131 -0.879449487
      vertex -0.122923477 0.513398268 -0.924516136
      vertex 0.539055074 0.459304944 -0.835044856
    endloop
  endfacet
  facet normal 0.129427048 -0.904020019 -0.407426613
    outer loop
      vertex 0.0291908114 -0.608073802 -0.702353477
      vertex 0.225790637 -0.590359873 -0.679204306
      vertex 0.35648064 -0.638283569 -0.531352398
    endloop
  endfacet
  facet normal 0.129427048 -0.904020019 -0.407426613
    outer loop
      vertex 0.0291908114 -0.608073802 -0.702353477
      vertex 0.35648064 -0.638283569 -0.531352398
      vertex 0.490709325 -0.911346937 0.117175619
    endloop
  endfacet
  facet normal 0.129427048 -0.904020019 -0.407426613
    outer loop
      vertex 0.0291908114 -0.608073802 -0.702353477
      vertex 0.490709325 -0.911346937 0.117175619
      vertex 0.274877121 -0.944173132 0.121448813
    endloop
  endfacet
  facet normal 0.129427048 -0.904020019 -0.407426613
    outer loop
      vertex 0.0291908114 -0.608073802 -0.702353477
      vertex 0.274877121 -0.944173132 0.121448813
      vertex -0.0136319071 -0.810550581 -0.266690617
    endloop
  endfacet
  facet normal 0.13108165 0.893405973 -0.429701488
    outer loop
      vertex 0.842281854 0.472717328 -0.714658559
      vertex 0.539055074 0.459304944 -0.835044856
      vertex -0.122923477 0.513398268 -0.924516136
    endloop
  endfacet
  facet normal 0.13108165 0.893405973 -0.429701488
    outer loop
      vertex 0.842281854 0.472717328 -0.714658559
      vertex -0.122923477 0.513398268 -0.924516136
      vertex -0.347502107 0.565595816 -0.884498904
    endloop
  endfacet
  facet normal 0.13108165 0.893405973 -0.429701488
    outer loop
      vertex 0.842281854 0.472717328 -0.714658559
      vertex -0.347502107 0.565595816 -0.884498904
      vertex -0.47315287 0.617948182 -0.813981561
    endloop
  endfacet
  facet normal 0.13108165 0.893405973 -0.429701488
    outer loop
      vertex 0.842281854 0.472717328 -0.714658559
      vertex -0.47315287 0.617948182 -0.813981561
      vertex -0.490392937 0.646442025 -0.759998241
    endloop
  endfacet
  facet normal 0.13108165 0.893405973 -0.429701488
    outer loop
      vertex 0.842281854 0.472717328 -0.714658559
      vertex -0.490392937 0.646442025 -0.759998241
      vertex -0.483151525 0.896467974 -0.23795236
    endloop
  endfacet
  facet normal 0.13108165 0.893405973 -0.429701488
    outer loop
      vertex 0.842281854 0.472717328 -0.714658559
      vertex -0.483151525 0.896467974 -0.23795236
      vertex 0.367758962 0.811924035 -0.154157698
    endloop
  endfacet
  facet normal 0.147534513 -0.156373223 -0.976617112
    outer loop
      vertex 0.363489269 -0.356622077 -0.868719645
      vertex 0.185577836 -0.446827617 -0.881152711
      vertex -0.158913586 -0.472351551 -0.929107138
    endloop
  endfacet
  facet normal 0.147534513 -0.156373223 -0.976617112
    outer loop
      vertex 0.363489269 -0.356622077 -0.868719645
      vertex -0.158913586 -0.472351551 -0.929107138
      vertex -0.175951968 -0.468355569 -0.932320899
    endloop
  endfacet
  facet normal 0.147534513 -0.156373223 -0.976617112
    outer loop
      vertex 0.363489269 -0.356622077 -0.868719645
      vertex -0.175951968 -0.468355569 -0.932320899
      vertex -0.151335263 -0.0229319443 -0.999922126
    endloop
  endfacet
  facet normal 0.147534513 -0.156373223 -0.976617112
    outer loop
      vertex 0.363489269 -0.356622077 -0.868719645
      vertex -0.151335263 -0.0229319443 -0.999922126
      vertex -0.112952028 0.0137681061 -1
    endloop
  endfacet
  facet normal 0.147534513 -0.156373223 -0.976617112
    outer loop
      vertex 0.363489269 -0.356622077 -0.868719645
      vertex -0.112952028 0.0137681061 -1
      vertex 0.369595737 0.0188727219 -0.927920345
    endloop
  endfacet
  facet normal 0.141201819 -0.793439523 -0.592043722
    outer loop
      vertex -0.158913586 -0.472351551 -0.929107138
      vertex 0.185577836 -0.446827617 -0.881152711
      vertex 0.225790637 -0.590359873 -0.679204306
    endloop
  endfacet
  facet normal 0.141201819 -0.793439523 -0.592043722
    outer loop
      vertex -0.158913586 -0.472351551 -0.929107138
      vertex 0.225790637 -0.590359873 -0.679204306
      vertex 0.0291908114 -0.608073802 -0.702353477
    endloop
  endfacet
  facet normal 0.141916763 -0.785300411 0.602629983
    outer loop
      vertex -0.0639173797 -0.80969735 0.489942801
      vertex 0.00164337728 -0.846760462 0.426205767
      vertex 0.370229079 -0.798283516 0.4025768
    endloop
  endfacet
  facet normal 0.141916763 -0.785300411 0.602629983
    outer loop
      vertex -0.0639173797 -0.80969735 0.489942801
      vertex 0.370229079 -0.798283516 0.4025768
      vertex 0.309589937 -0.470903671 0.843472947
    endloop
  endfacet
  facet normal 0.141916763 -0.785300411 0.602629983
    outer loop
      vertex -0.0639173797 -0.80969735 0.489942801
      vertex 0.309589937 -0.470903671 0.843472947
      vertex 0.268382371 -0.45501491 0.873882147
    endloop
  endfacet
  facet normal 0.141916763 -0.785300411 0.602629983
    outer loop
      vertex -0.0639173797 -0.80969735 0.489942801
      vertex 0.268382371 -0.45501491 0.873882147
      vertex 0.0323568032 -0.45399261 0.930797331
    endloop
  endfacet
  facet normal 0.141916763 -0.785300411 0.602629983
    outer loop
      vertex -0.0639173797 -0.80969735 0.489942801
      vertex 0.0323568032 -0.45399261 0.930797331
      vertex 0.00669352707 -0.466481193 0.920566775
    endloop
  endfacet
  facet normal 0.141916763 -0.785300411 0.602629983
    outer loop
      vertex -0.0639173797 -0.80969735 0.489942801
      vertex 0.00669352707 -0.466481193 0.920566775
      vertex -0.0962701965 -0.582504818 0.793621345
    endloop
  endfacet
  facet normal 0.144746723 -0.897472513 0.416643102
    outer loop
      vertex 0.0209089491 -0.938823265 0.221204262
      vertex 0.274877121 -0.944173132 0.121448813
      vertex 0.490709325 -0.911346937 0.117175619
    endloop
  endfacet
  facet normal 0.144746723 -0.897472513 0.416643102
    outer loop
      vertex 0.0209089491 -0.938823265 0.221204262
      vertex 0.490709325 -0.911346937 0.117175619
      vertex 0.566337552 -0.888008357 0.141174088
    endloop
  endfacet
  facet normal 0.144746723 -0.897472513 0.416643102
    outer loop
      vertex 0.0209089491 -0.938823265 0.221204262
      vertex 0.566337552 -0.888008357 0.141174088
      vertex 0.564599221 -0.873104844 0.173881003
    endloop
  endfacet
  facet normal 0.144746723 -0.897472513 0.416643102
    outer loop
      vertex 0.0209089491 -0.938823265 0.221204262
      vertex 0.564599221 -0.873104844 0.173881003
      vertex 0.370229079 -0.798283516 0.4025768
    endloop
  endfacet
  facet normal 0.144746723 -0.897472513 0.416643102
    outer loop
      vertex 0.0209089491 -0.938823265 0.221204262
      vertex 0.370229079 -0.798283516 0.4025768
      vertex 0.00164337728 -0.846760462 0.426205767
    endloop
  endfacet
  facet normal 0.204002426 0.153118733 0.966921747
    outer loop
      vertex -0.0279362874 -0.144195331 0.997934896
      vertex 0.287099036 -0.11596014 0.92699709
      vertex 0.375346128 -0.00241344134 0.890397699
    endloop
  endfacet
  facet normal 0.204002426 0.153118733 0.966921747
    outer loop
      vertex -0.0279362874 -0.144195331 0.997934896
      vertex 0.375346128 -0.00241344134 0.890397699
      vertex 0.341676493 0.551401773 0.809800901
    endloop
  endfacet
  facet normal 0.204002426 0.153118733 0.966921747
    outer loop
      vertex -0.0279362874 -0.144195331 0.997934896
      vertex 0.341676493 0.551401773 0.809800901
      vertex -0.0277654008 0.0993620395 0.959329851
    endloop
  endfacet
  facet normal 0.230617812 -0.163009642 0.959293116
    outer loop
      vertex -0.101960169 -0.293286427 0.990395948
      vertex 0.0323568032 -0.45399261 0.930797331
      vertex 0.268382371 -0.45501491 0.873882147
    endloop
  endfacet
  facet normal 0.230617812 -0.163009642 0.959293116
    outer loop
      vertex -0.101960169 -0.293286427 0.990395948
      vertex 0.268382371 -0.45501491 0.873882147
      vertex 0.287099036 -0.11596014 0.92699709
    endloop
  endfacet
  facet normal 0.230617812 -0.163009642 0.959293116
    outer loop
      vertex -0.101960169 -0.293286427 0.990395948
      vertex 0.287099036 -0.11596014 0.92699709
      vertex -0.0279362874 -0.144195331 0.997934896
    endloop
  endfacet
  facet normal 0.230617812 -0.163009642 0.959293116
    outer loop
      vertex -0.101960169 -0.293286427 0.990395948
      vertex -0.0279362874 -0.144195331 0.997934896
      vertex -0.100783658 -0.235103213 1
    endloop
  endfacet
  facet normal 0.359637085 0.144087406 -0.921900204
    outer loop
      vertex 0.795152163 0.195517399 -0.776368713
      vertex 0.541774684 0.168407131 -0.879449487
      vertex 0.539055074 0.459304944 -0.835044856
    endloop
  endfacet
  facet normal 0.359637085 0.144087406 -0.921900204
    outer loop
      vertex 0.795152163 0.195517399 -0.776368713
      vertex 0.539055074 0.459304944 -0.835044856
      vertex 0.842281854 0.472717328 -0.714658559
    endloop
  endfacet
  facet normal 0.359637085 0.144087406 -0.921900204
    outer loop
      vertex 0.795152163 0.195517399 -0.776368713
      vertex 0.842281854 0.472717328 -0.714658559
      vertex 0.877776483 0.463099483 -0.702315169
    endloop
  endfacet
  facet normal 0.359637085 0.144087406 -0.921900204
    outer loop
      vertex 0.795152163 0.195517399 -0.776368713
      vertex 0.877776483 0.463099483 -0.702315169
      vertex 0.884094042 0.394155148 -0.710626244
    endloop
  endfacet
  facet normal 0.336364336 0.904391118 -0.262556163
    outer loop
      vertex 0.940525116 0.500118793 -0.494411697
      vertex 0.877776483 0.463099483 -0.702315169
      vertex 0.842281854 0.472717328 -0.714658559
    endloop
  endfacet
  facet normal 0.336364336 0.904391118 -0.262556163
    outer loop
      vertex 0.940525116 0.500118793 -0.494411697
      vertex 0.842281854 0.472717328 -0.714658559
      vertex 0.367758962 0.811924035 -0.154157698
    endloop
  endfacet
  facet normal 0.336364336 0.904391118 -0.262556163
    outer loop
      vertex 0.940525116 0.500118793 -0.494411697
      vertex 0.367758962 0.811924035 -0.154157698
      vertex 0.411791791 0.978122429 0.474734127
    endloop
  endfacet
  facet normal 0.336364336 0.904391118 -0.262556163
    outer loop
      vertex 0.940525116 0.500118793 -0.494411697
      vertex 0.411791791 0.978122429 0.474734127
      vertex 0.43064542 0.973535799 0.483088838
    endloop
  endfacet
  facet normal 0.336364336 0.904391118 -0.262556163
    outer loop
      vertex 0.940525116 0.500118793 -0.494411697
      vertex 0.43064542 0.973535799 0.483088838
      vertex 0.829641536 0.641194141 -0.150523329
    endloop
  endfacet
  facet normal 0.386292585 -0.149774408 -0.910134971
    outer loop
      vertex 0.778104582 -0.137010531 -0.728882548
      vertex 0.540987892 -0.312444418 -0.800653126
      vertex 0.363489269 -0.356622077 -0.868719645
    endloop
  endfacet
  facet normal 0.386292585 -0.149774408 -0.910134971
    outer loop
      vertex 0.778104582 -0.137010531 -0.728882548
      vertex 0.363489269 -0.356622077 -0.868719645
      vertex 0.369595737 0.0188727219 -0.927920345
    endloop
  endfacet
  facet normal 0.386292585 -0.149774408 -0.910134971
    outer loop
      vertex 0.778104582 -0.137010531 -0.728882548
      vertex 0.369595737 0.0188727219 -0.927920345
      vertex 0.541774684 0.168407131 -0.879449487
    endloop
  endfacet
  facet normal 0.386292585 -0.149774408 -0.910134971
    outer loop
      vertex 0.778104582 -0.137010531 -0.728882548
      vertex 0.541774684 0.168407131 -0.879449487
      vertex 0.795152163 0.195517399 -0.776368713
    endloop
  endfacet
  facet normal 0.387295357 -0.818306027 -0.424708785
    outer loop
      vertex 0.35648064 -0.638283569 -0.531352398
      vertex 0.631928093 -0.550813568 -0.448702141
      vertex 0.781376116 -0.705683233 -0.0140247518
    endloop
  endfacet
  facet normal 0.387295357 -0.818306027 -0.424708785
    outer loop
      vertex 0.35648064 -0.638283569 -0.531352398
      vertex 0.781376116 -0.705683233 -0.0140247518
      vertex 0.781171976 -0.732754901 0.0379493251
    endloop
  endfacet
  facet normal 0.387295357 -0.818306027 -0.424708785
    outer loop
      vertex 0.35648064 -0.638283569 -0.531352398
      vertex 0.781171976 -0.732754901 0.0379493251
      vertex 0.566337552 -0.888008357 0.141174088
    endloop
  endfacet
  facet normal 0.387295357 -0.818306027 -0.424708785
    outer loop
      vertex 0.35648064 -0.638283569 -0.531352398
      vertex 0.566337552 -0.888008357 0.141174088
      vertex 0.490709325 -0.911346937 0.117175619
    endloop
  endfacet
  facet normal 0.399567034 -0.707762325 -0.582596495
    outer loop
      vertex 0.185577836 -0.446827617 -0.881152711
      vertex 0.363489269 -0.356622077 -0.868719645
      vertex 0.540987892 -0.312444418 -0.800653126
    endloop
  endfacet
  facet normal 0.399567034 -0.707762325 -0.582596495
    outer loop
      vertex 0.185577836 -0.446827617 -0.881152711
      vertex 0.540987892 -0.312444418 -0.800653126
      vertex 0.728189398 -0.330496304 -0.65033297
    endloop
  endfacet
  facet normal 0.399567034 -0.707762325 -0.582596495
    outer loop
      vertex 0.185577836 -0.446827617 -0.881152711
      vertex 0.728189398 -0.330496304 -0.65033297
      vertex 0.631928093 -0.550813568 -0.448702141
    endloop
  endfacet
  facet normal 0.399567034 -0.707762325 -0.582596495
    outer loop
      vertex 0.185577836 -0.446827617 -0.881152711
      vertex 0.631928093 -0.550813568 -0.448702141
      vertex 0.35648064 -0.638283569 -0.531352398
    endloop
  endfacet
  facet normal 0.399567034 -0.707762325 -0.582596495
    outer loop
      vertex 0.185577836 -0.446827617 -0.881152711
      vertex 0.35648064 -0.638283569 -0.531352398
      vertex 0.225790637 -0.590359873 -0.679204306
    endloop
  endfacet
  facet normal 0.410571299 -0.704145164 0.579319252
    outer loop
      vertex 0.370229079 -0.798283516 0.4025768
      vertex 0.564599221 -0.873104844 0.173881003
      vertex 0.626449273 -0.775275194 0.248956047
    endloop
  endfacet
  facet normal 0.410571299 -0.704145164 0.579319252
    outer loop
      vertex 0.370229079 -0.798283516 0.4025768
      vertex 0.626449273 -0.775275194 0.248956047
      vertex 0.63342714 -0.525047429 0.548155079
    endloop
  endfacet
  facet normal 0.410571299 -0.704145164 0.579319252
    outer loop
      vertex 0.370229079 -0.798283516 0.4025768
      vertex 0.63342714 -0.525047429 0.548155079
      vertex 0.329150865 -0.470037071 0.830663182
    endloop
  endfacet
  facet normal 0.410571299 -0.704145164 0.579319252
    outer loop
      vertex 0.370229079 -0.798283516 0.4025768
      vertex 0.329150865 -0.470037071 0.830663182
      vertex 0.309589937 -0.470903671 0.843472947
    endloop
  endfacet
  facet normal 0.498839912 0.154438834 0.852823187
    outer loop
      vertex 0.598057925 0.0442859718 0.751670542
      vertex 0.540804406 0.590396764 0.686263815
      vertex 0.46002664 0.731202053 0.70801436
    endloop
  endfacet
  facet normal 0.498839912 0.154438834 0.852823187
    outer loop
      vertex 0.598057925 0.0442859718 0.751670542
      vertex 0.46002664 0.731202053 0.70801436
      vertex 0.374146475 0.634711337 0.775721675
    endloop
  endfacet
  facet normal 0.498839912 0.154438834 0.852823187
    outer loop
      vertex 0.598057925 0.0442859718 0.751670542
      vertex 0.374146475 0.634711337 0.775721675
      vertex 0.341676493 0.551401773 0.809800901
    endloop
  endfacet
  facet normal 0.498839912 0.154438834 0.852823187
    outer loop
      vertex 0.598057925 0.0442859718 0.751670542
      vertex 0.341676493 0.551401773 0.809800901
      vertex 0.375346128 -0.00241344134 0.890397699
    endloop
  endfacet
  facet normal 0.545796642 -0.159008925 0.822692037
    outer loop
      vertex 1.00800976 -0.219646337 0.428684639
      vertex 0.598057925 0.0442859718 0.751670542
      vertex 0.375346128 -0.00241344134 0.890397699
    endloop
  endfacet
  facet normal 0.545796642 -0.159008925 0.822692037
    outer loop
      vertex 1.00800976 -0.219646337 0.428684639
      vertex 0.375346128 -0.00241344134 0.890397699
      vertex 0.287099036 -0.11596014 0.92699709
    endloop
  endfacet
  facet normal 0.545796642 -0.159008925 0.822692037
    outer loop
      vertex 1.00800976 -0.219646337 0.428684639
      vertex 0.287099036 -0.11596014 0.92699709
      vertex 0.268382371 -0.45501491 0.873882147
    endloop
  endfacet
  facet normal 0.545796642 -0.159008925 0.822692037
    outer loop
      vertex 1.00800976 -0.219646337 0.428684639
      vertex 0.268382371 -0.45501491 0.873882147
      vertex 0.309589937 -0.470903671 0.843472947
    endloop
  endfacet
  facet normal 0.545796642 -0.159008925 0.822692037
    outer loop
      vertex 1.00800976 -0.219646337 0.428684639
      vertex 0.309589937 -0.470903671 0.843472947
      vertex 0.329150865 -0.470037071 0.830663182
    endloop
  endfacet
  facet normal 0.538804317 -0.432492038 -0.722938826
    outer loop
      vertex 0.540987892 -0.312444418 -0.800653126
      vertex 0.778104582 -0.137010531 -0.728882548
      vertex 0.838508294 -0.205907741 -0.642646655
    endloop
  endfacet
  facet normal 0.538804317 -0.432492038 -0.722938826
    outer loop
      vertex 0.540987892 -0.312444418 -0.800653126
      vertex 0.838508294 -0.205907741 -0.642646655
      vertex 0.82300462 -0.267322302 -0.617460759
    endloop
  endfacet
  facet normal 0.538804317 -0.432492038 -0.722938826
    outer loop
      vertex 0.540987892 -0.312444418 -0.800653126
      vertex 0.82300462 -0.267322302 -0.617460759
      vertex 0.728189398 -0.330496304 -0.65033297
    endloop
  endfacet
  facet normal 0.572138526 -0.428073682 0.699578751
    outer loop
      vertex 1.07558175 -0.22859273 0.367947728
      vertex 1.00800976 -0.219646337 0.428684639
      vertex 0.329150865 -0.470037071 0.830663182
    endloop
  endfacet
  facet normal 0.572138526 -0.428073682 0.699578751
    outer loop
      vertex 1.07558175 -0.22859273 0.367947728
      vertex 0.329150865 -0.470037071 0.830663182
      vertex 0.63342714 -0.525047429 0.548155079
    endloop
  endfacet
  facet normal 0.598364316 -0.667300056 -0.443475794
    outer loop
      vertex 0.631928093 -0.550813568 -0.448702141
      vertex 0.728189398 -0.330496304 -0.65033297
      vertex 0.82300462 -0.267322302 -0.617460759
    endloop
  endfacet
  facet normal 0.598364316 -0.667300056 -0.443475794
    outer loop
      vertex 0.631928093 -0.550813568 -0.448702141
      vertex 0.82300462 -0.267322302 -0.617460759
      vertex 0.891547942 -0.393789478 -0.334682231
    endloop
  endfacet
  facet normal 0.598364316 -0.667300056 -0.443475794
    outer loop
      vertex 0.631928093 -0.550813568 -0.448702141
      vertex 0.891547942 -0.393789478 -0.334682231
      vertex 0.781376116 -0.705683233 -0.0140247518
    endloop
  endfacet
  facet normal 0.613728026 -0.612617254 0.498034146
    outer loop
      vertex 0.626449273 -0.775275194 0.248956047
      vertex 1.06723367 -0.37530688 0.197766292
      vertex 1.17363179 -0.239983331 0.233109307
    endloop
  endfacet
  facet normal 0.613728026 -0.612617254 0.498034146
    outer loop
      vertex 0.626449273 -0.775275194 0.248956047
      vertex 1.17363179 -0.239983331 0.233109307
      vertex 1.18156119 -0.216879861 0.251756809
    endloop
  endfacet
  facet normal 0.613728026 -0.612617254 0.498034146
    outer loop
      vertex 0.626449273 -0.775275194 0.248956047
      vertex 1.18156119 -0.216879861 0.251756809
      vertex 1.15836152 -0.211161302 0.287380019
    endloop
  endfacet
  facet normal 0.613728026 -0.612617254 0.498034146
    outer loop
      vertex 0.626449273 -0.775275194 0.248956047
      vertex 1.15836152 -0.211161302 0.287380019
      vertex 1.07558175 -0.22859273 0.367947728
    endloop
  endfacet
  facet normal 0.613728026 -0.612617254 0.498034146
    outer loop
      vertex 0.626449273 -0.775275194 0.248956047
      vertex 1.07558175 -0.22859273 0.367947728
      vertex 0.63342714 -0.525047429 0.548155079
    endloop
  endfacet
  facet normal 0.671612929 0.157129032 0.724048714
    outer loop
      vertex 1.00800976 -0.219646337 0.428684639
      vertex 1.07558175 -0.22859273 0.367947728
      vertex 1.15836152 -0.211161302 0.287380019
    endloop
  endfacet
  facet normal 0.671612929 0.157129032 0.724048714
    outer loop
      vertex 1.00800976 -0.219646337 0.428684639
      vertex 1.15836152 -0.211161302 0.287380019
      vertex 0.540804406 0.590396764 0.686263815
    endloop
  endfacet
  facet normal 0.671612929 0.157129032 0.724048714
    outer loop
      vertex 1.00800976 -0.219646337 0.428684639
      vertex 0.540804406 0.590396764 0.686263815
      vertex 0.598057925 0.0442859718 0.751670542
    endloop
  endfacet
  facet normal 0.652837973 -0.675617225 0.342555026
    outer loop
      vertex 0.781171976 -0.732754901 0.0379493251
      vertex 0.802020219 -0.708848227 0.0453677995
      vertex 1.06723367 -0.37530688 0.197766292
    endloop
  endfacet
  facet normal 0.652837973 -0.675617225 0.342555026
    outer loop
      vertex 0.781171976 -0.732754901 0.0379493251
      vertex 1.06723367 -0.37530688 0.197766292
      vertex 0.626449273 -0.775275194 0.248956047
    endloop
  endfacet
  facet normal 0.652837973 -0.675617225 0.342555026
    outer loop
      vertex 0.781171976 -0.732754901 0.0379493251
      vertex 0.626449273 -0.775275194 0.248956047
      vertex 0.564599221 -0.873104844 0.173881003
    endloop
  endfacet
  facet normal 0.652837973 -0.675617225 0.342555026
    outer loop
      vertex 0.781171976 -0.732754901 0.0379493251
      vertex 0.564599221 -0.873104844 0.173881003
      vertex 0.566337552 -0.888008357 0.141174088
    endloop
  endfacet
  facet normal 0.760385622 -0.129856514 -0.636357597
    outer loop
      vertex 0.778104582 -0.137010531 -0.728882548
      vertex 0.795152163 0.195517399 -0.776368713
      vertex 0.884094042 0.394155148 -0.710626244
    endloop
  endfacet
  facet normal 0.760385622 -0.129856514 -0.636357597
    outer loop
      vertex 0.778104582 -0.137010531 -0.728882548
      vertex 0.884094042 0.394155148 -0.710626244
      vertex 0.899316846 0.346940761 -0.682801799
    endloop
  endfacet
  facet normal 0.760385622 -0.129856514 -0.636357597
    outer loop
      vertex 0.778104582 -0.137010531 -0.728882548
      vertex 0.899316846 0.346940761 -0.682801799
      vertex 0.838782783 -0.205522504 -0.64239728
    endloop
  endfacet
  facet normal 0.760385622 -0.129856514 -0.636357597
    outer loop
      vertex 0.778104582 -0.137010531 -0.728882548
      vertex 0.838782783 -0.205522504 -0.64239728
      vertex 0.838508294 -0.205907741 -0.642646655
    endloop
  endfacet
  facet normal 0.763505627 -0.573985669 -0.295972313
    outer loop
      vertex 0.891547942 -0.393789478 -0.334682231
      vertex 1.09346654 -0.333941642 0.0701332742
      vertex 0.802020219 -0.708848227 0.0453677995
    endloop
  endfacet
  facet normal 0.763505627 -0.573985669 -0.295972313
    outer loop
      vertex 0.891547942 -0.393789478 -0.334682231
      vertex 0.802020219 -0.708848227 0.0453677995
      vertex 0.781171976 -0.732754901 0.0379493251
    endloop
  endfacet
  facet normal 0.763505627 -0.573985669 -0.295972313
    outer loop
      vertex 0.891547942 -0.393789478 -0.334682231
      vertex 0.781171976 -0.732754901 0.0379493251
      vertex 0.781376116 -0.705683233 -0.0140247518
    endloop
  endfacet
  facet normal 0.799591807 0.387892571 0.458467334
    outer loop
      vertex 1.15836152 -0.211161302 0.287380019
      vertex 1.18156119 -0.216879861 0.251756809
      vertex 1.17043403 -0.0532357928 0.132709867
    endloop
  endfacet
  facet normal 0.799591807 0.387892571 0.458467334
    outer loop
      vertex 1.15836152 -0.211161302 0.287380019
      vertex 1.17043403 -0.0532357928 0.132709867
      vertex 0.463872609 0.868944362 0.584768013
    endloop
  endfacet
  facet normal 0.799591807 0.387892571 0.458467334
    outer loop
      vertex 1.15836152 -0.211161302 0.287380019
      vertex 0.463872609 0.868944362 0.584768013
      vertex 0.46002664 0.731202053 0.70801436
    endloop
  endfacet
  facet normal 0.799591807 0.387892571 0.458467334
    outer loop
      vertex 1.15836152 -0.211161302 0.287380019
      vertex 0.46002664 0.731202053 0.70801436
      vertex 0.540804406 0.590396764 0.686263815
    endloop
  endfacet
  facet normal 0.790141736 -0.611871671 -0.0359039828
    outer loop
      vertex 0.802020219 -0.708848227 0.0453677995
      vertex 1.09346654 -0.333941642 0.0701332742
      vertex 1.13780531 -0.279500903 0.118127225
    endloop
  endfacet
  facet normal 0.790141736 -0.611871671 -0.0359039828
    outer loop
      vertex 0.802020219 -0.708848227 0.0453677995
      vertex 1.13780531 -0.279500903 0.118127225
      vertex 1.17363179 -0.239983331 0.233109307
    endloop
  endfacet
  facet normal 0.790141736 -0.611871671 -0.0359039828
    outer loop
      vertex 0.802020219 -0.708848227 0.0453677995
      vertex 1.17363179 -0.239983331 0.233109307
      vertex 1.06723367 -0.37530688 0.197766292
    endloop
  endfacet
  facet normal 0.823855321 0.507364509 0.252673039
    outer loop
      vertex 1.17043403 -0.0532357928 0.132709867
      vertex 1.14749027 0.0513312888 -0.00245012115
      vertex 0.829641536 0.641194141 -0.150523329
    endloop
  endfacet
  facet normal 0.823855321 0.507364509 0.252673039
    outer loop
      vertex 1.17043403 -0.0532357928 0.132709867
      vertex 0.829641536 0.641194141 -0.150523329
      vertex 0.43064542 0.973535799 0.483088838
    endloop
  endfacet
  facet normal 0.823855321 0.507364509 0.252673039
    outer loop
      vertex 1.17043403 -0.0532357928 0.132709867
      vertex 0.43064542 0.973535799 0.483088838
      vertex 0.463872609 0.868944362 0.584768013
    endloop
  endfacet
  facet normal 0.852816586 -0.367455201 -0.371053293
    outer loop
      vertex 0.891547942 -0.393789478 -0.334682231
      vertex 0.82300462 -0.267322302 -0.617460759
      vertex 0.838508294 -0.205907741 -0.642646655
    endloop
  endfacet
  facet normal 0.852816586 -0.367455201 -0.371053293
    outer loop
      vertex 0.891547942 -0.393789478 -0.334682231
      vertex 0.838508294 -0.205907741 -0.642646655
      vertex 0.838782783 -0.205522504 -0.64239728
    endloop
  endfacet
  facet normal 0.852816586 -0.367455201 -0.371053293
    outer loop
      vertex 0.891547942 -0.393789478 -0.334682231
      vertex 0.838782783 -0.205522504 -0.64239728
      vertex 1.08715087 -0.138930158 -0.137502897
    endloop
  endfacet
  facet normal 0.852816586 -0.367455201 -0.371053293
    outer loop
      vertex 0.891547942 -0.393789478 -0.334682231
      vertex 1.08715087 -0.138930158 -0.137502897
      vertex 1.13780531 -0.279500903 0.118127225
    endloop
  endfacet
  facet normal 0.852816586 -0.367455201 -0.371053293
    outer loop
      vertex 0.891547942 -0.393789478 -0.334682231
      vertex 1.13780531 -0.279500903 0.118127225
      vertex 1.09346654 -0.333941642 0.0701332742
    endloop
  endfacet
  facet normal 0.869003583 0.488315859 0.0798773688
    outer loop
      vertex 0.940525116 0.500118793 -0.494411697
      vertex 0.829641536 0.641194141 -0.150523329
      vertex 1.14749027 0.0513312888 -0.00245012115
    endloop
  endfacet
  facet normal 0.869003583 0.488315859 0.0798773688
    outer loop
      vertex 0.940525116 0.500118793 -0.494411697
      vertex 1.14749027 0.0513312888 -0.00245012115
      vertex 1.13520215 0.083167525 -0.0633900212
    endloop
  endfacet
  facet normal 0.896429252 -0.129226898 -0.423928066
    outer loop
      vertex 0.838782783 -0.205522504 -0.64239728
      vertex 0.899316846 0.346940761 -0.682801799
      vertex 1.10823364 0.0629726259 -0.154468193
    endloop
  endfacet
  facet normal 0.896429252 -0.129226898 -0.423928066
    outer loop
      vertex 0.838782783 -0.205522504 -0.64239728
      vertex 1.10823364 0.0629726259 -0.154468193
      vertex 1.08715087 -0.138930158 -0.137502897
    endloop
  endfacet
  facet normal 0.943727243 0.123462237 -0.306815853
    outer loop
      vertex 0.899316846 0.346940761 -0.682801799
      vertex 0.884094042 0.394155148 -0.710626244
      vertex 0.877776483 0.463099483 -0.702315169
    endloop
  endfacet
  facet normal 0.943727243 0.123462237 -0.306815853
    outer loop
      vertex 0.899316846 0.346940761 -0.682801799
      vertex 0.877776483 0.463099483 -0.702315169
      vertex 0.940525116 0.500118793 -0.494411697
    endloop
  endfacet
  facet normal 0.943727243 0.123462237 -0.306815853
    outer loop
      vertex 0.899316846 0.346940761 -0.682801799
      vertex 0.940525116 0.500118793 -0.494411697
      vertex 1.13520215 0.083167525 -0.0633900212
    endloop
  endfacet
  facet normal 0.943727243 0.123462237 -0.306815853
    outer loop
      vertex 0.899316846 0.346940761 -0.682801799
      vertex 1.13520215 0.083167525 -0.0633900212
      vertex 1.10823364 0.0629726259 -0.154468193
    endloop
  endfacet
  facet normal 0.95874421 -0.121699175 -0.256902415
    outer loop
      vertex 1.08715087 -0.138930158 -0.137502897
      vertex 1.10823364 0.0629726259 -0.154468193
      vertex 1.13520215 0.083167525 -0.0633900212
    endloop
  endfacet
  facet normal 0.95874421 -0.121699175 -0.256902415
    outer loop
      vertex 1.08715087 -0.138930158 -0.137502897
      vertex 1.13520215 0.083167525 -0.0633900212
      vertex 1.14749027 0.0513312888 -0.00245012115
    endloop
  endfacet
  facet normal 0.95874421 -0.121699175 -0.256902415
    outer loop
      vertex 1.08715087 -0.138930158 -0.137502897
      vertex 1.14749027 0.0513312888 -0.00245012115
      vertex 1.17043403 -0.0532357928 0.132709867
    endloop
  endfacet
  facet normal 0.95874421 -0.121699175 -0.256902415
    outer loop
      vertex 1.08715087 -0.138930158 -0.137502897
      vertex 1.17043403 -0.0532357928 0.132709867
      vertex 1.18156119 -0.216879861 0.251756809
    endloop
  endfacet
  facet normal 0.95874421 -0.121699175 -0.256902415
    outer loop
      vertex 1.08715087 -0.138930158 -0.137502897
      vertex 1.18156119 -0.216879861 0.251756809
      vertex 1.17363179 -0.239983331 0.233109307
    endloop
  endfacet
  facet normal 0.95874421 -0.121699175 -0.256902415
    outer loop
      vertex 1.08715087 -0.138930158 -0.137502897
      vertex 1.17363179 -0.239983331 0.233109307
      vertex 1.13780531 -0.279500903 0.118127225
    endloop
  endfacet
endsolid bhs_submission_model07
